G75*
%MOIN*%
%OFA0B0*%
%FSLAX25Y25*%
%IPPOS*%
%LPD*%
%AMOC8*
5,1,8,0,0,1.08239X$1,22.5*
%
%ADD10C,0.07000*%
%ADD11OC8,0.07000*%
%ADD12C,0.20000*%
%ADD13R,0.06600X0.06600*%
%ADD14C,0.06600*%
%ADD15C,0.05543*%
%ADD16C,0.12661*%
%ADD17OC8,0.06300*%
%ADD18C,0.06300*%
%ADD19C,0.05200*%
%ADD20OC8,0.05600*%
%ADD21OC8,0.06000*%
%ADD22C,0.06000*%
%ADD23OC8,0.06600*%
%ADD24C,0.06000*%
%ADD25C,0.06600*%
%ADD26C,0.02400*%
%ADD27C,0.01000*%
%ADD28C,0.04000*%
%ADD29C,0.16598*%
D10*
X0351885Y0106905D03*
X0361885Y0111405D03*
X0351885Y0115905D03*
X0361885Y0120405D03*
X0351885Y0124905D03*
X0361885Y0129405D03*
X0351885Y0133905D03*
X0361885Y0138405D03*
X0371885Y0142905D03*
X0361885Y0147405D03*
X0371885Y0133905D03*
X0371885Y0124905D03*
X0371885Y0115905D03*
X0371885Y0106905D03*
D11*
X0351885Y0142905D03*
D12*
X0361885Y0175074D03*
X0361885Y0076649D03*
D13*
X0103145Y0060035D03*
X0102948Y0130546D03*
D14*
X0112948Y0130546D03*
X0122948Y0130546D03*
X0132948Y0130546D03*
X0142948Y0130546D03*
X0152948Y0130546D03*
X0162948Y0130546D03*
X0172948Y0130546D03*
X0182948Y0130546D03*
X0192948Y0130546D03*
X0202948Y0130546D03*
X0212948Y0130546D03*
X0222948Y0130546D03*
X0232948Y0130546D03*
X0232948Y0160546D03*
X0222948Y0160546D03*
X0212948Y0160546D03*
X0202948Y0160546D03*
X0192948Y0160546D03*
X0182948Y0160546D03*
X0172948Y0160546D03*
X0162948Y0160546D03*
X0152948Y0160546D03*
X0142948Y0160546D03*
X0132948Y0160546D03*
X0122948Y0160546D03*
X0112948Y0160546D03*
X0102948Y0160546D03*
X0103145Y0090035D03*
X0113145Y0090035D03*
X0123145Y0090035D03*
X0133145Y0090035D03*
X0143145Y0090035D03*
X0153145Y0090035D03*
X0163145Y0090035D03*
X0173145Y0090035D03*
X0183145Y0090035D03*
X0193145Y0090035D03*
X0203145Y0090035D03*
X0213145Y0090035D03*
X0223145Y0090035D03*
X0233145Y0090035D03*
X0233145Y0060035D03*
X0223145Y0060035D03*
X0213145Y0060035D03*
X0203145Y0060035D03*
X0193145Y0060035D03*
X0183145Y0060035D03*
X0173145Y0060035D03*
X0163145Y0060035D03*
X0153145Y0060035D03*
X0143145Y0060035D03*
X0133145Y0060035D03*
X0123145Y0060035D03*
X0113145Y0060035D03*
D15*
X0362830Y0209011D03*
X0372672Y0209011D03*
X0372672Y0217279D03*
X0372672Y0227515D03*
X0372672Y0235783D03*
X0362830Y0235783D03*
D16*
X0384483Y0250035D03*
X0387633Y0222397D03*
X0384483Y0194720D03*
D17*
X0202712Y0227279D03*
X0202712Y0237279D03*
X0116885Y0237279D03*
X0116885Y0227279D03*
X0084995Y0209602D03*
X0084995Y0199602D03*
X0163106Y0112594D03*
X0173106Y0112594D03*
X0261767Y0066964D03*
X0271767Y0066964D03*
X0298854Y0070035D03*
X0298854Y0080035D03*
X0321688Y0070035D03*
X0172909Y0042200D03*
X0162909Y0042200D03*
D18*
X0321688Y0080035D03*
D19*
X0173302Y0177080D02*
X0173302Y0182280D01*
X0163302Y0182280D02*
X0163302Y0177080D01*
X0153302Y0177080D02*
X0153302Y0182280D01*
X0143302Y0182280D02*
X0143302Y0177080D01*
X0133302Y0177080D02*
X0133302Y0182280D01*
X0123302Y0182280D02*
X0123302Y0177080D01*
X0113302Y0177080D02*
X0113302Y0182280D01*
X0103302Y0182280D02*
X0103302Y0177080D01*
X0103302Y0207080D02*
X0103302Y0212280D01*
X0113302Y0212280D02*
X0113302Y0207080D01*
X0123302Y0207080D02*
X0123302Y0212280D01*
X0133302Y0212280D02*
X0133302Y0207080D01*
X0143302Y0207080D02*
X0143302Y0212280D01*
X0153302Y0212280D02*
X0153302Y0207080D01*
X0163302Y0207080D02*
X0163302Y0212280D01*
X0173302Y0212280D02*
X0173302Y0207080D01*
X0082003Y0091847D02*
X0082003Y0086647D01*
X0072003Y0086647D02*
X0072003Y0091847D01*
X0062003Y0091847D02*
X0062003Y0086647D01*
X0052003Y0086647D02*
X0052003Y0091847D01*
X0042003Y0091847D02*
X0042003Y0086647D01*
X0032003Y0086647D02*
X0032003Y0091847D01*
X0022003Y0091847D02*
X0022003Y0086647D01*
X0022003Y0061847D02*
X0022003Y0056647D01*
X0032003Y0056647D02*
X0032003Y0061847D01*
X0042003Y0061847D02*
X0042003Y0056647D01*
X0052003Y0056647D02*
X0052003Y0061847D01*
X0062003Y0061847D02*
X0062003Y0056647D01*
X0072003Y0056647D02*
X0072003Y0061847D01*
X0082003Y0061847D02*
X0082003Y0056647D01*
D20*
X0060901Y0137436D03*
X0050901Y0137436D03*
X0050901Y0147436D03*
X0060901Y0147436D03*
X0298617Y0231255D03*
X0308617Y0231255D03*
X0318617Y0231255D03*
X0328617Y0231255D03*
X0328617Y0241255D03*
X0318617Y0241255D03*
X0308617Y0241255D03*
X0298617Y0241255D03*
D21*
X0267791Y0237200D03*
X0257791Y0237200D03*
X0247791Y0237200D03*
X0237791Y0237200D03*
X0227791Y0237200D03*
X0217791Y0237200D03*
X0181924Y0237200D03*
X0171924Y0237200D03*
X0161924Y0237200D03*
X0151924Y0237200D03*
X0141924Y0237200D03*
X0131924Y0237200D03*
D22*
X0097370Y0242832D02*
X0091370Y0242832D01*
X0071770Y0242832D02*
X0065770Y0242832D01*
X0065770Y0225032D02*
X0071770Y0225032D01*
X0091370Y0225032D02*
X0097370Y0225032D01*
X0261767Y0050279D02*
X0261767Y0044279D01*
X0271767Y0044279D02*
X0271767Y0050279D01*
D23*
X0311609Y0102397D03*
X0326609Y0102397D03*
X0326609Y0132397D03*
X0311609Y0132397D03*
X0306609Y0147397D03*
X0336609Y0147397D03*
X0232751Y0115231D03*
X0232751Y0105113D03*
X0202751Y0105113D03*
X0202751Y0115231D03*
X0133342Y0115231D03*
X0133145Y0105113D03*
X0103145Y0105113D03*
X0103342Y0115231D03*
D24*
X0169129Y0022476D03*
X0179129Y0022476D03*
X0189129Y0022476D03*
X0199129Y0022476D03*
X0209129Y0022476D03*
X0219129Y0022476D03*
X0229129Y0022476D03*
X0239129Y0022476D03*
X0249129Y0022476D03*
X0259129Y0022476D03*
X0269129Y0022476D03*
X0279129Y0022476D03*
X0289129Y0022476D03*
X0299129Y0022476D03*
X0309129Y0022476D03*
X0319129Y0022476D03*
X0329129Y0022476D03*
X0339129Y0022476D03*
X0349129Y0022476D03*
X0359129Y0022476D03*
X0369129Y0022476D03*
X0379129Y0022476D03*
X0389129Y0022476D03*
X0399129Y0022476D03*
X0399208Y0012436D03*
X0389208Y0012436D03*
X0379208Y0012436D03*
X0369208Y0012436D03*
X0359208Y0012436D03*
X0349208Y0012436D03*
X0339208Y0012436D03*
X0329208Y0012436D03*
X0319208Y0012436D03*
X0309208Y0012436D03*
X0299208Y0012436D03*
X0289208Y0012436D03*
X0279208Y0012436D03*
X0269208Y0012436D03*
X0259208Y0012436D03*
X0249208Y0012436D03*
X0239208Y0012436D03*
X0229208Y0012436D03*
X0219208Y0012436D03*
X0209208Y0012436D03*
X0199208Y0012436D03*
X0189208Y0012436D03*
X0179208Y0012436D03*
X0169208Y0012436D03*
X0159208Y0012436D03*
X0149208Y0012436D03*
X0139208Y0012436D03*
X0129208Y0012436D03*
X0119208Y0012436D03*
X0109208Y0012436D03*
X0099208Y0012436D03*
X0089208Y0012436D03*
X0079208Y0012436D03*
X0069208Y0012436D03*
X0059208Y0012436D03*
X0049208Y0012436D03*
X0039208Y0012436D03*
X0029208Y0012436D03*
X0019208Y0012436D03*
X0009208Y0012436D03*
D25*
X0261491Y0086853D02*
X0261491Y0093453D01*
X0271491Y0093453D02*
X0271491Y0086853D01*
X0281491Y0086853D02*
X0281491Y0093453D01*
D26*
X0007400Y0007773D02*
X0007400Y0007403D01*
X0078211Y0007437D01*
X0076376Y0008197D01*
X0074969Y0009604D01*
X0074208Y0011442D01*
X0074208Y0013431D01*
X0074969Y0015268D01*
X0076376Y0016675D01*
X0078213Y0017436D01*
X0080202Y0017436D01*
X0082040Y0016675D01*
X0083447Y0015268D01*
X0084208Y0013431D01*
X0084208Y0011442D01*
X0084969Y0009604D01*
X0086376Y0008197D01*
X0088200Y0007442D01*
X0080207Y0007438D01*
X0082040Y0008197D01*
X0083447Y0009604D01*
X0084208Y0011442D01*
X0084208Y0013431D01*
X0084969Y0015268D01*
X0086376Y0016675D01*
X0088213Y0017436D01*
X0090202Y0017436D01*
X0092040Y0016675D01*
X0093447Y0015268D01*
X0094208Y0013431D01*
X0094208Y0011442D01*
X0094969Y0009604D01*
X0096376Y0008197D01*
X0098188Y0007447D01*
X0090218Y0007443D01*
X0092040Y0008197D01*
X0093447Y0009604D01*
X0094208Y0011442D01*
X0094208Y0013431D01*
X0094969Y0015268D01*
X0096376Y0016675D01*
X0098213Y0017436D01*
X0100202Y0017436D01*
X0102040Y0016675D01*
X0103447Y0015268D01*
X0104208Y0013431D01*
X0104208Y0011442D01*
X0104969Y0009604D01*
X0106376Y0008197D01*
X0108176Y0007452D01*
X0100230Y0007448D01*
X0102040Y0008197D01*
X0103447Y0009604D01*
X0104208Y0011442D01*
X0104208Y0013431D01*
X0104969Y0015268D01*
X0106376Y0016675D01*
X0108213Y0017436D01*
X0110202Y0017436D01*
X0112040Y0016675D01*
X0113447Y0015268D01*
X0114208Y0013431D01*
X0114208Y0011442D01*
X0114969Y0009604D01*
X0116376Y0008197D01*
X0118165Y0007456D01*
X0110242Y0007453D01*
X0112040Y0008197D01*
X0113447Y0009604D01*
X0114208Y0011442D01*
X0114208Y0013431D01*
X0114969Y0015268D01*
X0116376Y0016675D01*
X0118213Y0017436D01*
X0120202Y0017436D01*
X0122040Y0016675D01*
X0123447Y0015268D01*
X0124208Y0013431D01*
X0124208Y0011442D01*
X0124969Y0009604D01*
X0126376Y0008197D01*
X0128153Y0007461D01*
X0120254Y0007457D01*
X0122040Y0008197D01*
X0123447Y0009604D01*
X0124208Y0011442D01*
X0124208Y0013431D01*
X0124969Y0015268D01*
X0126376Y0016675D01*
X0128213Y0017436D01*
X0130202Y0017436D01*
X0132040Y0016675D01*
X0133447Y0015268D01*
X0134208Y0013431D01*
X0134208Y0011442D01*
X0134969Y0009604D01*
X0136376Y0008197D01*
X0138141Y0007466D01*
X0130265Y0007462D01*
X0132040Y0008197D01*
X0133447Y0009604D01*
X0134208Y0011442D01*
X0134208Y0013431D01*
X0134969Y0015268D01*
X0136376Y0016675D01*
X0138213Y0017436D01*
X0140202Y0017436D01*
X0142040Y0016675D01*
X0143447Y0015268D01*
X0144208Y0013431D01*
X0144208Y0011442D01*
X0144969Y0009604D01*
X0146376Y0008197D01*
X0148129Y0007471D01*
X0140277Y0007467D01*
X0142040Y0008197D01*
X0143447Y0009604D01*
X0144208Y0011442D01*
X0144208Y0013431D01*
X0144969Y0015268D01*
X0146376Y0016675D01*
X0148213Y0017436D01*
X0150202Y0017436D01*
X0152040Y0016675D01*
X0153447Y0015268D01*
X0154208Y0013431D01*
X0154208Y0011442D01*
X0154969Y0009604D01*
X0156376Y0008197D01*
X0158118Y0007476D01*
X0150289Y0007472D01*
X0152040Y0008197D01*
X0153447Y0009604D01*
X0154208Y0011442D01*
X0154208Y0013431D01*
X0154969Y0015268D01*
X0156376Y0016675D01*
X0158213Y0017436D01*
X0160202Y0017436D01*
X0162040Y0016675D01*
X0163447Y0015268D01*
X0164130Y0013618D01*
X0164136Y0013654D01*
X0164389Y0014432D01*
X0164760Y0015162D01*
X0165242Y0015824D01*
X0165820Y0016403D01*
X0166482Y0016884D01*
X0167212Y0017255D01*
X0167990Y0017508D01*
X0168038Y0017516D01*
X0166297Y0018237D01*
X0164890Y0019643D01*
X0164129Y0021481D01*
X0164129Y0023470D01*
X0164890Y0025308D01*
X0166297Y0026714D01*
X0168135Y0027476D01*
X0170124Y0027476D01*
X0171961Y0026714D01*
X0173368Y0025308D01*
X0174129Y0023470D01*
X0174129Y0021481D01*
X0173368Y0019643D01*
X0171961Y0018237D01*
X0170264Y0017534D01*
X0170426Y0017508D01*
X0171204Y0017255D01*
X0171933Y0016884D01*
X0172595Y0016403D01*
X0173174Y0015824D01*
X0173655Y0015162D01*
X0174027Y0014432D01*
X0174280Y0013654D01*
X0174285Y0013618D01*
X0174969Y0015268D01*
X0176376Y0016675D01*
X0178213Y0017436D01*
X0180202Y0017436D01*
X0182040Y0016675D01*
X0183447Y0015268D01*
X0184208Y0013431D01*
X0184208Y0011442D01*
X0184969Y0009604D01*
X0186376Y0008197D01*
X0188082Y0007490D01*
X0180324Y0007487D01*
X0182040Y0008197D01*
X0183447Y0009604D01*
X0184208Y0011442D01*
X0184208Y0013431D01*
X0184969Y0015268D01*
X0186376Y0016675D01*
X0188213Y0017436D01*
X0190202Y0017436D01*
X0192040Y0016675D01*
X0193447Y0015268D01*
X0194208Y0013431D01*
X0194208Y0011442D01*
X0194969Y0009604D01*
X0196376Y0008197D01*
X0198071Y0007495D01*
X0190336Y0007492D01*
X0192040Y0008197D01*
X0193447Y0009604D01*
X0194208Y0011442D01*
X0194208Y0013431D01*
X0194969Y0015268D01*
X0196376Y0016675D01*
X0198213Y0017436D01*
X0200202Y0017436D01*
X0202040Y0016675D01*
X0203447Y0015268D01*
X0204208Y0013431D01*
X0204208Y0011442D01*
X0204969Y0009604D01*
X0206376Y0008197D01*
X0208059Y0007500D01*
X0200348Y0007496D01*
X0202040Y0008197D01*
X0203447Y0009604D01*
X0204208Y0011442D01*
X0204208Y0013431D01*
X0204969Y0015268D01*
X0206376Y0016675D01*
X0208213Y0017436D01*
X0210202Y0017436D01*
X0212040Y0016675D01*
X0213447Y0015268D01*
X0214208Y0013431D01*
X0214208Y0011442D01*
X0214969Y0009604D01*
X0216376Y0008197D01*
X0218047Y0007505D01*
X0210360Y0007501D01*
X0212040Y0008197D01*
X0213447Y0009604D01*
X0214208Y0011442D01*
X0214208Y0013431D01*
X0214969Y0015268D01*
X0216376Y0016675D01*
X0218213Y0017436D01*
X0220202Y0017436D01*
X0222040Y0016675D01*
X0223447Y0015268D01*
X0224208Y0013431D01*
X0224208Y0011442D01*
X0224969Y0009604D01*
X0226376Y0008197D01*
X0228035Y0007510D01*
X0220371Y0007506D01*
X0222040Y0008197D01*
X0223447Y0009604D01*
X0224208Y0011442D01*
X0224208Y0013431D01*
X0224969Y0015268D01*
X0226376Y0016675D01*
X0228213Y0017436D01*
X0230202Y0017436D01*
X0232040Y0016675D01*
X0233447Y0015268D01*
X0234208Y0013431D01*
X0234208Y0011442D01*
X0234969Y0009604D01*
X0236376Y0008197D01*
X0238024Y0007515D01*
X0230383Y0007511D01*
X0232040Y0008197D01*
X0233447Y0009604D01*
X0234208Y0011442D01*
X0234208Y0013431D01*
X0234969Y0015268D01*
X0236376Y0016675D01*
X0238213Y0017436D01*
X0240202Y0017436D01*
X0242040Y0016675D01*
X0243447Y0015268D01*
X0244208Y0013431D01*
X0244208Y0011442D01*
X0244969Y0009604D01*
X0246376Y0008197D01*
X0248012Y0007520D01*
X0240395Y0007516D01*
X0242040Y0008197D01*
X0243447Y0009604D01*
X0244208Y0011442D01*
X0244208Y0013431D01*
X0244969Y0015268D01*
X0246376Y0016675D01*
X0248213Y0017436D01*
X0250202Y0017436D01*
X0252040Y0016675D01*
X0253447Y0015268D01*
X0254208Y0013431D01*
X0254208Y0011442D01*
X0254969Y0009604D01*
X0256376Y0008197D01*
X0258000Y0007524D01*
X0250407Y0007521D01*
X0252040Y0008197D01*
X0253447Y0009604D01*
X0254208Y0011442D01*
X0254208Y0013431D01*
X0254969Y0015268D01*
X0256376Y0016675D01*
X0258213Y0017436D01*
X0260202Y0017436D01*
X0262040Y0016675D01*
X0263447Y0015268D01*
X0264208Y0013431D01*
X0264208Y0011442D01*
X0264969Y0009604D01*
X0266376Y0008197D01*
X0267988Y0007529D01*
X0260418Y0007526D01*
X0262040Y0008197D01*
X0263447Y0009604D01*
X0264208Y0011442D01*
X0264208Y0013431D01*
X0264969Y0015268D01*
X0266376Y0016675D01*
X0268213Y0017436D01*
X0270202Y0017436D01*
X0272040Y0016675D01*
X0273447Y0015268D01*
X0274208Y0013431D01*
X0274208Y0011442D01*
X0274969Y0009604D01*
X0276376Y0008197D01*
X0277977Y0007534D01*
X0270430Y0007531D01*
X0272040Y0008197D01*
X0273447Y0009604D01*
X0274208Y0011442D01*
X0274208Y0013431D01*
X0274969Y0015268D01*
X0276376Y0016675D01*
X0278213Y0017436D01*
X0280202Y0017436D01*
X0282040Y0016675D01*
X0283447Y0015268D01*
X0284208Y0013431D01*
X0284208Y0011442D01*
X0284969Y0009604D01*
X0286376Y0008197D01*
X0287965Y0007539D01*
X0280442Y0007535D01*
X0282040Y0008197D01*
X0283447Y0009604D01*
X0284208Y0011442D01*
X0284208Y0013431D01*
X0284969Y0015268D01*
X0286376Y0016675D01*
X0288213Y0017436D01*
X0290202Y0017436D01*
X0292040Y0016675D01*
X0293447Y0015268D01*
X0294208Y0013431D01*
X0294208Y0011442D01*
X0294969Y0009604D01*
X0296376Y0008197D01*
X0297953Y0007544D01*
X0290454Y0007540D01*
X0292040Y0008197D01*
X0293447Y0009604D01*
X0294208Y0011442D01*
X0294208Y0013431D01*
X0294969Y0015268D01*
X0296376Y0016675D01*
X0298213Y0017436D01*
X0300202Y0017436D01*
X0302040Y0016675D01*
X0303447Y0015268D01*
X0304208Y0013431D01*
X0304208Y0011442D01*
X0304969Y0009604D01*
X0306376Y0008197D01*
X0307942Y0007549D01*
X0300465Y0007545D01*
X0302040Y0008197D01*
X0303447Y0009604D01*
X0304208Y0011442D01*
X0304208Y0013431D01*
X0304969Y0015268D01*
X0306376Y0016675D01*
X0308213Y0017436D01*
X0310202Y0017436D01*
X0312040Y0016675D01*
X0313447Y0015268D01*
X0314208Y0013431D01*
X0314208Y0011442D01*
X0314969Y0009604D01*
X0316376Y0008197D01*
X0317930Y0007554D01*
X0310477Y0007550D01*
X0312040Y0008197D01*
X0313447Y0009604D01*
X0314208Y0011442D01*
X0314208Y0013431D01*
X0314969Y0015268D01*
X0316376Y0016675D01*
X0318213Y0017436D01*
X0320202Y0017436D01*
X0322040Y0016675D01*
X0323447Y0015268D01*
X0324208Y0013431D01*
X0324208Y0011442D01*
X0324969Y0009604D01*
X0326376Y0008197D01*
X0327918Y0007559D01*
X0320489Y0007555D01*
X0322040Y0008197D01*
X0323447Y0009604D01*
X0324208Y0011442D01*
X0324208Y0013431D01*
X0324969Y0015268D01*
X0326376Y0016675D01*
X0328213Y0017436D01*
X0330202Y0017436D01*
X0332040Y0016675D01*
X0333447Y0015268D01*
X0334208Y0013431D01*
X0334208Y0011442D01*
X0334969Y0009604D01*
X0336376Y0008197D01*
X0337906Y0007563D01*
X0330501Y0007560D01*
X0332040Y0008197D01*
X0333447Y0009604D01*
X0334208Y0011442D01*
X0334208Y0013431D01*
X0334969Y0015268D01*
X0336376Y0016675D01*
X0338213Y0017436D01*
X0340202Y0017436D01*
X0342040Y0016675D01*
X0343447Y0015268D01*
X0344208Y0013431D01*
X0344208Y0011442D01*
X0344969Y0009604D01*
X0346376Y0008197D01*
X0347895Y0007568D01*
X0340513Y0007565D01*
X0342040Y0008197D01*
X0343447Y0009604D01*
X0344208Y0011442D01*
X0344208Y0013431D01*
X0344969Y0015268D01*
X0346376Y0016675D01*
X0348213Y0017436D01*
X0350202Y0017436D01*
X0352040Y0016675D01*
X0353447Y0015268D01*
X0354208Y0013431D01*
X0354208Y0011442D01*
X0354969Y0009604D01*
X0356376Y0008197D01*
X0357883Y0007573D01*
X0350524Y0007570D01*
X0352040Y0008197D01*
X0353447Y0009604D01*
X0354208Y0011442D01*
X0354208Y0013431D01*
X0354969Y0015268D01*
X0356376Y0016675D01*
X0358213Y0017436D01*
X0360202Y0017436D01*
X0362040Y0016675D01*
X0363447Y0015268D01*
X0364208Y0013431D01*
X0364208Y0011442D01*
X0364969Y0009604D01*
X0366376Y0008197D01*
X0367871Y0007578D01*
X0360536Y0007574D01*
X0362040Y0008197D01*
X0363447Y0009604D01*
X0364208Y0011442D01*
X0364208Y0013431D01*
X0364969Y0015268D01*
X0366376Y0016675D01*
X0368213Y0017436D01*
X0370202Y0017436D01*
X0372040Y0016675D01*
X0373447Y0015268D01*
X0374208Y0013431D01*
X0374208Y0011442D01*
X0374969Y0009604D01*
X0376376Y0008197D01*
X0377859Y0007583D01*
X0370548Y0007579D01*
X0372040Y0008197D01*
X0373447Y0009604D01*
X0374208Y0011442D01*
X0374208Y0013431D01*
X0374969Y0015268D01*
X0376376Y0016675D01*
X0378213Y0017436D01*
X0380202Y0017436D01*
X0382040Y0016675D01*
X0383447Y0015268D01*
X0384208Y0013431D01*
X0384208Y0011442D01*
X0384969Y0009604D01*
X0386376Y0008197D01*
X0387848Y0007588D01*
X0380560Y0007584D01*
X0382040Y0008197D01*
X0383447Y0009604D01*
X0384208Y0011442D01*
X0384208Y0013431D01*
X0384969Y0015268D01*
X0386376Y0016675D01*
X0388213Y0017436D01*
X0390202Y0017436D01*
X0392040Y0016675D01*
X0393447Y0015268D01*
X0394208Y0013431D01*
X0394208Y0011442D01*
X0394969Y0009604D01*
X0396376Y0008197D01*
X0397836Y0007593D01*
X0390571Y0007589D01*
X0392040Y0008197D01*
X0393447Y0009604D01*
X0394208Y0011442D01*
X0394208Y0013431D01*
X0394969Y0015268D01*
X0396376Y0016675D01*
X0398213Y0017436D01*
X0400202Y0017436D01*
X0401409Y0016936D01*
X0401409Y0018008D01*
X0400124Y0017476D01*
X0398135Y0017476D01*
X0396297Y0018237D01*
X0394890Y0019643D01*
X0394129Y0021481D01*
X0393368Y0019643D01*
X0391961Y0018237D01*
X0390124Y0017476D01*
X0388135Y0017476D01*
X0386297Y0018237D01*
X0384890Y0019643D01*
X0384129Y0021481D01*
X0383368Y0019643D01*
X0381961Y0018237D01*
X0380124Y0017476D01*
X0378135Y0017476D01*
X0376297Y0018237D01*
X0374890Y0019643D01*
X0374129Y0021481D01*
X0373368Y0019643D01*
X0371961Y0018237D01*
X0370124Y0017476D01*
X0368135Y0017476D01*
X0366297Y0018237D01*
X0364890Y0019643D01*
X0364129Y0021481D01*
X0363368Y0019643D01*
X0361961Y0018237D01*
X0360124Y0017476D01*
X0358135Y0017476D01*
X0356297Y0018237D01*
X0354890Y0019643D01*
X0354129Y0021481D01*
X0353368Y0019643D01*
X0351961Y0018237D01*
X0350124Y0017476D01*
X0348135Y0017476D01*
X0346297Y0018237D01*
X0344890Y0019643D01*
X0344129Y0021481D01*
X0343368Y0019643D01*
X0341961Y0018237D01*
X0340124Y0017476D01*
X0338135Y0017476D01*
X0336297Y0018237D01*
X0334890Y0019643D01*
X0334129Y0021481D01*
X0333368Y0019643D01*
X0331961Y0018237D01*
X0330124Y0017476D01*
X0328135Y0017476D01*
X0326297Y0018237D01*
X0324890Y0019643D01*
X0324129Y0021481D01*
X0323368Y0019643D01*
X0321961Y0018237D01*
X0320124Y0017476D01*
X0318135Y0017476D01*
X0316297Y0018237D01*
X0314890Y0019643D01*
X0314129Y0021481D01*
X0313368Y0019643D01*
X0311961Y0018237D01*
X0310124Y0017476D01*
X0308135Y0017476D01*
X0306297Y0018237D01*
X0304890Y0019643D01*
X0304129Y0021481D01*
X0303368Y0019643D01*
X0301961Y0018237D01*
X0300124Y0017476D01*
X0298135Y0017476D01*
X0296297Y0018237D01*
X0294890Y0019643D01*
X0294129Y0021481D01*
X0293368Y0019643D01*
X0291961Y0018237D01*
X0290124Y0017476D01*
X0288135Y0017476D01*
X0286297Y0018237D01*
X0284890Y0019643D01*
X0284129Y0021481D01*
X0283368Y0019643D01*
X0281961Y0018237D01*
X0280124Y0017476D01*
X0278135Y0017476D01*
X0276297Y0018237D01*
X0274890Y0019643D01*
X0274129Y0021481D01*
X0273368Y0019643D01*
X0271961Y0018237D01*
X0270124Y0017476D01*
X0268135Y0017476D01*
X0266297Y0018237D01*
X0264890Y0019643D01*
X0264129Y0021481D01*
X0263368Y0019643D01*
X0261961Y0018237D01*
X0260124Y0017476D01*
X0258135Y0017476D01*
X0256297Y0018237D01*
X0254890Y0019643D01*
X0254129Y0021481D01*
X0253368Y0019643D01*
X0251961Y0018237D01*
X0250124Y0017476D01*
X0248135Y0017476D01*
X0246297Y0018237D01*
X0244890Y0019643D01*
X0244129Y0021481D01*
X0243368Y0019643D01*
X0241961Y0018237D01*
X0240124Y0017476D01*
X0238135Y0017476D01*
X0236297Y0018237D01*
X0234890Y0019643D01*
X0234129Y0021481D01*
X0233368Y0019643D01*
X0231961Y0018237D01*
X0230124Y0017476D01*
X0228135Y0017476D01*
X0226297Y0018237D01*
X0224890Y0019643D01*
X0224129Y0021481D01*
X0223368Y0019643D01*
X0221961Y0018237D01*
X0220124Y0017476D01*
X0218135Y0017476D01*
X0216297Y0018237D01*
X0214890Y0019643D01*
X0214129Y0021481D01*
X0213368Y0019643D01*
X0211961Y0018237D01*
X0210124Y0017476D01*
X0208135Y0017476D01*
X0206297Y0018237D01*
X0204890Y0019643D01*
X0204129Y0021481D01*
X0203368Y0019643D01*
X0201961Y0018237D01*
X0200124Y0017476D01*
X0198135Y0017476D01*
X0196297Y0018237D01*
X0194890Y0019643D01*
X0194129Y0021481D01*
X0193368Y0019643D01*
X0191961Y0018237D01*
X0190124Y0017476D01*
X0188135Y0017476D01*
X0186297Y0018237D01*
X0184890Y0019643D01*
X0184129Y0021481D01*
X0183368Y0019643D01*
X0181961Y0018237D01*
X0180124Y0017476D01*
X0178135Y0017476D01*
X0176297Y0018237D01*
X0174890Y0019643D01*
X0174129Y0021481D01*
X0174129Y0023470D01*
X0174890Y0025308D01*
X0176297Y0026714D01*
X0178135Y0027476D01*
X0180124Y0027476D01*
X0181961Y0026714D01*
X0183368Y0025308D01*
X0184129Y0023470D01*
X0184129Y0021481D01*
X0184129Y0023470D01*
X0184890Y0025308D01*
X0186297Y0026714D01*
X0188135Y0027476D01*
X0190124Y0027476D01*
X0191961Y0026714D01*
X0193368Y0025308D01*
X0194129Y0023470D01*
X0194129Y0021481D01*
X0194129Y0023470D01*
X0194890Y0025308D01*
X0196297Y0026714D01*
X0198135Y0027476D01*
X0200124Y0027476D01*
X0201961Y0026714D01*
X0203368Y0025308D01*
X0204129Y0023470D01*
X0204129Y0021481D01*
X0204129Y0023470D01*
X0204890Y0025308D01*
X0206297Y0026714D01*
X0208135Y0027476D01*
X0210124Y0027476D01*
X0211961Y0026714D01*
X0213368Y0025308D01*
X0214129Y0023470D01*
X0214129Y0021481D01*
X0214129Y0023470D01*
X0214890Y0025308D01*
X0216297Y0026714D01*
X0218135Y0027476D01*
X0220124Y0027476D01*
X0221961Y0026714D01*
X0223368Y0025308D01*
X0224129Y0023470D01*
X0224129Y0021481D01*
X0224129Y0023470D01*
X0224890Y0025308D01*
X0226297Y0026714D01*
X0228135Y0027476D01*
X0230124Y0027476D01*
X0231961Y0026714D01*
X0233368Y0025308D01*
X0234129Y0023470D01*
X0234129Y0021481D01*
X0234129Y0023470D01*
X0234890Y0025308D01*
X0236297Y0026714D01*
X0238135Y0027476D01*
X0240124Y0027476D01*
X0241961Y0026714D01*
X0243368Y0025308D01*
X0244129Y0023470D01*
X0244129Y0021481D01*
X0244129Y0023470D01*
X0244890Y0025308D01*
X0246297Y0026714D01*
X0248135Y0027476D01*
X0250124Y0027476D01*
X0251961Y0026714D01*
X0253368Y0025308D01*
X0254129Y0023470D01*
X0254129Y0021481D01*
X0254129Y0023470D01*
X0254890Y0025308D01*
X0256297Y0026714D01*
X0258135Y0027476D01*
X0260124Y0027476D01*
X0261961Y0026714D01*
X0263368Y0025308D01*
X0264129Y0023470D01*
X0264129Y0021481D01*
X0264129Y0023470D01*
X0264890Y0025308D01*
X0266297Y0026714D01*
X0268135Y0027476D01*
X0270124Y0027476D01*
X0271961Y0026714D01*
X0273368Y0025308D01*
X0274129Y0023470D01*
X0274129Y0021481D01*
X0274129Y0023470D01*
X0274890Y0025308D01*
X0276297Y0026714D01*
X0278135Y0027476D01*
X0280124Y0027476D01*
X0281961Y0026714D01*
X0283368Y0025308D01*
X0284129Y0023470D01*
X0284129Y0021481D01*
X0284129Y0023470D01*
X0284890Y0025308D01*
X0286297Y0026714D01*
X0288135Y0027476D01*
X0290124Y0027476D01*
X0291961Y0026714D01*
X0293368Y0025308D01*
X0294129Y0023470D01*
X0294129Y0021481D01*
X0294129Y0023470D01*
X0294890Y0025308D01*
X0296297Y0026714D01*
X0298135Y0027476D01*
X0300124Y0027476D01*
X0301961Y0026714D01*
X0303368Y0025308D01*
X0304129Y0023470D01*
X0304129Y0021481D01*
X0304129Y0023470D01*
X0304890Y0025308D01*
X0306297Y0026714D01*
X0308135Y0027476D01*
X0310124Y0027476D01*
X0311961Y0026714D01*
X0313368Y0025308D01*
X0314129Y0023470D01*
X0314129Y0021481D01*
X0314129Y0023470D01*
X0314890Y0025308D01*
X0316297Y0026714D01*
X0318135Y0027476D01*
X0320124Y0027476D01*
X0321961Y0026714D01*
X0323368Y0025308D01*
X0324129Y0023470D01*
X0324129Y0021481D01*
X0324129Y0023470D01*
X0324890Y0025308D01*
X0326297Y0026714D01*
X0328135Y0027476D01*
X0330124Y0027476D01*
X0331961Y0026714D01*
X0333368Y0025308D01*
X0334129Y0023470D01*
X0334129Y0021481D01*
X0334129Y0023470D01*
X0334890Y0025308D01*
X0336297Y0026714D01*
X0338135Y0027476D01*
X0340124Y0027476D01*
X0341961Y0026714D01*
X0343368Y0025308D01*
X0344129Y0023470D01*
X0344129Y0021481D01*
X0344129Y0023470D01*
X0344890Y0025308D01*
X0346297Y0026714D01*
X0348135Y0027476D01*
X0350124Y0027476D01*
X0351961Y0026714D01*
X0353368Y0025308D01*
X0354129Y0023470D01*
X0354129Y0021481D01*
X0354129Y0023470D01*
X0354890Y0025308D01*
X0356297Y0026714D01*
X0358135Y0027476D01*
X0360124Y0027476D01*
X0361961Y0026714D01*
X0363368Y0025308D01*
X0364129Y0023470D01*
X0364129Y0021481D01*
X0364129Y0023470D01*
X0364890Y0025308D01*
X0366297Y0026714D01*
X0368135Y0027476D01*
X0370124Y0027476D01*
X0371961Y0026714D01*
X0373368Y0025308D01*
X0374129Y0023470D01*
X0374129Y0021481D01*
X0374129Y0023470D01*
X0374890Y0025308D01*
X0376297Y0026714D01*
X0378135Y0027476D01*
X0380124Y0027476D01*
X0381961Y0026714D01*
X0383368Y0025308D01*
X0384129Y0023470D01*
X0384129Y0021481D01*
X0384129Y0023470D01*
X0384890Y0025308D01*
X0386297Y0026714D01*
X0388135Y0027476D01*
X0390124Y0027476D01*
X0391961Y0026714D01*
X0393368Y0025308D01*
X0394129Y0023470D01*
X0394129Y0021481D01*
X0394129Y0023470D01*
X0394890Y0025308D01*
X0396297Y0026714D01*
X0398135Y0027476D01*
X0400124Y0027476D01*
X0401409Y0026943D01*
X0401409Y0253099D01*
X0392233Y0253094D01*
X0392814Y0251692D01*
X0392814Y0248378D01*
X0391546Y0245316D01*
X0389202Y0242972D01*
X0386141Y0241704D01*
X0382826Y0241704D01*
X0379764Y0242972D01*
X0377421Y0245316D01*
X0376153Y0248378D01*
X0376153Y0251692D01*
X0376730Y0253085D01*
X0064331Y0252907D01*
X0007400Y0196872D01*
X0007400Y0017099D01*
X0008213Y0017436D01*
X0010202Y0017436D01*
X0012040Y0016675D01*
X0013447Y0015268D01*
X0014208Y0013431D01*
X0014208Y0011442D01*
X0014969Y0009604D01*
X0016376Y0008197D01*
X0018213Y0007436D01*
X0020202Y0007436D01*
X0022040Y0008197D01*
X0023447Y0009604D01*
X0024208Y0011442D01*
X0024969Y0009604D01*
X0026376Y0008197D01*
X0028213Y0007436D01*
X0030202Y0007436D01*
X0032040Y0008197D01*
X0033447Y0009604D01*
X0034208Y0011442D01*
X0034969Y0009604D01*
X0036376Y0008197D01*
X0038213Y0007436D01*
X0040202Y0007436D01*
X0042040Y0008197D01*
X0043447Y0009604D01*
X0044208Y0011442D01*
X0044969Y0009604D01*
X0046376Y0008197D01*
X0048213Y0007436D01*
X0050202Y0007436D01*
X0052040Y0008197D01*
X0053447Y0009604D01*
X0054208Y0011442D01*
X0054969Y0009604D01*
X0056376Y0008197D01*
X0058213Y0007436D01*
X0060202Y0007436D01*
X0062040Y0008197D01*
X0063447Y0009604D01*
X0064208Y0011442D01*
X0064969Y0009604D01*
X0066376Y0008197D01*
X0068213Y0007436D01*
X0070202Y0007436D01*
X0072040Y0008197D01*
X0073447Y0009604D01*
X0074208Y0011442D01*
X0074208Y0013431D01*
X0073447Y0015268D01*
X0072040Y0016675D01*
X0070202Y0017436D01*
X0068213Y0017436D01*
X0066376Y0016675D01*
X0064969Y0015268D01*
X0064208Y0013431D01*
X0064208Y0011442D01*
X0064208Y0013431D01*
X0063447Y0015268D01*
X0062040Y0016675D01*
X0060202Y0017436D01*
X0058213Y0017436D01*
X0056376Y0016675D01*
X0054969Y0015268D01*
X0054208Y0013431D01*
X0054208Y0011442D01*
X0054208Y0013431D01*
X0053447Y0015268D01*
X0052040Y0016675D01*
X0050202Y0017436D01*
X0048213Y0017436D01*
X0046376Y0016675D01*
X0044969Y0015268D01*
X0044208Y0013431D01*
X0044208Y0011442D01*
X0044208Y0013431D01*
X0043447Y0015268D01*
X0042040Y0016675D01*
X0040202Y0017436D01*
X0038213Y0017436D01*
X0036376Y0016675D01*
X0034969Y0015268D01*
X0034208Y0013431D01*
X0034208Y0011442D01*
X0034208Y0013431D01*
X0033447Y0015268D01*
X0032040Y0016675D01*
X0030202Y0017436D01*
X0028213Y0017436D01*
X0026376Y0016675D01*
X0024969Y0015268D01*
X0024208Y0013431D01*
X0024208Y0011442D01*
X0024208Y0013431D01*
X0023447Y0015268D01*
X0022040Y0016675D01*
X0020202Y0017436D01*
X0018213Y0017436D01*
X0016376Y0016675D01*
X0014969Y0015268D01*
X0014208Y0013431D01*
X0014208Y0011442D01*
X0013447Y0009604D01*
X0012040Y0008197D01*
X0010202Y0007436D01*
X0008213Y0007436D01*
X0007400Y0007773D01*
X0013238Y0009396D02*
X0015177Y0009396D01*
X0014208Y0011794D02*
X0014208Y0011794D01*
X0013892Y0014193D02*
X0014523Y0014193D01*
X0016292Y0016591D02*
X0012124Y0016591D01*
X0007400Y0018990D02*
X0165544Y0018990D01*
X0166080Y0016591D02*
X0162124Y0016591D01*
X0163892Y0014193D02*
X0164311Y0014193D01*
X0164208Y0012436D02*
X0169208Y0012436D01*
X0169129Y0012436D01*
X0159877Y0021688D01*
X0159877Y0027594D01*
X0164405Y0032121D01*
X0169720Y0032121D01*
X0172869Y0035271D01*
X0172869Y0042161D01*
X0172909Y0042200D01*
X0178259Y0042200D01*
X0178259Y0044416D01*
X0175125Y0047550D01*
X0172909Y0047550D01*
X0172909Y0042200D01*
X0172909Y0042200D01*
X0178259Y0042200D01*
X0178259Y0039984D01*
X0175125Y0036850D01*
X0172909Y0036850D01*
X0172909Y0042200D01*
X0172909Y0042200D01*
X0172909Y0042200D01*
X0172909Y0059798D01*
X0173145Y0060035D01*
X0173145Y0060035D01*
X0173145Y0065535D01*
X0173578Y0065535D01*
X0174433Y0065399D01*
X0175256Y0065132D01*
X0176028Y0064739D01*
X0176728Y0064230D01*
X0177340Y0063618D01*
X0177849Y0062917D01*
X0178242Y0062146D01*
X0178260Y0062091D01*
X0178652Y0063037D01*
X0180143Y0064528D01*
X0182091Y0065335D01*
X0184199Y0065335D01*
X0186147Y0064528D01*
X0187638Y0063037D01*
X0188145Y0061813D01*
X0188652Y0063037D01*
X0190143Y0064528D01*
X0192091Y0065335D01*
X0194199Y0065335D01*
X0196147Y0064528D01*
X0197638Y0063037D01*
X0198145Y0061813D01*
X0198652Y0063037D01*
X0200143Y0064528D01*
X0202091Y0065335D01*
X0204199Y0065335D01*
X0206147Y0064528D01*
X0207638Y0063037D01*
X0208145Y0061813D01*
X0208652Y0063037D01*
X0210143Y0064528D01*
X0212091Y0065335D01*
X0214080Y0065335D01*
X0196281Y0083134D01*
X0195900Y0084053D01*
X0195900Y0085439D01*
X0194199Y0084735D01*
X0192091Y0084735D01*
X0190143Y0085542D01*
X0188652Y0087032D01*
X0188145Y0088256D01*
X0187638Y0087032D01*
X0186147Y0085542D01*
X0184199Y0084735D01*
X0182091Y0084735D01*
X0180143Y0085542D01*
X0178652Y0087032D01*
X0178145Y0088256D01*
X0177638Y0087032D01*
X0176147Y0085542D01*
X0174199Y0084735D01*
X0172091Y0084735D01*
X0170143Y0085542D01*
X0168652Y0087032D01*
X0168260Y0087979D01*
X0168242Y0087923D01*
X0167849Y0087152D01*
X0167340Y0086452D01*
X0166728Y0085839D01*
X0166028Y0085331D01*
X0165256Y0084938D01*
X0164433Y0084670D01*
X0163578Y0084535D01*
X0163145Y0084535D01*
X0163145Y0090035D01*
X0163145Y0090035D01*
X0163145Y0095535D01*
X0163578Y0095535D01*
X0164433Y0095399D01*
X0165256Y0095132D01*
X0166028Y0094739D01*
X0166728Y0094230D01*
X0167340Y0093618D01*
X0167849Y0092917D01*
X0168242Y0092146D01*
X0168260Y0092091D01*
X0168652Y0093037D01*
X0168804Y0093189D01*
X0168009Y0093984D01*
X0167400Y0095454D01*
X0167400Y0097046D01*
X0168009Y0098516D01*
X0169134Y0099641D01*
X0170604Y0100250D01*
X0171864Y0100250D01*
X0179614Y0108000D01*
X0178704Y0108000D01*
X0177234Y0108609D01*
X0176960Y0108883D01*
X0175322Y0107244D01*
X0173106Y0107244D01*
X0173106Y0112594D01*
X0173105Y0112594D01*
X0173105Y0117944D01*
X0170889Y0117944D01*
X0167964Y0115018D01*
X0166500Y0116482D01*
X0166500Y0126603D01*
X0167441Y0127544D01*
X0167833Y0128490D01*
X0167851Y0128435D01*
X0168244Y0127664D01*
X0168753Y0126963D01*
X0169365Y0126351D01*
X0170065Y0125842D01*
X0170837Y0125449D01*
X0171660Y0125182D01*
X0172515Y0125046D01*
X0172948Y0125046D01*
X0173381Y0125046D01*
X0174236Y0125182D01*
X0175059Y0125449D01*
X0175831Y0125842D01*
X0176531Y0126351D01*
X0177143Y0126963D01*
X0177652Y0127664D01*
X0178045Y0128435D01*
X0178063Y0128490D01*
X0178455Y0127544D01*
X0179946Y0126053D01*
X0180150Y0125969D01*
X0180150Y0116186D01*
X0179964Y0116000D01*
X0178704Y0116000D01*
X0177687Y0115578D01*
X0175322Y0117944D01*
X0173106Y0117944D01*
X0173106Y0112594D01*
X0173106Y0130389D01*
X0172948Y0130546D01*
X0172948Y0125046D01*
X0172948Y0130546D01*
X0172948Y0130546D01*
X0172948Y0140704D01*
X0162830Y0150822D01*
X0162830Y0160428D01*
X0162948Y0160546D01*
X0162948Y0155046D01*
X0163381Y0155046D01*
X0164236Y0155182D01*
X0165059Y0155449D01*
X0165831Y0155842D01*
X0166531Y0156351D01*
X0167143Y0156963D01*
X0167652Y0157664D01*
X0168045Y0158435D01*
X0168063Y0158490D01*
X0168455Y0157544D01*
X0169946Y0156053D01*
X0171894Y0155246D01*
X0174002Y0155246D01*
X0175950Y0156053D01*
X0177441Y0157544D01*
X0177948Y0158768D01*
X0178455Y0157544D01*
X0179946Y0156053D01*
X0181894Y0155246D01*
X0184002Y0155246D01*
X0185550Y0155888D01*
X0185550Y0141653D01*
X0185931Y0140734D01*
X0191133Y0135531D01*
X0189946Y0135040D01*
X0188455Y0133549D01*
X0187948Y0132325D01*
X0187441Y0133549D01*
X0185950Y0135040D01*
X0184002Y0135846D01*
X0181894Y0135846D01*
X0179946Y0135040D01*
X0178455Y0133549D01*
X0178063Y0132602D01*
X0178045Y0132658D01*
X0177652Y0133429D01*
X0177143Y0134129D01*
X0176531Y0134742D01*
X0175831Y0135250D01*
X0175059Y0135643D01*
X0174236Y0135911D01*
X0173381Y0136046D01*
X0172948Y0136046D01*
X0172948Y0130547D01*
X0172948Y0136046D01*
X0172515Y0136046D01*
X0171660Y0135911D01*
X0170837Y0135643D01*
X0170065Y0135250D01*
X0169365Y0134742D01*
X0168753Y0134129D01*
X0168244Y0133429D01*
X0167851Y0132658D01*
X0167833Y0132602D01*
X0167441Y0133549D01*
X0165950Y0135040D01*
X0164002Y0135846D01*
X0161894Y0135846D01*
X0160400Y0135228D01*
X0160400Y0155672D01*
X0160837Y0155449D01*
X0161660Y0155182D01*
X0162515Y0155046D01*
X0162948Y0155046D01*
X0162948Y0160546D01*
X0162948Y0160546D01*
X0162948Y0162751D01*
X0173460Y0173263D01*
X0173460Y0179523D01*
X0173302Y0179680D01*
X0168502Y0179680D01*
X0168502Y0176703D01*
X0168621Y0175956D01*
X0168854Y0175238D01*
X0169197Y0174565D01*
X0169641Y0173953D01*
X0170175Y0173419D01*
X0170787Y0172975D01*
X0171460Y0172632D01*
X0172178Y0172399D01*
X0172925Y0172280D01*
X0173302Y0172280D01*
X0173302Y0179680D01*
X0173302Y0179680D01*
X0173302Y0179680D01*
X0168502Y0179680D01*
X0168502Y0182658D01*
X0168621Y0183404D01*
X0168854Y0184123D01*
X0169197Y0184796D01*
X0169641Y0185407D01*
X0170175Y0185942D01*
X0170787Y0186386D01*
X0171460Y0186729D01*
X0172121Y0186943D01*
X0165864Y0193200D01*
X0138503Y0193200D01*
X0137584Y0193581D01*
X0136881Y0194284D01*
X0126946Y0204219D01*
X0125908Y0203181D01*
X0124217Y0202480D01*
X0122387Y0202480D01*
X0120697Y0203181D01*
X0119403Y0204475D01*
X0118702Y0206165D01*
X0118702Y0209667D01*
X0117902Y0208867D01*
X0117902Y0206165D01*
X0117202Y0204475D01*
X0115908Y0203181D01*
X0114217Y0202480D01*
X0112387Y0202480D01*
X0110697Y0203181D01*
X0109403Y0204475D01*
X0108702Y0206165D01*
X0108702Y0209927D01*
X0107902Y0209127D01*
X0107902Y0206165D01*
X0107202Y0204475D01*
X0105908Y0203181D01*
X0104217Y0202480D01*
X0102387Y0202480D01*
X0100697Y0203181D01*
X0099403Y0204475D01*
X0098702Y0206165D01*
X0098702Y0206450D01*
X0089127Y0206450D01*
X0087420Y0204743D01*
X0090345Y0201818D01*
X0090345Y0199602D01*
X0084995Y0199602D01*
X0084995Y0199602D01*
X0079645Y0199602D01*
X0079645Y0201818D01*
X0082571Y0204743D01*
X0079845Y0207468D01*
X0079845Y0211735D01*
X0082862Y0214752D01*
X0087128Y0214752D01*
X0089030Y0212850D01*
X0098702Y0212850D01*
X0098702Y0213195D01*
X0099403Y0214886D01*
X0100697Y0216180D01*
X0102387Y0216880D01*
X0104217Y0216880D01*
X0105906Y0216181D01*
X0109737Y0220013D01*
X0110913Y0220500D01*
X0112925Y0220500D01*
X0114653Y0222228D01*
X0111735Y0225146D01*
X0111735Y0229412D01*
X0114602Y0232279D01*
X0111735Y0235146D01*
X0111735Y0239412D01*
X0114752Y0242429D01*
X0119018Y0242429D01*
X0122035Y0239412D01*
X0122035Y0235146D01*
X0119168Y0232279D01*
X0122035Y0229412D01*
X0122035Y0225900D01*
X0143525Y0225900D01*
X0149839Y0232214D01*
X0146924Y0235129D01*
X0143995Y0232200D01*
X0139853Y0232200D01*
X0136924Y0235129D01*
X0133995Y0232200D01*
X0129853Y0232200D01*
X0126924Y0235129D01*
X0126924Y0239271D01*
X0129853Y0242200D01*
X0133995Y0242200D01*
X0136924Y0239271D01*
X0136924Y0235129D01*
X0136924Y0239271D01*
X0139853Y0242200D01*
X0143995Y0242200D01*
X0146924Y0239271D01*
X0146924Y0235129D01*
X0146924Y0239271D01*
X0149853Y0242200D01*
X0153995Y0242200D01*
X0156910Y0239285D01*
X0156987Y0239363D01*
X0157037Y0239383D01*
X0159853Y0242200D01*
X0163995Y0242200D01*
X0166924Y0239271D01*
X0166924Y0236651D01*
X0166924Y0236651D01*
X0166924Y0239271D01*
X0169853Y0242200D01*
X0173995Y0242200D01*
X0176783Y0239412D01*
X0179770Y0242400D01*
X0181924Y0242400D01*
X0181924Y0237200D01*
X0181924Y0237200D01*
X0181924Y0247869D01*
X0177791Y0252003D01*
X0263420Y0252003D01*
X0362043Y0252003D01*
X0372869Y0241176D01*
X0372869Y0235980D01*
X0372672Y0235783D01*
X0372672Y0235783D01*
X0367701Y0235783D01*
X0367701Y0236174D01*
X0367823Y0236947D01*
X0368065Y0237691D01*
X0368420Y0238388D01*
X0368880Y0239021D01*
X0369434Y0239575D01*
X0370067Y0240035D01*
X0370764Y0240390D01*
X0371508Y0240632D01*
X0372281Y0240754D01*
X0372672Y0240754D01*
X0372672Y0235783D01*
X0372672Y0235783D01*
X0367701Y0235783D01*
X0367701Y0235391D01*
X0367823Y0234618D01*
X0368065Y0233874D01*
X0368420Y0233177D01*
X0368880Y0232544D01*
X0369434Y0231991D01*
X0370005Y0231575D01*
X0369970Y0231560D01*
X0368627Y0230218D01*
X0367901Y0228464D01*
X0367901Y0226566D01*
X0368627Y0224812D01*
X0368977Y0224462D01*
X0330184Y0185669D01*
X0329481Y0184966D01*
X0329100Y0184047D01*
X0329100Y0137402D01*
X0328805Y0137697D01*
X0324414Y0137697D01*
X0321467Y0134750D01*
X0317603Y0134750D01*
X0316909Y0134463D01*
X0316909Y0134592D01*
X0313805Y0137697D01*
X0309414Y0137697D01*
X0306917Y0135200D01*
X0251636Y0135200D01*
X0231374Y0155462D01*
X0231894Y0155246D01*
X0234002Y0155246D01*
X0235950Y0156053D01*
X0237441Y0157544D01*
X0238248Y0159492D01*
X0238248Y0161601D01*
X0237648Y0163050D01*
X0287364Y0163050D01*
X0301309Y0149105D01*
X0301309Y0145202D01*
X0304414Y0142097D01*
X0308805Y0142097D01*
X0311909Y0145202D01*
X0311909Y0149592D01*
X0308805Y0152697D01*
X0304789Y0152697D01*
X0289816Y0167669D01*
X0288897Y0168050D01*
X0220853Y0168050D01*
X0219934Y0167669D01*
X0219231Y0166966D01*
X0216627Y0164363D01*
X0215950Y0165040D01*
X0215300Y0165309D01*
X0215300Y0181797D01*
X0214919Y0182716D01*
X0214216Y0183419D01*
X0175516Y0222119D01*
X0174597Y0222500D01*
X0149175Y0222500D01*
X0159364Y0232689D01*
X0159853Y0232200D01*
X0162325Y0232200D01*
X0165087Y0229437D01*
X0166263Y0228950D01*
X0184637Y0228950D01*
X0185813Y0229437D01*
X0186713Y0230337D01*
X0195675Y0239300D01*
X0197562Y0239300D01*
X0197562Y0235146D01*
X0200429Y0232279D01*
X0197562Y0229412D01*
X0197562Y0225146D01*
X0200579Y0222129D01*
X0204845Y0222129D01*
X0207862Y0225146D01*
X0207862Y0229412D01*
X0204995Y0232279D01*
X0207862Y0235146D01*
X0207862Y0239300D01*
X0212820Y0239300D01*
X0212791Y0239271D01*
X0212791Y0235129D01*
X0215719Y0232200D01*
X0219862Y0232200D01*
X0222791Y0235129D01*
X0225719Y0232200D01*
X0229862Y0232200D01*
X0232791Y0235129D01*
X0235719Y0232200D01*
X0239862Y0232200D01*
X0242718Y0235056D01*
X0242937Y0234837D01*
X0243185Y0234735D01*
X0245719Y0232200D01*
X0249862Y0232200D01*
X0252791Y0235129D01*
X0255719Y0232200D01*
X0259862Y0232200D01*
X0262649Y0234988D01*
X0265637Y0232000D01*
X0267790Y0232000D01*
X0267790Y0237200D01*
X0267790Y0242400D01*
X0265637Y0242400D01*
X0262649Y0239412D01*
X0259862Y0242200D01*
X0255719Y0242200D01*
X0252791Y0239271D01*
X0252791Y0235129D01*
X0252791Y0239271D01*
X0249862Y0242200D01*
X0245719Y0242200D01*
X0245172Y0241653D01*
X0242513Y0244313D01*
X0241613Y0245213D01*
X0240437Y0245700D01*
X0193713Y0245700D01*
X0192537Y0245213D01*
X0186901Y0239577D01*
X0184078Y0242400D01*
X0181924Y0242400D01*
X0181924Y0237200D01*
X0181924Y0237254D02*
X0181924Y0237254D01*
X0181924Y0239653D02*
X0181924Y0239653D01*
X0181924Y0242051D02*
X0181924Y0242051D01*
X0179422Y0242051D02*
X0174144Y0242051D01*
X0176543Y0239653D02*
X0177023Y0239653D01*
X0169704Y0242051D02*
X0164144Y0242051D01*
X0166543Y0239653D02*
X0167306Y0239653D01*
X0166924Y0237254D02*
X0166924Y0237254D01*
X0161950Y0237100D02*
X0161924Y0237200D01*
X0161050Y0236650D01*
X0158800Y0236650D01*
X0144850Y0222700D01*
X0119650Y0222700D01*
X0114250Y0217300D01*
X0111550Y0217300D01*
X0104350Y0210100D01*
X0103302Y0209680D01*
X0103000Y0209650D01*
X0085000Y0209650D01*
X0084995Y0209602D01*
X0081380Y0213269D02*
X0024059Y0213269D01*
X0021622Y0210870D02*
X0079845Y0210870D01*
X0079845Y0208472D02*
X0019185Y0208472D01*
X0016748Y0206073D02*
X0081240Y0206073D01*
X0081503Y0203675D02*
X0014312Y0203675D01*
X0011875Y0201276D02*
X0019786Y0201276D01*
X0020529Y0201476D02*
X0017910Y0200774D01*
X0015561Y0199418D01*
X0013644Y0197500D01*
X0012288Y0195152D01*
X0011586Y0192532D01*
X0011586Y0189820D01*
X0012288Y0187201D01*
X0013644Y0184853D01*
X0015561Y0182935D01*
X0017910Y0181579D01*
X0020529Y0180877D01*
X0023241Y0180877D01*
X0025860Y0181579D01*
X0028209Y0182935D01*
X0030126Y0184853D01*
X0031482Y0187201D01*
X0032184Y0189820D01*
X0032184Y0192532D01*
X0031482Y0195152D01*
X0030126Y0197500D01*
X0028209Y0199418D01*
X0025860Y0200774D01*
X0023241Y0201476D01*
X0020529Y0201476D01*
X0023984Y0201276D02*
X0079645Y0201276D01*
X0079645Y0199602D02*
X0079645Y0197386D01*
X0082779Y0194252D01*
X0084995Y0194252D01*
X0084995Y0199601D01*
X0084995Y0199601D01*
X0084995Y0199602D02*
X0079645Y0199602D01*
X0079326Y0199602D02*
X0078578Y0198854D01*
X0078578Y0199838D01*
X0068735Y0209680D01*
X0068735Y0224998D01*
X0068770Y0225032D01*
X0068770Y0225032D01*
X0068770Y0219832D01*
X0065361Y0219832D01*
X0064552Y0219960D01*
X0063774Y0220213D01*
X0063045Y0220585D01*
X0062383Y0221066D01*
X0061804Y0221645D01*
X0061323Y0222307D01*
X0060951Y0223036D01*
X0060698Y0223815D01*
X0060570Y0224623D01*
X0060570Y0225032D01*
X0068770Y0225032D01*
X0068770Y0219832D01*
X0072179Y0219832D01*
X0072988Y0219960D01*
X0073766Y0220213D01*
X0074495Y0220585D01*
X0075158Y0221066D01*
X0075736Y0221645D01*
X0076218Y0222307D01*
X0076589Y0223036D01*
X0076842Y0223815D01*
X0076970Y0224623D01*
X0076970Y0225032D01*
X0068770Y0225032D01*
X0068770Y0225032D01*
X0067754Y0225032D01*
X0053381Y0239405D01*
X0053381Y0240783D01*
X0064602Y0252003D01*
X0177791Y0252003D01*
X0191774Y0244450D02*
X0102112Y0244450D01*
X0102370Y0243827D02*
X0101609Y0245665D01*
X0100202Y0247071D01*
X0098365Y0247832D01*
X0090376Y0247832D01*
X0088538Y0247071D01*
X0087131Y0245665D01*
X0086370Y0243827D01*
X0086370Y0241838D01*
X0087131Y0240000D01*
X0088538Y0238593D01*
X0090376Y0237832D01*
X0098365Y0237832D01*
X0100202Y0238593D01*
X0101609Y0240000D01*
X0102370Y0241838D01*
X0102370Y0243827D01*
X0102370Y0242051D02*
X0114374Y0242051D01*
X0111976Y0239653D02*
X0101261Y0239653D01*
X0111735Y0237254D02*
X0048428Y0237254D01*
X0045991Y0234856D02*
X0112025Y0234856D01*
X0114423Y0232457D02*
X0043554Y0232457D01*
X0041117Y0230059D02*
X0064412Y0230059D01*
X0064552Y0230104D02*
X0063774Y0229851D01*
X0063045Y0229480D01*
X0062383Y0228999D01*
X0061804Y0228420D01*
X0061323Y0227758D01*
X0060951Y0227028D01*
X0060698Y0226250D01*
X0060570Y0225442D01*
X0060570Y0225032D01*
X0068770Y0225032D01*
X0094370Y0225032D01*
X0094370Y0225032D01*
X0094370Y0219832D01*
X0090961Y0219832D01*
X0090152Y0219960D01*
X0089374Y0220213D01*
X0088645Y0220585D01*
X0087983Y0221066D01*
X0087404Y0221645D01*
X0086923Y0222307D01*
X0086551Y0223036D01*
X0086298Y0223815D01*
X0086170Y0224623D01*
X0086170Y0225032D01*
X0094370Y0225032D01*
X0094370Y0219832D01*
X0097779Y0219832D01*
X0098588Y0219960D01*
X0099366Y0220213D01*
X0100095Y0220585D01*
X0100758Y0221066D01*
X0101336Y0221645D01*
X0101818Y0222307D01*
X0102189Y0223036D01*
X0102442Y0223815D01*
X0102570Y0224623D01*
X0102570Y0225032D01*
X0094370Y0225032D01*
X0094370Y0225032D01*
X0094370Y0225032D01*
X0086170Y0225032D01*
X0086170Y0225442D01*
X0086298Y0226250D01*
X0086551Y0227028D01*
X0086923Y0227758D01*
X0087404Y0228420D01*
X0087983Y0228999D01*
X0088645Y0229480D01*
X0089374Y0229851D01*
X0090152Y0230104D01*
X0090961Y0230232D01*
X0094370Y0230232D01*
X0094370Y0225032D01*
X0102570Y0225032D01*
X0102570Y0225442D01*
X0102442Y0226250D01*
X0102189Y0227028D01*
X0101818Y0227758D01*
X0101336Y0228420D01*
X0100758Y0228999D01*
X0100095Y0229480D01*
X0099366Y0229851D01*
X0098588Y0230104D01*
X0097779Y0230232D01*
X0094370Y0230232D01*
X0094370Y0225032D01*
X0094370Y0225032D01*
X0094370Y0225262D02*
X0094370Y0225262D01*
X0094370Y0227660D02*
X0094370Y0227660D01*
X0094370Y0230059D02*
X0094370Y0230059D01*
X0090012Y0230059D02*
X0073128Y0230059D01*
X0072988Y0230104D02*
X0072179Y0230232D01*
X0068770Y0230232D01*
X0065361Y0230232D01*
X0064552Y0230104D01*
X0061273Y0227660D02*
X0038680Y0227660D01*
X0036243Y0225262D02*
X0060570Y0225262D01*
X0061039Y0222863D02*
X0033807Y0222863D01*
X0031370Y0220465D02*
X0063281Y0220465D01*
X0068770Y0220465D02*
X0068770Y0220465D01*
X0068770Y0222863D02*
X0068770Y0222863D01*
X0068770Y0225032D02*
X0068770Y0225032D01*
X0076970Y0225032D01*
X0076970Y0225442D01*
X0076842Y0226250D01*
X0076589Y0227028D01*
X0076218Y0227758D01*
X0075736Y0228420D01*
X0075158Y0228999D01*
X0074495Y0229480D01*
X0073766Y0229851D01*
X0072988Y0230104D01*
X0076267Y0227660D02*
X0086873Y0227660D01*
X0086170Y0225262D02*
X0076970Y0225262D01*
X0076501Y0222863D02*
X0086639Y0222863D01*
X0088881Y0220465D02*
X0074259Y0220465D01*
X0068770Y0225032D02*
X0068770Y0225032D01*
X0068770Y0230232D01*
X0068770Y0225032D01*
X0068770Y0225262D02*
X0068770Y0225262D01*
X0068770Y0227660D02*
X0068770Y0227660D01*
X0068770Y0230059D02*
X0068770Y0230059D01*
X0064776Y0237832D02*
X0072765Y0237832D01*
X0074602Y0238593D01*
X0076009Y0240000D01*
X0076770Y0241838D01*
X0076770Y0243827D01*
X0076009Y0245665D01*
X0074602Y0247071D01*
X0072765Y0247832D01*
X0064776Y0247832D01*
X0062938Y0247071D01*
X0061531Y0245665D01*
X0060770Y0243827D01*
X0060770Y0241838D01*
X0061531Y0240000D01*
X0062938Y0238593D01*
X0064776Y0237832D01*
X0061879Y0239653D02*
X0050865Y0239653D01*
X0053302Y0242051D02*
X0060770Y0242051D01*
X0061028Y0244450D02*
X0055739Y0244450D01*
X0058175Y0246848D02*
X0062715Y0246848D01*
X0060612Y0249247D02*
X0376153Y0249247D01*
X0376153Y0251645D02*
X0063049Y0251645D01*
X0074825Y0246848D02*
X0088315Y0246848D01*
X0086628Y0244450D02*
X0076512Y0244450D01*
X0076770Y0242051D02*
X0086370Y0242051D01*
X0087479Y0239653D02*
X0075661Y0239653D01*
X0098728Y0230059D02*
X0112382Y0230059D01*
X0111735Y0227660D02*
X0101867Y0227660D01*
X0102570Y0225262D02*
X0111735Y0225262D01*
X0114018Y0222863D02*
X0102101Y0222863D01*
X0099859Y0220465D02*
X0110828Y0220465D01*
X0107791Y0218066D02*
X0028933Y0218066D01*
X0026496Y0215668D02*
X0100184Y0215668D01*
X0098733Y0213269D02*
X0088611Y0213269D01*
X0088750Y0206073D02*
X0098740Y0206073D01*
X0100202Y0203675D02*
X0088488Y0203675D01*
X0090345Y0201276D02*
X0129888Y0201276D01*
X0132287Y0198878D02*
X0090345Y0198878D01*
X0090345Y0199602D02*
X0084995Y0199602D01*
X0079326Y0199602D01*
X0079645Y0198878D02*
X0028749Y0198878D01*
X0030716Y0196479D02*
X0080551Y0196479D01*
X0078578Y0198854D02*
X0060861Y0181137D01*
X0060861Y0147476D01*
X0060901Y0147436D01*
X0060901Y0147436D01*
X0065901Y0147436D01*
X0065901Y0145365D01*
X0062972Y0142436D01*
X0060901Y0142436D01*
X0060901Y0137436D01*
X0060901Y0137436D01*
X0065901Y0137436D01*
X0065901Y0135365D01*
X0062972Y0132436D01*
X0060901Y0132436D01*
X0060901Y0137436D01*
X0060901Y0137436D01*
X0065901Y0137436D01*
X0065901Y0139507D01*
X0062972Y0142436D01*
X0060901Y0142436D01*
X0060901Y0147436D01*
X0060901Y0147436D01*
X0065901Y0147436D01*
X0065901Y0149507D01*
X0062972Y0152436D01*
X0060901Y0152436D01*
X0060901Y0147436D01*
X0060901Y0137436D01*
X0060901Y0101452D01*
X0057121Y0097672D01*
X0057121Y0077200D01*
X0052003Y0072082D01*
X0052003Y0059247D01*
X0052003Y0059247D01*
X0052003Y0051847D01*
X0051625Y0051847D01*
X0050879Y0051965D01*
X0050161Y0052199D01*
X0049487Y0052542D01*
X0048876Y0052986D01*
X0048342Y0053520D01*
X0047898Y0054131D01*
X0047555Y0054805D01*
X0047321Y0055523D01*
X0047203Y0056269D01*
X0047203Y0059247D01*
X0052003Y0059247D01*
X0052003Y0059247D01*
X0052003Y0051847D01*
X0052381Y0051847D01*
X0053127Y0051965D01*
X0053846Y0052199D01*
X0054519Y0052542D01*
X0055130Y0052986D01*
X0055664Y0053520D01*
X0056108Y0054131D01*
X0056451Y0054805D01*
X0056685Y0055523D01*
X0056803Y0056269D01*
X0056803Y0059247D01*
X0052003Y0059247D01*
X0052003Y0052791D01*
X0055153Y0049641D01*
X0079169Y0049641D01*
X0081924Y0052397D01*
X0081924Y0059169D01*
X0082003Y0059247D01*
X0082003Y0059247D01*
X0082003Y0051847D01*
X0081625Y0051847D01*
X0080879Y0051965D01*
X0080161Y0052199D01*
X0079487Y0052542D01*
X0078876Y0052986D01*
X0078342Y0053520D01*
X0077898Y0054131D01*
X0077555Y0054805D01*
X0077321Y0055523D01*
X0077203Y0056269D01*
X0077203Y0059247D01*
X0082003Y0059247D01*
X0082003Y0059247D01*
X0082003Y0051847D01*
X0082381Y0051847D01*
X0083127Y0051965D01*
X0083846Y0052199D01*
X0084519Y0052542D01*
X0085130Y0052986D01*
X0085664Y0053520D01*
X0086108Y0054131D01*
X0086451Y0054805D01*
X0086685Y0055523D01*
X0086803Y0056269D01*
X0086803Y0059247D01*
X0082003Y0059247D01*
X0077203Y0059247D01*
X0077203Y0062225D01*
X0077321Y0062971D01*
X0077555Y0063690D01*
X0077898Y0064363D01*
X0078342Y0064974D01*
X0078876Y0065508D01*
X0079487Y0065953D01*
X0080161Y0066296D01*
X0080879Y0066529D01*
X0081625Y0066647D01*
X0082003Y0066647D01*
X0082003Y0059247D01*
X0082003Y0059247D01*
X0082003Y0059247D01*
X0086803Y0059247D01*
X0086803Y0062225D01*
X0086685Y0062971D01*
X0086451Y0063690D01*
X0086108Y0064363D01*
X0085664Y0064974D01*
X0085130Y0065508D01*
X0084519Y0065953D01*
X0083846Y0066296D01*
X0083127Y0066529D01*
X0082381Y0066647D01*
X0082003Y0066647D01*
X0082003Y0059247D01*
X0082003Y0059764D02*
X0082003Y0059764D01*
X0082003Y0057366D02*
X0082003Y0057366D01*
X0082003Y0054967D02*
X0082003Y0054967D01*
X0082003Y0052569D02*
X0082003Y0052569D01*
X0079450Y0052569D02*
X0074177Y0052569D01*
X0074609Y0052748D02*
X0075903Y0054042D01*
X0076603Y0055732D01*
X0076603Y0062762D01*
X0075903Y0064453D01*
X0074609Y0065747D01*
X0072918Y0066447D01*
X0071088Y0066447D01*
X0069397Y0065747D01*
X0068103Y0064453D01*
X0067403Y0062762D01*
X0067403Y0055732D01*
X0068103Y0054042D01*
X0069397Y0052748D01*
X0071088Y0052047D01*
X0072918Y0052047D01*
X0074609Y0052748D01*
X0076286Y0054967D02*
X0077502Y0054967D01*
X0077203Y0057366D02*
X0076603Y0057366D01*
X0076603Y0059764D02*
X0077203Y0059764D01*
X0077203Y0062163D02*
X0076603Y0062163D01*
X0075794Y0064561D02*
X0078042Y0064561D01*
X0082003Y0064561D02*
X0082003Y0064561D01*
X0082003Y0062163D02*
X0082003Y0062163D01*
X0085964Y0064561D02*
X0098243Y0064561D01*
X0097845Y0064163D02*
X0097845Y0055906D01*
X0099016Y0054735D01*
X0107273Y0054735D01*
X0108445Y0055906D01*
X0108445Y0057532D01*
X0108652Y0057032D01*
X0110143Y0055542D01*
X0112091Y0054735D01*
X0114199Y0054735D01*
X0116147Y0055542D01*
X0117638Y0057032D01*
X0118145Y0058256D01*
X0118652Y0057032D01*
X0120143Y0055542D01*
X0122091Y0054735D01*
X0124199Y0054735D01*
X0126147Y0055542D01*
X0127638Y0057032D01*
X0128145Y0058256D01*
X0128652Y0057032D01*
X0130143Y0055542D01*
X0132091Y0054735D01*
X0134199Y0054735D01*
X0136147Y0055542D01*
X0137638Y0057032D01*
X0138145Y0058256D01*
X0138652Y0057032D01*
X0140143Y0055542D01*
X0142091Y0054735D01*
X0144199Y0054735D01*
X0146147Y0055542D01*
X0147638Y0057032D01*
X0148145Y0058256D01*
X0148652Y0057032D01*
X0150143Y0055542D01*
X0152091Y0054735D01*
X0154199Y0054735D01*
X0156147Y0055542D01*
X0157638Y0057032D01*
X0158145Y0058256D01*
X0158652Y0057032D01*
X0160143Y0055542D01*
X0162091Y0054735D01*
X0164199Y0054735D01*
X0166147Y0055542D01*
X0167638Y0057032D01*
X0168030Y0057979D01*
X0168048Y0057923D01*
X0168441Y0057152D01*
X0168950Y0056452D01*
X0169562Y0055839D01*
X0170262Y0055331D01*
X0171034Y0054938D01*
X0171857Y0054670D01*
X0172712Y0054535D01*
X0173145Y0054535D01*
X0173578Y0054535D01*
X0174433Y0054670D01*
X0175256Y0054938D01*
X0176028Y0055331D01*
X0176728Y0055839D01*
X0177340Y0056452D01*
X0177849Y0057152D01*
X0178242Y0057923D01*
X0178260Y0057979D01*
X0178652Y0057032D01*
X0180143Y0055542D01*
X0182091Y0054735D01*
X0184199Y0054735D01*
X0186147Y0055542D01*
X0187638Y0057032D01*
X0188145Y0058256D01*
X0188652Y0057032D01*
X0190143Y0055542D01*
X0192091Y0054735D01*
X0194199Y0054735D01*
X0196147Y0055542D01*
X0197638Y0057032D01*
X0198145Y0058256D01*
X0198652Y0057032D01*
X0200143Y0055542D01*
X0202091Y0054735D01*
X0204199Y0054735D01*
X0206147Y0055542D01*
X0207638Y0057032D01*
X0208145Y0058256D01*
X0208652Y0057032D01*
X0210143Y0055542D01*
X0212091Y0054735D01*
X0214199Y0054735D01*
X0216147Y0055542D01*
X0217638Y0057032D01*
X0218145Y0058256D01*
X0218652Y0057032D01*
X0220143Y0055542D01*
X0222091Y0054735D01*
X0224199Y0054735D01*
X0226147Y0055542D01*
X0227638Y0057032D01*
X0228145Y0058256D01*
X0228652Y0057032D01*
X0230143Y0055542D01*
X0232091Y0054735D01*
X0234199Y0054735D01*
X0236147Y0055542D01*
X0237638Y0057032D01*
X0238445Y0058980D01*
X0238445Y0061089D01*
X0238278Y0061492D01*
X0240119Y0063334D01*
X0240500Y0064253D01*
X0240500Y0092247D01*
X0240119Y0093166D01*
X0239416Y0093869D01*
X0235550Y0097736D01*
X0235550Y0100417D01*
X0238051Y0102918D01*
X0238051Y0107250D01*
X0308967Y0107250D01*
X0306309Y0104592D01*
X0306309Y0100202D01*
X0309414Y0097097D01*
X0313805Y0097097D01*
X0316909Y0100202D01*
X0316909Y0104592D01*
X0313805Y0107697D01*
X0312382Y0107697D01*
X0313019Y0108334D01*
X0333719Y0129034D01*
X0334100Y0129953D01*
X0334100Y0142411D01*
X0334414Y0142097D01*
X0338750Y0142097D01*
X0338750Y0101625D01*
X0322309Y0085185D01*
X0320664Y0085185D01*
X0318771Y0084401D01*
X0317620Y0083250D01*
X0302921Y0083250D01*
X0300987Y0085185D01*
X0297691Y0085185D01*
X0290213Y0092663D01*
X0289037Y0093150D01*
X0286791Y0093150D01*
X0286791Y0094507D01*
X0285984Y0096455D01*
X0284494Y0097946D01*
X0282546Y0098753D01*
X0280437Y0098753D01*
X0278489Y0097946D01*
X0276998Y0096455D01*
X0276606Y0095509D01*
X0276588Y0095564D01*
X0276195Y0096335D01*
X0275686Y0097036D01*
X0275074Y0097648D01*
X0274374Y0098157D01*
X0273603Y0098550D01*
X0272779Y0098817D01*
X0271924Y0098953D01*
X0271491Y0098953D01*
X0271058Y0098953D01*
X0270203Y0098817D01*
X0269380Y0098550D01*
X0268609Y0098157D01*
X0267908Y0097648D01*
X0267296Y0097036D01*
X0266787Y0096335D01*
X0266394Y0095564D01*
X0266376Y0095509D01*
X0265984Y0096455D01*
X0264494Y0097946D01*
X0262546Y0098753D01*
X0260437Y0098753D01*
X0258489Y0097946D01*
X0256998Y0096455D01*
X0256191Y0094507D01*
X0256191Y0085799D01*
X0256998Y0083851D01*
X0258489Y0082360D01*
X0260437Y0081553D01*
X0262546Y0081553D01*
X0264494Y0082360D01*
X0265984Y0083851D01*
X0266376Y0084797D01*
X0266394Y0084741D01*
X0266787Y0083970D01*
X0267296Y0083270D01*
X0267908Y0082658D01*
X0268609Y0082149D01*
X0269380Y0081756D01*
X0270203Y0081488D01*
X0271058Y0081353D01*
X0271491Y0081353D01*
X0271491Y0090153D01*
X0271491Y0098953D01*
X0271491Y0090153D01*
X0271491Y0090153D01*
X0271491Y0081728D01*
X0261767Y0072003D01*
X0261767Y0066964D01*
X0261767Y0066964D01*
X0261767Y0072314D01*
X0263983Y0072314D01*
X0266908Y0069388D01*
X0269634Y0072114D01*
X0273900Y0072114D01*
X0276917Y0069097D01*
X0276917Y0064831D01*
X0273900Y0061814D01*
X0269634Y0061814D01*
X0266908Y0064539D01*
X0263983Y0061614D01*
X0261767Y0061614D01*
X0261767Y0066964D01*
X0261767Y0072314D01*
X0259551Y0072314D01*
X0256417Y0069180D01*
X0256417Y0066964D01*
X0261767Y0066964D01*
X0261767Y0047279D01*
X0261767Y0047279D01*
X0261767Y0055479D01*
X0262176Y0055479D01*
X0262985Y0055351D01*
X0263763Y0055098D01*
X0264492Y0054726D01*
X0265154Y0054245D01*
X0265733Y0053666D01*
X0266214Y0053004D01*
X0266586Y0052275D01*
X0266839Y0051496D01*
X0266845Y0051461D01*
X0267528Y0053111D01*
X0268935Y0054518D01*
X0270772Y0055279D01*
X0272761Y0055279D01*
X0274599Y0054518D01*
X0276006Y0053111D01*
X0276767Y0051273D01*
X0276767Y0043284D01*
X0276006Y0041446D01*
X0274599Y0040040D01*
X0272761Y0039279D01*
X0270772Y0039279D01*
X0268935Y0040040D01*
X0267528Y0041446D01*
X0266845Y0043097D01*
X0266839Y0043061D01*
X0266586Y0042283D01*
X0266214Y0041553D01*
X0265733Y0040891D01*
X0265154Y0040312D01*
X0264492Y0039831D01*
X0263763Y0039460D01*
X0262985Y0039207D01*
X0262176Y0039079D01*
X0261767Y0039079D01*
X0261767Y0047279D01*
X0261767Y0055479D01*
X0261358Y0055479D01*
X0260549Y0055351D01*
X0259771Y0055098D01*
X0259042Y0054726D01*
X0258379Y0054245D01*
X0257801Y0053666D01*
X0257319Y0053004D01*
X0256948Y0052275D01*
X0256695Y0051496D01*
X0256567Y0050688D01*
X0256567Y0047279D01*
X0261767Y0047279D01*
X0261767Y0047279D01*
X0256567Y0047279D01*
X0256567Y0043869D01*
X0256695Y0043061D01*
X0256948Y0042283D01*
X0257319Y0041553D01*
X0257801Y0040891D01*
X0258379Y0040312D01*
X0259042Y0039831D01*
X0259771Y0039460D01*
X0260549Y0039207D01*
X0261358Y0039079D01*
X0261767Y0039079D01*
X0261767Y0047279D01*
X0261767Y0047279D01*
X0261767Y0047772D02*
X0261767Y0047772D01*
X0261767Y0050170D02*
X0261767Y0050170D01*
X0261767Y0052569D02*
X0261767Y0052569D01*
X0261767Y0054967D02*
X0261767Y0054967D01*
X0264019Y0054967D02*
X0270020Y0054967D01*
X0273513Y0054967D02*
X0401409Y0054967D01*
X0401409Y0052569D02*
X0276230Y0052569D01*
X0276767Y0050170D02*
X0401409Y0050170D01*
X0401409Y0047772D02*
X0276767Y0047772D01*
X0276767Y0045373D02*
X0401409Y0045373D01*
X0401409Y0042975D02*
X0276639Y0042975D01*
X0275135Y0040576D02*
X0401409Y0040576D01*
X0401409Y0038178D02*
X0176452Y0038178D01*
X0178259Y0040576D02*
X0258116Y0040576D01*
X0256723Y0042975D02*
X0178259Y0042975D01*
X0177301Y0045373D02*
X0256567Y0045373D01*
X0256567Y0047772D02*
X0007400Y0047772D01*
X0007400Y0050170D02*
X0256567Y0050170D01*
X0257098Y0052569D02*
X0084556Y0052569D01*
X0086504Y0054967D02*
X0098784Y0054967D01*
X0097845Y0057366D02*
X0086803Y0057366D01*
X0086803Y0059764D02*
X0097845Y0059764D01*
X0097845Y0062163D02*
X0086803Y0062163D01*
X0097845Y0064163D02*
X0099016Y0065335D01*
X0100500Y0065335D01*
X0100500Y0082614D01*
X0097084Y0086031D01*
X0096381Y0086734D01*
X0096000Y0087653D01*
X0096000Y0096426D01*
X0095696Y0096300D01*
X0094104Y0096300D01*
X0093066Y0096730D01*
X0086603Y0090268D01*
X0086603Y0085732D01*
X0085903Y0084042D01*
X0084609Y0082748D01*
X0082918Y0082047D01*
X0081088Y0082047D01*
X0079397Y0082748D01*
X0078103Y0084042D01*
X0077403Y0085732D01*
X0077403Y0092762D01*
X0078103Y0094453D01*
X0079397Y0095747D01*
X0081088Y0096447D01*
X0082918Y0096447D01*
X0084609Y0095747D01*
X0084810Y0095546D01*
X0091282Y0102017D01*
X0091509Y0102566D01*
X0092634Y0103691D01*
X0094104Y0104300D01*
X0095696Y0104300D01*
X0097166Y0103691D01*
X0097761Y0103096D01*
X0097845Y0103180D01*
X0097845Y0107309D01*
X0100807Y0110271D01*
X0098042Y0113036D01*
X0098042Y0117427D01*
X0101146Y0120531D01*
X0105450Y0120531D01*
X0105450Y0125246D01*
X0098820Y0125246D01*
X0097648Y0126418D01*
X0097648Y0134675D01*
X0098820Y0135846D01*
X0105450Y0135846D01*
X0105450Y0143943D01*
X0104559Y0144834D01*
X0103950Y0146304D01*
X0103950Y0147896D01*
X0104559Y0149366D01*
X0105684Y0150491D01*
X0107154Y0151100D01*
X0108746Y0151100D01*
X0110216Y0150491D01*
X0111341Y0149366D01*
X0111950Y0147896D01*
X0111950Y0146304D01*
X0111341Y0144834D01*
X0110450Y0143943D01*
X0110450Y0135248D01*
X0111894Y0135846D01*
X0114002Y0135846D01*
X0114539Y0135624D01*
X0115350Y0136436D01*
X0115350Y0155805D01*
X0114002Y0155246D01*
X0111894Y0155246D01*
X0109946Y0156053D01*
X0108455Y0157544D01*
X0107948Y0158768D01*
X0107441Y0157544D01*
X0105950Y0156053D01*
X0104002Y0155246D01*
X0101894Y0155246D01*
X0099946Y0156053D01*
X0098455Y0157544D01*
X0097648Y0159492D01*
X0097648Y0161601D01*
X0098455Y0163549D01*
X0099946Y0165040D01*
X0101894Y0165846D01*
X0104002Y0165846D01*
X0105950Y0165040D01*
X0107441Y0163549D01*
X0107948Y0162325D01*
X0108455Y0163549D01*
X0109946Y0165040D01*
X0111200Y0165559D01*
X0110850Y0166403D01*
X0110850Y0173117D01*
X0110697Y0173181D01*
X0109403Y0174475D01*
X0108702Y0176165D01*
X0108702Y0183195D01*
X0109403Y0184886D01*
X0110697Y0186180D01*
X0112387Y0186880D01*
X0114217Y0186880D01*
X0115908Y0186180D01*
X0117202Y0184886D01*
X0117902Y0183195D01*
X0117902Y0176165D01*
X0117202Y0174475D01*
X0115908Y0173181D01*
X0115850Y0173157D01*
X0115850Y0167936D01*
X0119266Y0164519D01*
X0119346Y0164440D01*
X0119946Y0165040D01*
X0121339Y0165617D01*
X0121200Y0165953D01*
X0121200Y0172972D01*
X0120697Y0173181D01*
X0119403Y0174475D01*
X0118702Y0176165D01*
X0118702Y0183195D01*
X0119403Y0184886D01*
X0120697Y0186180D01*
X0122387Y0186880D01*
X0124217Y0186880D01*
X0125908Y0186180D01*
X0127202Y0184886D01*
X0127902Y0183195D01*
X0127902Y0176165D01*
X0127202Y0174475D01*
X0126200Y0173473D01*
X0126200Y0167486D01*
X0129166Y0164519D01*
X0129296Y0164390D01*
X0129946Y0165040D01*
X0131894Y0165846D01*
X0134002Y0165846D01*
X0134609Y0165595D01*
X0138484Y0169469D01*
X0139403Y0169850D01*
X0153447Y0169850D01*
X0154366Y0169469D01*
X0155069Y0168766D01*
X0159229Y0164606D01*
X0159365Y0164742D01*
X0160065Y0165250D01*
X0160837Y0165643D01*
X0161660Y0165911D01*
X0162515Y0166046D01*
X0162948Y0166046D01*
X0162948Y0160547D01*
X0162948Y0166046D01*
X0163381Y0166046D01*
X0164236Y0165911D01*
X0165059Y0165643D01*
X0165831Y0165250D01*
X0166531Y0164742D01*
X0167143Y0164129D01*
X0167652Y0163429D01*
X0168045Y0162658D01*
X0168063Y0162603D01*
X0168455Y0163549D01*
X0169946Y0165040D01*
X0171894Y0165846D01*
X0174002Y0165846D01*
X0175950Y0165040D01*
X0177441Y0163549D01*
X0177948Y0162325D01*
X0178455Y0163549D01*
X0179946Y0165040D01*
X0181894Y0165846D01*
X0184002Y0165846D01*
X0185550Y0165205D01*
X0185550Y0173514D01*
X0178102Y0180962D01*
X0178102Y0179680D01*
X0173302Y0179680D01*
X0173302Y0172280D01*
X0173680Y0172280D01*
X0174426Y0172399D01*
X0175145Y0172632D01*
X0175818Y0172975D01*
X0176429Y0173419D01*
X0176964Y0173953D01*
X0177408Y0174565D01*
X0177751Y0175238D01*
X0177984Y0175956D01*
X0178102Y0176703D01*
X0178102Y0179680D01*
X0173302Y0179680D01*
X0173302Y0185428D01*
X0165980Y0192751D01*
X0159680Y0192751D01*
X0108617Y0192751D01*
X0103302Y0187436D01*
X0091137Y0199602D01*
X0084995Y0199602D01*
X0084995Y0199602D01*
X0084995Y0199601D02*
X0084995Y0194252D01*
X0087211Y0194252D01*
X0090345Y0197386D01*
X0090345Y0199602D01*
X0089439Y0196479D02*
X0134685Y0196479D01*
X0137084Y0194081D02*
X0031769Y0194081D01*
X0032184Y0191682D02*
X0167382Y0191682D01*
X0169781Y0189284D02*
X0032040Y0189284D01*
X0031300Y0186885D02*
X0101942Y0186885D01*
X0102178Y0186962D02*
X0101460Y0186729D01*
X0100787Y0186386D01*
X0100175Y0185942D01*
X0099641Y0185407D01*
X0099197Y0184796D01*
X0098854Y0184123D01*
X0098621Y0183404D01*
X0098502Y0182658D01*
X0098502Y0179680D01*
X0098502Y0176703D01*
X0098621Y0175956D01*
X0098854Y0175238D01*
X0099197Y0174565D01*
X0099641Y0173953D01*
X0100175Y0173419D01*
X0100787Y0172975D01*
X0101460Y0172632D01*
X0102178Y0172399D01*
X0102925Y0172280D01*
X0103302Y0172280D01*
X0103302Y0179680D01*
X0098502Y0179680D01*
X0103302Y0179680D01*
X0103302Y0179680D01*
X0103302Y0179680D01*
X0103302Y0172280D01*
X0103680Y0172280D01*
X0104426Y0172399D01*
X0105145Y0172632D01*
X0105818Y0172975D01*
X0106429Y0173419D01*
X0106964Y0173953D01*
X0107408Y0174565D01*
X0107751Y0175238D01*
X0107984Y0175956D01*
X0108102Y0176703D01*
X0108102Y0179680D01*
X0103302Y0179680D01*
X0103302Y0187436D01*
X0103302Y0187080D02*
X0102925Y0187080D01*
X0102178Y0186962D01*
X0103302Y0186885D02*
X0103302Y0186885D01*
X0103302Y0187080D02*
X0103302Y0179680D01*
X0103302Y0179680D01*
X0103302Y0179680D01*
X0103302Y0187080D01*
X0103680Y0187080D01*
X0104426Y0186962D01*
X0105145Y0186729D01*
X0105818Y0186386D01*
X0106429Y0185942D01*
X0106964Y0185407D01*
X0107408Y0184796D01*
X0107751Y0184123D01*
X0107984Y0183404D01*
X0108102Y0182658D01*
X0108102Y0179680D01*
X0103302Y0179680D01*
X0103302Y0179690D02*
X0103302Y0179690D01*
X0103302Y0182088D02*
X0103302Y0182088D01*
X0103302Y0184487D02*
X0103302Y0184487D01*
X0104663Y0186885D02*
X0151942Y0186885D01*
X0152178Y0186962D02*
X0151460Y0186729D01*
X0150787Y0186386D01*
X0150175Y0185942D01*
X0149641Y0185407D01*
X0149197Y0184796D01*
X0148854Y0184123D01*
X0148621Y0183404D01*
X0148502Y0182658D01*
X0148502Y0179680D01*
X0148502Y0176703D01*
X0148621Y0175956D01*
X0148854Y0175238D01*
X0149197Y0174565D01*
X0149641Y0173953D01*
X0150175Y0173419D01*
X0150787Y0172975D01*
X0151460Y0172632D01*
X0152178Y0172399D01*
X0152925Y0172280D01*
X0153302Y0172280D01*
X0153302Y0179680D01*
X0148502Y0179680D01*
X0153302Y0179680D01*
X0153302Y0179680D01*
X0153302Y0179680D01*
X0153302Y0172280D01*
X0153680Y0172280D01*
X0154426Y0172399D01*
X0155145Y0172632D01*
X0155818Y0172975D01*
X0156429Y0173419D01*
X0156964Y0173953D01*
X0157408Y0174565D01*
X0157751Y0175238D01*
X0157984Y0175956D01*
X0158102Y0176703D01*
X0158102Y0179680D01*
X0153302Y0179680D01*
X0153381Y0179759D01*
X0153381Y0186452D01*
X0159680Y0192751D01*
X0162387Y0186880D02*
X0160697Y0186180D01*
X0159403Y0184886D01*
X0158702Y0183195D01*
X0158702Y0176165D01*
X0159403Y0174475D01*
X0160697Y0173181D01*
X0162387Y0172480D01*
X0164217Y0172480D01*
X0165908Y0173181D01*
X0167202Y0174475D01*
X0167902Y0176165D01*
X0167902Y0183195D01*
X0167202Y0184886D01*
X0165908Y0186180D01*
X0164217Y0186880D01*
X0162387Y0186880D01*
X0159237Y0184487D02*
X0157565Y0184487D01*
X0157408Y0184796D02*
X0156964Y0185407D01*
X0156429Y0185942D01*
X0155818Y0186386D01*
X0155145Y0186729D01*
X0154426Y0186962D01*
X0153680Y0187080D01*
X0153302Y0187080D01*
X0152925Y0187080D01*
X0152178Y0186962D01*
X0153302Y0186885D02*
X0153302Y0186885D01*
X0153302Y0187080D02*
X0153302Y0179680D01*
X0153302Y0179680D01*
X0153302Y0179680D01*
X0153302Y0187080D01*
X0154663Y0186885D02*
X0171942Y0186885D01*
X0173302Y0185762D02*
X0173302Y0185762D01*
X0173302Y0179680D01*
X0173302Y0179680D01*
X0173302Y0179680D01*
X0173302Y0185762D01*
X0173302Y0184487D02*
X0173302Y0184487D01*
X0173302Y0182088D02*
X0173302Y0182088D01*
X0173302Y0179690D02*
X0173302Y0179690D01*
X0173302Y0177291D02*
X0173302Y0177291D01*
X0173302Y0174893D02*
X0173302Y0174893D01*
X0173302Y0172494D02*
X0173302Y0172494D01*
X0171884Y0172494D02*
X0164251Y0172494D01*
X0162354Y0172494D02*
X0154721Y0172494D01*
X0153302Y0172494D02*
X0153302Y0172494D01*
X0151884Y0172494D02*
X0144251Y0172494D01*
X0144217Y0172480D02*
X0145908Y0173181D01*
X0147202Y0174475D01*
X0147902Y0176165D01*
X0147902Y0183195D01*
X0147202Y0184886D01*
X0145908Y0186180D01*
X0144217Y0186880D01*
X0142387Y0186880D01*
X0140697Y0186180D01*
X0139403Y0184886D01*
X0138702Y0183195D01*
X0138702Y0176165D01*
X0139403Y0174475D01*
X0140697Y0173181D01*
X0142387Y0172480D01*
X0144217Y0172480D01*
X0142354Y0172494D02*
X0134251Y0172494D01*
X0134217Y0172480D02*
X0135908Y0173181D01*
X0137202Y0174475D01*
X0137902Y0176165D01*
X0137902Y0183195D01*
X0137202Y0184886D01*
X0135908Y0186180D01*
X0134217Y0186880D01*
X0132387Y0186880D01*
X0130697Y0186180D01*
X0129403Y0184886D01*
X0128702Y0183195D01*
X0128702Y0176165D01*
X0129403Y0174475D01*
X0130697Y0173181D01*
X0132387Y0172480D01*
X0134217Y0172480D01*
X0132354Y0172494D02*
X0126200Y0172494D01*
X0126200Y0170096D02*
X0185550Y0170096D01*
X0185550Y0172494D02*
X0174721Y0172494D01*
X0177575Y0174893D02*
X0184172Y0174893D01*
X0181773Y0177291D02*
X0178102Y0177291D01*
X0178102Y0179690D02*
X0179375Y0179690D01*
X0169039Y0184487D02*
X0167367Y0184487D01*
X0167902Y0182088D02*
X0168502Y0182088D01*
X0168502Y0179690D02*
X0167902Y0179690D01*
X0167902Y0177291D02*
X0168502Y0177291D01*
X0169030Y0174893D02*
X0167375Y0174893D01*
X0159229Y0174893D02*
X0157575Y0174893D01*
X0158102Y0177291D02*
X0158702Y0177291D01*
X0158702Y0179690D02*
X0158102Y0179690D01*
X0158102Y0179680D02*
X0158102Y0182658D01*
X0157984Y0183404D01*
X0157751Y0184123D01*
X0157408Y0184796D01*
X0158102Y0182088D02*
X0158702Y0182088D01*
X0158102Y0179680D02*
X0153302Y0179680D01*
X0153302Y0179690D02*
X0153302Y0179690D01*
X0153302Y0182088D02*
X0153302Y0182088D01*
X0153302Y0184487D02*
X0153302Y0184487D01*
X0149039Y0184487D02*
X0147367Y0184487D01*
X0147902Y0182088D02*
X0148502Y0182088D01*
X0148502Y0179690D02*
X0147902Y0179690D01*
X0147902Y0177291D02*
X0148502Y0177291D01*
X0149030Y0174893D02*
X0147375Y0174893D01*
X0153302Y0174893D02*
X0153302Y0174893D01*
X0153302Y0177291D02*
X0153302Y0177291D01*
X0139229Y0174893D02*
X0137375Y0174893D01*
X0137902Y0177291D02*
X0138702Y0177291D01*
X0138702Y0179690D02*
X0137902Y0179690D01*
X0137902Y0182088D02*
X0138702Y0182088D01*
X0139237Y0184487D02*
X0137367Y0184487D01*
X0129237Y0184487D02*
X0127367Y0184487D01*
X0127902Y0182088D02*
X0128702Y0182088D01*
X0128702Y0179690D02*
X0127902Y0179690D01*
X0127902Y0177291D02*
X0128702Y0177291D01*
X0129229Y0174893D02*
X0127375Y0174893D01*
X0121200Y0172494D02*
X0115850Y0172494D01*
X0115850Y0170096D02*
X0121200Y0170096D01*
X0121200Y0167697D02*
X0116088Y0167697D01*
X0118487Y0165299D02*
X0120572Y0165299D01*
X0126200Y0167697D02*
X0136712Y0167697D01*
X0130572Y0165299D02*
X0128387Y0165299D01*
X0119229Y0174893D02*
X0117375Y0174893D01*
X0117902Y0177291D02*
X0118702Y0177291D01*
X0118702Y0179690D02*
X0117902Y0179690D01*
X0117902Y0182088D02*
X0118702Y0182088D01*
X0119237Y0184487D02*
X0117367Y0184487D01*
X0109237Y0184487D02*
X0107565Y0184487D01*
X0108102Y0182088D02*
X0108702Y0182088D01*
X0108702Y0179690D02*
X0108102Y0179690D01*
X0108102Y0177291D02*
X0108702Y0177291D01*
X0109229Y0174893D02*
X0107575Y0174893D01*
X0104721Y0172494D02*
X0110850Y0172494D01*
X0110850Y0170096D02*
X0031867Y0170096D01*
X0032184Y0168910D02*
X0031482Y0171530D01*
X0030126Y0173878D01*
X0028209Y0175796D01*
X0025860Y0177152D01*
X0023241Y0177854D01*
X0020529Y0177854D01*
X0017910Y0177152D01*
X0015561Y0175796D01*
X0013644Y0173878D01*
X0012288Y0171530D01*
X0011586Y0168910D01*
X0011586Y0166198D01*
X0012288Y0163579D01*
X0013644Y0161230D01*
X0015561Y0159313D01*
X0017910Y0157957D01*
X0020529Y0157255D01*
X0023241Y0157255D01*
X0025860Y0157957D01*
X0028209Y0159313D01*
X0030126Y0161230D01*
X0031482Y0163579D01*
X0032184Y0166198D01*
X0032184Y0168910D01*
X0032184Y0167697D02*
X0110850Y0167697D01*
X0110572Y0165299D02*
X0105324Y0165299D01*
X0107710Y0162900D02*
X0108186Y0162900D01*
X0108223Y0158103D02*
X0107673Y0158103D01*
X0105109Y0155705D02*
X0110787Y0155705D01*
X0115109Y0155705D02*
X0115350Y0155705D01*
X0115350Y0153306D02*
X0026247Y0153306D01*
X0025860Y0153530D02*
X0028209Y0152174D01*
X0030126Y0150256D01*
X0031482Y0147908D01*
X0032184Y0145288D01*
X0032184Y0142576D01*
X0031482Y0139957D01*
X0030126Y0137608D01*
X0028209Y0135691D01*
X0025860Y0134335D01*
X0023241Y0133633D01*
X0020529Y0133633D01*
X0017910Y0134335D01*
X0015561Y0135691D01*
X0013644Y0137608D01*
X0012288Y0139957D01*
X0011586Y0142576D01*
X0011586Y0145288D01*
X0012288Y0147908D01*
X0013644Y0150256D01*
X0015561Y0152174D01*
X0017910Y0153530D01*
X0020529Y0154231D01*
X0023241Y0154231D01*
X0025860Y0153530D01*
X0029475Y0150908D02*
X0047584Y0150908D01*
X0048913Y0152236D02*
X0046101Y0149424D01*
X0046101Y0145448D01*
X0048913Y0142636D01*
X0052889Y0142636D01*
X0055701Y0145448D01*
X0055701Y0149424D01*
X0052889Y0152236D01*
X0048913Y0152236D01*
X0046101Y0148509D02*
X0031135Y0148509D01*
X0031964Y0146111D02*
X0046101Y0146111D01*
X0047837Y0143712D02*
X0032184Y0143712D01*
X0031846Y0141314D02*
X0047990Y0141314D01*
X0048913Y0142236D02*
X0046101Y0139424D01*
X0046101Y0135448D01*
X0048913Y0132636D01*
X0052889Y0132636D01*
X0055701Y0135448D01*
X0055701Y0139424D01*
X0052889Y0142236D01*
X0048913Y0142236D01*
X0046101Y0138915D02*
X0030881Y0138915D01*
X0029035Y0136517D02*
X0046101Y0136517D01*
X0047431Y0134118D02*
X0025051Y0134118D01*
X0023241Y0130609D02*
X0020529Y0130609D01*
X0017910Y0129908D01*
X0015561Y0128552D01*
X0013644Y0126634D01*
X0012288Y0124286D01*
X0011586Y0121666D01*
X0011586Y0118954D01*
X0012288Y0116335D01*
X0013644Y0113986D01*
X0015561Y0112069D01*
X0017910Y0110713D01*
X0020529Y0110011D01*
X0023241Y0110011D01*
X0025860Y0110713D01*
X0028209Y0112069D01*
X0030126Y0113986D01*
X0031482Y0116335D01*
X0032184Y0118954D01*
X0032184Y0121666D01*
X0031482Y0124286D01*
X0030126Y0126634D01*
X0028209Y0128552D01*
X0025860Y0129908D01*
X0023241Y0130609D01*
X0026876Y0129321D02*
X0097648Y0129321D01*
X0097648Y0126923D02*
X0029838Y0126923D01*
X0031345Y0124524D02*
X0105450Y0124524D01*
X0105450Y0122126D02*
X0032061Y0122126D01*
X0032184Y0119727D02*
X0100342Y0119727D01*
X0098042Y0117329D02*
X0031749Y0117329D01*
X0030671Y0114930D02*
X0098042Y0114930D01*
X0098546Y0112532D02*
X0028672Y0112532D01*
X0023696Y0110133D02*
X0100669Y0110133D01*
X0098271Y0107734D02*
X0007400Y0107734D01*
X0007400Y0105336D02*
X0097845Y0105336D01*
X0091881Y0102937D02*
X0007400Y0102937D01*
X0007400Y0100539D02*
X0089803Y0100539D01*
X0087405Y0098140D02*
X0007400Y0098140D01*
X0007400Y0095742D02*
X0019392Y0095742D01*
X0019397Y0095747D02*
X0018103Y0094453D01*
X0017403Y0092762D01*
X0017403Y0085732D01*
X0018103Y0084042D01*
X0019397Y0082748D01*
X0021088Y0082047D01*
X0022918Y0082047D01*
X0024609Y0082748D01*
X0025903Y0084042D01*
X0026603Y0085732D01*
X0026603Y0092762D01*
X0025903Y0094453D01*
X0024609Y0095747D01*
X0022918Y0096447D01*
X0021088Y0096447D01*
X0019397Y0095747D01*
X0017644Y0093343D02*
X0007400Y0093343D01*
X0007400Y0090945D02*
X0017403Y0090945D01*
X0017403Y0088546D02*
X0007400Y0088546D01*
X0007400Y0086148D02*
X0017403Y0086148D01*
X0018396Y0083749D02*
X0007400Y0083749D01*
X0007400Y0081351D02*
X0100500Y0081351D01*
X0100500Y0078952D02*
X0007400Y0078952D01*
X0007400Y0076554D02*
X0100500Y0076554D01*
X0100500Y0074155D02*
X0007400Y0074155D01*
X0007400Y0071757D02*
X0100500Y0071757D01*
X0100500Y0069358D02*
X0007400Y0069358D01*
X0007400Y0066960D02*
X0100500Y0066960D01*
X0108445Y0057366D02*
X0108514Y0057366D01*
X0107506Y0054967D02*
X0111529Y0054967D01*
X0114761Y0054967D02*
X0121529Y0054967D01*
X0124761Y0054967D02*
X0131529Y0054967D01*
X0134761Y0054967D02*
X0141529Y0054967D01*
X0144761Y0054967D02*
X0151529Y0054967D01*
X0154761Y0054967D02*
X0161529Y0054967D01*
X0164761Y0054967D02*
X0170975Y0054967D01*
X0173145Y0054967D02*
X0173145Y0054967D01*
X0173145Y0054535D02*
X0173145Y0060035D01*
X0173145Y0065535D01*
X0172712Y0065535D01*
X0171857Y0065399D01*
X0171034Y0065132D01*
X0170262Y0064739D01*
X0169562Y0064230D01*
X0168950Y0063618D01*
X0168441Y0062917D01*
X0168048Y0062146D01*
X0168030Y0062091D01*
X0167638Y0063037D01*
X0166147Y0064528D01*
X0164199Y0065335D01*
X0162091Y0065335D01*
X0160143Y0064528D01*
X0158652Y0063037D01*
X0158145Y0061813D01*
X0157638Y0063037D01*
X0156147Y0064528D01*
X0155900Y0064630D01*
X0155900Y0082614D01*
X0159316Y0086031D01*
X0159343Y0086058D01*
X0159562Y0085839D01*
X0160262Y0085331D01*
X0161034Y0084938D01*
X0161857Y0084670D01*
X0162712Y0084535D01*
X0163145Y0084535D01*
X0163145Y0090035D01*
X0163145Y0095535D01*
X0162712Y0095535D01*
X0161857Y0095399D01*
X0161034Y0095132D01*
X0160400Y0094809D01*
X0160400Y0108016D01*
X0160972Y0107444D01*
X0165239Y0107444D01*
X0167964Y0110169D01*
X0170889Y0107244D01*
X0173105Y0107244D01*
X0173105Y0112594D01*
X0173106Y0112594D02*
X0173066Y0112554D01*
X0173066Y0103775D01*
X0163145Y0093854D01*
X0163145Y0090035D01*
X0163027Y0089917D01*
X0163027Y0080153D01*
X0173145Y0070035D01*
X0173145Y0060035D01*
X0173145Y0054535D01*
X0175314Y0054967D02*
X0181529Y0054967D01*
X0184761Y0054967D02*
X0191529Y0054967D01*
X0194761Y0054967D02*
X0201529Y0054967D01*
X0204761Y0054967D02*
X0211529Y0054967D01*
X0214761Y0054967D02*
X0221529Y0054967D01*
X0224761Y0054967D02*
X0231529Y0054967D01*
X0234761Y0054967D02*
X0259515Y0054967D01*
X0266436Y0052569D02*
X0267304Y0052569D01*
X0261767Y0045373D02*
X0261767Y0045373D01*
X0261767Y0042975D02*
X0261767Y0042975D01*
X0261767Y0040576D02*
X0261767Y0040576D01*
X0265418Y0040576D02*
X0268398Y0040576D01*
X0266895Y0042975D02*
X0266811Y0042975D01*
X0265768Y0026185D02*
X0262491Y0026185D01*
X0263998Y0023787D02*
X0264260Y0023787D01*
X0264168Y0021388D02*
X0264091Y0021388D01*
X0262714Y0018990D02*
X0265544Y0018990D01*
X0266292Y0016591D02*
X0262124Y0016591D01*
X0263892Y0014193D02*
X0264523Y0014193D01*
X0264208Y0011794D02*
X0264208Y0011794D01*
X0263238Y0009396D02*
X0265177Y0009396D01*
X0273238Y0009396D02*
X0275177Y0009396D01*
X0274208Y0011794D02*
X0274208Y0011794D01*
X0273892Y0014193D02*
X0274523Y0014193D01*
X0276292Y0016591D02*
X0272124Y0016591D01*
X0272714Y0018990D02*
X0275544Y0018990D01*
X0274168Y0021388D02*
X0274091Y0021388D01*
X0273998Y0023787D02*
X0274260Y0023787D01*
X0275768Y0026185D02*
X0272491Y0026185D01*
X0282491Y0026185D02*
X0285768Y0026185D01*
X0284260Y0023787D02*
X0283998Y0023787D01*
X0284091Y0021388D02*
X0284168Y0021388D01*
X0285544Y0018990D02*
X0282714Y0018990D01*
X0282124Y0016591D02*
X0286292Y0016591D01*
X0284523Y0014193D02*
X0283892Y0014193D01*
X0284208Y0011794D02*
X0284208Y0011794D01*
X0283238Y0009396D02*
X0285177Y0009396D01*
X0293238Y0009396D02*
X0295177Y0009396D01*
X0294208Y0011794D02*
X0294208Y0011794D01*
X0293892Y0014193D02*
X0294523Y0014193D01*
X0296292Y0016591D02*
X0292124Y0016591D01*
X0292714Y0018990D02*
X0295544Y0018990D01*
X0294168Y0021388D02*
X0294091Y0021388D01*
X0293998Y0023787D02*
X0294260Y0023787D01*
X0295768Y0026185D02*
X0292491Y0026185D01*
X0302491Y0026185D02*
X0305768Y0026185D01*
X0304260Y0023787D02*
X0303998Y0023787D01*
X0304091Y0021388D02*
X0304168Y0021388D01*
X0305544Y0018990D02*
X0302714Y0018990D01*
X0302124Y0016591D02*
X0306292Y0016591D01*
X0304523Y0014193D02*
X0303892Y0014193D01*
X0304208Y0011794D02*
X0304208Y0011794D01*
X0303238Y0009396D02*
X0305177Y0009396D01*
X0313238Y0009396D02*
X0315177Y0009396D01*
X0314208Y0011794D02*
X0314208Y0011794D01*
X0313892Y0014193D02*
X0314523Y0014193D01*
X0316292Y0016591D02*
X0312124Y0016591D01*
X0312714Y0018990D02*
X0315544Y0018990D01*
X0314168Y0021388D02*
X0314091Y0021388D01*
X0313998Y0023787D02*
X0314260Y0023787D01*
X0315768Y0026185D02*
X0312491Y0026185D01*
X0322491Y0026185D02*
X0325768Y0026185D01*
X0324260Y0023787D02*
X0323998Y0023787D01*
X0324091Y0021388D02*
X0324168Y0021388D01*
X0325544Y0018990D02*
X0322714Y0018990D01*
X0322124Y0016591D02*
X0326292Y0016591D01*
X0324523Y0014193D02*
X0323892Y0014193D01*
X0324208Y0011794D02*
X0324208Y0011794D01*
X0323238Y0009396D02*
X0325177Y0009396D01*
X0333238Y0009396D02*
X0335177Y0009396D01*
X0334208Y0011794D02*
X0334208Y0011794D01*
X0333892Y0014193D02*
X0334523Y0014193D01*
X0336292Y0016591D02*
X0332124Y0016591D01*
X0332714Y0018990D02*
X0335544Y0018990D01*
X0334168Y0021388D02*
X0334091Y0021388D01*
X0333998Y0023787D02*
X0334260Y0023787D01*
X0335768Y0026185D02*
X0332491Y0026185D01*
X0342491Y0026185D02*
X0345768Y0026185D01*
X0344260Y0023787D02*
X0343998Y0023787D01*
X0344091Y0021388D02*
X0344168Y0021388D01*
X0345544Y0018990D02*
X0342714Y0018990D01*
X0342124Y0016591D02*
X0346292Y0016591D01*
X0344523Y0014193D02*
X0343892Y0014193D01*
X0344208Y0011794D02*
X0344208Y0011794D01*
X0343238Y0009396D02*
X0345177Y0009396D01*
X0353238Y0009396D02*
X0355177Y0009396D01*
X0354208Y0011794D02*
X0354208Y0011794D01*
X0353892Y0014193D02*
X0354523Y0014193D01*
X0356292Y0016591D02*
X0352124Y0016591D01*
X0352714Y0018990D02*
X0355544Y0018990D01*
X0354168Y0021388D02*
X0354091Y0021388D01*
X0353998Y0023787D02*
X0354260Y0023787D01*
X0355768Y0026185D02*
X0352491Y0026185D01*
X0362491Y0026185D02*
X0365768Y0026185D01*
X0364260Y0023787D02*
X0363998Y0023787D01*
X0364091Y0021388D02*
X0364168Y0021388D01*
X0365544Y0018990D02*
X0362714Y0018990D01*
X0362124Y0016591D02*
X0366292Y0016591D01*
X0364523Y0014193D02*
X0363892Y0014193D01*
X0364208Y0011794D02*
X0364208Y0011794D01*
X0363238Y0009396D02*
X0365177Y0009396D01*
X0373238Y0009396D02*
X0375177Y0009396D01*
X0374208Y0011794D02*
X0374208Y0011794D01*
X0373892Y0014193D02*
X0374523Y0014193D01*
X0376292Y0016591D02*
X0372124Y0016591D01*
X0372714Y0018990D02*
X0375544Y0018990D01*
X0374168Y0021388D02*
X0374091Y0021388D01*
X0373998Y0023787D02*
X0374260Y0023787D01*
X0375768Y0026185D02*
X0372491Y0026185D01*
X0382491Y0026185D02*
X0385768Y0026185D01*
X0384260Y0023787D02*
X0383998Y0023787D01*
X0384091Y0021388D02*
X0384168Y0021388D01*
X0385544Y0018990D02*
X0382714Y0018990D01*
X0382124Y0016591D02*
X0386292Y0016591D01*
X0384523Y0014193D02*
X0383892Y0014193D01*
X0384208Y0011794D02*
X0384208Y0011794D01*
X0383238Y0009396D02*
X0385177Y0009396D01*
X0393238Y0009396D02*
X0395177Y0009396D01*
X0394208Y0011794D02*
X0394208Y0011794D01*
X0393892Y0014193D02*
X0394523Y0014193D01*
X0396292Y0016591D02*
X0392124Y0016591D01*
X0392714Y0018990D02*
X0395544Y0018990D01*
X0394168Y0021388D02*
X0394091Y0021388D01*
X0393998Y0023787D02*
X0394260Y0023787D01*
X0395768Y0026185D02*
X0392491Y0026185D01*
X0401409Y0028584D02*
X0007400Y0028584D01*
X0007400Y0030982D02*
X0401409Y0030982D01*
X0401409Y0033381D02*
X0007400Y0033381D01*
X0007400Y0035779D02*
X0401409Y0035779D01*
X0401409Y0057366D02*
X0237776Y0057366D01*
X0238445Y0059764D02*
X0401409Y0059764D01*
X0401409Y0062163D02*
X0274249Y0062163D01*
X0276648Y0064561D02*
X0401409Y0064561D01*
X0401409Y0066960D02*
X0369103Y0066960D01*
X0369253Y0067046D02*
X0371487Y0069281D01*
X0373067Y0072017D01*
X0373885Y0075069D01*
X0373885Y0078229D01*
X0373067Y0081281D01*
X0371487Y0084017D01*
X0369253Y0086251D01*
X0366517Y0087831D01*
X0363465Y0088649D01*
X0360305Y0088649D01*
X0357253Y0087831D01*
X0354517Y0086251D01*
X0352283Y0084017D01*
X0350703Y0081281D01*
X0349885Y0078229D01*
X0349885Y0075069D01*
X0350703Y0072017D01*
X0352283Y0069281D01*
X0354517Y0067046D01*
X0357253Y0065467D01*
X0360305Y0064649D01*
X0363465Y0064649D01*
X0366517Y0065467D01*
X0369253Y0067046D01*
X0371532Y0069358D02*
X0401409Y0069358D01*
X0401409Y0071757D02*
X0372917Y0071757D01*
X0373640Y0074155D02*
X0401409Y0074155D01*
X0401409Y0076554D02*
X0373885Y0076554D01*
X0373691Y0078952D02*
X0401409Y0078952D01*
X0401409Y0081351D02*
X0373027Y0081351D01*
X0371642Y0083749D02*
X0401409Y0083749D01*
X0401409Y0086148D02*
X0369356Y0086148D01*
X0363847Y0088546D02*
X0401409Y0088546D01*
X0401409Y0090945D02*
X0337120Y0090945D01*
X0334722Y0088546D02*
X0359923Y0088546D01*
X0354414Y0086148D02*
X0332323Y0086148D01*
X0329925Y0083749D02*
X0352128Y0083749D01*
X0350743Y0081351D02*
X0327526Y0081351D01*
X0326838Y0080663D02*
X0344663Y0098487D01*
X0345150Y0099663D01*
X0345150Y0170975D01*
X0349885Y0175710D01*
X0349885Y0173494D01*
X0350703Y0170442D01*
X0352283Y0167706D01*
X0354517Y0165472D01*
X0357253Y0163892D01*
X0360305Y0163074D01*
X0363465Y0163074D01*
X0366517Y0163892D01*
X0369253Y0165472D01*
X0371487Y0167706D01*
X0373067Y0170442D01*
X0373885Y0173494D01*
X0373885Y0176654D01*
X0373067Y0179706D01*
X0371487Y0182442D01*
X0369253Y0184676D01*
X0366517Y0186256D01*
X0363465Y0187074D01*
X0361249Y0187074D01*
X0375263Y0201087D01*
X0375750Y0202263D01*
X0375750Y0205340D01*
X0376718Y0206308D01*
X0377444Y0208062D01*
X0377444Y0209960D01*
X0376718Y0211714D01*
X0375375Y0213056D01*
X0375161Y0213145D01*
X0375375Y0213234D01*
X0376718Y0214576D01*
X0377444Y0216330D01*
X0377444Y0218228D01*
X0376718Y0219982D01*
X0375375Y0221324D01*
X0373632Y0222046D01*
X0374669Y0223084D01*
X0374716Y0223197D01*
X0375375Y0223470D01*
X0376718Y0224812D01*
X0377444Y0226566D01*
X0377444Y0228464D01*
X0376718Y0230218D01*
X0375375Y0231560D01*
X0375339Y0231575D01*
X0375911Y0231991D01*
X0376465Y0232544D01*
X0376925Y0233177D01*
X0377280Y0233874D01*
X0377522Y0234618D01*
X0377644Y0235391D01*
X0377644Y0235783D01*
X0377644Y0236174D01*
X0377522Y0236947D01*
X0377280Y0237691D01*
X0376925Y0238388D01*
X0376465Y0239021D01*
X0375911Y0239575D01*
X0375278Y0240035D01*
X0374581Y0240390D01*
X0373837Y0240632D01*
X0373064Y0240754D01*
X0372672Y0240754D01*
X0372672Y0235783D01*
X0397554Y0235783D01*
X0400625Y0232909D01*
X0400625Y0177200D01*
X0400625Y0105802D01*
X0393539Y0098716D01*
X0365586Y0098716D01*
X0357771Y0106531D01*
X0352259Y0106531D01*
X0351885Y0106905D01*
X0351885Y0106905D01*
X0346185Y0106905D01*
X0346185Y0107353D01*
X0346325Y0108239D01*
X0346603Y0109093D01*
X0347010Y0109892D01*
X0347537Y0110618D01*
X0348172Y0111252D01*
X0348512Y0111500D01*
X0347222Y0112789D01*
X0346385Y0114811D01*
X0346385Y0116999D01*
X0347222Y0119020D01*
X0348607Y0120405D01*
X0347222Y0121789D01*
X0346385Y0123811D01*
X0346385Y0125999D01*
X0347222Y0128020D01*
X0348607Y0129405D01*
X0347222Y0130789D01*
X0346385Y0132811D01*
X0346385Y0134999D01*
X0347222Y0137020D01*
X0348607Y0138405D01*
X0346385Y0140627D01*
X0346385Y0145183D01*
X0349607Y0148405D01*
X0354163Y0148405D01*
X0356293Y0146275D01*
X0356185Y0146956D01*
X0356185Y0147405D01*
X0361885Y0147405D01*
X0361885Y0153105D01*
X0361436Y0153105D01*
X0360550Y0152964D01*
X0359697Y0152687D01*
X0358898Y0152280D01*
X0358172Y0151752D01*
X0357537Y0151118D01*
X0357010Y0150392D01*
X0356603Y0149593D01*
X0356325Y0148739D01*
X0356185Y0147853D01*
X0356185Y0147405D01*
X0361885Y0147405D01*
X0361885Y0147405D01*
X0361885Y0153105D01*
X0362334Y0153105D01*
X0363220Y0152964D01*
X0364073Y0152687D01*
X0364872Y0152280D01*
X0365598Y0151752D01*
X0366233Y0151118D01*
X0366760Y0150392D01*
X0367167Y0149593D01*
X0367445Y0148739D01*
X0367585Y0147853D01*
X0367585Y0147405D01*
X0361885Y0147405D01*
X0361885Y0147405D01*
X0361885Y0138405D01*
X0361885Y0147405D01*
X0362043Y0147562D01*
X0362043Y0152003D01*
X0366767Y0156728D01*
X0382121Y0156728D01*
X0400625Y0177200D01*
X0401409Y0177291D02*
X0373714Y0177291D01*
X0373885Y0174893D02*
X0401409Y0174893D01*
X0401409Y0172494D02*
X0373617Y0172494D01*
X0372867Y0170096D02*
X0401409Y0170096D01*
X0401409Y0167697D02*
X0371479Y0167697D01*
X0368954Y0165299D02*
X0401409Y0165299D01*
X0401409Y0162900D02*
X0345150Y0162900D01*
X0345150Y0160502D02*
X0401409Y0160502D01*
X0401409Y0158103D02*
X0345150Y0158103D01*
X0345150Y0155705D02*
X0401409Y0155705D01*
X0401409Y0153306D02*
X0345150Y0153306D01*
X0345150Y0150908D02*
X0357385Y0150908D01*
X0356289Y0148509D02*
X0345150Y0148509D01*
X0345150Y0146111D02*
X0347313Y0146111D01*
X0346385Y0143712D02*
X0345150Y0143712D01*
X0345150Y0141314D02*
X0346385Y0141314D01*
X0345150Y0138915D02*
X0348096Y0138915D01*
X0347014Y0136517D02*
X0345150Y0136517D01*
X0345150Y0134118D02*
X0346385Y0134118D01*
X0346837Y0131720D02*
X0345150Y0131720D01*
X0345150Y0129321D02*
X0348523Y0129321D01*
X0346768Y0126923D02*
X0345150Y0126923D01*
X0345150Y0124524D02*
X0346385Y0124524D01*
X0347083Y0122126D02*
X0345150Y0122126D01*
X0345150Y0119727D02*
X0347929Y0119727D01*
X0346522Y0117329D02*
X0345150Y0117329D01*
X0345150Y0114930D02*
X0346385Y0114930D01*
X0347480Y0112532D02*
X0345150Y0112532D01*
X0345150Y0110133D02*
X0347185Y0110133D01*
X0346245Y0107734D02*
X0345150Y0107734D01*
X0346185Y0106905D02*
X0346185Y0106456D01*
X0346325Y0105570D01*
X0346603Y0104717D01*
X0347010Y0103917D01*
X0347537Y0103191D01*
X0348172Y0102557D01*
X0348898Y0102030D01*
X0349697Y0101622D01*
X0350550Y0101345D01*
X0351436Y0101205D01*
X0351885Y0101205D01*
X0351885Y0106905D01*
X0357585Y0106905D01*
X0357585Y0107353D01*
X0357530Y0107702D01*
X0357537Y0107691D01*
X0358172Y0107057D01*
X0358898Y0106530D01*
X0359697Y0106122D01*
X0360550Y0105845D01*
X0361436Y0105705D01*
X0361885Y0105705D01*
X0361885Y0111405D01*
X0361885Y0111405D01*
X0356185Y0111405D01*
X0356185Y0111853D01*
X0356293Y0112534D01*
X0355258Y0111500D01*
X0355598Y0111252D01*
X0356233Y0110618D01*
X0356240Y0110608D01*
X0356185Y0110956D01*
X0356185Y0111405D01*
X0361885Y0111405D01*
X0361885Y0110113D01*
X0358302Y0106531D01*
X0357771Y0106531D01*
X0357585Y0106456D02*
X0357585Y0106905D01*
X0351885Y0106905D01*
X0351885Y0106905D01*
X0346185Y0106905D01*
X0346401Y0105336D02*
X0345150Y0105336D01*
X0345150Y0102937D02*
X0347791Y0102937D01*
X0345150Y0100539D02*
X0401409Y0100539D01*
X0401409Y0102937D02*
X0375696Y0102937D01*
X0375001Y0102242D02*
X0376548Y0103789D01*
X0377385Y0105811D01*
X0377385Y0107999D01*
X0376548Y0110020D01*
X0375163Y0111405D01*
X0376548Y0112789D01*
X0377385Y0114811D01*
X0377385Y0116999D01*
X0376548Y0119020D01*
X0375163Y0120405D01*
X0376548Y0121789D01*
X0377385Y0123811D01*
X0377385Y0125999D01*
X0376548Y0128020D01*
X0375163Y0129405D01*
X0376548Y0130789D01*
X0377385Y0132811D01*
X0377385Y0134999D01*
X0376548Y0137020D01*
X0375163Y0138405D01*
X0376548Y0139789D01*
X0377385Y0141811D01*
X0377385Y0143999D01*
X0376548Y0146020D01*
X0375001Y0147567D01*
X0372979Y0148405D01*
X0370791Y0148405D01*
X0368770Y0147567D01*
X0367477Y0146275D01*
X0367585Y0146956D01*
X0367585Y0147405D01*
X0361885Y0147405D01*
X0361885Y0147405D01*
X0361885Y0141705D01*
X0361885Y0138405D01*
X0361885Y0138405D01*
X0361885Y0138405D01*
X0356185Y0138405D01*
X0356185Y0138853D01*
X0356293Y0139534D01*
X0355163Y0138405D01*
X0356293Y0137275D01*
X0356185Y0137956D01*
X0356185Y0138405D01*
X0361885Y0138405D01*
X0361885Y0129405D01*
X0361885Y0138405D01*
X0367585Y0138405D01*
X0367585Y0138853D01*
X0367477Y0139534D01*
X0368607Y0138405D01*
X0367477Y0137275D01*
X0367585Y0137956D01*
X0367585Y0138405D01*
X0361885Y0138405D01*
X0361885Y0138405D01*
X0361885Y0132705D01*
X0361885Y0129405D01*
X0361885Y0129405D01*
X0361885Y0129405D01*
X0356185Y0129405D01*
X0356185Y0129853D01*
X0356293Y0130534D01*
X0355163Y0129405D01*
X0356293Y0128275D01*
X0356185Y0128956D01*
X0356185Y0129405D01*
X0361885Y0129405D01*
X0367585Y0129405D01*
X0367585Y0129853D01*
X0367477Y0130534D01*
X0368607Y0129405D01*
X0367477Y0128275D01*
X0367585Y0128956D01*
X0367585Y0129405D01*
X0361885Y0129405D01*
X0361885Y0129405D01*
X0361885Y0131720D02*
X0361885Y0131720D01*
X0361885Y0134118D02*
X0361885Y0134118D01*
X0361885Y0136517D02*
X0361885Y0136517D01*
X0361885Y0138405D02*
X0361885Y0138405D01*
X0361885Y0138915D02*
X0361885Y0138915D01*
X0361885Y0141314D02*
X0361885Y0141314D01*
X0361885Y0143712D02*
X0361885Y0143712D01*
X0361885Y0146111D02*
X0361885Y0146111D01*
X0361885Y0147405D02*
X0361885Y0147405D01*
X0361885Y0148509D02*
X0361885Y0148509D01*
X0361885Y0150908D02*
X0361885Y0150908D01*
X0366386Y0150908D02*
X0401409Y0150908D01*
X0401409Y0148509D02*
X0367481Y0148509D01*
X0376457Y0146111D02*
X0401409Y0146111D01*
X0401409Y0143712D02*
X0377385Y0143712D01*
X0377179Y0141314D02*
X0401409Y0141314D01*
X0401409Y0138915D02*
X0375674Y0138915D01*
X0376756Y0136517D02*
X0401409Y0136517D01*
X0401409Y0134118D02*
X0377385Y0134118D01*
X0376933Y0131720D02*
X0401409Y0131720D01*
X0401409Y0129321D02*
X0375247Y0129321D01*
X0377002Y0126923D02*
X0401409Y0126923D01*
X0401409Y0124524D02*
X0377385Y0124524D01*
X0376687Y0122126D02*
X0401409Y0122126D01*
X0401409Y0119727D02*
X0375841Y0119727D01*
X0377248Y0117329D02*
X0401409Y0117329D01*
X0401409Y0114930D02*
X0377385Y0114930D01*
X0376290Y0112532D02*
X0401409Y0112532D01*
X0401409Y0110133D02*
X0376435Y0110133D01*
X0377385Y0107734D02*
X0401409Y0107734D01*
X0401409Y0105336D02*
X0377188Y0105336D01*
X0375001Y0102242D02*
X0372979Y0101405D01*
X0370791Y0101405D01*
X0368770Y0102242D01*
X0367222Y0103789D01*
X0366385Y0105811D01*
X0366385Y0107901D01*
X0366233Y0107691D01*
X0365598Y0107057D01*
X0364872Y0106530D01*
X0364073Y0106122D01*
X0363220Y0105845D01*
X0362334Y0105705D01*
X0361885Y0105705D01*
X0361885Y0111405D01*
X0367585Y0111405D01*
X0367585Y0111853D01*
X0367477Y0112534D01*
X0368607Y0111405D01*
X0367477Y0110275D01*
X0367585Y0110956D01*
X0367585Y0111405D01*
X0361885Y0111405D01*
X0361885Y0111405D01*
X0361885Y0111405D01*
X0361885Y0110133D02*
X0361885Y0110133D01*
X0361885Y0107734D02*
X0361885Y0107734D01*
X0366264Y0107734D02*
X0366385Y0107734D01*
X0366582Y0105336D02*
X0357369Y0105336D01*
X0357445Y0105570D02*
X0357585Y0106456D01*
X0357445Y0105570D02*
X0357167Y0104717D01*
X0356760Y0103917D01*
X0356233Y0103191D01*
X0355598Y0102557D01*
X0354872Y0102030D01*
X0354073Y0101622D01*
X0353220Y0101345D01*
X0352334Y0101205D01*
X0351885Y0101205D01*
X0351885Y0106905D01*
X0351885Y0106905D01*
X0351885Y0105336D02*
X0351885Y0105336D01*
X0351885Y0102937D02*
X0351885Y0102937D01*
X0355979Y0102937D02*
X0368074Y0102937D01*
X0365586Y0098716D02*
X0352259Y0098716D01*
X0335665Y0082121D01*
X0335665Y0073263D01*
X0332515Y0070113D01*
X0321767Y0070113D01*
X0321688Y0070035D01*
X0321688Y0070035D01*
X0316338Y0070035D01*
X0316338Y0072251D01*
X0319468Y0075380D01*
X0318771Y0075669D01*
X0317590Y0076850D01*
X0302952Y0076850D01*
X0301278Y0075176D01*
X0304204Y0072251D01*
X0304204Y0070035D01*
X0298854Y0070035D01*
X0298854Y0070035D01*
X0304204Y0070035D01*
X0304204Y0067819D01*
X0301070Y0064685D01*
X0298854Y0064685D01*
X0298854Y0070035D01*
X0283184Y0070035D01*
X0271491Y0081728D01*
X0271491Y0081353D02*
X0271924Y0081353D01*
X0272779Y0081488D01*
X0273603Y0081756D01*
X0274374Y0082149D01*
X0275074Y0082658D01*
X0275686Y0083270D01*
X0276195Y0083970D01*
X0276588Y0084741D01*
X0276606Y0084797D01*
X0276998Y0083851D01*
X0278489Y0082360D01*
X0280437Y0081553D01*
X0282546Y0081553D01*
X0284494Y0082360D01*
X0285984Y0083851D01*
X0286791Y0085799D01*
X0286791Y0086750D01*
X0287075Y0086750D01*
X0293704Y0080121D01*
X0293704Y0077901D01*
X0296429Y0075176D01*
X0293504Y0072251D01*
X0293504Y0070035D01*
X0298853Y0070035D01*
X0298853Y0070035D01*
X0293504Y0070035D01*
X0293504Y0067819D01*
X0296638Y0064685D01*
X0298853Y0064685D01*
X0298853Y0070035D01*
X0298854Y0070035D02*
X0321688Y0070035D01*
X0327038Y0070035D01*
X0327038Y0072251D01*
X0323909Y0075380D01*
X0324605Y0075669D01*
X0326054Y0077117D01*
X0326838Y0079010D01*
X0326838Y0080663D01*
X0326814Y0078952D02*
X0350079Y0078952D01*
X0349885Y0076554D02*
X0325491Y0076554D01*
X0325134Y0074155D02*
X0350130Y0074155D01*
X0350853Y0071757D02*
X0327038Y0071757D01*
X0327038Y0070035D02*
X0321688Y0070035D01*
X0321688Y0070035D01*
X0316338Y0070035D01*
X0316338Y0067819D01*
X0319472Y0064685D01*
X0321688Y0064685D01*
X0321688Y0070035D01*
X0321688Y0070035D01*
X0321688Y0064685D01*
X0323904Y0064685D01*
X0327038Y0067819D01*
X0327038Y0070035D01*
X0327038Y0069358D02*
X0352238Y0069358D01*
X0354667Y0066960D02*
X0326179Y0066960D01*
X0321688Y0066960D02*
X0321688Y0066960D01*
X0321688Y0069358D02*
X0321688Y0069358D01*
X0317197Y0066960D02*
X0303345Y0066960D01*
X0304204Y0069358D02*
X0316338Y0069358D01*
X0316338Y0071757D02*
X0304204Y0071757D01*
X0302299Y0074155D02*
X0318243Y0074155D01*
X0317886Y0076554D02*
X0302656Y0076554D01*
X0299200Y0080050D02*
X0298854Y0080035D01*
X0297850Y0080500D01*
X0288400Y0089950D01*
X0281650Y0089950D01*
X0281491Y0090153D01*
X0286791Y0093343D02*
X0330468Y0093343D01*
X0328069Y0090945D02*
X0291931Y0090945D01*
X0294329Y0088546D02*
X0325671Y0088546D01*
X0323272Y0086148D02*
X0296728Y0086148D01*
X0302422Y0083749D02*
X0318120Y0083749D01*
X0320800Y0080050D02*
X0321688Y0080035D01*
X0321700Y0080050D01*
X0341950Y0100300D01*
X0341950Y0172300D01*
X0372550Y0202900D01*
X0372550Y0208750D01*
X0372672Y0209011D01*
X0377067Y0210870D02*
X0401409Y0210870D01*
X0401409Y0208472D02*
X0377444Y0208472D01*
X0376483Y0206073D02*
X0401409Y0206073D01*
X0401409Y0203675D02*
X0375750Y0203675D01*
X0375341Y0201276D02*
X0379259Y0201276D01*
X0379764Y0201782D02*
X0377421Y0199439D01*
X0376153Y0196377D01*
X0376153Y0193063D01*
X0377421Y0190001D01*
X0379764Y0187657D01*
X0382826Y0186389D01*
X0386141Y0186389D01*
X0389202Y0187657D01*
X0391546Y0190001D01*
X0392814Y0193063D01*
X0392814Y0196377D01*
X0391546Y0199439D01*
X0389202Y0201782D01*
X0386141Y0203050D01*
X0382826Y0203050D01*
X0379764Y0201782D01*
X0377189Y0198878D02*
X0373053Y0198878D01*
X0370655Y0196479D02*
X0376195Y0196479D01*
X0376153Y0194081D02*
X0368256Y0194081D01*
X0365858Y0191682D02*
X0376724Y0191682D01*
X0378138Y0189284D02*
X0363459Y0189284D01*
X0364169Y0186885D02*
X0381628Y0186885D01*
X0387339Y0186885D02*
X0401409Y0186885D01*
X0401409Y0184487D02*
X0369443Y0184487D01*
X0371692Y0182088D02*
X0401409Y0182088D01*
X0401409Y0179690D02*
X0373072Y0179690D01*
X0390829Y0189284D02*
X0401409Y0189284D01*
X0401409Y0191682D02*
X0392242Y0191682D01*
X0392814Y0194081D02*
X0401409Y0194081D01*
X0401409Y0196479D02*
X0392772Y0196479D01*
X0391778Y0198878D02*
X0401409Y0198878D01*
X0401409Y0201276D02*
X0389708Y0201276D01*
X0401409Y0213269D02*
X0375411Y0213269D01*
X0377170Y0215668D02*
X0382581Y0215668D01*
X0382914Y0215334D02*
X0385976Y0214066D01*
X0389290Y0214066D01*
X0392352Y0215334D01*
X0394695Y0217678D01*
X0395964Y0220740D01*
X0395964Y0224054D01*
X0394695Y0227116D01*
X0392352Y0229459D01*
X0389290Y0230728D01*
X0385976Y0230728D01*
X0382914Y0229459D01*
X0380571Y0227116D01*
X0379302Y0224054D01*
X0379302Y0220740D01*
X0380571Y0217678D01*
X0382914Y0215334D01*
X0380410Y0218066D02*
X0377444Y0218066D01*
X0376235Y0220465D02*
X0379416Y0220465D01*
X0379302Y0222863D02*
X0374449Y0222863D01*
X0376904Y0225262D02*
X0379803Y0225262D01*
X0381115Y0227660D02*
X0377444Y0227660D01*
X0376784Y0230059D02*
X0384361Y0230059D01*
X0376378Y0232457D02*
X0401409Y0232457D01*
X0401409Y0230059D02*
X0390905Y0230059D01*
X0394151Y0227660D02*
X0401409Y0227660D01*
X0401409Y0225262D02*
X0395464Y0225262D01*
X0395964Y0222863D02*
X0401409Y0222863D01*
X0401409Y0220465D02*
X0395850Y0220465D01*
X0394856Y0218066D02*
X0401409Y0218066D01*
X0401409Y0215668D02*
X0392685Y0215668D01*
X0368441Y0225262D02*
X0207862Y0225262D01*
X0207862Y0227660D02*
X0295424Y0227660D01*
X0296629Y0226455D02*
X0293817Y0229267D01*
X0293817Y0233243D01*
X0296629Y0236055D01*
X0300606Y0236055D01*
X0303417Y0233243D01*
X0303417Y0229267D01*
X0300606Y0226455D01*
X0296629Y0226455D01*
X0301810Y0227660D02*
X0305424Y0227660D01*
X0306629Y0226455D02*
X0310606Y0226455D01*
X0313417Y0229267D01*
X0313417Y0233243D01*
X0310606Y0236055D01*
X0306629Y0236055D01*
X0303817Y0233243D01*
X0303817Y0229267D01*
X0306629Y0226455D01*
X0303817Y0230059D02*
X0303417Y0230059D01*
X0303417Y0232457D02*
X0303817Y0232457D01*
X0305430Y0234856D02*
X0301805Y0234856D01*
X0300606Y0236455D02*
X0303417Y0239267D01*
X0303417Y0243243D01*
X0300606Y0246055D01*
X0296629Y0246055D01*
X0293817Y0243243D01*
X0293817Y0239267D01*
X0296629Y0236455D01*
X0300606Y0236455D01*
X0301405Y0237254D02*
X0305830Y0237254D01*
X0306629Y0236455D02*
X0303817Y0239267D01*
X0303817Y0243243D01*
X0306629Y0246055D01*
X0310606Y0246055D01*
X0313417Y0243243D01*
X0313417Y0239267D01*
X0310606Y0236455D01*
X0306629Y0236455D01*
X0303817Y0239653D02*
X0303417Y0239653D01*
X0303417Y0242051D02*
X0303817Y0242051D01*
X0305024Y0244450D02*
X0302211Y0244450D01*
X0295024Y0244450D02*
X0242376Y0244450D01*
X0239800Y0242500D02*
X0194350Y0242500D01*
X0184000Y0232150D01*
X0166900Y0232150D01*
X0161950Y0237100D01*
X0157306Y0239653D02*
X0156543Y0239653D01*
X0154144Y0242051D02*
X0159705Y0242051D01*
X0149704Y0242051D02*
X0144144Y0242051D01*
X0146543Y0239653D02*
X0147306Y0239653D01*
X0146924Y0237254D02*
X0146924Y0237254D01*
X0146651Y0234856D02*
X0147198Y0234856D01*
X0149596Y0232457D02*
X0144253Y0232457D01*
X0147683Y0230059D02*
X0121388Y0230059D01*
X0122035Y0227660D02*
X0145285Y0227660D01*
X0149539Y0222863D02*
X0199844Y0222863D01*
X0197562Y0225262D02*
X0151937Y0225262D01*
X0154336Y0227660D02*
X0197562Y0227660D01*
X0198208Y0230059D02*
X0186434Y0230059D01*
X0188833Y0232457D02*
X0200250Y0232457D01*
X0197852Y0234856D02*
X0191231Y0234856D01*
X0193630Y0237254D02*
X0197562Y0237254D01*
X0205173Y0232457D02*
X0215462Y0232457D01*
X0213064Y0234856D02*
X0207572Y0234856D01*
X0207862Y0237254D02*
X0212791Y0237254D01*
X0220119Y0232457D02*
X0225462Y0232457D01*
X0223064Y0234856D02*
X0222517Y0234856D01*
X0222791Y0235129D02*
X0222791Y0239271D01*
X0222791Y0235129D01*
X0222791Y0237254D02*
X0222791Y0237254D01*
X0222791Y0239271D02*
X0222820Y0239300D01*
X0222762Y0239300D01*
X0222791Y0239271D01*
X0232762Y0239300D02*
X0232820Y0239300D01*
X0232791Y0239271D01*
X0232791Y0235129D01*
X0232791Y0239271D01*
X0232762Y0239300D01*
X0232791Y0237254D02*
X0232791Y0237254D01*
X0232517Y0234856D02*
X0233064Y0234856D01*
X0235462Y0232457D02*
X0230119Y0232457D01*
X0240119Y0232457D02*
X0245462Y0232457D01*
X0242919Y0234856D02*
X0242517Y0234856D01*
X0244750Y0237550D02*
X0239800Y0242500D01*
X0244774Y0242051D02*
X0245571Y0242051D01*
X0250010Y0242051D02*
X0255571Y0242051D01*
X0253172Y0239653D02*
X0252409Y0239653D01*
X0252791Y0237254D02*
X0252791Y0237254D01*
X0252517Y0234856D02*
X0253064Y0234856D01*
X0255462Y0232457D02*
X0250119Y0232457D01*
X0247791Y0237200D02*
X0247450Y0237550D01*
X0244750Y0237550D01*
X0260010Y0242051D02*
X0265288Y0242051D01*
X0267790Y0242051D02*
X0267791Y0242051D01*
X0267791Y0242400D02*
X0267791Y0237200D01*
X0272991Y0237200D01*
X0272991Y0239354D01*
X0269944Y0242400D01*
X0267791Y0242400D01*
X0270293Y0242051D02*
X0293817Y0242051D01*
X0293817Y0239653D02*
X0272692Y0239653D01*
X0272991Y0237254D02*
X0295830Y0237254D01*
X0295430Y0234856D02*
X0272800Y0234856D01*
X0272991Y0235046D02*
X0272991Y0237200D01*
X0267791Y0237200D01*
X0267791Y0237200D01*
X0267790Y0237200D01*
X0267791Y0237200D01*
X0267791Y0232000D01*
X0269944Y0232000D01*
X0272991Y0235046D01*
X0270402Y0232457D02*
X0293817Y0232457D01*
X0293817Y0230059D02*
X0207215Y0230059D01*
X0205579Y0222863D02*
X0367378Y0222863D01*
X0364979Y0220465D02*
X0177171Y0220465D01*
X0179570Y0218066D02*
X0362580Y0218066D01*
X0360182Y0215668D02*
X0181968Y0215668D01*
X0184367Y0213269D02*
X0357783Y0213269D01*
X0355385Y0210870D02*
X0186765Y0210870D01*
X0189164Y0208472D02*
X0352986Y0208472D01*
X0350588Y0206073D02*
X0191562Y0206073D01*
X0193961Y0203675D02*
X0348189Y0203675D01*
X0345791Y0201276D02*
X0196359Y0201276D01*
X0198758Y0198878D02*
X0343392Y0198878D01*
X0340994Y0196479D02*
X0201156Y0196479D01*
X0203555Y0194081D02*
X0338595Y0194081D01*
X0336197Y0191682D02*
X0205953Y0191682D01*
X0208352Y0189284D02*
X0333798Y0189284D01*
X0331400Y0186885D02*
X0210750Y0186885D01*
X0213149Y0184487D02*
X0329282Y0184487D01*
X0329100Y0182088D02*
X0215179Y0182088D01*
X0215300Y0179690D02*
X0329100Y0179690D01*
X0329100Y0177291D02*
X0215300Y0177291D01*
X0215300Y0174893D02*
X0329100Y0174893D01*
X0329100Y0172494D02*
X0215300Y0172494D01*
X0215300Y0170096D02*
X0329100Y0170096D01*
X0329100Y0167697D02*
X0289749Y0167697D01*
X0292187Y0165299D02*
X0329100Y0165299D01*
X0329100Y0162900D02*
X0294585Y0162900D01*
X0296984Y0160502D02*
X0329100Y0160502D01*
X0329100Y0158103D02*
X0299382Y0158103D01*
X0301781Y0155705D02*
X0329100Y0155705D01*
X0329100Y0153306D02*
X0304179Y0153306D01*
X0299507Y0150908D02*
X0283134Y0150908D01*
X0283191Y0150693D02*
X0282394Y0153669D01*
X0280854Y0156337D01*
X0278675Y0158515D01*
X0276007Y0160055D01*
X0273032Y0160853D01*
X0269951Y0160853D01*
X0266975Y0160055D01*
X0264307Y0158515D01*
X0262129Y0156337D01*
X0260589Y0153669D01*
X0259791Y0150693D01*
X0259791Y0147612D01*
X0260589Y0144637D01*
X0262129Y0141969D01*
X0264307Y0139790D01*
X0266975Y0138250D01*
X0269951Y0137453D01*
X0273032Y0137453D01*
X0276007Y0138250D01*
X0278675Y0139790D01*
X0280854Y0141969D01*
X0282394Y0144637D01*
X0283191Y0147612D01*
X0283191Y0150693D01*
X0283191Y0148509D02*
X0301309Y0148509D01*
X0301309Y0146111D02*
X0282789Y0146111D01*
X0281860Y0143712D02*
X0302799Y0143712D01*
X0310420Y0143712D02*
X0329100Y0143712D01*
X0329100Y0141314D02*
X0280199Y0141314D01*
X0277159Y0138915D02*
X0329100Y0138915D01*
X0334100Y0138915D02*
X0338750Y0138915D01*
X0338750Y0136517D02*
X0334100Y0136517D01*
X0334100Y0134118D02*
X0338750Y0134118D01*
X0338750Y0131720D02*
X0334100Y0131720D01*
X0333838Y0129321D02*
X0338750Y0129321D01*
X0338750Y0126923D02*
X0331608Y0126923D01*
X0329210Y0124524D02*
X0338750Y0124524D01*
X0338750Y0122126D02*
X0326811Y0122126D01*
X0324413Y0119727D02*
X0338750Y0119727D01*
X0338750Y0117329D02*
X0322014Y0117329D01*
X0319616Y0114930D02*
X0338750Y0114930D01*
X0338750Y0112532D02*
X0317217Y0112532D01*
X0314819Y0110133D02*
X0338750Y0110133D01*
X0338750Y0107734D02*
X0312420Y0107734D01*
X0316166Y0105336D02*
X0322053Y0105336D01*
X0321309Y0104592D02*
X0321309Y0100202D01*
X0324414Y0097097D01*
X0328805Y0097097D01*
X0331909Y0100202D01*
X0331909Y0104592D01*
X0328805Y0107697D01*
X0324414Y0107697D01*
X0321309Y0104592D01*
X0321309Y0102937D02*
X0316909Y0102937D01*
X0316909Y0100539D02*
X0321309Y0100539D01*
X0323371Y0098140D02*
X0314848Y0098140D01*
X0308371Y0098140D02*
X0284024Y0098140D01*
X0286280Y0095742D02*
X0332866Y0095742D01*
X0335265Y0098140D02*
X0329848Y0098140D01*
X0331909Y0100539D02*
X0337663Y0100539D01*
X0338750Y0102937D02*
X0331909Y0102937D01*
X0331166Y0105336D02*
X0338750Y0105336D01*
X0344316Y0098140D02*
X0401409Y0098140D01*
X0401409Y0095742D02*
X0341917Y0095742D01*
X0339519Y0093343D02*
X0401409Y0093343D01*
X0367480Y0112532D02*
X0367478Y0112532D01*
X0356292Y0112532D02*
X0356290Y0112532D01*
X0356185Y0129321D02*
X0355247Y0129321D01*
X0367585Y0129321D02*
X0368523Y0129321D01*
X0368096Y0138915D02*
X0367575Y0138915D01*
X0356195Y0138915D02*
X0355674Y0138915D01*
X0338750Y0141314D02*
X0334100Y0141314D01*
X0329100Y0146111D02*
X0311909Y0146111D01*
X0311909Y0148509D02*
X0329100Y0148509D01*
X0329100Y0150908D02*
X0310594Y0150908D01*
X0297108Y0153306D02*
X0282491Y0153306D01*
X0281219Y0155705D02*
X0294710Y0155705D01*
X0292311Y0158103D02*
X0279087Y0158103D01*
X0274342Y0160502D02*
X0289913Y0160502D01*
X0287514Y0162900D02*
X0237710Y0162900D01*
X0238248Y0160502D02*
X0268641Y0160502D01*
X0263896Y0158103D02*
X0237673Y0158103D01*
X0235109Y0155705D02*
X0261764Y0155705D01*
X0260492Y0153306D02*
X0233529Y0153306D01*
X0235928Y0150908D02*
X0259849Y0150908D01*
X0259791Y0148509D02*
X0238326Y0148509D01*
X0240725Y0146111D02*
X0260194Y0146111D01*
X0261122Y0143712D02*
X0243123Y0143712D01*
X0245522Y0141314D02*
X0262784Y0141314D01*
X0265823Y0138915D02*
X0247920Y0138915D01*
X0250319Y0136517D02*
X0308234Y0136517D01*
X0314985Y0136517D02*
X0323234Y0136517D01*
X0345150Y0165299D02*
X0354816Y0165299D01*
X0352291Y0167697D02*
X0345150Y0167697D01*
X0345150Y0170096D02*
X0350903Y0170096D01*
X0350153Y0172494D02*
X0346670Y0172494D01*
X0349068Y0174893D02*
X0349885Y0174893D01*
X0330606Y0226455D02*
X0326629Y0226455D01*
X0323817Y0229267D01*
X0323817Y0233243D01*
X0326629Y0236055D01*
X0330606Y0236055D01*
X0333417Y0233243D01*
X0333417Y0229267D01*
X0330606Y0226455D01*
X0331810Y0227660D02*
X0367901Y0227660D01*
X0368561Y0230059D02*
X0333417Y0230059D01*
X0333417Y0232457D02*
X0359407Y0232457D01*
X0358785Y0233080D02*
X0358058Y0234834D01*
X0358058Y0236732D01*
X0358785Y0238486D01*
X0360127Y0239828D01*
X0361881Y0240554D01*
X0363779Y0240554D01*
X0365533Y0239828D01*
X0366875Y0238486D01*
X0367602Y0236732D01*
X0367602Y0234834D01*
X0366875Y0233080D01*
X0365533Y0231737D01*
X0363779Y0231011D01*
X0361881Y0231011D01*
X0360127Y0231737D01*
X0358785Y0233080D01*
X0358058Y0234856D02*
X0331805Y0234856D01*
X0330606Y0236455D02*
X0333417Y0239267D01*
X0333417Y0243243D01*
X0330606Y0246055D01*
X0326629Y0246055D01*
X0323817Y0243243D01*
X0323817Y0239267D01*
X0326629Y0236455D01*
X0330606Y0236455D01*
X0331405Y0237254D02*
X0358275Y0237254D01*
X0359952Y0239653D02*
X0333417Y0239653D01*
X0333417Y0242051D02*
X0381988Y0242051D01*
X0378287Y0244450D02*
X0332211Y0244450D01*
X0325024Y0244450D02*
X0322211Y0244450D01*
X0323417Y0243243D02*
X0320606Y0246055D01*
X0316629Y0246055D01*
X0313817Y0243243D01*
X0313817Y0239267D01*
X0316629Y0236455D01*
X0320606Y0236455D01*
X0323417Y0239267D01*
X0323417Y0243243D01*
X0323417Y0242051D02*
X0323817Y0242051D01*
X0323817Y0239653D02*
X0323417Y0239653D01*
X0321405Y0237254D02*
X0325830Y0237254D01*
X0325430Y0234856D02*
X0321805Y0234856D01*
X0320606Y0236055D02*
X0316629Y0236055D01*
X0313817Y0233243D01*
X0313817Y0229267D01*
X0316629Y0226455D01*
X0320606Y0226455D01*
X0323417Y0229267D01*
X0323417Y0233243D01*
X0320606Y0236055D01*
X0323417Y0232457D02*
X0323817Y0232457D01*
X0323817Y0230059D02*
X0323417Y0230059D01*
X0321810Y0227660D02*
X0325424Y0227660D01*
X0315424Y0227660D02*
X0311810Y0227660D01*
X0313417Y0230059D02*
X0313817Y0230059D01*
X0313817Y0232457D02*
X0313417Y0232457D01*
X0311805Y0234856D02*
X0315430Y0234856D01*
X0315830Y0237254D02*
X0311405Y0237254D01*
X0313417Y0239653D02*
X0313817Y0239653D01*
X0313817Y0242051D02*
X0313417Y0242051D01*
X0312211Y0244450D02*
X0315024Y0244450D01*
X0267751Y0247672D02*
X0267751Y0237239D01*
X0267791Y0237200D01*
X0267790Y0237254D02*
X0267791Y0237254D01*
X0267790Y0234856D02*
X0267791Y0234856D01*
X0267790Y0232457D02*
X0267791Y0232457D01*
X0265180Y0232457D02*
X0260119Y0232457D01*
X0262517Y0234856D02*
X0262781Y0234856D01*
X0262889Y0239653D02*
X0262409Y0239653D01*
X0267790Y0239653D02*
X0267791Y0239653D01*
X0267751Y0247672D02*
X0263420Y0252003D01*
X0189376Y0242051D02*
X0184427Y0242051D01*
X0186826Y0239653D02*
X0186977Y0239653D01*
X0164466Y0230059D02*
X0156734Y0230059D01*
X0159133Y0232457D02*
X0159596Y0232457D01*
X0139596Y0232457D02*
X0134253Y0232457D01*
X0136651Y0234856D02*
X0137198Y0234856D01*
X0136924Y0237254D02*
X0136924Y0237254D01*
X0136543Y0239653D02*
X0137306Y0239653D01*
X0139704Y0242051D02*
X0134144Y0242051D01*
X0129704Y0242051D02*
X0119396Y0242051D01*
X0121794Y0239653D02*
X0127306Y0239653D01*
X0126924Y0237254D02*
X0122035Y0237254D01*
X0121745Y0234856D02*
X0127198Y0234856D01*
X0129596Y0232457D02*
X0119347Y0232457D01*
X0100425Y0246848D02*
X0376786Y0246848D01*
X0386979Y0242051D02*
X0401409Y0242051D01*
X0401409Y0239653D02*
X0375804Y0239653D01*
X0377422Y0237254D02*
X0401409Y0237254D01*
X0401409Y0234856D02*
X0377559Y0234856D01*
X0377644Y0235783D02*
X0372673Y0235783D01*
X0377644Y0235783D01*
X0372673Y0235783D02*
X0372673Y0235783D01*
X0372672Y0237254D02*
X0372672Y0237254D01*
X0372672Y0239653D02*
X0372672Y0239653D01*
X0369541Y0239653D02*
X0365708Y0239653D01*
X0367385Y0237254D02*
X0367923Y0237254D01*
X0367786Y0234856D02*
X0367602Y0234856D01*
X0366252Y0232457D02*
X0368967Y0232457D01*
X0390680Y0244450D02*
X0401409Y0244450D01*
X0401409Y0246848D02*
X0392181Y0246848D01*
X0392814Y0249247D02*
X0401409Y0249247D01*
X0401409Y0251645D02*
X0392814Y0251645D01*
X0220001Y0167697D02*
X0215300Y0167697D01*
X0215324Y0165299D02*
X0217563Y0165299D01*
X0185550Y0165299D02*
X0185324Y0165299D01*
X0185550Y0167697D02*
X0156138Y0167697D01*
X0158537Y0165299D02*
X0160160Y0165299D01*
X0162948Y0165299D02*
X0162948Y0165299D01*
X0162948Y0162900D02*
X0162948Y0162900D01*
X0162948Y0160547D02*
X0162948Y0160547D01*
X0162948Y0160502D02*
X0162948Y0160502D01*
X0162948Y0158103D02*
X0162948Y0158103D01*
X0162948Y0155705D02*
X0162948Y0155705D01*
X0165560Y0155705D02*
X0170787Y0155705D01*
X0168223Y0158103D02*
X0167876Y0158103D01*
X0167921Y0162900D02*
X0168186Y0162900D01*
X0170572Y0165299D02*
X0165736Y0165299D01*
X0175324Y0165299D02*
X0180572Y0165299D01*
X0178186Y0162900D02*
X0177710Y0162900D01*
X0177673Y0158103D02*
X0178223Y0158103D01*
X0180787Y0155705D02*
X0175109Y0155705D01*
X0185109Y0155705D02*
X0185550Y0155705D01*
X0185550Y0153306D02*
X0160400Y0153306D01*
X0160400Y0150908D02*
X0185550Y0150908D01*
X0185550Y0148509D02*
X0160400Y0148509D01*
X0160400Y0146111D02*
X0185550Y0146111D01*
X0185550Y0143712D02*
X0160400Y0143712D01*
X0160400Y0141314D02*
X0185690Y0141314D01*
X0187749Y0138915D02*
X0160400Y0138915D01*
X0160400Y0136517D02*
X0190148Y0136517D01*
X0189024Y0134118D02*
X0186872Y0134118D01*
X0179024Y0134118D02*
X0177151Y0134118D01*
X0172948Y0134118D02*
X0172948Y0134118D01*
X0172948Y0131720D02*
X0172948Y0131720D01*
X0172948Y0130547D02*
X0172948Y0130547D01*
X0172948Y0129321D02*
X0172948Y0129321D01*
X0172948Y0126923D02*
X0172948Y0126923D01*
X0168794Y0126923D02*
X0166819Y0126923D01*
X0166500Y0124524D02*
X0180150Y0124524D01*
X0180150Y0122126D02*
X0166500Y0122126D01*
X0166500Y0119727D02*
X0180150Y0119727D01*
X0180150Y0117329D02*
X0175937Y0117329D01*
X0173106Y0117329D02*
X0173105Y0117329D01*
X0173105Y0114930D02*
X0173106Y0114930D01*
X0173105Y0112594D02*
X0173106Y0112594D01*
X0173105Y0112532D02*
X0173106Y0112532D01*
X0173105Y0110133D02*
X0173106Y0110133D01*
X0173105Y0107734D02*
X0173106Y0107734D01*
X0175812Y0107734D02*
X0179349Y0107734D01*
X0176950Y0105336D02*
X0160400Y0105336D01*
X0160400Y0107734D02*
X0160682Y0107734D01*
X0165529Y0107734D02*
X0170399Y0107734D01*
X0168000Y0110133D02*
X0167928Y0110133D01*
X0163300Y0112900D02*
X0163106Y0112594D01*
X0163300Y0112900D02*
X0163300Y0130450D01*
X0162948Y0130546D01*
X0166872Y0134118D02*
X0168745Y0134118D01*
X0177102Y0126923D02*
X0179077Y0126923D01*
X0170274Y0117329D02*
X0166500Y0117329D01*
X0160400Y0102937D02*
X0174552Y0102937D01*
X0172153Y0100539D02*
X0160400Y0100539D01*
X0160400Y0098140D02*
X0167853Y0098140D01*
X0167400Y0095742D02*
X0160400Y0095742D01*
X0163145Y0093343D02*
X0163145Y0093343D01*
X0163145Y0090945D02*
X0163145Y0090945D01*
X0163145Y0090035D02*
X0163145Y0090035D01*
X0163145Y0088546D02*
X0163145Y0088546D01*
X0163145Y0086148D02*
X0163145Y0086148D01*
X0167036Y0086148D02*
X0169536Y0086148D01*
X0176753Y0086148D02*
X0179536Y0086148D01*
X0186753Y0086148D02*
X0189536Y0086148D01*
X0196026Y0083749D02*
X0157035Y0083749D01*
X0155900Y0081351D02*
X0198064Y0081351D01*
X0200462Y0078952D02*
X0155900Y0078952D01*
X0155900Y0076554D02*
X0202861Y0076554D01*
X0205259Y0074155D02*
X0155900Y0074155D01*
X0155900Y0071757D02*
X0207658Y0071757D01*
X0210056Y0069358D02*
X0155900Y0069358D01*
X0155900Y0066960D02*
X0212455Y0066960D01*
X0210224Y0064561D02*
X0206066Y0064561D01*
X0208000Y0062163D02*
X0208290Y0062163D01*
X0208514Y0057366D02*
X0207776Y0057366D01*
X0217776Y0057366D02*
X0218514Y0057366D01*
X0227776Y0057366D02*
X0228514Y0057366D01*
X0238948Y0062163D02*
X0259002Y0062163D01*
X0259551Y0061614D02*
X0256417Y0064748D01*
X0256417Y0066964D01*
X0261767Y0066964D01*
X0261767Y0066964D01*
X0261767Y0066964D01*
X0261767Y0061614D01*
X0259551Y0061614D01*
X0261767Y0062163D02*
X0261767Y0062163D01*
X0261767Y0064561D02*
X0261767Y0064561D01*
X0261767Y0066960D02*
X0261767Y0066960D01*
X0261767Y0069358D02*
X0261767Y0069358D01*
X0261767Y0071757D02*
X0261767Y0071757D01*
X0264540Y0071757D02*
X0269277Y0071757D01*
X0274257Y0071757D02*
X0293504Y0071757D01*
X0293504Y0069358D02*
X0276656Y0069358D01*
X0276917Y0066960D02*
X0294362Y0066960D01*
X0298853Y0066960D02*
X0298854Y0066960D01*
X0298853Y0069358D02*
X0298854Y0069358D01*
X0298853Y0070035D02*
X0298854Y0070035D01*
X0295408Y0074155D02*
X0240500Y0074155D01*
X0240500Y0071757D02*
X0258994Y0071757D01*
X0256595Y0069358D02*
X0240500Y0069358D01*
X0240500Y0066960D02*
X0256417Y0066960D01*
X0256603Y0064561D02*
X0240500Y0064561D01*
X0240500Y0076554D02*
X0295051Y0076554D01*
X0293704Y0078952D02*
X0240500Y0078952D01*
X0240500Y0081351D02*
X0292474Y0081351D01*
X0290075Y0083749D02*
X0285883Y0083749D01*
X0286791Y0086148D02*
X0287677Y0086148D01*
X0277099Y0083749D02*
X0276035Y0083749D01*
X0271491Y0083749D02*
X0271491Y0083749D01*
X0271491Y0081353D02*
X0271491Y0090153D01*
X0271491Y0090153D01*
X0271491Y0090945D02*
X0271491Y0090945D01*
X0271491Y0093343D02*
X0271491Y0093343D01*
X0271491Y0095742D02*
X0271491Y0095742D01*
X0271491Y0098140D02*
X0271491Y0098140D01*
X0268586Y0098140D02*
X0264024Y0098140D01*
X0266280Y0095742D02*
X0266485Y0095742D01*
X0258959Y0098140D02*
X0235550Y0098140D01*
X0235672Y0100539D02*
X0306309Y0100539D01*
X0306309Y0102937D02*
X0238051Y0102937D01*
X0238051Y0105336D02*
X0307053Y0105336D01*
X0278959Y0098140D02*
X0274396Y0098140D01*
X0276498Y0095742D02*
X0276703Y0095742D01*
X0271491Y0088546D02*
X0271491Y0088546D01*
X0271491Y0086148D02*
X0271491Y0086148D01*
X0266948Y0083749D02*
X0265883Y0083749D01*
X0257099Y0083749D02*
X0240500Y0083749D01*
X0240500Y0086148D02*
X0256191Y0086148D01*
X0256191Y0088546D02*
X0240500Y0088546D01*
X0240500Y0090945D02*
X0256191Y0090945D01*
X0256191Y0093343D02*
X0239942Y0093343D01*
X0237544Y0095742D02*
X0256703Y0095742D01*
X0299200Y0080050D02*
X0320800Y0080050D01*
X0269285Y0062163D02*
X0264532Y0062163D01*
X0255768Y0026185D02*
X0252491Y0026185D01*
X0253998Y0023787D02*
X0254260Y0023787D01*
X0254168Y0021388D02*
X0254091Y0021388D01*
X0252714Y0018990D02*
X0255544Y0018990D01*
X0256292Y0016591D02*
X0252124Y0016591D01*
X0253892Y0014193D02*
X0254523Y0014193D01*
X0254208Y0011794D02*
X0254208Y0011794D01*
X0253238Y0009396D02*
X0255177Y0009396D01*
X0245177Y0009396D02*
X0243238Y0009396D01*
X0244208Y0011794D02*
X0244208Y0011794D01*
X0243892Y0014193D02*
X0244523Y0014193D01*
X0246292Y0016591D02*
X0242124Y0016591D01*
X0242714Y0018990D02*
X0245544Y0018990D01*
X0244168Y0021388D02*
X0244091Y0021388D01*
X0243998Y0023787D02*
X0244260Y0023787D01*
X0245768Y0026185D02*
X0242491Y0026185D01*
X0235768Y0026185D02*
X0232491Y0026185D01*
X0233998Y0023787D02*
X0234260Y0023787D01*
X0234168Y0021388D02*
X0234091Y0021388D01*
X0232714Y0018990D02*
X0235544Y0018990D01*
X0236292Y0016591D02*
X0232124Y0016591D01*
X0233892Y0014193D02*
X0234523Y0014193D01*
X0234208Y0011794D02*
X0234208Y0011794D01*
X0233238Y0009396D02*
X0235177Y0009396D01*
X0225177Y0009396D02*
X0223238Y0009396D01*
X0224208Y0011794D02*
X0224208Y0011794D01*
X0223892Y0014193D02*
X0224523Y0014193D01*
X0226292Y0016591D02*
X0222124Y0016591D01*
X0222714Y0018990D02*
X0225544Y0018990D01*
X0224168Y0021388D02*
X0224091Y0021388D01*
X0223998Y0023787D02*
X0224260Y0023787D01*
X0225768Y0026185D02*
X0222491Y0026185D01*
X0215768Y0026185D02*
X0212491Y0026185D01*
X0213998Y0023787D02*
X0214260Y0023787D01*
X0214168Y0021388D02*
X0214091Y0021388D01*
X0212714Y0018990D02*
X0215544Y0018990D01*
X0216292Y0016591D02*
X0212124Y0016591D01*
X0213892Y0014193D02*
X0214523Y0014193D01*
X0214208Y0011794D02*
X0214208Y0011794D01*
X0213238Y0009396D02*
X0215177Y0009396D01*
X0205177Y0009396D02*
X0203238Y0009396D01*
X0204208Y0011794D02*
X0204208Y0011794D01*
X0203892Y0014193D02*
X0204523Y0014193D01*
X0206292Y0016591D02*
X0202124Y0016591D01*
X0202714Y0018990D02*
X0205544Y0018990D01*
X0204168Y0021388D02*
X0204091Y0021388D01*
X0203998Y0023787D02*
X0204260Y0023787D01*
X0205768Y0026185D02*
X0202491Y0026185D01*
X0195768Y0026185D02*
X0192491Y0026185D01*
X0193998Y0023787D02*
X0194260Y0023787D01*
X0194168Y0021388D02*
X0194091Y0021388D01*
X0192714Y0018990D02*
X0195544Y0018990D01*
X0196292Y0016591D02*
X0192124Y0016591D01*
X0193892Y0014193D02*
X0194523Y0014193D01*
X0194208Y0011794D02*
X0194208Y0011794D01*
X0193238Y0009396D02*
X0195177Y0009396D01*
X0185177Y0009396D02*
X0183238Y0009396D01*
X0184208Y0011794D02*
X0184208Y0011794D01*
X0183892Y0014193D02*
X0184523Y0014193D01*
X0186292Y0016591D02*
X0182124Y0016591D01*
X0182714Y0018990D02*
X0185544Y0018990D01*
X0184168Y0021388D02*
X0184091Y0021388D01*
X0183998Y0023787D02*
X0184260Y0023787D01*
X0185768Y0026185D02*
X0182491Y0026185D01*
X0175768Y0026185D02*
X0172491Y0026185D01*
X0173998Y0023787D02*
X0174260Y0023787D01*
X0174168Y0021388D02*
X0174091Y0021388D01*
X0172714Y0018990D02*
X0175544Y0018990D01*
X0176292Y0016591D02*
X0172336Y0016591D01*
X0174105Y0014193D02*
X0174523Y0014193D01*
X0169208Y0012436D02*
X0169208Y0012436D01*
X0164208Y0012436D01*
X0164208Y0012436D01*
X0156292Y0016591D02*
X0152124Y0016591D01*
X0153892Y0014193D02*
X0154523Y0014193D01*
X0154208Y0011794D02*
X0154208Y0011794D01*
X0153238Y0009396D02*
X0155177Y0009396D01*
X0145177Y0009396D02*
X0143238Y0009396D01*
X0144208Y0011794D02*
X0144208Y0011794D01*
X0143892Y0014193D02*
X0144523Y0014193D01*
X0146292Y0016591D02*
X0142124Y0016591D01*
X0136292Y0016591D02*
X0132124Y0016591D01*
X0133892Y0014193D02*
X0134523Y0014193D01*
X0134208Y0011794D02*
X0134208Y0011794D01*
X0133238Y0009396D02*
X0135177Y0009396D01*
X0125177Y0009396D02*
X0123238Y0009396D01*
X0124208Y0011794D02*
X0124208Y0011794D01*
X0123892Y0014193D02*
X0124523Y0014193D01*
X0126292Y0016591D02*
X0122124Y0016591D01*
X0116292Y0016591D02*
X0112124Y0016591D01*
X0113892Y0014193D02*
X0114523Y0014193D01*
X0114208Y0011794D02*
X0114208Y0011794D01*
X0113238Y0009396D02*
X0115177Y0009396D01*
X0105177Y0009396D02*
X0103238Y0009396D01*
X0104208Y0011794D02*
X0104208Y0011794D01*
X0103892Y0014193D02*
X0104523Y0014193D01*
X0106292Y0016591D02*
X0102124Y0016591D01*
X0096292Y0016591D02*
X0092124Y0016591D01*
X0093892Y0014193D02*
X0094523Y0014193D01*
X0094208Y0011794D02*
X0094208Y0011794D01*
X0093238Y0009396D02*
X0095177Y0009396D01*
X0085177Y0009396D02*
X0083238Y0009396D01*
X0084208Y0011794D02*
X0084208Y0011794D01*
X0083892Y0014193D02*
X0084523Y0014193D01*
X0086292Y0016591D02*
X0082124Y0016591D01*
X0076292Y0016591D02*
X0072124Y0016591D01*
X0073892Y0014193D02*
X0074523Y0014193D01*
X0074208Y0011794D02*
X0074208Y0011794D01*
X0073238Y0009396D02*
X0075177Y0009396D01*
X0065177Y0009396D02*
X0063238Y0009396D01*
X0064208Y0011794D02*
X0064208Y0011794D01*
X0063892Y0014193D02*
X0064523Y0014193D01*
X0066292Y0016591D02*
X0062124Y0016591D01*
X0056292Y0016591D02*
X0052124Y0016591D01*
X0053892Y0014193D02*
X0054523Y0014193D01*
X0054208Y0011794D02*
X0054208Y0011794D01*
X0053238Y0009396D02*
X0055177Y0009396D01*
X0045177Y0009396D02*
X0043238Y0009396D01*
X0044208Y0011794D02*
X0044208Y0011794D01*
X0043892Y0014193D02*
X0044523Y0014193D01*
X0046292Y0016591D02*
X0042124Y0016591D01*
X0036292Y0016591D02*
X0032124Y0016591D01*
X0033892Y0014193D02*
X0034523Y0014193D01*
X0034208Y0011794D02*
X0034208Y0011794D01*
X0033238Y0009396D02*
X0035177Y0009396D01*
X0025177Y0009396D02*
X0023238Y0009396D01*
X0024208Y0011794D02*
X0024208Y0011794D01*
X0023892Y0014193D02*
X0024523Y0014193D01*
X0026292Y0016591D02*
X0022124Y0016591D01*
X0007400Y0021388D02*
X0164168Y0021388D01*
X0164260Y0023787D02*
X0007400Y0023787D01*
X0007400Y0026185D02*
X0165768Y0026185D01*
X0165042Y0037050D02*
X0160775Y0037050D01*
X0157759Y0040067D01*
X0157759Y0044333D01*
X0160775Y0047350D01*
X0165042Y0047350D01*
X0167767Y0044625D01*
X0170693Y0047550D01*
X0172909Y0047550D01*
X0172909Y0042200D01*
X0172909Y0036850D01*
X0170693Y0036850D01*
X0167767Y0039775D01*
X0165042Y0037050D01*
X0166170Y0038178D02*
X0169365Y0038178D01*
X0172909Y0038178D02*
X0172909Y0038178D01*
X0172909Y0040576D02*
X0172909Y0040576D01*
X0172909Y0042975D02*
X0172909Y0042975D01*
X0172909Y0045373D02*
X0172909Y0045373D01*
X0168516Y0045373D02*
X0167019Y0045373D01*
X0158799Y0045373D02*
X0007400Y0045373D01*
X0007400Y0042975D02*
X0157759Y0042975D01*
X0157759Y0040576D02*
X0007400Y0040576D01*
X0007400Y0038178D02*
X0159648Y0038178D01*
X0158514Y0057366D02*
X0157776Y0057366D01*
X0158000Y0062163D02*
X0158290Y0062163D01*
X0160224Y0064561D02*
X0156066Y0064561D01*
X0166066Y0064561D02*
X0170018Y0064561D01*
X0168056Y0062163D02*
X0168000Y0062163D01*
X0167776Y0057366D02*
X0168332Y0057366D01*
X0173145Y0057366D02*
X0173145Y0057366D01*
X0173145Y0059764D02*
X0173145Y0059764D01*
X0173145Y0060035D02*
X0173145Y0060035D01*
X0173145Y0062163D02*
X0173145Y0062163D01*
X0173145Y0064561D02*
X0173145Y0064561D01*
X0176272Y0064561D02*
X0180224Y0064561D01*
X0178290Y0062163D02*
X0178233Y0062163D01*
X0177958Y0057366D02*
X0178514Y0057366D01*
X0187776Y0057366D02*
X0188514Y0057366D01*
X0188290Y0062163D02*
X0188000Y0062163D01*
X0186066Y0064561D02*
X0190224Y0064561D01*
X0196066Y0064561D02*
X0200224Y0064561D01*
X0198290Y0062163D02*
X0198000Y0062163D01*
X0197776Y0057366D02*
X0198514Y0057366D01*
X0148514Y0057366D02*
X0147776Y0057366D01*
X0138514Y0057366D02*
X0137776Y0057366D01*
X0128514Y0057366D02*
X0127776Y0057366D01*
X0118514Y0057366D02*
X0117776Y0057366D01*
X0099365Y0083749D02*
X0085611Y0083749D01*
X0086603Y0086148D02*
X0096967Y0086148D01*
X0096000Y0088546D02*
X0086603Y0088546D01*
X0087280Y0090945D02*
X0096000Y0090945D01*
X0096000Y0093343D02*
X0089679Y0093343D01*
X0092077Y0095742D02*
X0096000Y0095742D01*
X0085006Y0095742D02*
X0084614Y0095742D01*
X0079392Y0095742D02*
X0074614Y0095742D01*
X0074609Y0095747D02*
X0072918Y0096447D01*
X0071088Y0096447D01*
X0069397Y0095747D01*
X0068103Y0094453D01*
X0067403Y0092762D01*
X0067403Y0085732D01*
X0068103Y0084042D01*
X0069397Y0082748D01*
X0071088Y0082047D01*
X0072918Y0082047D01*
X0074609Y0082748D01*
X0075903Y0084042D01*
X0076603Y0085732D01*
X0076603Y0092762D01*
X0075903Y0094453D01*
X0074609Y0095747D01*
X0076362Y0093343D02*
X0077644Y0093343D01*
X0077403Y0090945D02*
X0076603Y0090945D01*
X0076603Y0088546D02*
X0077403Y0088546D01*
X0077403Y0086148D02*
X0076603Y0086148D01*
X0075611Y0083749D02*
X0078396Y0083749D01*
X0068396Y0083749D02*
X0065611Y0083749D01*
X0065903Y0084042D02*
X0066603Y0085732D01*
X0066603Y0092762D01*
X0065903Y0094453D01*
X0064609Y0095747D01*
X0062918Y0096447D01*
X0061088Y0096447D01*
X0059397Y0095747D01*
X0058103Y0094453D01*
X0057403Y0092762D01*
X0057403Y0085732D01*
X0058103Y0084042D01*
X0059397Y0082748D01*
X0061088Y0082047D01*
X0062918Y0082047D01*
X0064609Y0082748D01*
X0065903Y0084042D01*
X0066603Y0086148D02*
X0067403Y0086148D01*
X0067403Y0088546D02*
X0066603Y0088546D01*
X0066603Y0090945D02*
X0067403Y0090945D01*
X0067644Y0093343D02*
X0066362Y0093343D01*
X0064614Y0095742D02*
X0069392Y0095742D01*
X0059392Y0095742D02*
X0054614Y0095742D01*
X0054609Y0095747D02*
X0052918Y0096447D01*
X0051088Y0096447D01*
X0049397Y0095747D01*
X0048103Y0094453D01*
X0047403Y0092762D01*
X0047403Y0085732D01*
X0048103Y0084042D01*
X0049397Y0082748D01*
X0051088Y0082047D01*
X0052918Y0082047D01*
X0054609Y0082748D01*
X0055903Y0084042D01*
X0056603Y0085732D01*
X0056603Y0092762D01*
X0055903Y0094453D01*
X0054609Y0095747D01*
X0056362Y0093343D02*
X0057644Y0093343D01*
X0057403Y0090945D02*
X0056603Y0090945D01*
X0056603Y0088546D02*
X0057403Y0088546D01*
X0057403Y0086148D02*
X0056603Y0086148D01*
X0055611Y0083749D02*
X0058396Y0083749D01*
X0048396Y0083749D02*
X0045611Y0083749D01*
X0045903Y0084042D02*
X0046603Y0085732D01*
X0046603Y0092762D01*
X0045903Y0094453D01*
X0044609Y0095747D01*
X0042918Y0096447D01*
X0041088Y0096447D01*
X0039397Y0095747D01*
X0038103Y0094453D01*
X0037403Y0092762D01*
X0037403Y0085732D01*
X0038103Y0084042D01*
X0039397Y0082748D01*
X0041088Y0082047D01*
X0042918Y0082047D01*
X0044609Y0082748D01*
X0045903Y0084042D01*
X0046603Y0086148D02*
X0047403Y0086148D01*
X0047403Y0088546D02*
X0046603Y0088546D01*
X0046603Y0090945D02*
X0047403Y0090945D01*
X0047644Y0093343D02*
X0046362Y0093343D01*
X0044614Y0095742D02*
X0049392Y0095742D01*
X0039392Y0095742D02*
X0034614Y0095742D01*
X0034609Y0095747D02*
X0032918Y0096447D01*
X0031088Y0096447D01*
X0029397Y0095747D01*
X0028103Y0094453D01*
X0027403Y0092762D01*
X0027403Y0085732D01*
X0028103Y0084042D01*
X0029397Y0082748D01*
X0031088Y0082047D01*
X0032918Y0082047D01*
X0034609Y0082748D01*
X0035903Y0084042D01*
X0036603Y0085732D01*
X0036603Y0092762D01*
X0035903Y0094453D01*
X0034609Y0095747D01*
X0036362Y0093343D02*
X0037644Y0093343D01*
X0037403Y0090945D02*
X0036603Y0090945D01*
X0036603Y0088546D02*
X0037403Y0088546D01*
X0037403Y0086148D02*
X0036603Y0086148D01*
X0035611Y0083749D02*
X0038396Y0083749D01*
X0028396Y0083749D02*
X0025611Y0083749D01*
X0026603Y0086148D02*
X0027403Y0086148D01*
X0027403Y0088546D02*
X0026603Y0088546D01*
X0026603Y0090945D02*
X0027403Y0090945D01*
X0027644Y0093343D02*
X0026362Y0093343D01*
X0024614Y0095742D02*
X0029392Y0095742D01*
X0020074Y0110133D02*
X0007400Y0110133D01*
X0007400Y0112532D02*
X0015098Y0112532D01*
X0013099Y0114930D02*
X0007400Y0114930D01*
X0007400Y0117329D02*
X0012021Y0117329D01*
X0011586Y0119727D02*
X0007400Y0119727D01*
X0007400Y0122126D02*
X0011709Y0122126D01*
X0012425Y0124524D02*
X0007400Y0124524D01*
X0007400Y0126923D02*
X0013932Y0126923D01*
X0016894Y0129321D02*
X0007400Y0129321D01*
X0007400Y0131720D02*
X0097648Y0131720D01*
X0097648Y0134118D02*
X0064654Y0134118D01*
X0065901Y0136517D02*
X0105450Y0136517D01*
X0105450Y0138915D02*
X0065901Y0138915D01*
X0064094Y0141314D02*
X0105450Y0141314D01*
X0105450Y0143712D02*
X0064248Y0143712D01*
X0065901Y0146111D02*
X0104030Y0146111D01*
X0104204Y0148509D02*
X0065901Y0148509D01*
X0064500Y0150908D02*
X0106690Y0150908D01*
X0109210Y0150908D02*
X0115350Y0150908D01*
X0115350Y0148509D02*
X0111696Y0148509D01*
X0111870Y0146111D02*
X0115350Y0146111D01*
X0115350Y0143712D02*
X0110450Y0143712D01*
X0110450Y0141314D02*
X0115350Y0141314D01*
X0115350Y0138915D02*
X0110450Y0138915D01*
X0110450Y0136517D02*
X0115350Y0136517D01*
X0100787Y0155705D02*
X0007400Y0155705D01*
X0007400Y0158103D02*
X0017656Y0158103D01*
X0014372Y0160502D02*
X0007400Y0160502D01*
X0007400Y0162900D02*
X0012680Y0162900D01*
X0011827Y0165299D02*
X0007400Y0165299D01*
X0007400Y0167697D02*
X0011586Y0167697D01*
X0011903Y0170096D02*
X0007400Y0170096D01*
X0007400Y0172494D02*
X0012845Y0172494D01*
X0014658Y0174893D02*
X0007400Y0174893D01*
X0007400Y0177291D02*
X0018431Y0177291D01*
X0017028Y0182088D02*
X0007400Y0182088D01*
X0007400Y0179690D02*
X0098502Y0179690D01*
X0098502Y0182088D02*
X0026743Y0182088D01*
X0029761Y0184487D02*
X0099039Y0184487D01*
X0098502Y0177291D02*
X0025339Y0177291D01*
X0029112Y0174893D02*
X0099030Y0174893D01*
X0101884Y0172494D02*
X0030925Y0172494D01*
X0031943Y0165299D02*
X0100572Y0165299D01*
X0098186Y0162900D02*
X0031091Y0162900D01*
X0029398Y0160502D02*
X0097648Y0160502D01*
X0098223Y0158103D02*
X0026114Y0158103D01*
X0017523Y0153306D02*
X0007400Y0153306D01*
X0007400Y0150908D02*
X0014295Y0150908D01*
X0012635Y0148509D02*
X0007400Y0148509D01*
X0007400Y0146111D02*
X0011806Y0146111D01*
X0011586Y0143712D02*
X0007400Y0143712D01*
X0007400Y0141314D02*
X0011924Y0141314D01*
X0012889Y0138915D02*
X0007400Y0138915D01*
X0007400Y0136517D02*
X0014735Y0136517D01*
X0018719Y0134118D02*
X0007400Y0134118D01*
X0053812Y0141314D02*
X0057707Y0141314D01*
X0058830Y0142436D02*
X0055901Y0139507D01*
X0055901Y0137436D01*
X0055901Y0135365D01*
X0058830Y0132436D01*
X0060901Y0132436D01*
X0060901Y0137436D01*
X0055901Y0137436D01*
X0060901Y0137436D01*
X0060901Y0137436D01*
X0060901Y0137436D01*
X0060901Y0142436D01*
X0058830Y0142436D01*
X0055901Y0145365D01*
X0055901Y0147436D01*
X0060901Y0147436D01*
X0060901Y0142436D01*
X0058830Y0142436D01*
X0057554Y0143712D02*
X0053965Y0143712D01*
X0055701Y0146111D02*
X0055901Y0146111D01*
X0055901Y0147436D02*
X0060901Y0147436D01*
X0060901Y0147436D01*
X0060901Y0147436D01*
X0060901Y0152436D01*
X0058830Y0152436D01*
X0055901Y0149507D01*
X0055901Y0147436D01*
X0055901Y0148509D02*
X0055701Y0148509D01*
X0054218Y0150908D02*
X0057301Y0150908D01*
X0060901Y0150908D02*
X0060901Y0150908D01*
X0060901Y0148509D02*
X0060901Y0148509D01*
X0060901Y0146111D02*
X0060901Y0146111D01*
X0060901Y0143712D02*
X0060901Y0143712D01*
X0060901Y0141314D02*
X0060901Y0141314D01*
X0060901Y0138915D02*
X0060901Y0138915D01*
X0060901Y0136517D02*
X0060901Y0136517D01*
X0060901Y0134118D02*
X0060901Y0134118D01*
X0057148Y0134118D02*
X0054371Y0134118D01*
X0055701Y0136517D02*
X0055901Y0136517D01*
X0055901Y0138915D02*
X0055701Y0138915D01*
X0103302Y0172494D02*
X0103302Y0172494D01*
X0103302Y0174893D02*
X0103302Y0174893D01*
X0103302Y0177291D02*
X0103302Y0177291D01*
X0084995Y0196479D02*
X0084995Y0196479D01*
X0084995Y0198878D02*
X0084995Y0198878D01*
X0106402Y0203675D02*
X0110202Y0203675D01*
X0108740Y0206073D02*
X0107864Y0206073D01*
X0107902Y0208472D02*
X0108702Y0208472D01*
X0116402Y0203675D02*
X0120202Y0203675D01*
X0118740Y0206073D02*
X0117864Y0206073D01*
X0117902Y0208472D02*
X0118702Y0208472D01*
X0126402Y0203675D02*
X0127490Y0203675D01*
X0094370Y0220465D02*
X0094370Y0220465D01*
X0094370Y0222863D02*
X0094370Y0222863D01*
X0015021Y0198878D02*
X0009438Y0198878D01*
X0007400Y0196479D02*
X0013054Y0196479D01*
X0012001Y0194081D02*
X0007400Y0194081D01*
X0007400Y0191682D02*
X0011586Y0191682D01*
X0011730Y0189284D02*
X0007400Y0189284D01*
X0007400Y0186885D02*
X0012470Y0186885D01*
X0014009Y0184487D02*
X0007400Y0184487D01*
X0167539Y0093343D02*
X0168650Y0093343D01*
X0069829Y0052569D02*
X0064177Y0052569D01*
X0064609Y0052748D02*
X0065903Y0054042D01*
X0066603Y0055732D01*
X0066603Y0062762D01*
X0065903Y0064453D01*
X0064609Y0065747D01*
X0062918Y0066447D01*
X0061088Y0066447D01*
X0059397Y0065747D01*
X0058103Y0064453D01*
X0057403Y0062762D01*
X0057403Y0055732D01*
X0058103Y0054042D01*
X0059397Y0052748D01*
X0061088Y0052047D01*
X0062918Y0052047D01*
X0064609Y0052748D01*
X0066286Y0054967D02*
X0067720Y0054967D01*
X0067403Y0057366D02*
X0066603Y0057366D01*
X0066603Y0059764D02*
X0067403Y0059764D01*
X0067403Y0062163D02*
X0066603Y0062163D01*
X0065794Y0064561D02*
X0068212Y0064561D01*
X0058212Y0064561D02*
X0055964Y0064561D01*
X0056108Y0064363D02*
X0055664Y0064974D01*
X0055130Y0065508D01*
X0054519Y0065953D01*
X0053846Y0066296D01*
X0053127Y0066529D01*
X0052381Y0066647D01*
X0052003Y0066647D01*
X0051625Y0066647D01*
X0050879Y0066529D01*
X0050161Y0066296D01*
X0049487Y0065953D01*
X0048876Y0065508D01*
X0048342Y0064974D01*
X0047898Y0064363D01*
X0047555Y0063690D01*
X0047321Y0062971D01*
X0047203Y0062225D01*
X0047203Y0059247D01*
X0052003Y0059247D01*
X0052003Y0059247D01*
X0052003Y0066647D01*
X0052003Y0059247D01*
X0052003Y0059247D01*
X0056803Y0059247D01*
X0056803Y0062225D01*
X0056685Y0062971D01*
X0056451Y0063690D01*
X0056108Y0064363D01*
X0056803Y0062163D02*
X0057403Y0062163D01*
X0057403Y0059764D02*
X0056803Y0059764D01*
X0056803Y0057366D02*
X0057403Y0057366D01*
X0057720Y0054967D02*
X0056504Y0054967D01*
X0054556Y0052569D02*
X0059829Y0052569D01*
X0052003Y0052569D02*
X0052003Y0052569D01*
X0052003Y0054967D02*
X0052003Y0054967D01*
X0052003Y0057366D02*
X0052003Y0057366D01*
X0052003Y0059764D02*
X0052003Y0059764D01*
X0052003Y0062163D02*
X0052003Y0062163D01*
X0052003Y0064561D02*
X0052003Y0064561D01*
X0048042Y0064561D02*
X0045794Y0064561D01*
X0045903Y0064453D02*
X0044609Y0065747D01*
X0042918Y0066447D01*
X0041088Y0066447D01*
X0039397Y0065747D01*
X0038103Y0064453D01*
X0037403Y0062762D01*
X0037403Y0055732D01*
X0038103Y0054042D01*
X0039397Y0052748D01*
X0041088Y0052047D01*
X0042918Y0052047D01*
X0044609Y0052748D01*
X0045903Y0054042D01*
X0046603Y0055732D01*
X0046603Y0062762D01*
X0045903Y0064453D01*
X0046603Y0062163D02*
X0047203Y0062163D01*
X0047203Y0059764D02*
X0046603Y0059764D01*
X0046603Y0057366D02*
X0047203Y0057366D01*
X0047502Y0054967D02*
X0046286Y0054967D01*
X0044177Y0052569D02*
X0049450Y0052569D01*
X0039829Y0052569D02*
X0034177Y0052569D01*
X0034609Y0052748D02*
X0032918Y0052047D01*
X0031088Y0052047D01*
X0029397Y0052748D01*
X0028103Y0054042D01*
X0027403Y0055732D01*
X0027403Y0062762D01*
X0028103Y0064453D01*
X0029397Y0065747D01*
X0031088Y0066447D01*
X0032918Y0066447D01*
X0034609Y0065747D01*
X0035903Y0064453D01*
X0036603Y0062762D01*
X0036603Y0055732D01*
X0035903Y0054042D01*
X0034609Y0052748D01*
X0036286Y0054967D02*
X0037720Y0054967D01*
X0037403Y0057366D02*
X0036603Y0057366D01*
X0036603Y0059764D02*
X0037403Y0059764D01*
X0037403Y0062163D02*
X0036603Y0062163D01*
X0035794Y0064561D02*
X0038212Y0064561D01*
X0028212Y0064561D02*
X0025794Y0064561D01*
X0025903Y0064453D02*
X0024609Y0065747D01*
X0022918Y0066447D01*
X0021088Y0066447D01*
X0019397Y0065747D01*
X0018103Y0064453D01*
X0017403Y0062762D01*
X0017403Y0055732D01*
X0018103Y0054042D01*
X0019397Y0052748D01*
X0021088Y0052047D01*
X0022918Y0052047D01*
X0024609Y0052748D01*
X0025903Y0054042D01*
X0026603Y0055732D01*
X0026603Y0062762D01*
X0025903Y0064453D01*
X0026603Y0062163D02*
X0027403Y0062163D01*
X0027403Y0059764D02*
X0026603Y0059764D01*
X0026603Y0057366D02*
X0027403Y0057366D01*
X0027720Y0054967D02*
X0026286Y0054967D01*
X0024177Y0052569D02*
X0029829Y0052569D01*
X0019829Y0052569D02*
X0007400Y0052569D01*
X0007400Y0054967D02*
X0017720Y0054967D01*
X0017403Y0057366D02*
X0007400Y0057366D01*
X0007400Y0059764D02*
X0017403Y0059764D01*
X0017403Y0062163D02*
X0007400Y0062163D01*
X0007400Y0064561D02*
X0018212Y0064561D01*
D27*
X0082003Y0089247D02*
X0082300Y0089500D01*
X0093100Y0100300D01*
X0094900Y0100300D01*
X0098500Y0100300D02*
X0103000Y0104800D01*
X0103145Y0105113D01*
X0098500Y0100300D02*
X0098500Y0088150D01*
X0103000Y0083650D01*
X0103000Y0060250D01*
X0103145Y0060035D01*
X0118300Y0082750D02*
X0129550Y0071500D01*
X0133150Y0060250D02*
X0133145Y0060035D01*
X0133150Y0060250D02*
X0133150Y0083200D01*
X0138100Y0088150D01*
X0138100Y0162400D01*
X0141250Y0165550D01*
X0147550Y0165550D01*
X0152500Y0160600D01*
X0152948Y0160546D01*
X0157900Y0162400D02*
X0152950Y0167350D01*
X0139900Y0167350D01*
X0133150Y0160600D01*
X0132948Y0160546D01*
X0127750Y0162400D02*
X0127750Y0135400D01*
X0123250Y0130900D01*
X0122948Y0130546D01*
X0118300Y0132700D02*
X0118300Y0082750D01*
X0113145Y0090035D02*
X0112900Y0090400D01*
X0107950Y0095350D01*
X0107950Y0147100D01*
X0118300Y0132700D02*
X0122800Y0137200D01*
X0122800Y0160150D01*
X0122948Y0160546D01*
X0127750Y0162400D02*
X0123700Y0166450D01*
X0123700Y0179500D01*
X0123302Y0179680D01*
X0113350Y0179500D02*
X0113302Y0179680D01*
X0113350Y0179500D02*
X0113350Y0166900D01*
X0117850Y0162400D01*
X0117850Y0135400D01*
X0113350Y0130900D01*
X0112948Y0130546D01*
X0143050Y0137200D02*
X0148000Y0132250D01*
X0148000Y0064750D01*
X0143500Y0060250D01*
X0143145Y0060035D01*
X0153145Y0060035D02*
X0153400Y0060250D01*
X0153400Y0083650D01*
X0157900Y0088150D01*
X0157900Y0162400D01*
X0143050Y0160150D02*
X0142948Y0160546D01*
X0143050Y0160150D02*
X0143050Y0137200D01*
X0182650Y0130450D02*
X0182650Y0115150D01*
X0179500Y0112000D01*
X0184900Y0109750D02*
X0171400Y0096250D01*
X0193450Y0096250D02*
X0198400Y0091300D01*
X0198400Y0084550D01*
X0222700Y0060250D01*
X0223145Y0060035D01*
X0233145Y0060035D02*
X0233500Y0060250D01*
X0238000Y0064750D01*
X0238000Y0091750D01*
X0233050Y0096700D01*
X0233050Y0104800D01*
X0232751Y0105113D01*
X0202751Y0115231D02*
X0202450Y0115600D01*
X0197950Y0120100D01*
X0197950Y0125500D01*
X0214600Y0125500D01*
X0219550Y0130450D01*
X0222700Y0130450D01*
X0222948Y0130546D01*
X0242500Y0127750D02*
X0216400Y0153850D01*
X0209650Y0153850D01*
X0203350Y0160150D01*
X0202948Y0160546D01*
X0208300Y0158350D02*
X0211000Y0155650D01*
X0214600Y0155650D01*
X0218200Y0159250D01*
X0218200Y0162400D01*
X0221350Y0165550D01*
X0288400Y0165550D01*
X0306400Y0147550D01*
X0306609Y0147397D01*
X0311350Y0132700D02*
X0311609Y0132397D01*
X0311350Y0132700D02*
X0250600Y0132700D01*
X0223150Y0160150D01*
X0222948Y0160546D01*
X0212948Y0160546D02*
X0212800Y0160600D01*
X0212800Y0181300D01*
X0174100Y0220000D01*
X0125500Y0220000D01*
X0115600Y0210100D01*
X0113350Y0210100D01*
X0113302Y0209680D01*
X0123302Y0209680D02*
X0123700Y0209650D01*
X0125050Y0209650D01*
X0139000Y0195700D01*
X0166900Y0195700D01*
X0188050Y0174550D01*
X0188050Y0142150D01*
X0197950Y0132250D01*
X0197950Y0125500D01*
X0202948Y0130546D02*
X0202900Y0130900D01*
X0197950Y0135850D01*
X0197950Y0167350D01*
X0167800Y0197500D01*
X0167350Y0197500D01*
X0155200Y0209650D01*
X0153400Y0209650D01*
X0153302Y0209680D01*
X0151600Y0216400D02*
X0145300Y0210100D01*
X0143500Y0210100D01*
X0143302Y0209680D01*
X0135400Y0210100D02*
X0143500Y0218200D01*
X0173200Y0218200D01*
X0208300Y0183100D01*
X0208300Y0158350D01*
X0203350Y0166900D02*
X0169150Y0201100D01*
X0169150Y0212350D01*
X0165100Y0216400D01*
X0151600Y0216400D01*
X0135400Y0210100D02*
X0133600Y0210100D01*
X0133302Y0209680D01*
X0182650Y0130450D02*
X0182948Y0130546D01*
X0184900Y0109750D02*
X0310900Y0109750D01*
X0331600Y0130450D01*
X0331600Y0183550D01*
X0372550Y0224500D01*
X0372550Y0227200D01*
X0372672Y0227515D01*
X0326609Y0132397D02*
X0326200Y0132250D01*
X0318100Y0132250D01*
X0313600Y0127750D01*
X0242500Y0127750D01*
D28*
X0193450Y0096250D03*
X0171400Y0096250D03*
X0179500Y0112000D03*
X0129550Y0071500D03*
X0094900Y0100300D03*
X0107950Y0147100D03*
X0203350Y0166900D03*
D29*
X0021885Y0167554D03*
X0021885Y0143932D03*
X0021885Y0120310D03*
X0021885Y0191176D03*
M02*
