%
M48
M72
T01C0.0240
T02C0.0320
T03C0.0354
T04C0.0360
T05C0.0400
T06C0.0440
T07C0.0866
T08C0.1102
T09C0.1260
T10C0.1300
%
T01
X12955Y7150
X17140Y9625
X19345Y9625
X17950Y11200
X10795Y14710
X9490Y10030
X20335Y16690
T02
X17330Y17968
X16330Y17968
X15330Y17968
X14330Y17968
X13330Y17968
X12330Y17968
X11330Y17968
X10330Y17968
X8500Y19960
X8500Y20960
X10330Y20968
X11330Y20968
X12330Y20968
X13330Y20968
X14330Y20968
X15330Y20968
X16330Y20968
X17330Y20968
X20271Y22728
X20271Y23728
X11689Y23728
X11689Y22728
X10334Y11523
X10314Y10511
X8200Y8925
X7200Y8925
X6200Y8925
X5200Y8925
X4200Y8925
X3200Y8925
X2200Y8925
X2200Y5925
X3200Y5925
X4200Y5925
X5200Y5925
X6200Y5925
X7200Y5925
X8200Y5925
X13314Y10511
X13334Y11523
X16311Y11259
X17311Y11259
X20275Y11523
X20275Y10511
X23275Y10511
X23275Y11523
X29885Y8003
X29885Y7003
X32169Y7003
X32169Y8003
X32661Y10240
X31161Y10240
X31161Y13240
X32661Y13240
X33661Y14740
X30661Y14740
X27177Y6696
X26177Y6696
X17291Y4220
X16291Y4220
T03
X35189Y10690
X36189Y11140
X37189Y10690
X37189Y11590
X36189Y12040
X37189Y12490
X36189Y12940
X37189Y13390
X36189Y13840
X37189Y14290
X36189Y14740
X35189Y14290
X35189Y13390
X35189Y12490
X35189Y11590
X36283Y20901
X37267Y20901
X37267Y21728
X37267Y22751
X37267Y23578
X36283Y23578
T04
X32862Y23126
X31862Y23126
X30862Y23126
X29862Y23126
X29862Y24126
X30862Y24126
X31862Y24126
X32862Y24126
X6090Y14744
X5090Y14744
X5090Y13744
X6090Y13744
T05
X921Y1244
X1921Y1244
X2921Y1244
X3921Y1244
X4921Y1244
X5921Y1244
X6921Y1244
X7921Y1244
X8921Y1244
X9921Y1244
X10921Y1244
X11921Y1244
X12921Y1244
X13921Y1244
X14921Y1244
X15921Y1244
X16921Y1244
X17921Y1244
X18921Y1244
X19921Y1244
X20921Y1244
X21921Y1244
X22921Y1244
X23921Y1244
X24921Y1244
X25921Y1244
X26921Y1244
X27921Y1244
X28921Y1244
X29921Y1244
X30921Y1244
X31921Y1244
X32921Y1244
X33921Y1244
X34921Y1244
X35921Y1244
X36921Y1244
X37921Y1244
X38921Y1244
X39921Y1244
X39913Y2248
X38913Y2248
X37913Y2248
X36913Y2248
X35913Y2248
X34913Y2248
X33913Y2248
X32913Y2248
X31913Y2248
X30913Y2248
X29913Y2248
X28913Y2248
X27913Y2248
X26913Y2248
X25913Y2248
X24913Y2248
X23913Y2248
X22913Y2248
X21913Y2248
X20913Y2248
X19913Y2248
X18913Y2248
X17913Y2248
X16913Y2248
X26177Y4728
X27177Y4728
X9437Y22503
X6877Y22503
X6877Y24283
X9437Y24283
X13192Y23720
X14192Y23720
X15192Y23720
X16192Y23720
X17192Y23720
X18192Y23720
X21779Y23720
X22779Y23720
X23779Y23720
X24779Y23720
X25779Y23720
X26779Y23720
T06
X23295Y16055
X22295Y16055
X21295Y16055
X20295Y16055
X19295Y16055
X18295Y16055
X17295Y16055
X16295Y16055
X15295Y16055
X14295Y16055
X13295Y16055
X12295Y16055
X11295Y16055
X10295Y16055
X10295Y13055
X11295Y13055
X12295Y13055
X13295Y13055
X14295Y13055
X15295Y13055
X16295Y13055
X17295Y13055
X18295Y13055
X19295Y13055
X20295Y13055
X21295Y13055
X22295Y13055
X23295Y13055
X23314Y9003
X22314Y9003
X21314Y9003
X20314Y9003
X19314Y9003
X18314Y9003
X17314Y9003
X16314Y9003
X15314Y9003
X14314Y9003
X13314Y9003
X12314Y9003
X11314Y9003
X10314Y9003
X10314Y6003
X11314Y6003
X12314Y6003
X13314Y6003
X14314Y6003
X15314Y6003
X16314Y6003
X17314Y6003
X18314Y6003
X19314Y6003
X20314Y6003
X21314Y6003
X22314Y6003
X23314Y6003
X26149Y9015
X27149Y9015
X28149Y9015
T07
X38448Y19472
X38763Y22240
X38448Y25003
T08
X36189Y17507
X36189Y7665
T09
X2189Y12031
X2189Y14393
X2189Y16755
X2189Y19118
T10
X27149Y14915
M30
