G75*
%MOIN*%
%OFA0B0*%
%FSLAX25Y25*%
%IPPOS*%
%LPD*%
%AMOC8*
5,1,8,0,0,1.08239X$1,22.5*
%
%ADD10C,0.07800*%
%ADD11OC8,0.07800*%
%ADD12C,0.20800*%
%ADD13R,0.07400X0.07400*%
%ADD14C,0.07400*%
%ADD15C,0.06343*%
%ADD16C,0.13461*%
%ADD17OC8,0.07100*%
%ADD18C,0.07100*%
%ADD19C,0.06000*%
%ADD20OC8,0.06400*%
%ADD21OC8,0.06800*%
%ADD22C,0.06800*%
%ADD23OC8,0.07400*%
%ADD24C,0.06800*%
%ADD25C,0.07400*%
%ADD26C,0.13800*%
%ADD27C,0.04800*%
%ADD28C,0.17398*%
D10*
X0351885Y0106905D03*
X0361885Y0111405D03*
X0351885Y0115905D03*
X0361885Y0120405D03*
X0351885Y0124905D03*
X0361885Y0129405D03*
X0351885Y0133905D03*
X0361885Y0138405D03*
X0371885Y0142905D03*
X0361885Y0147405D03*
X0371885Y0133905D03*
X0371885Y0124905D03*
X0371885Y0115905D03*
X0371885Y0106905D03*
D11*
X0351885Y0142905D03*
D12*
X0361885Y0175074D03*
X0361885Y0076649D03*
D13*
X0103145Y0060035D03*
X0102948Y0130546D03*
D14*
X0112948Y0130546D03*
X0122948Y0130546D03*
X0132948Y0130546D03*
X0142948Y0130546D03*
X0152948Y0130546D03*
X0162948Y0130546D03*
X0172948Y0130546D03*
X0182948Y0130546D03*
X0192948Y0130546D03*
X0202948Y0130546D03*
X0212948Y0130546D03*
X0222948Y0130546D03*
X0232948Y0130546D03*
X0232948Y0160546D03*
X0222948Y0160546D03*
X0212948Y0160546D03*
X0202948Y0160546D03*
X0192948Y0160546D03*
X0182948Y0160546D03*
X0172948Y0160546D03*
X0162948Y0160546D03*
X0152948Y0160546D03*
X0142948Y0160546D03*
X0132948Y0160546D03*
X0122948Y0160546D03*
X0112948Y0160546D03*
X0102948Y0160546D03*
X0103145Y0090035D03*
X0113145Y0090035D03*
X0123145Y0090035D03*
X0133145Y0090035D03*
X0143145Y0090035D03*
X0153145Y0090035D03*
X0163145Y0090035D03*
X0173145Y0090035D03*
X0183145Y0090035D03*
X0193145Y0090035D03*
X0203145Y0090035D03*
X0213145Y0090035D03*
X0223145Y0090035D03*
X0233145Y0090035D03*
X0233145Y0060035D03*
X0223145Y0060035D03*
X0213145Y0060035D03*
X0203145Y0060035D03*
X0193145Y0060035D03*
X0183145Y0060035D03*
X0173145Y0060035D03*
X0163145Y0060035D03*
X0153145Y0060035D03*
X0143145Y0060035D03*
X0133145Y0060035D03*
X0123145Y0060035D03*
X0113145Y0060035D03*
D15*
X0362830Y0209011D03*
X0372672Y0209011D03*
X0372672Y0217279D03*
X0372672Y0227515D03*
X0372672Y0235783D03*
X0362830Y0235783D03*
D16*
X0384483Y0250035D03*
X0387633Y0222397D03*
X0384483Y0194720D03*
D17*
X0202712Y0227279D03*
X0202712Y0237279D03*
X0116885Y0237279D03*
X0116885Y0227279D03*
X0084995Y0209602D03*
X0084995Y0199602D03*
X0163106Y0112594D03*
X0173106Y0112594D03*
X0261767Y0066964D03*
X0271767Y0066964D03*
X0298854Y0070035D03*
X0298854Y0080035D03*
X0321688Y0070035D03*
X0172909Y0042200D03*
X0162909Y0042200D03*
D18*
X0321688Y0080035D03*
D19*
X0173302Y0177080D02*
X0173302Y0182280D01*
X0163302Y0182280D02*
X0163302Y0177080D01*
X0153302Y0177080D02*
X0153302Y0182280D01*
X0143302Y0182280D02*
X0143302Y0177080D01*
X0133302Y0177080D02*
X0133302Y0182280D01*
X0123302Y0182280D02*
X0123302Y0177080D01*
X0113302Y0177080D02*
X0113302Y0182280D01*
X0103302Y0182280D02*
X0103302Y0177080D01*
X0103302Y0207080D02*
X0103302Y0212280D01*
X0113302Y0212280D02*
X0113302Y0207080D01*
X0123302Y0207080D02*
X0123302Y0212280D01*
X0133302Y0212280D02*
X0133302Y0207080D01*
X0143302Y0207080D02*
X0143302Y0212280D01*
X0153302Y0212280D02*
X0153302Y0207080D01*
X0163302Y0207080D02*
X0163302Y0212280D01*
X0173302Y0212280D02*
X0173302Y0207080D01*
X0082003Y0091847D02*
X0082003Y0086647D01*
X0072003Y0086647D02*
X0072003Y0091847D01*
X0062003Y0091847D02*
X0062003Y0086647D01*
X0052003Y0086647D02*
X0052003Y0091847D01*
X0042003Y0091847D02*
X0042003Y0086647D01*
X0032003Y0086647D02*
X0032003Y0091847D01*
X0022003Y0091847D02*
X0022003Y0086647D01*
X0022003Y0061847D02*
X0022003Y0056647D01*
X0032003Y0056647D02*
X0032003Y0061847D01*
X0042003Y0061847D02*
X0042003Y0056647D01*
X0052003Y0056647D02*
X0052003Y0061847D01*
X0062003Y0061847D02*
X0062003Y0056647D01*
X0072003Y0056647D02*
X0072003Y0061847D01*
X0082003Y0061847D02*
X0082003Y0056647D01*
D20*
X0060901Y0137436D03*
X0050901Y0137436D03*
X0050901Y0147436D03*
X0060901Y0147436D03*
X0298617Y0231255D03*
X0308617Y0231255D03*
X0318617Y0231255D03*
X0328617Y0231255D03*
X0328617Y0241255D03*
X0318617Y0241255D03*
X0308617Y0241255D03*
X0298617Y0241255D03*
D21*
X0267791Y0237200D03*
X0257791Y0237200D03*
X0247791Y0237200D03*
X0237791Y0237200D03*
X0227791Y0237200D03*
X0217791Y0237200D03*
X0181924Y0237200D03*
X0171924Y0237200D03*
X0161924Y0237200D03*
X0151924Y0237200D03*
X0141924Y0237200D03*
X0131924Y0237200D03*
D22*
X0097370Y0242832D02*
X0091370Y0242832D01*
X0071770Y0242832D02*
X0065770Y0242832D01*
X0065770Y0225032D02*
X0071770Y0225032D01*
X0091370Y0225032D02*
X0097370Y0225032D01*
X0261767Y0050279D02*
X0261767Y0044279D01*
X0271767Y0044279D02*
X0271767Y0050279D01*
D23*
X0311609Y0102397D03*
X0326609Y0102397D03*
X0326609Y0132397D03*
X0311609Y0132397D03*
X0306609Y0147397D03*
X0336609Y0147397D03*
X0232751Y0115231D03*
X0232751Y0105113D03*
X0202751Y0105113D03*
X0202751Y0115231D03*
X0133342Y0115231D03*
X0133145Y0105113D03*
X0103145Y0105113D03*
X0103342Y0115231D03*
D24*
X0009208Y0012436D03*
X0019208Y0012436D03*
X0029208Y0012436D03*
X0039208Y0012436D03*
X0049208Y0012436D03*
X0059208Y0012436D03*
X0069208Y0012436D03*
X0079208Y0012436D03*
X0089208Y0012436D03*
X0099208Y0012436D03*
X0109208Y0012436D03*
X0119208Y0012436D03*
X0129208Y0012436D03*
X0139208Y0012436D03*
X0149208Y0012436D03*
X0159208Y0012436D03*
X0169208Y0012436D03*
X0179208Y0012436D03*
X0189208Y0012436D03*
X0199208Y0012436D03*
X0209208Y0012436D03*
X0219208Y0012436D03*
X0229208Y0012436D03*
X0239208Y0012436D03*
X0249208Y0012436D03*
X0259208Y0012436D03*
X0269208Y0012436D03*
X0279208Y0012436D03*
X0289208Y0012436D03*
X0299208Y0012436D03*
X0309208Y0012436D03*
X0319208Y0012436D03*
X0329208Y0012436D03*
X0339208Y0012436D03*
X0349208Y0012436D03*
X0359208Y0012436D03*
X0369208Y0012436D03*
X0379208Y0012436D03*
X0389208Y0012436D03*
X0399208Y0012436D03*
X0399129Y0022476D03*
X0389129Y0022476D03*
X0379129Y0022476D03*
X0369129Y0022476D03*
X0359129Y0022476D03*
X0349129Y0022476D03*
X0339129Y0022476D03*
X0329129Y0022476D03*
X0319129Y0022476D03*
X0309129Y0022476D03*
X0299129Y0022476D03*
X0289129Y0022476D03*
X0279129Y0022476D03*
X0269129Y0022476D03*
X0259129Y0022476D03*
X0249129Y0022476D03*
X0239129Y0022476D03*
X0229129Y0022476D03*
X0219129Y0022476D03*
X0209129Y0022476D03*
X0199129Y0022476D03*
X0189129Y0022476D03*
X0179129Y0022476D03*
X0169129Y0022476D03*
D25*
X0261491Y0086853D02*
X0261491Y0093453D01*
X0271491Y0093453D02*
X0271491Y0086853D01*
X0281491Y0086853D02*
X0281491Y0093453D01*
D26*
X0271491Y0149153D03*
D27*
X0203350Y0166900D03*
X0179500Y0112000D03*
X0171400Y0096250D03*
X0193450Y0096250D03*
X0129550Y0071500D03*
X0094900Y0100300D03*
X0107950Y0147100D03*
D28*
X0021885Y0143932D03*
X0021885Y0120310D03*
X0021885Y0167554D03*
X0021885Y0191176D03*
M02*
