G75*
%MOIN*%
%OFA0B0*%
%FSLAX25Y25*%
%IPPOS*%
%LPD*%
%AMOC8*
5,1,8,0,0,1.08239X$1,22.5*
%
%ADD10C,0.07000*%
%ADD11OC8,0.07000*%
%ADD12C,0.20000*%
%ADD13R,0.06600X0.06600*%
%ADD14C,0.06600*%
%ADD15C,0.05543*%
%ADD16C,0.12661*%
%ADD17OC8,0.06300*%
%ADD18C,0.06300*%
%ADD19C,0.04400*%
%ADD20C,0.05200*%
%ADD21OC8,0.05600*%
%ADD22OC8,0.06000*%
%ADD23C,0.06000*%
%ADD24OC8,0.06600*%
%ADD25C,0.06000*%
%ADD26C,0.02400*%
%ADD27C,0.04356*%
%ADD28C,0.01000*%
%ADD29C,0.04000*%
%ADD30C,0.16598*%
D10*
X0552476Y0106708D03*
X0562476Y0111208D03*
X0572476Y0115708D03*
X0562476Y0120208D03*
X0552476Y0124708D03*
X0562476Y0129208D03*
X0572476Y0133708D03*
X0562476Y0138208D03*
X0572476Y0142708D03*
X0562476Y0147208D03*
X0552476Y0133708D03*
X0572476Y0124708D03*
X0552476Y0115708D03*
X0572476Y0106708D03*
D11*
X0552476Y0142708D03*
D12*
X0562476Y0174877D03*
X0562476Y0076452D03*
D13*
X0182476Y0065350D03*
X0182279Y0135861D03*
D14*
X0192279Y0135861D03*
X0202279Y0135861D03*
X0212279Y0135861D03*
X0222279Y0135861D03*
X0232279Y0135861D03*
X0242279Y0135861D03*
X0252279Y0135861D03*
X0262279Y0135861D03*
X0272279Y0135861D03*
X0282279Y0135861D03*
X0292279Y0135861D03*
X0302279Y0135861D03*
X0312279Y0135861D03*
X0312279Y0165861D03*
X0302279Y0165861D03*
X0292279Y0165861D03*
X0282279Y0165861D03*
X0272279Y0165861D03*
X0262279Y0165861D03*
X0252279Y0165861D03*
X0242279Y0165861D03*
X0232279Y0165861D03*
X0222279Y0165861D03*
X0212279Y0165861D03*
X0202279Y0165861D03*
X0192279Y0165861D03*
X0182279Y0165861D03*
X0182476Y0095350D03*
X0192476Y0095350D03*
X0202476Y0095350D03*
X0212476Y0095350D03*
X0222476Y0095350D03*
X0232476Y0095350D03*
X0242476Y0095350D03*
X0252476Y0095350D03*
X0262476Y0095350D03*
X0272476Y0095350D03*
X0282476Y0095350D03*
X0292476Y0095350D03*
X0302476Y0095350D03*
X0312476Y0095350D03*
X0312476Y0065350D03*
X0302476Y0065350D03*
X0292476Y0065350D03*
X0282476Y0065350D03*
X0272476Y0065350D03*
X0262476Y0065350D03*
X0252476Y0065350D03*
X0242476Y0065350D03*
X0232476Y0065350D03*
X0222476Y0065350D03*
X0212476Y0065350D03*
X0202476Y0065350D03*
X0192476Y0065350D03*
D15*
X0563420Y0208814D03*
X0573263Y0208814D03*
X0573263Y0217082D03*
X0573263Y0227318D03*
X0573263Y0235586D03*
X0563420Y0235586D03*
D16*
X0585074Y0249838D03*
X0588224Y0222200D03*
X0585074Y0194523D03*
D17*
X0522200Y0198145D03*
X0522200Y0208145D03*
X0522200Y0177239D03*
X0522200Y0167239D03*
X0389129Y0057318D03*
X0252239Y0047515D03*
X0242239Y0047515D03*
X0113499Y0067751D03*
X0103499Y0067751D03*
X0242436Y0117909D03*
X0252436Y0117909D03*
X0113499Y0144444D03*
X0103499Y0144444D03*
X0164326Y0204917D03*
X0164326Y0214917D03*
D18*
X0399129Y0057318D03*
D19*
X0115581Y0095507D02*
X0111181Y0095507D01*
X0111181Y0115507D02*
X0115581Y0115507D01*
D20*
X0182633Y0182395D02*
X0182633Y0187595D01*
X0192633Y0187595D02*
X0192633Y0182395D01*
X0202633Y0182395D02*
X0202633Y0187595D01*
X0212633Y0187595D02*
X0212633Y0182395D01*
X0222633Y0182395D02*
X0222633Y0187595D01*
X0232633Y0187595D02*
X0232633Y0182395D01*
X0242633Y0182395D02*
X0242633Y0187595D01*
X0252633Y0187595D02*
X0252633Y0182395D01*
X0252633Y0212395D02*
X0252633Y0217595D01*
X0242633Y0217595D02*
X0242633Y0212395D01*
X0232633Y0212395D02*
X0232633Y0217595D01*
X0222633Y0217595D02*
X0222633Y0212395D01*
X0212633Y0212395D02*
X0212633Y0217595D01*
X0202633Y0217595D02*
X0202633Y0212395D01*
X0192633Y0212395D02*
X0192633Y0217595D01*
X0182633Y0217595D02*
X0182633Y0212395D01*
D21*
X0092200Y0192909D03*
X0082200Y0192909D03*
X0082200Y0182909D03*
X0092200Y0182909D03*
D22*
X0377200Y0237200D03*
X0387200Y0237200D03*
X0397200Y0237200D03*
X0407200Y0237200D03*
X0417200Y0237200D03*
X0427200Y0237200D03*
X0467200Y0237200D03*
X0477200Y0237200D03*
X0487200Y0237200D03*
X0497200Y0237200D03*
X0507200Y0237200D03*
X0517200Y0237200D03*
D23*
X0097370Y0242832D02*
X0091370Y0242832D01*
X0071770Y0242832D02*
X0065770Y0242832D01*
X0065770Y0225032D02*
X0071770Y0225032D01*
X0091370Y0225032D02*
X0097370Y0225032D01*
X0389129Y0040633D02*
X0389129Y0034633D01*
X0399129Y0034633D02*
X0399129Y0040633D01*
X0409208Y0015436D02*
X0409208Y0009436D01*
X0419208Y0009436D02*
X0419208Y0015436D01*
X0429208Y0015436D02*
X0429208Y0009436D01*
X0439208Y0009436D02*
X0439208Y0015436D01*
X0449208Y0015436D02*
X0449208Y0009436D01*
X0459208Y0009436D02*
X0459208Y0015436D01*
X0469208Y0015436D02*
X0469208Y0009436D01*
X0479208Y0009436D02*
X0479208Y0015436D01*
X0489208Y0015436D02*
X0489208Y0009436D01*
X0499208Y0009436D02*
X0499208Y0015436D01*
X0509208Y0015436D02*
X0509208Y0009436D01*
X0519208Y0009436D02*
X0519208Y0015436D01*
X0529208Y0015436D02*
X0529208Y0009436D01*
X0539208Y0009436D02*
X0539208Y0015436D01*
X0549208Y0015436D02*
X0549208Y0009436D01*
X0559208Y0009436D02*
X0559208Y0015436D01*
X0569208Y0015436D02*
X0569208Y0009436D01*
X0579208Y0009436D02*
X0579208Y0015436D01*
X0589208Y0015436D02*
X0589208Y0009436D01*
X0599208Y0009436D02*
X0599208Y0015436D01*
D24*
X0527200Y0102200D03*
X0512200Y0102200D03*
X0512200Y0132200D03*
X0527200Y0132200D03*
X0537200Y0147200D03*
X0507200Y0147200D03*
X0312082Y0120546D03*
X0312082Y0110428D03*
X0282082Y0110428D03*
X0282082Y0120546D03*
X0212672Y0120546D03*
X0212476Y0110428D03*
X0182476Y0110428D03*
X0182672Y0120546D03*
D25*
X0179208Y0012436D03*
X0189208Y0012436D03*
X0199208Y0012436D03*
X0209208Y0012436D03*
X0219208Y0012436D03*
X0229208Y0012436D03*
X0239208Y0012436D03*
X0249208Y0012436D03*
X0259208Y0012436D03*
X0269208Y0012436D03*
X0279208Y0012436D03*
X0289208Y0012436D03*
X0299208Y0012436D03*
X0309208Y0012436D03*
X0319208Y0012436D03*
X0329208Y0012436D03*
X0339208Y0012436D03*
X0349208Y0012436D03*
X0359208Y0012436D03*
X0369208Y0012436D03*
X0379208Y0012436D03*
X0389208Y0012436D03*
X0399208Y0012436D03*
X0169208Y0012436D03*
X0159208Y0012436D03*
X0149208Y0012436D03*
X0139208Y0012436D03*
X0129208Y0012436D03*
X0119208Y0012436D03*
X0109208Y0012436D03*
X0099208Y0012436D03*
X0089208Y0012436D03*
X0079208Y0012436D03*
X0069208Y0012436D03*
X0059208Y0012436D03*
X0049208Y0012436D03*
X0039208Y0012436D03*
X0029208Y0012436D03*
X0019208Y0012436D03*
X0009208Y0012436D03*
D26*
X0007400Y0007773D02*
X0007400Y0007400D01*
X0387880Y0007400D01*
X0387212Y0007617D01*
X0386482Y0007989D01*
X0385820Y0008470D01*
X0385242Y0009049D01*
X0384760Y0009711D01*
X0384389Y0010440D01*
X0384136Y0011219D01*
X0384130Y0011254D01*
X0383447Y0009604D01*
X0382040Y0008197D01*
X0380202Y0007436D01*
X0378213Y0007436D01*
X0376376Y0008197D01*
X0374969Y0009604D01*
X0374208Y0011442D01*
X0374208Y0013431D01*
X0374969Y0015268D01*
X0376376Y0016675D01*
X0378213Y0017436D01*
X0380202Y0017436D01*
X0382040Y0016675D01*
X0383447Y0015268D01*
X0384130Y0013618D01*
X0384136Y0013654D01*
X0384389Y0014432D01*
X0384760Y0015162D01*
X0385242Y0015824D01*
X0385820Y0016403D01*
X0386482Y0016884D01*
X0387212Y0017255D01*
X0387990Y0017508D01*
X0388799Y0017636D01*
X0389208Y0017636D01*
X0389208Y0012436D01*
X0389129Y0012515D01*
X0389129Y0037633D01*
X0383929Y0037633D01*
X0383929Y0034224D01*
X0384057Y0033415D01*
X0384310Y0032637D01*
X0384682Y0031908D01*
X0385163Y0031245D01*
X0385742Y0030667D01*
X0386404Y0030186D01*
X0387133Y0029814D01*
X0387911Y0029561D01*
X0388720Y0029433D01*
X0389129Y0029433D01*
X0389129Y0037633D01*
X0389129Y0037633D01*
X0389129Y0037633D01*
X0383929Y0037633D01*
X0383929Y0041042D01*
X0384057Y0041851D01*
X0384310Y0042629D01*
X0384682Y0043358D01*
X0385163Y0044021D01*
X0385742Y0044599D01*
X0386404Y0045080D01*
X0387133Y0045452D01*
X0387911Y0045705D01*
X0388720Y0045833D01*
X0389129Y0045833D01*
X0389129Y0037633D01*
X0389129Y0057318D01*
X0383779Y0057318D01*
X0383779Y0055102D01*
X0386913Y0051968D01*
X0389129Y0051968D01*
X0389129Y0057318D01*
X0389129Y0057318D01*
X0389129Y0057318D01*
X0383779Y0057318D01*
X0383779Y0057994D01*
X0350779Y0024994D01*
X0349879Y0024093D01*
X0348703Y0023606D01*
X0282861Y0023606D01*
X0282519Y0023264D01*
X0280984Y0022628D01*
X0279322Y0022628D01*
X0277786Y0023264D01*
X0276611Y0024440D01*
X0275975Y0025975D01*
X0275975Y0027637D01*
X0276611Y0029173D01*
X0277786Y0030348D01*
X0279322Y0030984D01*
X0280984Y0030984D01*
X0282519Y0030348D01*
X0282861Y0030006D01*
X0346741Y0030006D01*
X0383934Y0067200D01*
X0324536Y0067200D01*
X0311669Y0054334D01*
X0311669Y0054334D01*
X0310966Y0053631D01*
X0310047Y0053250D01*
X0249707Y0053250D01*
X0248816Y0052359D01*
X0247346Y0051750D01*
X0245754Y0051750D01*
X0245439Y0051880D01*
X0245439Y0051598D01*
X0247098Y0049940D01*
X0250023Y0052865D01*
X0252239Y0052865D01*
X0252239Y0047515D01*
X0252239Y0047515D01*
X0252239Y0047515D01*
X0252239Y0042165D01*
X0250023Y0042165D01*
X0247098Y0045090D01*
X0244373Y0042365D01*
X0241575Y0042365D01*
X0224007Y0024797D01*
X0223107Y0023897D01*
X0221931Y0023409D01*
X0135617Y0023409D01*
X0135275Y0023068D01*
X0133740Y0022431D01*
X0132078Y0022431D01*
X0130542Y0023068D01*
X0129367Y0024243D01*
X0128731Y0025778D01*
X0128731Y0027440D01*
X0129367Y0028976D01*
X0130542Y0030151D01*
X0132078Y0030787D01*
X0133740Y0030787D01*
X0135275Y0030151D01*
X0135617Y0029809D01*
X0219969Y0029809D01*
X0237089Y0046930D01*
X0237089Y0049648D01*
X0239039Y0051598D01*
X0239039Y0061290D01*
X0238783Y0061547D01*
X0238516Y0061281D01*
X0235816Y0058581D01*
X0234897Y0058200D01*
X0218336Y0058200D01*
X0213961Y0053826D01*
X0214166Y0053741D01*
X0215291Y0052616D01*
X0215900Y0051146D01*
X0215900Y0049554D01*
X0215291Y0048084D01*
X0214400Y0047193D01*
X0214400Y0043607D01*
X0215291Y0042716D01*
X0215900Y0041246D01*
X0215900Y0039654D01*
X0215291Y0038184D01*
X0214166Y0037059D01*
X0212696Y0036450D01*
X0211104Y0036450D01*
X0209634Y0037059D01*
X0208509Y0038184D01*
X0207900Y0039654D01*
X0207900Y0041246D01*
X0208509Y0042716D01*
X0209400Y0043607D01*
X0209400Y0047193D01*
X0208509Y0048084D01*
X0207900Y0049554D01*
X0207900Y0051000D01*
X0181703Y0051000D01*
X0180784Y0051381D01*
X0180081Y0052084D01*
X0177831Y0054334D01*
X0177512Y0055102D01*
X0119243Y0113372D01*
X0119142Y0113128D01*
X0117960Y0111946D01*
X0116417Y0111307D01*
X0110346Y0111307D01*
X0108802Y0111946D01*
X0107621Y0113128D01*
X0106981Y0114672D01*
X0106981Y0116343D01*
X0107621Y0117886D01*
X0108802Y0119068D01*
X0110346Y0119707D01*
X0112907Y0119707D01*
X0075681Y0156934D01*
X0075300Y0157853D01*
X0075300Y0184947D01*
X0075681Y0185866D01*
X0076384Y0186569D01*
X0079067Y0189253D01*
X0077400Y0190920D01*
X0077400Y0194897D01*
X0080212Y0197709D01*
X0084188Y0197709D01*
X0087000Y0194897D01*
X0087000Y0190920D01*
X0084350Y0188270D01*
X0084350Y0188003D01*
X0084216Y0187680D01*
X0086747Y0185150D01*
X0086847Y0185150D01*
X0087217Y0184997D01*
X0090129Y0187909D01*
X0087200Y0190838D01*
X0087200Y0192909D01*
X0092200Y0192909D01*
X0092200Y0197909D01*
X0090129Y0197909D01*
X0087200Y0194980D01*
X0087200Y0192909D01*
X0092200Y0192909D01*
X0092200Y0192909D01*
X0092200Y0197909D01*
X0094271Y0197909D01*
X0097200Y0194980D01*
X0097200Y0192909D01*
X0092200Y0192909D01*
X0092200Y0192909D01*
X0092200Y0192909D01*
X0097200Y0192909D01*
X0097200Y0190838D01*
X0094271Y0187909D01*
X0092200Y0187909D01*
X0092200Y0192909D01*
X0092200Y0192909D01*
X0092200Y0187909D01*
X0090129Y0187909D01*
X0092200Y0187909D01*
X0092200Y0182909D01*
X0092200Y0182909D01*
X0092200Y0187909D01*
X0094271Y0187909D01*
X0097200Y0184980D01*
X0097200Y0182909D01*
X0092200Y0182909D01*
X0092200Y0182909D01*
X0097200Y0182909D01*
X0097200Y0180838D01*
X0094449Y0178087D01*
X0154886Y0117650D01*
X0178074Y0117650D01*
X0177372Y0118351D01*
X0177372Y0122742D01*
X0180477Y0125846D01*
X0184868Y0125846D01*
X0187972Y0122742D01*
X0187972Y0118351D01*
X0186378Y0116757D01*
X0189016Y0114119D01*
X0189719Y0113416D01*
X0190100Y0112497D01*
X0190100Y0100102D01*
X0191421Y0100650D01*
X0193530Y0100650D01*
X0195000Y0100041D01*
X0195000Y0131252D01*
X0193333Y0130561D01*
X0191224Y0130561D01*
X0189277Y0131368D01*
X0187786Y0132859D01*
X0187579Y0133359D01*
X0187579Y0131733D01*
X0186407Y0130561D01*
X0178150Y0130561D01*
X0176979Y0131733D01*
X0176979Y0133800D01*
X0173153Y0133800D01*
X0172234Y0134181D01*
X0171531Y0134884D01*
X0084681Y0221734D01*
X0084300Y0222653D01*
X0084300Y0227247D01*
X0084681Y0228166D01*
X0085384Y0228869D01*
X0091500Y0234986D01*
X0091500Y0237832D01*
X0090376Y0237832D01*
X0088538Y0238593D01*
X0087131Y0240000D01*
X0086370Y0241838D01*
X0086370Y0243827D01*
X0087131Y0245665D01*
X0088538Y0247071D01*
X0090376Y0247832D01*
X0098365Y0247832D01*
X0100202Y0247071D01*
X0101609Y0245665D01*
X0102370Y0243827D01*
X0102370Y0241838D01*
X0101609Y0240000D01*
X0100202Y0238593D01*
X0098365Y0237832D01*
X0096500Y0237832D01*
X0096500Y0233453D01*
X0096119Y0232534D01*
X0093818Y0230232D01*
X0094370Y0230232D01*
X0094370Y0225032D01*
X0094370Y0225032D01*
X0094370Y0219832D01*
X0093653Y0219832D01*
X0174686Y0138800D01*
X0176979Y0138800D01*
X0176979Y0139990D01*
X0178150Y0141161D01*
X0186407Y0141161D01*
X0187579Y0139990D01*
X0187579Y0138364D01*
X0187786Y0138864D01*
X0189277Y0140355D01*
X0191224Y0141161D01*
X0193333Y0141161D01*
X0193717Y0141002D01*
X0194550Y0141836D01*
X0194550Y0161066D01*
X0193333Y0160561D01*
X0191224Y0160561D01*
X0189277Y0161368D01*
X0187786Y0162859D01*
X0187279Y0164083D01*
X0186772Y0162859D01*
X0185281Y0161368D01*
X0183333Y0160561D01*
X0181224Y0160561D01*
X0179277Y0161368D01*
X0177786Y0162859D01*
X0176979Y0164807D01*
X0176979Y0166916D01*
X0177786Y0168864D01*
X0179277Y0170355D01*
X0181224Y0171161D01*
X0183333Y0171161D01*
X0185281Y0170355D01*
X0186772Y0168864D01*
X0187279Y0167640D01*
X0187786Y0168864D01*
X0189277Y0170355D01*
X0190674Y0170933D01*
X0190500Y0171353D01*
X0190500Y0178300D01*
X0190027Y0178496D01*
X0188733Y0179790D01*
X0188033Y0181480D01*
X0188033Y0188510D01*
X0188733Y0190201D01*
X0190027Y0191495D01*
X0191718Y0192195D01*
X0193548Y0192195D01*
X0195239Y0191495D01*
X0196533Y0190201D01*
X0197233Y0188510D01*
X0197233Y0181480D01*
X0196533Y0179790D01*
X0195500Y0178757D01*
X0195500Y0172886D01*
X0198466Y0169919D01*
X0198654Y0169732D01*
X0199277Y0170355D01*
X0201224Y0171161D01*
X0203333Y0171161D01*
X0203858Y0170944D01*
X0206631Y0173716D01*
X0207334Y0174419D01*
X0208253Y0174800D01*
X0263247Y0174800D01*
X0264166Y0174419D01*
X0268666Y0169919D01*
X0268754Y0169832D01*
X0269277Y0170355D01*
X0271224Y0171161D01*
X0273333Y0171161D01*
X0274221Y0170794D01*
X0259400Y0185614D01*
X0259400Y0180353D01*
X0259019Y0179434D01*
X0256319Y0176734D01*
X0255616Y0176031D01*
X0254697Y0175650D01*
X0209153Y0175650D01*
X0208234Y0176031D01*
X0205504Y0178761D01*
X0205239Y0178496D01*
X0203548Y0177795D01*
X0201718Y0177795D01*
X0200027Y0178496D01*
X0198733Y0179790D01*
X0198033Y0181480D01*
X0198033Y0188510D01*
X0198733Y0190201D01*
X0200027Y0191495D01*
X0201718Y0192195D01*
X0203548Y0192195D01*
X0205239Y0191495D01*
X0206533Y0190201D01*
X0207233Y0188510D01*
X0207233Y0184102D01*
X0208033Y0183302D01*
X0208033Y0188510D01*
X0208733Y0190201D01*
X0210027Y0191495D01*
X0211718Y0192195D01*
X0213548Y0192195D01*
X0215239Y0191495D01*
X0216533Y0190201D01*
X0217233Y0188510D01*
X0217233Y0181480D01*
X0216889Y0180650D01*
X0218377Y0180650D01*
X0218033Y0181480D01*
X0218033Y0188510D01*
X0218733Y0190201D01*
X0220027Y0191495D01*
X0221718Y0192195D01*
X0223548Y0192195D01*
X0225239Y0191495D01*
X0226533Y0190201D01*
X0227233Y0188510D01*
X0227233Y0181480D01*
X0226889Y0180650D01*
X0228153Y0180650D01*
X0227951Y0181271D01*
X0227833Y0182017D01*
X0227833Y0184995D01*
X0232633Y0184995D01*
X0232633Y0184995D01*
X0232633Y0184995D01*
X0237433Y0184995D01*
X0237433Y0182017D01*
X0237315Y0181271D01*
X0237113Y0180650D01*
X0238377Y0180650D01*
X0238033Y0181480D01*
X0238033Y0188510D01*
X0238733Y0190201D01*
X0240027Y0191495D01*
X0241718Y0192195D01*
X0243548Y0192195D01*
X0245239Y0191495D01*
X0246533Y0190201D01*
X0247233Y0188510D01*
X0247233Y0181480D01*
X0246889Y0180650D01*
X0248153Y0180650D01*
X0247951Y0181271D01*
X0247833Y0182017D01*
X0247833Y0184995D01*
X0252633Y0184995D01*
X0252633Y0184995D01*
X0232712Y0204917D01*
X0164326Y0204917D01*
X0169676Y0204917D01*
X0169676Y0207133D01*
X0166751Y0210058D01*
X0168409Y0211717D01*
X0178033Y0211717D01*
X0178033Y0211480D01*
X0178733Y0209790D01*
X0180027Y0208496D01*
X0181718Y0207795D01*
X0183548Y0207795D01*
X0184192Y0208062D01*
X0184659Y0206934D01*
X0185784Y0205809D01*
X0187254Y0205200D01*
X0188846Y0205200D01*
X0190316Y0205809D01*
X0191441Y0206934D01*
X0191798Y0207795D01*
X0193548Y0207795D01*
X0195239Y0208496D01*
X0196304Y0209561D01*
X0199431Y0206434D01*
X0200134Y0205731D01*
X0201053Y0205350D01*
X0235164Y0205350D01*
X0249382Y0191132D01*
X0248972Y0190722D01*
X0248528Y0190111D01*
X0248185Y0189438D01*
X0247951Y0188719D01*
X0247833Y0187973D01*
X0247833Y0184995D01*
X0252633Y0184995D01*
X0247833Y0184487D02*
X0247233Y0184487D01*
X0247233Y0186885D02*
X0247833Y0186885D01*
X0248135Y0189284D02*
X0246913Y0189284D01*
X0248832Y0191682D02*
X0244786Y0191682D01*
X0246434Y0194081D02*
X0119405Y0194081D01*
X0121803Y0191682D02*
X0180092Y0191682D01*
X0180117Y0191701D02*
X0179506Y0191256D01*
X0178972Y0190722D01*
X0178528Y0190111D01*
X0178185Y0189438D01*
X0177951Y0188719D01*
X0177833Y0187973D01*
X0177833Y0184995D01*
X0177833Y0182017D01*
X0177951Y0181271D01*
X0178185Y0180553D01*
X0178528Y0179880D01*
X0178972Y0179268D01*
X0179506Y0178734D01*
X0180117Y0178290D01*
X0180791Y0177947D01*
X0181509Y0177713D01*
X0182255Y0177595D01*
X0182633Y0177595D01*
X0182633Y0184995D01*
X0182633Y0184995D01*
X0182633Y0177595D01*
X0183011Y0177595D01*
X0183757Y0177713D01*
X0184476Y0177947D01*
X0185149Y0178290D01*
X0185760Y0178734D01*
X0186294Y0179268D01*
X0186738Y0179880D01*
X0187081Y0180553D01*
X0187315Y0181271D01*
X0187433Y0182017D01*
X0187433Y0184995D01*
X0182633Y0184995D01*
X0177833Y0184995D01*
X0182633Y0184995D01*
X0182633Y0184995D01*
X0182633Y0184995D01*
X0187433Y0184995D01*
X0187433Y0187973D01*
X0187315Y0188719D01*
X0187081Y0189438D01*
X0186738Y0190111D01*
X0186294Y0190722D01*
X0185760Y0191256D01*
X0185149Y0191701D01*
X0184476Y0192044D01*
X0183757Y0192277D01*
X0183011Y0192395D01*
X0182633Y0192395D01*
X0182255Y0192395D01*
X0181509Y0192277D01*
X0180791Y0192044D01*
X0180117Y0191701D01*
X0182633Y0191682D02*
X0182633Y0191682D01*
X0182633Y0192395D02*
X0182633Y0184995D01*
X0182633Y0184995D01*
X0182633Y0192395D01*
X0185174Y0191682D02*
X0190480Y0191682D01*
X0188354Y0189284D02*
X0187131Y0189284D01*
X0187433Y0186885D02*
X0188033Y0186885D01*
X0188033Y0184487D02*
X0187433Y0184487D01*
X0187433Y0182088D02*
X0188033Y0182088D01*
X0188833Y0179690D02*
X0186601Y0179690D01*
X0182633Y0179690D02*
X0182633Y0179690D01*
X0182633Y0182088D02*
X0182633Y0182088D01*
X0182633Y0184487D02*
X0182633Y0184487D01*
X0182633Y0186885D02*
X0182633Y0186885D01*
X0182633Y0189284D02*
X0182633Y0189284D01*
X0178135Y0189284D02*
X0124202Y0189284D01*
X0126600Y0186885D02*
X0177833Y0186885D01*
X0177833Y0184487D02*
X0128999Y0184487D01*
X0131397Y0182088D02*
X0177833Y0182088D01*
X0178666Y0179690D02*
X0133796Y0179690D01*
X0136194Y0177291D02*
X0190500Y0177291D01*
X0190500Y0174893D02*
X0138593Y0174893D01*
X0140991Y0172494D02*
X0190500Y0172494D01*
X0189018Y0170096D02*
X0185540Y0170096D01*
X0187255Y0167697D02*
X0187303Y0167697D01*
X0179018Y0170096D02*
X0143390Y0170096D01*
X0145788Y0167697D02*
X0177303Y0167697D01*
X0176979Y0165299D02*
X0148187Y0165299D01*
X0150585Y0162900D02*
X0177769Y0162900D01*
X0186789Y0162900D02*
X0187769Y0162900D01*
X0194550Y0160502D02*
X0152984Y0160502D01*
X0155382Y0158103D02*
X0194550Y0158103D01*
X0194550Y0155705D02*
X0157781Y0155705D01*
X0160179Y0153306D02*
X0194550Y0153306D01*
X0194550Y0150908D02*
X0162578Y0150908D01*
X0164976Y0148509D02*
X0194550Y0148509D01*
X0194550Y0146111D02*
X0167375Y0146111D01*
X0169773Y0143712D02*
X0194550Y0143712D01*
X0194028Y0141314D02*
X0172172Y0141314D01*
X0174570Y0138915D02*
X0176979Y0138915D01*
X0169898Y0136517D02*
X0136019Y0136517D01*
X0133620Y0138915D02*
X0167499Y0138915D01*
X0165101Y0141314D02*
X0131222Y0141314D01*
X0128823Y0143712D02*
X0162702Y0143712D01*
X0160304Y0146111D02*
X0126425Y0146111D01*
X0124026Y0148509D02*
X0157905Y0148509D01*
X0155507Y0150908D02*
X0121628Y0150908D01*
X0119229Y0153306D02*
X0153108Y0153306D01*
X0150710Y0155705D02*
X0116831Y0155705D01*
X0114432Y0158103D02*
X0148311Y0158103D01*
X0145913Y0160502D02*
X0112034Y0160502D01*
X0109635Y0162900D02*
X0143514Y0162900D01*
X0141116Y0165299D02*
X0107237Y0165299D01*
X0104838Y0167697D02*
X0138717Y0167697D01*
X0136319Y0170096D02*
X0102440Y0170096D01*
X0100041Y0172494D02*
X0133920Y0172494D01*
X0131522Y0174893D02*
X0097643Y0174893D01*
X0095244Y0177291D02*
X0129123Y0177291D01*
X0126725Y0179690D02*
X0096052Y0179690D01*
X0097200Y0182088D02*
X0124326Y0182088D01*
X0121928Y0184487D02*
X0097200Y0184487D01*
X0095294Y0186885D02*
X0119529Y0186885D01*
X0117131Y0189284D02*
X0095646Y0189284D01*
X0097200Y0191682D02*
X0114732Y0191682D01*
X0112334Y0194081D02*
X0097200Y0194081D01*
X0095700Y0196479D02*
X0109935Y0196479D01*
X0107537Y0198878D02*
X0028749Y0198878D01*
X0028209Y0199418D02*
X0025860Y0200774D01*
X0023241Y0201476D01*
X0020529Y0201476D01*
X0017910Y0200774D01*
X0015561Y0199418D01*
X0013644Y0197500D01*
X0012288Y0195152D01*
X0011586Y0192532D01*
X0011586Y0189820D01*
X0012288Y0187201D01*
X0013644Y0184853D01*
X0015561Y0182935D01*
X0017910Y0181579D01*
X0020529Y0180877D01*
X0023241Y0180877D01*
X0025860Y0181579D01*
X0028209Y0182935D01*
X0030126Y0184853D01*
X0031482Y0187201D01*
X0032184Y0189820D01*
X0032184Y0192532D01*
X0031482Y0195152D01*
X0030126Y0197500D01*
X0028209Y0199418D01*
X0030716Y0196479D02*
X0078983Y0196479D01*
X0077400Y0194081D02*
X0031769Y0194081D01*
X0032184Y0191682D02*
X0077400Y0191682D01*
X0079037Y0189284D02*
X0032040Y0189284D01*
X0031300Y0186885D02*
X0076700Y0186885D01*
X0075300Y0184487D02*
X0029761Y0184487D01*
X0026743Y0182088D02*
X0075300Y0182088D01*
X0075300Y0179690D02*
X0007400Y0179690D01*
X0007400Y0182088D02*
X0017028Y0182088D01*
X0014009Y0184487D02*
X0007400Y0184487D01*
X0007400Y0186885D02*
X0012470Y0186885D01*
X0011730Y0189284D02*
X0007400Y0189284D01*
X0007400Y0191682D02*
X0011586Y0191682D01*
X0012001Y0194081D02*
X0007400Y0194081D01*
X0007400Y0196479D02*
X0013054Y0196479D01*
X0015021Y0198878D02*
X0009438Y0198878D01*
X0007400Y0196872D02*
X0064330Y0252906D01*
X0577328Y0252906D01*
X0576743Y0251495D01*
X0576743Y0248181D01*
X0578012Y0245119D01*
X0580355Y0242775D01*
X0583417Y0241507D01*
X0586731Y0241507D01*
X0589793Y0242775D01*
X0592136Y0245119D01*
X0593405Y0248181D01*
X0593405Y0251495D01*
X0592820Y0252906D01*
X0602000Y0252906D01*
X0602000Y0019692D01*
X0600202Y0020436D01*
X0598213Y0020436D01*
X0596376Y0019675D01*
X0594969Y0018268D01*
X0594208Y0016431D01*
X0594208Y0008442D01*
X0594639Y0007400D01*
X0593776Y0007400D01*
X0594208Y0008442D01*
X0594208Y0016431D01*
X0593447Y0018268D01*
X0592040Y0019675D01*
X0590202Y0020436D01*
X0588213Y0020436D01*
X0586376Y0019675D01*
X0584969Y0018268D01*
X0584208Y0016431D01*
X0584208Y0008442D01*
X0584639Y0007400D01*
X0583776Y0007400D01*
X0584208Y0008442D01*
X0584208Y0016431D01*
X0583447Y0018268D01*
X0582040Y0019675D01*
X0580202Y0020436D01*
X0578213Y0020436D01*
X0576376Y0019675D01*
X0574969Y0018268D01*
X0574208Y0016431D01*
X0574208Y0008442D01*
X0574639Y0007400D01*
X0573776Y0007400D01*
X0574208Y0008442D01*
X0574208Y0016431D01*
X0573447Y0018268D01*
X0572040Y0019675D01*
X0570202Y0020436D01*
X0568213Y0020436D01*
X0566376Y0019675D01*
X0564969Y0018268D01*
X0564208Y0016431D01*
X0564208Y0008442D01*
X0564639Y0007400D01*
X0563776Y0007400D01*
X0564208Y0008442D01*
X0564208Y0016431D01*
X0563447Y0018268D01*
X0562636Y0019079D01*
X0564648Y0019079D01*
X0565824Y0019566D01*
X0597626Y0051369D01*
X0598110Y0051369D01*
X0599645Y0052005D01*
X0600821Y0053180D01*
X0601457Y0054715D01*
X0601457Y0056377D01*
X0600821Y0057913D01*
X0599645Y0059088D01*
X0598110Y0059724D01*
X0596448Y0059724D01*
X0594912Y0059088D01*
X0593737Y0057913D01*
X0593101Y0056377D01*
X0593101Y0055894D01*
X0562686Y0025479D01*
X0435494Y0025479D01*
X0404279Y0056694D01*
X0404279Y0058343D01*
X0403495Y0060235D01*
X0402046Y0061684D01*
X0400154Y0062468D01*
X0398505Y0062468D01*
X0393773Y0067200D01*
X0472047Y0067200D01*
X0472966Y0067581D01*
X0473669Y0068284D01*
X0506900Y0101514D01*
X0506900Y0100005D01*
X0510005Y0096900D01*
X0514395Y0096900D01*
X0517500Y0100005D01*
X0517500Y0104395D01*
X0514395Y0107500D01*
X0512886Y0107500D01*
X0533266Y0127881D01*
X0533969Y0128584D01*
X0534350Y0129503D01*
X0534350Y0142555D01*
X0535005Y0141900D01*
X0539395Y0141900D01*
X0542500Y0145005D01*
X0542500Y0149395D01*
X0539395Y0152500D01*
X0535005Y0152500D01*
X0534350Y0151845D01*
X0534350Y0182064D01*
X0559089Y0206803D01*
X0559375Y0206111D01*
X0560718Y0204769D01*
X0562471Y0204043D01*
X0564370Y0204043D01*
X0566123Y0204769D01*
X0567466Y0206111D01*
X0568192Y0207865D01*
X0568192Y0209763D01*
X0567466Y0211517D01*
X0566123Y0212859D01*
X0565431Y0213146D01*
X0565469Y0213184D01*
X0565850Y0214103D01*
X0565850Y0231427D01*
X0566123Y0231541D01*
X0566874Y0232291D01*
X0569196Y0229968D01*
X0568491Y0228267D01*
X0568491Y0226369D01*
X0569218Y0224615D01*
X0570560Y0223273D01*
X0572314Y0222546D01*
X0574212Y0222546D01*
X0575966Y0223273D01*
X0577308Y0224615D01*
X0578035Y0226369D01*
X0578035Y0228267D01*
X0577308Y0230021D01*
X0575966Y0231363D01*
X0575930Y0231378D01*
X0576502Y0231794D01*
X0577055Y0232347D01*
X0577515Y0232980D01*
X0577870Y0233677D01*
X0578112Y0234422D01*
X0578235Y0235195D01*
X0578235Y0235586D01*
X0578235Y0235977D01*
X0578112Y0236750D01*
X0577870Y0237494D01*
X0577515Y0238192D01*
X0577055Y0238825D01*
X0576502Y0239378D01*
X0575869Y0239838D01*
X0575171Y0240193D01*
X0574427Y0240435D01*
X0573654Y0240557D01*
X0573263Y0240557D01*
X0572872Y0240557D01*
X0572099Y0240435D01*
X0571355Y0240193D01*
X0570657Y0239838D01*
X0570024Y0239378D01*
X0569566Y0238920D01*
X0567269Y0241216D01*
X0566566Y0241919D01*
X0565647Y0242300D01*
X0525503Y0242300D01*
X0524584Y0241919D01*
X0522209Y0239545D01*
X0519354Y0242400D01*
X0517200Y0242400D01*
X0517200Y0237200D01*
X0517200Y0250586D01*
X0517161Y0250625D01*
X0558224Y0250625D01*
X0573263Y0235586D01*
X0573263Y0235586D01*
X0573263Y0240557D01*
X0573263Y0235586D01*
X0578235Y0235586D01*
X0573263Y0235586D01*
X0573263Y0235586D01*
X0597279Y0235586D01*
X0597279Y0157712D01*
X0572980Y0157712D01*
X0562476Y0147208D01*
X0568176Y0147208D01*
X0568176Y0147656D01*
X0568035Y0148543D01*
X0567758Y0149396D01*
X0567351Y0150195D01*
X0566823Y0150921D01*
X0566189Y0151556D01*
X0565463Y0152083D01*
X0564664Y0152490D01*
X0563810Y0152768D01*
X0562924Y0152908D01*
X0562476Y0152908D01*
X0562476Y0147208D01*
X0562476Y0147208D01*
X0568176Y0147208D01*
X0568176Y0146759D01*
X0568068Y0146078D01*
X0569360Y0147371D01*
X0571382Y0148208D01*
X0573570Y0148208D01*
X0575591Y0147371D01*
X0577138Y0145823D01*
X0577976Y0143802D01*
X0577976Y0141614D01*
X0577138Y0139592D01*
X0575754Y0138208D01*
X0577138Y0136823D01*
X0577976Y0134802D01*
X0577976Y0132614D01*
X0577138Y0130592D01*
X0575754Y0129208D01*
X0577138Y0127823D01*
X0577976Y0125802D01*
X0577976Y0123614D01*
X0577138Y0121592D01*
X0575754Y0120208D01*
X0577138Y0118823D01*
X0577976Y0116802D01*
X0577976Y0114614D01*
X0577138Y0112592D01*
X0575754Y0111208D01*
X0577138Y0109823D01*
X0577976Y0107802D01*
X0577976Y0105614D01*
X0577138Y0103592D01*
X0575591Y0102045D01*
X0573570Y0101208D01*
X0571382Y0101208D01*
X0569360Y0102045D01*
X0567813Y0103592D01*
X0566976Y0105614D01*
X0566976Y0107704D01*
X0566823Y0107495D01*
X0566189Y0106860D01*
X0565463Y0106333D01*
X0564664Y0105925D01*
X0563810Y0105648D01*
X0562924Y0105508D01*
X0562476Y0105508D01*
X0562476Y0111208D01*
X0568176Y0111208D01*
X0568176Y0111656D01*
X0568068Y0112338D01*
X0569197Y0111208D01*
X0568068Y0110078D01*
X0568176Y0110759D01*
X0568176Y0111208D01*
X0562476Y0111208D01*
X0562476Y0111208D01*
X0557976Y0106708D01*
X0552476Y0106708D01*
X0558176Y0106708D01*
X0558176Y0107156D01*
X0558120Y0107505D01*
X0558128Y0107495D01*
X0558762Y0106860D01*
X0559488Y0106333D01*
X0560288Y0105925D01*
X0561141Y0105648D01*
X0562027Y0105508D01*
X0562476Y0105508D01*
X0562476Y0111208D01*
X0562476Y0111208D01*
X0562475Y0111208D02*
X0562475Y0111208D01*
X0556776Y0111208D01*
X0556776Y0111656D01*
X0556883Y0112338D01*
X0555849Y0111303D01*
X0556189Y0111056D01*
X0556823Y0110421D01*
X0556831Y0110411D01*
X0556776Y0110759D01*
X0556776Y0111208D01*
X0562475Y0111208D01*
X0562476Y0110133D02*
X0562476Y0110133D01*
X0562476Y0107734D02*
X0562476Y0107734D01*
X0558176Y0106708D02*
X0552476Y0106708D01*
X0552476Y0106708D01*
X0565251Y0093932D01*
X0597279Y0093932D01*
X0597279Y0064798D01*
X0560665Y0028184D01*
X0436846Y0028184D01*
X0399247Y0065783D01*
X0396411Y0064561D02*
X0560488Y0064561D01*
X0560896Y0064452D02*
X0564055Y0064452D01*
X0567107Y0065270D01*
X0569844Y0066850D01*
X0572078Y0069084D01*
X0573658Y0071820D01*
X0574476Y0074872D01*
X0574476Y0078032D01*
X0573658Y0081084D01*
X0572078Y0083820D01*
X0569844Y0086054D01*
X0567107Y0087634D01*
X0564055Y0088452D01*
X0560896Y0088452D01*
X0557844Y0087634D01*
X0555107Y0086054D01*
X0552873Y0083820D01*
X0551293Y0081084D01*
X0550476Y0078032D01*
X0550476Y0074872D01*
X0551293Y0071820D01*
X0552873Y0069084D01*
X0555107Y0066850D01*
X0557844Y0065270D01*
X0560896Y0064452D01*
X0564463Y0064561D02*
X0602000Y0064561D01*
X0602000Y0062163D02*
X0400891Y0062163D01*
X0403690Y0059764D02*
X0602000Y0059764D01*
X0602000Y0057366D02*
X0601047Y0057366D01*
X0601457Y0054967D02*
X0602000Y0054967D01*
X0602000Y0052569D02*
X0600210Y0052569D01*
X0602000Y0050170D02*
X0596428Y0050170D01*
X0594029Y0047772D02*
X0602000Y0047772D01*
X0602000Y0045373D02*
X0591631Y0045373D01*
X0589232Y0042975D02*
X0602000Y0042975D01*
X0602000Y0040576D02*
X0586834Y0040576D01*
X0584435Y0038178D02*
X0602000Y0038178D01*
X0602000Y0035779D02*
X0582037Y0035779D01*
X0579638Y0033381D02*
X0602000Y0033381D01*
X0602000Y0030982D02*
X0577240Y0030982D01*
X0574841Y0028584D02*
X0602000Y0028584D01*
X0602000Y0026185D02*
X0572443Y0026185D01*
X0570044Y0023787D02*
X0602000Y0023787D01*
X0602000Y0021388D02*
X0567646Y0021388D01*
X0565690Y0018990D02*
X0562726Y0018990D01*
X0564141Y0016591D02*
X0564274Y0016591D01*
X0564208Y0014193D02*
X0564208Y0014193D01*
X0564208Y0011794D02*
X0564208Y0011794D01*
X0564208Y0009396D02*
X0564208Y0009396D01*
X0574208Y0009396D02*
X0574208Y0009396D01*
X0574208Y0011794D02*
X0574208Y0011794D01*
X0574208Y0014193D02*
X0574208Y0014193D01*
X0574141Y0016591D02*
X0574274Y0016591D01*
X0575690Y0018990D02*
X0572726Y0018990D01*
X0564011Y0022279D02*
X0597279Y0055546D01*
X0593510Y0057366D02*
X0404279Y0057366D01*
X0406005Y0054967D02*
X0592174Y0054967D01*
X0589776Y0052569D02*
X0408404Y0052569D01*
X0410802Y0050170D02*
X0587377Y0050170D01*
X0584979Y0047772D02*
X0413201Y0047772D01*
X0415600Y0045373D02*
X0582580Y0045373D01*
X0580181Y0042975D02*
X0417998Y0042975D01*
X0420397Y0040576D02*
X0577783Y0040576D01*
X0575384Y0038178D02*
X0422795Y0038178D01*
X0425194Y0035779D02*
X0572986Y0035779D01*
X0570587Y0033381D02*
X0427592Y0033381D01*
X0429991Y0030982D02*
X0568189Y0030982D01*
X0565790Y0028584D02*
X0432389Y0028584D01*
X0434788Y0026185D02*
X0563392Y0026185D01*
X0564011Y0022279D02*
X0434169Y0022279D01*
X0399129Y0057318D01*
X0399129Y0037633D01*
X0399208Y0037554D01*
X0399208Y0012436D01*
X0394523Y0014193D02*
X0394105Y0014193D01*
X0394027Y0014432D02*
X0393655Y0015162D01*
X0393174Y0015824D01*
X0392595Y0016403D01*
X0391933Y0016884D01*
X0391204Y0017255D01*
X0390426Y0017508D01*
X0389617Y0017636D01*
X0389208Y0017636D01*
X0389208Y0012436D01*
X0389208Y0012436D01*
X0389208Y0014193D02*
X0389208Y0014193D01*
X0389208Y0016591D02*
X0389208Y0016591D01*
X0392336Y0016591D02*
X0396008Y0016591D01*
X0396008Y0016307D02*
X0394969Y0015268D01*
X0394285Y0013618D01*
X0394280Y0013654D01*
X0394027Y0014432D01*
X0396008Y0016307D02*
X0396008Y0030683D01*
X0394890Y0031801D01*
X0394207Y0033451D01*
X0394201Y0033415D01*
X0393948Y0032637D01*
X0393577Y0031908D01*
X0393095Y0031245D01*
X0392517Y0030667D01*
X0391855Y0030186D01*
X0391125Y0029814D01*
X0390347Y0029561D01*
X0389538Y0029433D01*
X0389129Y0029433D01*
X0389129Y0037633D01*
X0389129Y0037633D01*
X0389129Y0045833D01*
X0389538Y0045833D01*
X0390347Y0045705D01*
X0391125Y0045452D01*
X0391855Y0045080D01*
X0392517Y0044599D01*
X0393095Y0044021D01*
X0393577Y0043358D01*
X0393948Y0042629D01*
X0394201Y0041851D01*
X0394207Y0041815D01*
X0394890Y0043465D01*
X0395929Y0044504D01*
X0395929Y0053235D01*
X0394763Y0054401D01*
X0394475Y0055098D01*
X0391345Y0051968D01*
X0389129Y0051968D01*
X0389129Y0057318D01*
X0352909Y0021098D01*
X0278657Y0021098D01*
X0252239Y0047515D01*
X0225625Y0021098D01*
X0131334Y0021098D01*
X0103381Y0048854D01*
X0103381Y0067633D01*
X0103499Y0067751D01*
X0098149Y0067751D01*
X0098149Y0065535D01*
X0101283Y0062401D01*
X0103499Y0062401D01*
X0103499Y0067751D01*
X0103499Y0067751D01*
X0103499Y0067751D01*
X0098149Y0067751D01*
X0098149Y0069967D01*
X0101283Y0073101D01*
X0103499Y0073101D01*
X0103499Y0067751D01*
X0103499Y0062401D01*
X0105715Y0062401D01*
X0108641Y0065327D01*
X0111366Y0062601D01*
X0115632Y0062601D01*
X0118649Y0065618D01*
X0118649Y0069884D01*
X0115632Y0072901D01*
X0111366Y0072901D01*
X0108641Y0070176D01*
X0105715Y0073101D01*
X0103499Y0073101D01*
X0103499Y0067751D01*
X0103499Y0067751D01*
X0103499Y0066960D02*
X0103499Y0066960D01*
X0103499Y0069358D02*
X0103499Y0069358D01*
X0103499Y0071757D02*
X0103499Y0071757D01*
X0099939Y0071757D02*
X0007400Y0071757D01*
X0007400Y0074155D02*
X0158459Y0074155D01*
X0160858Y0071757D02*
X0116777Y0071757D01*
X0118649Y0069358D02*
X0163256Y0069358D01*
X0165655Y0066960D02*
X0118649Y0066960D01*
X0117593Y0064561D02*
X0168053Y0064561D01*
X0170452Y0062163D02*
X0007400Y0062163D01*
X0007400Y0064561D02*
X0099123Y0064561D01*
X0098149Y0066960D02*
X0007400Y0066960D01*
X0007400Y0069358D02*
X0098149Y0069358D01*
X0107060Y0071757D02*
X0110222Y0071757D01*
X0109406Y0064561D02*
X0107875Y0064561D01*
X0103499Y0064561D02*
X0103499Y0064561D01*
X0151264Y0081351D02*
X0007400Y0081351D01*
X0007400Y0083749D02*
X0148865Y0083749D01*
X0146467Y0086148D02*
X0007400Y0086148D01*
X0007400Y0088546D02*
X0144068Y0088546D01*
X0141670Y0090945D02*
X0007400Y0090945D01*
X0007400Y0093343D02*
X0107531Y0093343D01*
X0107621Y0093128D02*
X0108802Y0091946D01*
X0110346Y0091307D01*
X0116417Y0091307D01*
X0117960Y0091946D01*
X0119142Y0093128D01*
X0119781Y0094672D01*
X0119781Y0096343D01*
X0119142Y0097886D01*
X0117960Y0099068D01*
X0116417Y0099707D01*
X0110346Y0099707D01*
X0108802Y0099068D01*
X0107621Y0097886D01*
X0106981Y0096343D01*
X0106981Y0094672D01*
X0107621Y0093128D01*
X0106981Y0095742D02*
X0007400Y0095742D01*
X0007400Y0098140D02*
X0107875Y0098140D01*
X0118887Y0098140D02*
X0134474Y0098140D01*
X0136873Y0095742D02*
X0119781Y0095742D01*
X0119231Y0093343D02*
X0139271Y0093343D01*
X0143944Y0095742D02*
X0175200Y0095742D01*
X0175200Y0098140D02*
X0141545Y0098140D01*
X0139147Y0100539D02*
X0175200Y0100539D01*
X0175200Y0102937D02*
X0136748Y0102937D01*
X0134350Y0105336D02*
X0175200Y0105336D01*
X0175200Y0106197D02*
X0175200Y0093053D01*
X0175581Y0092134D01*
X0176284Y0091431D01*
X0179700Y0088014D01*
X0179700Y0070650D01*
X0178347Y0070650D01*
X0177176Y0069478D01*
X0177176Y0062510D01*
X0080300Y0159386D01*
X0080300Y0178109D01*
X0084188Y0178109D01*
X0085772Y0179692D01*
X0151731Y0113734D01*
X0152434Y0113031D01*
X0153353Y0112650D01*
X0177202Y0112650D01*
X0177176Y0112624D01*
X0177176Y0108711D01*
X0175581Y0107116D01*
X0175200Y0106197D01*
X0176199Y0107734D02*
X0131951Y0107734D01*
X0129553Y0110133D02*
X0177176Y0110133D01*
X0177176Y0112532D02*
X0127154Y0112532D01*
X0124755Y0114930D02*
X0150534Y0114930D01*
X0148136Y0117329D02*
X0122357Y0117329D01*
X0119958Y0119727D02*
X0145737Y0119727D01*
X0143339Y0122126D02*
X0117560Y0122126D01*
X0115161Y0124524D02*
X0140940Y0124524D01*
X0138542Y0126923D02*
X0112763Y0126923D01*
X0110364Y0129321D02*
X0136143Y0129321D01*
X0133745Y0131720D02*
X0107966Y0131720D01*
X0105567Y0134118D02*
X0131346Y0134118D01*
X0128948Y0136517D02*
X0103169Y0136517D01*
X0103499Y0139094D02*
X0101283Y0139094D01*
X0098149Y0142228D01*
X0098149Y0144444D01*
X0103499Y0144444D01*
X0103499Y0144444D01*
X0103499Y0144444D01*
X0103499Y0139094D01*
X0105715Y0139094D01*
X0108641Y0142019D01*
X0111366Y0139294D01*
X0115632Y0139294D01*
X0118649Y0142311D01*
X0118649Y0146577D01*
X0115632Y0149594D01*
X0111366Y0149594D01*
X0108641Y0146869D01*
X0105715Y0149794D01*
X0103499Y0149794D01*
X0101283Y0149794D01*
X0098149Y0146660D01*
X0098149Y0144444D01*
X0103499Y0144444D01*
X0103499Y0139094D01*
X0103499Y0141314D02*
X0103499Y0141314D01*
X0103499Y0143712D02*
X0103499Y0143712D01*
X0103499Y0144444D02*
X0103499Y0149794D01*
X0103499Y0144444D01*
X0103499Y0144444D01*
X0103499Y0146111D02*
X0103499Y0146111D01*
X0103499Y0148509D02*
X0103499Y0148509D01*
X0099998Y0148509D02*
X0091176Y0148509D01*
X0088778Y0150908D02*
X0114557Y0150908D01*
X0116717Y0148509D02*
X0116955Y0148509D01*
X0118649Y0146111D02*
X0119354Y0146111D01*
X0118649Y0143712D02*
X0121752Y0143712D01*
X0124151Y0141314D02*
X0117652Y0141314D01*
X0109346Y0141314D02*
X0107935Y0141314D01*
X0100770Y0138915D02*
X0126549Y0138915D01*
X0138417Y0134118D02*
X0172385Y0134118D01*
X0176992Y0131720D02*
X0140816Y0131720D01*
X0143214Y0129321D02*
X0195000Y0129321D01*
X0195000Y0126923D02*
X0145613Y0126923D01*
X0148011Y0124524D02*
X0179155Y0124524D01*
X0177372Y0122126D02*
X0150410Y0122126D01*
X0152808Y0119727D02*
X0177372Y0119727D01*
X0186950Y0117329D02*
X0195000Y0117329D01*
X0195000Y0119727D02*
X0187972Y0119727D01*
X0187972Y0122126D02*
X0195000Y0122126D01*
X0195000Y0124524D02*
X0186190Y0124524D01*
X0187565Y0131720D02*
X0188925Y0131720D01*
X0187837Y0138915D02*
X0187579Y0138915D01*
X0214070Y0140856D02*
X0214400Y0141653D01*
X0214400Y0161003D01*
X0215281Y0161368D01*
X0216772Y0162859D01*
X0217279Y0164083D01*
X0217786Y0162859D01*
X0219277Y0161368D01*
X0221224Y0160561D01*
X0223333Y0160561D01*
X0225281Y0161368D01*
X0226772Y0162859D01*
X0227279Y0164083D01*
X0227786Y0162859D01*
X0229277Y0161368D01*
X0231224Y0160561D01*
X0233333Y0160561D01*
X0235281Y0161368D01*
X0236772Y0162859D01*
X0237164Y0163805D01*
X0237182Y0163750D01*
X0237575Y0162979D01*
X0238084Y0162278D01*
X0238696Y0161666D01*
X0239396Y0161157D01*
X0240167Y0160764D01*
X0240991Y0160497D01*
X0241846Y0160361D01*
X0242279Y0160361D01*
X0242712Y0160361D01*
X0243567Y0160497D01*
X0244390Y0160764D01*
X0245161Y0161157D01*
X0245862Y0161666D01*
X0246474Y0162278D01*
X0246983Y0162979D01*
X0247376Y0163750D01*
X0247394Y0163805D01*
X0247786Y0162859D01*
X0249277Y0161368D01*
X0251224Y0160561D01*
X0253333Y0160561D01*
X0255281Y0161368D01*
X0256772Y0162859D01*
X0257279Y0164083D01*
X0257786Y0162859D01*
X0259236Y0161409D01*
X0259236Y0161203D01*
X0239723Y0141690D01*
X0239236Y0140514D01*
X0239236Y0140314D01*
X0237786Y0138864D01*
X0237279Y0137640D01*
X0236772Y0138864D01*
X0235281Y0140355D01*
X0233333Y0141161D01*
X0231224Y0141161D01*
X0229277Y0140355D01*
X0227786Y0138864D01*
X0227279Y0137640D01*
X0226772Y0138864D01*
X0225281Y0140355D01*
X0223333Y0141161D01*
X0221224Y0141161D01*
X0219277Y0140355D01*
X0217786Y0138864D01*
X0217279Y0137640D01*
X0216772Y0138864D01*
X0215281Y0140355D01*
X0214070Y0140856D01*
X0214260Y0141314D02*
X0239568Y0141314D01*
X0237837Y0138915D02*
X0236720Y0138915D01*
X0242436Y0139877D02*
X0242436Y0135704D01*
X0242279Y0135861D01*
X0242436Y0135704D02*
X0242436Y0117909D01*
X0242397Y0117948D01*
X0237436Y0117948D01*
X0234838Y0120546D01*
X0212672Y0120546D01*
X0216453Y0116832D02*
X0216968Y0117346D01*
X0233512Y0117346D01*
X0234723Y0116135D01*
X0235624Y0115235D01*
X0236800Y0114748D01*
X0238314Y0114748D01*
X0239157Y0113904D01*
X0239157Y0111209D01*
X0239645Y0110033D01*
X0240545Y0109133D01*
X0247238Y0102440D01*
X0248414Y0101953D01*
X0251268Y0101953D01*
X0252571Y0100650D01*
X0251421Y0100650D01*
X0249473Y0099843D01*
X0247982Y0098352D01*
X0247591Y0097406D01*
X0247573Y0097461D01*
X0247180Y0098232D01*
X0246671Y0098933D01*
X0246059Y0099545D01*
X0245358Y0100054D01*
X0244587Y0100447D01*
X0243764Y0100714D01*
X0242908Y0100850D01*
X0242476Y0100850D01*
X0242476Y0095350D01*
X0242476Y0095350D01*
X0242476Y0100850D01*
X0242043Y0100850D01*
X0241188Y0100714D01*
X0240364Y0100447D01*
X0239593Y0100054D01*
X0238893Y0099545D01*
X0238280Y0098933D01*
X0237772Y0098232D01*
X0237379Y0097461D01*
X0237361Y0097406D01*
X0236969Y0098352D01*
X0235478Y0099843D01*
X0233530Y0100650D01*
X0231421Y0100650D01*
X0230150Y0100123D01*
X0230150Y0101603D01*
X0230150Y0102597D01*
X0229769Y0103516D01*
X0216453Y0116832D01*
X0216950Y0117329D02*
X0233530Y0117329D01*
X0234723Y0116135D02*
X0234723Y0116135D01*
X0236360Y0114930D02*
X0218355Y0114930D01*
X0220754Y0112532D02*
X0239157Y0112532D01*
X0239603Y0110133D02*
X0223153Y0110133D01*
X0225551Y0107734D02*
X0241943Y0107734D01*
X0244342Y0105336D02*
X0227950Y0105336D01*
X0230009Y0102937D02*
X0246740Y0102937D01*
X0249050Y0105153D02*
X0242357Y0111846D01*
X0242357Y0117830D01*
X0242436Y0117909D01*
X0245636Y0121992D02*
X0245636Y0131724D01*
X0246772Y0132859D01*
X0247164Y0133805D01*
X0247182Y0133750D01*
X0247575Y0132979D01*
X0248084Y0132278D01*
X0248696Y0131666D01*
X0249396Y0131157D01*
X0250167Y0130764D01*
X0250991Y0130497D01*
X0251846Y0130361D01*
X0252279Y0130361D01*
X0252712Y0130361D01*
X0253567Y0130497D01*
X0254390Y0130764D01*
X0255161Y0131157D01*
X0255862Y0131666D01*
X0256474Y0132278D01*
X0256983Y0132979D01*
X0257376Y0133750D01*
X0257394Y0133805D01*
X0257786Y0132859D01*
X0259277Y0131368D01*
X0261224Y0130561D01*
X0263333Y0130561D01*
X0264750Y0131148D01*
X0264750Y0100144D01*
X0263530Y0100650D01*
X0261622Y0100650D01*
X0255307Y0106965D01*
X0254406Y0107866D01*
X0253230Y0108353D01*
X0250376Y0108353D01*
X0245557Y0113171D01*
X0245557Y0113747D01*
X0247295Y0115484D01*
X0250220Y0112559D01*
X0252436Y0112559D01*
X0252436Y0117909D01*
X0252436Y0123259D01*
X0250220Y0123259D01*
X0247295Y0120333D01*
X0245636Y0121992D01*
X0245636Y0122126D02*
X0249087Y0122126D01*
X0252436Y0122126D02*
X0252436Y0122126D01*
X0252436Y0123259D02*
X0252436Y0117909D01*
X0252436Y0117909D01*
X0257786Y0117909D01*
X0257786Y0120125D01*
X0254652Y0123259D01*
X0252436Y0123259D01*
X0255785Y0122126D02*
X0264750Y0122126D01*
X0264750Y0124524D02*
X0245636Y0124524D01*
X0245636Y0126923D02*
X0264750Y0126923D01*
X0264750Y0129321D02*
X0245636Y0129321D01*
X0245636Y0131720D02*
X0248642Y0131720D01*
X0252279Y0131720D02*
X0252279Y0131720D01*
X0252279Y0130361D02*
X0252279Y0135861D01*
X0252279Y0130361D01*
X0252279Y0134118D02*
X0252279Y0134118D01*
X0252279Y0135861D02*
X0252279Y0135861D01*
X0252279Y0135862D02*
X0252279Y0135862D01*
X0252279Y0141361D01*
X0252712Y0141361D01*
X0253567Y0141226D01*
X0254390Y0140958D01*
X0255161Y0140565D01*
X0255862Y0140057D01*
X0256474Y0139444D01*
X0256983Y0138744D01*
X0257376Y0137973D01*
X0257394Y0137917D01*
X0257786Y0138864D01*
X0259277Y0140355D01*
X0261224Y0141161D01*
X0263333Y0141161D01*
X0264750Y0140574D01*
X0264750Y0157665D01*
X0264249Y0157164D01*
X0246360Y0139275D01*
X0246772Y0138864D01*
X0247164Y0137917D01*
X0247182Y0137973D01*
X0247575Y0138744D01*
X0248084Y0139444D01*
X0248696Y0140057D01*
X0249396Y0140565D01*
X0250167Y0140958D01*
X0250991Y0141226D01*
X0251846Y0141361D01*
X0252279Y0141361D01*
X0252279Y0135862D01*
X0252279Y0136517D02*
X0252279Y0136517D01*
X0252279Y0138915D02*
X0252279Y0138915D01*
X0252279Y0141314D02*
X0252279Y0141314D01*
X0253013Y0141314D02*
X0264750Y0141314D01*
X0264750Y0143712D02*
X0250797Y0143712D01*
X0251544Y0141314D02*
X0248398Y0141314D01*
X0247699Y0138915D02*
X0246720Y0138915D01*
X0242436Y0139877D02*
X0262436Y0159877D01*
X0262436Y0165704D01*
X0262279Y0165861D01*
X0257769Y0162900D02*
X0256789Y0162900D01*
X0258535Y0160502D02*
X0243582Y0160502D01*
X0242279Y0160502D02*
X0242279Y0160502D01*
X0242279Y0160361D02*
X0242279Y0165861D01*
X0242279Y0160361D01*
X0240976Y0160502D02*
X0214400Y0160502D01*
X0214400Y0158103D02*
X0256137Y0158103D01*
X0253738Y0155705D02*
X0214400Y0155705D01*
X0214400Y0153306D02*
X0251340Y0153306D01*
X0248941Y0150908D02*
X0214400Y0150908D01*
X0214400Y0148509D02*
X0246543Y0148509D01*
X0244144Y0146111D02*
X0214400Y0146111D01*
X0214400Y0143712D02*
X0241746Y0143712D01*
X0253195Y0146111D02*
X0264750Y0146111D01*
X0264750Y0148509D02*
X0255594Y0148509D01*
X0257992Y0150908D02*
X0264750Y0150908D01*
X0264750Y0153306D02*
X0260391Y0153306D01*
X0262789Y0155705D02*
X0264750Y0155705D01*
X0247769Y0162900D02*
X0246926Y0162900D01*
X0242279Y0162900D02*
X0242279Y0162900D01*
X0242279Y0165299D02*
X0242279Y0165299D01*
X0242279Y0165861D02*
X0242279Y0165861D01*
X0237632Y0162900D02*
X0236789Y0162900D01*
X0227769Y0162900D02*
X0226789Y0162900D01*
X0217769Y0162900D02*
X0216789Y0162900D01*
X0199018Y0170096D02*
X0198290Y0170096D01*
X0195891Y0172494D02*
X0205409Y0172494D01*
X0206973Y0177291D02*
X0195500Y0177291D01*
X0195500Y0174893D02*
X0270122Y0174893D01*
X0272520Y0172494D02*
X0266091Y0172494D01*
X0268490Y0170096D02*
X0269018Y0170096D01*
X0267723Y0177291D02*
X0256877Y0177291D01*
X0259125Y0179690D02*
X0265325Y0179690D01*
X0262926Y0182088D02*
X0259400Y0182088D01*
X0259400Y0184487D02*
X0260528Y0184487D01*
X0247833Y0182088D02*
X0247233Y0182088D01*
X0238033Y0182088D02*
X0237433Y0182088D01*
X0237433Y0184487D02*
X0238033Y0184487D01*
X0237433Y0184995D02*
X0232633Y0184995D01*
X0227833Y0184995D01*
X0227833Y0187973D01*
X0227951Y0188719D01*
X0228185Y0189438D01*
X0228528Y0190111D01*
X0228972Y0190722D01*
X0229506Y0191256D01*
X0230117Y0191701D01*
X0230791Y0192044D01*
X0231509Y0192277D01*
X0232255Y0192395D01*
X0232633Y0192395D01*
X0232633Y0184995D01*
X0232633Y0184995D01*
X0232633Y0192395D01*
X0233011Y0192395D01*
X0233757Y0192277D01*
X0234476Y0192044D01*
X0235149Y0191701D01*
X0235760Y0191256D01*
X0236294Y0190722D01*
X0236738Y0190111D01*
X0237081Y0189438D01*
X0237315Y0188719D01*
X0237433Y0187973D01*
X0237433Y0184995D01*
X0237433Y0186885D02*
X0238033Y0186885D01*
X0238354Y0189284D02*
X0237131Y0189284D01*
X0235174Y0191682D02*
X0240480Y0191682D01*
X0232633Y0191682D02*
X0232633Y0191682D01*
X0232633Y0189284D02*
X0232633Y0189284D01*
X0232633Y0186885D02*
X0232633Y0186885D01*
X0227833Y0186885D02*
X0227233Y0186885D01*
X0227233Y0184487D02*
X0227833Y0184487D01*
X0227833Y0182088D02*
X0227233Y0182088D01*
X0218033Y0182088D02*
X0217233Y0182088D01*
X0217233Y0184487D02*
X0218033Y0184487D01*
X0218033Y0186885D02*
X0217233Y0186885D01*
X0216913Y0189284D02*
X0218354Y0189284D01*
X0220480Y0191682D02*
X0214786Y0191682D01*
X0210480Y0191682D02*
X0204786Y0191682D01*
X0206913Y0189284D02*
X0208354Y0189284D01*
X0208033Y0186885D02*
X0207233Y0186885D01*
X0207233Y0184487D02*
X0208033Y0184487D01*
X0198033Y0184487D02*
X0197233Y0184487D01*
X0197233Y0186885D02*
X0198033Y0186885D01*
X0198354Y0189284D02*
X0196913Y0189284D01*
X0194786Y0191682D02*
X0200480Y0191682D01*
X0198033Y0182088D02*
X0197233Y0182088D01*
X0196433Y0179690D02*
X0198833Y0179690D01*
X0224786Y0191682D02*
X0230092Y0191682D01*
X0228135Y0189284D02*
X0226913Y0189284D01*
X0244035Y0196479D02*
X0117006Y0196479D01*
X0114608Y0198878D02*
X0241637Y0198878D01*
X0239238Y0201276D02*
X0168252Y0201276D01*
X0169676Y0202700D02*
X0169676Y0204916D01*
X0164326Y0204916D01*
X0164326Y0199567D01*
X0166542Y0199567D01*
X0169676Y0202700D01*
X0169676Y0203675D02*
X0236840Y0203675D01*
X0199791Y0206073D02*
X0190580Y0206073D01*
X0185520Y0206073D02*
X0169676Y0206073D01*
X0168337Y0208472D02*
X0180084Y0208472D01*
X0178286Y0210870D02*
X0167563Y0210870D01*
X0164326Y0214917D02*
X0182554Y0214917D01*
X0182633Y0214995D01*
X0178033Y0218117D02*
X0168409Y0218117D01*
X0166459Y0220067D01*
X0162193Y0220067D01*
X0159176Y0217050D01*
X0159176Y0212783D01*
X0161901Y0210058D01*
X0158976Y0207133D01*
X0158976Y0204917D01*
X0164326Y0204917D01*
X0164326Y0204916D01*
X0164326Y0204916D01*
X0164326Y0199567D01*
X0162110Y0199567D01*
X0158976Y0202700D01*
X0158976Y0204916D01*
X0164326Y0204916D01*
X0164326Y0204917D01*
X0122754Y0204917D01*
X0094370Y0225032D01*
X0094370Y0219832D01*
X0097779Y0219832D01*
X0098588Y0219960D01*
X0099366Y0220213D01*
X0100095Y0220585D01*
X0100758Y0221066D01*
X0101336Y0221645D01*
X0101818Y0222307D01*
X0102189Y0223036D01*
X0102442Y0223815D01*
X0102570Y0224623D01*
X0102570Y0225032D01*
X0094370Y0225032D01*
X0094717Y0225032D01*
X0121098Y0250625D01*
X0427594Y0250625D01*
X0427594Y0237594D01*
X0427200Y0237200D01*
X0427200Y0237200D01*
X0427200Y0242400D01*
X0429354Y0242400D01*
X0432400Y0239354D01*
X0432400Y0237200D01*
X0427200Y0237200D01*
X0427200Y0237200D01*
X0427200Y0242400D01*
X0425046Y0242400D01*
X0422059Y0239412D01*
X0419271Y0242200D01*
X0415129Y0242200D01*
X0412200Y0239271D01*
X0409271Y0242200D01*
X0405129Y0242200D01*
X0403582Y0240653D01*
X0395819Y0248416D01*
X0395116Y0249119D01*
X0394197Y0249500D01*
X0203303Y0249500D01*
X0202384Y0249119D01*
X0186634Y0233369D01*
X0185931Y0232666D01*
X0185550Y0231747D01*
X0185550Y0221184D01*
X0185239Y0221495D01*
X0183548Y0222195D01*
X0181718Y0222195D01*
X0180027Y0221495D01*
X0178733Y0220201D01*
X0178033Y0218510D01*
X0178033Y0218117D01*
X0178997Y0220465D02*
X0099859Y0220465D01*
X0102101Y0222863D02*
X0185550Y0222863D01*
X0185550Y0225262D02*
X0102570Y0225262D01*
X0102570Y0225442D02*
X0102442Y0226250D01*
X0102189Y0227028D01*
X0101818Y0227758D01*
X0101336Y0228420D01*
X0100758Y0228999D01*
X0100095Y0229480D01*
X0099366Y0229851D01*
X0098588Y0230104D01*
X0097779Y0230232D01*
X0094370Y0230232D01*
X0094370Y0225032D01*
X0094370Y0225032D01*
X0102570Y0225032D01*
X0102570Y0225442D01*
X0101867Y0227660D02*
X0185550Y0227660D01*
X0185550Y0230059D02*
X0098728Y0230059D01*
X0096043Y0232457D02*
X0185844Y0232457D01*
X0188120Y0234856D02*
X0096500Y0234856D01*
X0096500Y0237254D02*
X0190519Y0237254D01*
X0192917Y0239653D02*
X0101261Y0239653D01*
X0102370Y0242051D02*
X0195316Y0242051D01*
X0197714Y0244450D02*
X0102112Y0244450D01*
X0100425Y0246848D02*
X0200113Y0246848D01*
X0202691Y0249247D02*
X0060612Y0249247D01*
X0062938Y0247071D02*
X0061531Y0245665D01*
X0060770Y0243827D01*
X0060770Y0241838D01*
X0061531Y0240000D01*
X0062938Y0238593D01*
X0064776Y0237832D01*
X0072765Y0237832D01*
X0074602Y0238593D01*
X0076009Y0240000D01*
X0076770Y0241838D01*
X0076770Y0243827D01*
X0076009Y0245665D01*
X0074602Y0247071D01*
X0072765Y0247832D01*
X0064776Y0247832D01*
X0062938Y0247071D01*
X0062715Y0246848D02*
X0058175Y0246848D01*
X0055739Y0244450D02*
X0061028Y0244450D01*
X0060770Y0242051D02*
X0053302Y0242051D01*
X0050865Y0239653D02*
X0061879Y0239653D01*
X0048428Y0237254D02*
X0091500Y0237254D01*
X0091370Y0234856D02*
X0045991Y0234856D01*
X0043554Y0232457D02*
X0088972Y0232457D01*
X0086573Y0230059D02*
X0073128Y0230059D01*
X0072988Y0230104D02*
X0072179Y0230232D01*
X0068770Y0230232D01*
X0065361Y0230232D01*
X0064552Y0230104D01*
X0063774Y0229851D01*
X0063045Y0229480D01*
X0062383Y0228999D01*
X0061804Y0228420D01*
X0061323Y0227758D01*
X0060951Y0227028D01*
X0060698Y0226250D01*
X0060570Y0225442D01*
X0060570Y0225032D01*
X0060570Y0224623D01*
X0060698Y0223815D01*
X0060951Y0223036D01*
X0061323Y0222307D01*
X0061804Y0221645D01*
X0062383Y0221066D01*
X0063045Y0220585D01*
X0063774Y0220213D01*
X0064552Y0219960D01*
X0065361Y0219832D01*
X0068770Y0219832D01*
X0068770Y0225032D01*
X0068770Y0225032D01*
X0068770Y0219832D01*
X0072179Y0219832D01*
X0072988Y0219960D01*
X0073766Y0220213D01*
X0074495Y0220585D01*
X0075158Y0221066D01*
X0075736Y0221645D01*
X0076218Y0222307D01*
X0076589Y0223036D01*
X0076842Y0223815D01*
X0076970Y0224623D01*
X0076970Y0225032D01*
X0068770Y0225032D01*
X0060570Y0225032D01*
X0068770Y0225032D01*
X0068770Y0225032D01*
X0068770Y0225032D01*
X0076970Y0225032D01*
X0076970Y0225442D01*
X0076842Y0226250D01*
X0076589Y0227028D01*
X0076218Y0227758D01*
X0075736Y0228420D01*
X0075158Y0228999D01*
X0074495Y0229480D01*
X0073766Y0229851D01*
X0072988Y0230104D01*
X0076267Y0227660D02*
X0084471Y0227660D01*
X0084300Y0225262D02*
X0076970Y0225262D01*
X0076501Y0222863D02*
X0084300Y0222863D01*
X0085950Y0220465D02*
X0074259Y0220465D01*
X0068770Y0220465D02*
X0068770Y0220465D01*
X0068770Y0222863D02*
X0068770Y0222863D01*
X0068770Y0225032D02*
X0068770Y0230232D01*
X0068770Y0225032D01*
X0068770Y0225032D01*
X0068770Y0225262D02*
X0068770Y0225262D01*
X0068770Y0227660D02*
X0068770Y0227660D01*
X0068770Y0230059D02*
X0068770Y0230059D01*
X0064412Y0230059D02*
X0041117Y0230059D01*
X0038680Y0227660D02*
X0061273Y0227660D01*
X0060570Y0225262D02*
X0036243Y0225262D01*
X0033807Y0222863D02*
X0061039Y0222863D01*
X0063281Y0220465D02*
X0031370Y0220465D01*
X0028933Y0218066D02*
X0088348Y0218066D01*
X0090747Y0215668D02*
X0026496Y0215668D01*
X0024059Y0213269D02*
X0093145Y0213269D01*
X0095544Y0210870D02*
X0021622Y0210870D01*
X0019185Y0208472D02*
X0097942Y0208472D01*
X0100341Y0206073D02*
X0016748Y0206073D01*
X0014312Y0203675D02*
X0102740Y0203675D01*
X0105138Y0201276D02*
X0023984Y0201276D01*
X0019786Y0201276D02*
X0011875Y0201276D01*
X0007400Y0196872D02*
X0007400Y0017099D01*
X0008213Y0017436D01*
X0010202Y0017436D01*
X0012040Y0016675D01*
X0013447Y0015268D01*
X0014208Y0013431D01*
X0014208Y0011442D01*
X0014969Y0009604D01*
X0016376Y0008197D01*
X0018213Y0007436D01*
X0020202Y0007436D01*
X0022040Y0008197D01*
X0023447Y0009604D01*
X0024208Y0011442D01*
X0024969Y0009604D01*
X0026376Y0008197D01*
X0028213Y0007436D01*
X0030202Y0007436D01*
X0032040Y0008197D01*
X0033447Y0009604D01*
X0034208Y0011442D01*
X0034969Y0009604D01*
X0036376Y0008197D01*
X0038213Y0007436D01*
X0040202Y0007436D01*
X0042040Y0008197D01*
X0043447Y0009604D01*
X0044208Y0011442D01*
X0044969Y0009604D01*
X0046376Y0008197D01*
X0048213Y0007436D01*
X0050202Y0007436D01*
X0052040Y0008197D01*
X0053447Y0009604D01*
X0054208Y0011442D01*
X0054969Y0009604D01*
X0056376Y0008197D01*
X0058213Y0007436D01*
X0060202Y0007436D01*
X0062040Y0008197D01*
X0063447Y0009604D01*
X0064208Y0011442D01*
X0064969Y0009604D01*
X0066376Y0008197D01*
X0068213Y0007436D01*
X0070202Y0007436D01*
X0072040Y0008197D01*
X0073447Y0009604D01*
X0074208Y0011442D01*
X0074969Y0009604D01*
X0076376Y0008197D01*
X0078213Y0007436D01*
X0080202Y0007436D01*
X0082040Y0008197D01*
X0083447Y0009604D01*
X0084208Y0011442D01*
X0084969Y0009604D01*
X0086376Y0008197D01*
X0088213Y0007436D01*
X0090202Y0007436D01*
X0092040Y0008197D01*
X0093447Y0009604D01*
X0094208Y0011442D01*
X0094969Y0009604D01*
X0096376Y0008197D01*
X0098213Y0007436D01*
X0100202Y0007436D01*
X0102040Y0008197D01*
X0103447Y0009604D01*
X0104208Y0011442D01*
X0104969Y0009604D01*
X0106376Y0008197D01*
X0108213Y0007436D01*
X0110202Y0007436D01*
X0112040Y0008197D01*
X0113447Y0009604D01*
X0114208Y0011442D01*
X0114969Y0009604D01*
X0116376Y0008197D01*
X0118213Y0007436D01*
X0120202Y0007436D01*
X0122040Y0008197D01*
X0123447Y0009604D01*
X0124208Y0011442D01*
X0124969Y0009604D01*
X0126376Y0008197D01*
X0128213Y0007436D01*
X0130202Y0007436D01*
X0132040Y0008197D01*
X0133447Y0009604D01*
X0134208Y0011442D01*
X0134969Y0009604D01*
X0136376Y0008197D01*
X0138213Y0007436D01*
X0140202Y0007436D01*
X0142040Y0008197D01*
X0143447Y0009604D01*
X0144208Y0011442D01*
X0144969Y0009604D01*
X0146376Y0008197D01*
X0148213Y0007436D01*
X0150202Y0007436D01*
X0152040Y0008197D01*
X0153447Y0009604D01*
X0154208Y0011442D01*
X0154969Y0009604D01*
X0156376Y0008197D01*
X0158213Y0007436D01*
X0160202Y0007436D01*
X0162040Y0008197D01*
X0163447Y0009604D01*
X0164208Y0011442D01*
X0164969Y0009604D01*
X0166376Y0008197D01*
X0168213Y0007436D01*
X0170202Y0007436D01*
X0172040Y0008197D01*
X0173447Y0009604D01*
X0174208Y0011442D01*
X0174969Y0009604D01*
X0176376Y0008197D01*
X0178213Y0007436D01*
X0180202Y0007436D01*
X0182040Y0008197D01*
X0183447Y0009604D01*
X0184208Y0011442D01*
X0184969Y0009604D01*
X0186376Y0008197D01*
X0188213Y0007436D01*
X0190202Y0007436D01*
X0192040Y0008197D01*
X0193447Y0009604D01*
X0194208Y0011442D01*
X0194969Y0009604D01*
X0196376Y0008197D01*
X0198213Y0007436D01*
X0200202Y0007436D01*
X0202040Y0008197D01*
X0203447Y0009604D01*
X0204208Y0011442D01*
X0204969Y0009604D01*
X0206376Y0008197D01*
X0208213Y0007436D01*
X0210202Y0007436D01*
X0212040Y0008197D01*
X0213447Y0009604D01*
X0214208Y0011442D01*
X0214969Y0009604D01*
X0216376Y0008197D01*
X0218213Y0007436D01*
X0220202Y0007436D01*
X0222040Y0008197D01*
X0223447Y0009604D01*
X0224208Y0011442D01*
X0224969Y0009604D01*
X0226376Y0008197D01*
X0228213Y0007436D01*
X0230202Y0007436D01*
X0232040Y0008197D01*
X0233447Y0009604D01*
X0234208Y0011442D01*
X0234969Y0009604D01*
X0236376Y0008197D01*
X0238213Y0007436D01*
X0240202Y0007436D01*
X0242040Y0008197D01*
X0243447Y0009604D01*
X0244208Y0011442D01*
X0244969Y0009604D01*
X0246376Y0008197D01*
X0248213Y0007436D01*
X0250202Y0007436D01*
X0252040Y0008197D01*
X0253447Y0009604D01*
X0254208Y0011442D01*
X0254969Y0009604D01*
X0256376Y0008197D01*
X0258213Y0007436D01*
X0260202Y0007436D01*
X0262040Y0008197D01*
X0263447Y0009604D01*
X0264208Y0011442D01*
X0264969Y0009604D01*
X0266376Y0008197D01*
X0268213Y0007436D01*
X0270202Y0007436D01*
X0272040Y0008197D01*
X0273447Y0009604D01*
X0274208Y0011442D01*
X0274969Y0009604D01*
X0276376Y0008197D01*
X0278213Y0007436D01*
X0280202Y0007436D01*
X0282040Y0008197D01*
X0283447Y0009604D01*
X0284208Y0011442D01*
X0284969Y0009604D01*
X0286376Y0008197D01*
X0288213Y0007436D01*
X0290202Y0007436D01*
X0292040Y0008197D01*
X0293447Y0009604D01*
X0294208Y0011442D01*
X0294969Y0009604D01*
X0296376Y0008197D01*
X0298213Y0007436D01*
X0300202Y0007436D01*
X0302040Y0008197D01*
X0303447Y0009604D01*
X0304208Y0011442D01*
X0304969Y0009604D01*
X0306376Y0008197D01*
X0308213Y0007436D01*
X0310202Y0007436D01*
X0312040Y0008197D01*
X0313447Y0009604D01*
X0314208Y0011442D01*
X0314969Y0009604D01*
X0316376Y0008197D01*
X0318213Y0007436D01*
X0320202Y0007436D01*
X0322040Y0008197D01*
X0323447Y0009604D01*
X0324208Y0011442D01*
X0324969Y0009604D01*
X0326376Y0008197D01*
X0328213Y0007436D01*
X0330202Y0007436D01*
X0332040Y0008197D01*
X0333447Y0009604D01*
X0334208Y0011442D01*
X0334969Y0009604D01*
X0336376Y0008197D01*
X0338213Y0007436D01*
X0340202Y0007436D01*
X0342040Y0008197D01*
X0343447Y0009604D01*
X0344208Y0011442D01*
X0344969Y0009604D01*
X0346376Y0008197D01*
X0348213Y0007436D01*
X0350202Y0007436D01*
X0352040Y0008197D01*
X0353447Y0009604D01*
X0354208Y0011442D01*
X0354969Y0009604D01*
X0356376Y0008197D01*
X0358213Y0007436D01*
X0360202Y0007436D01*
X0362040Y0008197D01*
X0363447Y0009604D01*
X0364208Y0011442D01*
X0364969Y0009604D01*
X0366376Y0008197D01*
X0368213Y0007436D01*
X0370202Y0007436D01*
X0372040Y0008197D01*
X0373447Y0009604D01*
X0374208Y0011442D01*
X0374208Y0013431D01*
X0373447Y0015268D01*
X0372040Y0016675D01*
X0370202Y0017436D01*
X0368213Y0017436D01*
X0366376Y0016675D01*
X0364969Y0015268D01*
X0364208Y0013431D01*
X0364208Y0011442D01*
X0364208Y0013431D01*
X0363447Y0015268D01*
X0362040Y0016675D01*
X0360202Y0017436D01*
X0358213Y0017436D01*
X0356376Y0016675D01*
X0354969Y0015268D01*
X0354208Y0013431D01*
X0354208Y0011442D01*
X0354208Y0013431D01*
X0353447Y0015268D01*
X0352040Y0016675D01*
X0350202Y0017436D01*
X0348213Y0017436D01*
X0346376Y0016675D01*
X0344969Y0015268D01*
X0344208Y0013431D01*
X0344208Y0011442D01*
X0344208Y0013431D01*
X0343447Y0015268D01*
X0342040Y0016675D01*
X0340202Y0017436D01*
X0338213Y0017436D01*
X0336376Y0016675D01*
X0334969Y0015268D01*
X0334208Y0013431D01*
X0334208Y0011442D01*
X0334208Y0013431D01*
X0333447Y0015268D01*
X0332040Y0016675D01*
X0330202Y0017436D01*
X0328213Y0017436D01*
X0326376Y0016675D01*
X0324969Y0015268D01*
X0324208Y0013431D01*
X0324208Y0011442D01*
X0324208Y0013431D01*
X0323447Y0015268D01*
X0322040Y0016675D01*
X0320202Y0017436D01*
X0318213Y0017436D01*
X0316376Y0016675D01*
X0314969Y0015268D01*
X0314208Y0013431D01*
X0314208Y0011442D01*
X0314208Y0013431D01*
X0313447Y0015268D01*
X0312040Y0016675D01*
X0310202Y0017436D01*
X0308213Y0017436D01*
X0306376Y0016675D01*
X0304969Y0015268D01*
X0304208Y0013431D01*
X0304208Y0011442D01*
X0304208Y0013431D01*
X0303447Y0015268D01*
X0302040Y0016675D01*
X0300202Y0017436D01*
X0298213Y0017436D01*
X0296376Y0016675D01*
X0294969Y0015268D01*
X0294208Y0013431D01*
X0294208Y0011442D01*
X0294208Y0013431D01*
X0293447Y0015268D01*
X0292040Y0016675D01*
X0290202Y0017436D01*
X0288213Y0017436D01*
X0286376Y0016675D01*
X0284969Y0015268D01*
X0284208Y0013431D01*
X0284208Y0011442D01*
X0284208Y0013431D01*
X0283447Y0015268D01*
X0282040Y0016675D01*
X0280202Y0017436D01*
X0278213Y0017436D01*
X0276376Y0016675D01*
X0274969Y0015268D01*
X0274208Y0013431D01*
X0274208Y0011442D01*
X0274208Y0013431D01*
X0273447Y0015268D01*
X0272040Y0016675D01*
X0270202Y0017436D01*
X0268213Y0017436D01*
X0266376Y0016675D01*
X0264969Y0015268D01*
X0264208Y0013431D01*
X0264208Y0011442D01*
X0264208Y0013431D01*
X0263447Y0015268D01*
X0262040Y0016675D01*
X0260202Y0017436D01*
X0258213Y0017436D01*
X0256376Y0016675D01*
X0254969Y0015268D01*
X0254208Y0013431D01*
X0254208Y0011442D01*
X0254208Y0013431D01*
X0253447Y0015268D01*
X0252040Y0016675D01*
X0250202Y0017436D01*
X0248213Y0017436D01*
X0246376Y0016675D01*
X0244969Y0015268D01*
X0244208Y0013431D01*
X0244208Y0011442D01*
X0244208Y0013431D01*
X0243447Y0015268D01*
X0242040Y0016675D01*
X0240202Y0017436D01*
X0238213Y0017436D01*
X0236376Y0016675D01*
X0234969Y0015268D01*
X0234208Y0013431D01*
X0234208Y0011442D01*
X0234208Y0013431D01*
X0233447Y0015268D01*
X0232040Y0016675D01*
X0230202Y0017436D01*
X0228213Y0017436D01*
X0226376Y0016675D01*
X0224969Y0015268D01*
X0224208Y0013431D01*
X0224208Y0011442D01*
X0224208Y0013431D01*
X0223447Y0015268D01*
X0222040Y0016675D01*
X0220202Y0017436D01*
X0218213Y0017436D01*
X0216376Y0016675D01*
X0214969Y0015268D01*
X0214208Y0013431D01*
X0214208Y0011442D01*
X0214208Y0013431D01*
X0213447Y0015268D01*
X0212040Y0016675D01*
X0210202Y0017436D01*
X0208213Y0017436D01*
X0206376Y0016675D01*
X0204969Y0015268D01*
X0204208Y0013431D01*
X0204208Y0011442D01*
X0204208Y0013431D01*
X0203447Y0015268D01*
X0202040Y0016675D01*
X0200202Y0017436D01*
X0198213Y0017436D01*
X0196376Y0016675D01*
X0194969Y0015268D01*
X0194208Y0013431D01*
X0194208Y0011442D01*
X0194208Y0013431D01*
X0193447Y0015268D01*
X0192040Y0016675D01*
X0190202Y0017436D01*
X0188213Y0017436D01*
X0186376Y0016675D01*
X0184969Y0015268D01*
X0184208Y0013431D01*
X0184208Y0011442D01*
X0184208Y0013431D01*
X0183447Y0015268D01*
X0182040Y0016675D01*
X0180202Y0017436D01*
X0178213Y0017436D01*
X0176376Y0016675D01*
X0174969Y0015268D01*
X0174208Y0013431D01*
X0174208Y0011442D01*
X0174208Y0013431D01*
X0173447Y0015268D01*
X0172040Y0016675D01*
X0170202Y0017436D01*
X0168213Y0017436D01*
X0166376Y0016675D01*
X0164969Y0015268D01*
X0164208Y0013431D01*
X0164208Y0011442D01*
X0164208Y0013431D01*
X0163447Y0015268D01*
X0162040Y0016675D01*
X0160202Y0017436D01*
X0158213Y0017436D01*
X0156376Y0016675D01*
X0154969Y0015268D01*
X0154208Y0013431D01*
X0154208Y0011442D01*
X0154208Y0013431D01*
X0153447Y0015268D01*
X0152040Y0016675D01*
X0150202Y0017436D01*
X0148213Y0017436D01*
X0146376Y0016675D01*
X0144969Y0015268D01*
X0144208Y0013431D01*
X0144208Y0011442D01*
X0144208Y0013431D01*
X0143447Y0015268D01*
X0142040Y0016675D01*
X0140202Y0017436D01*
X0138213Y0017436D01*
X0136376Y0016675D01*
X0134969Y0015268D01*
X0134208Y0013431D01*
X0134208Y0011442D01*
X0134208Y0013431D01*
X0133447Y0015268D01*
X0132040Y0016675D01*
X0130202Y0017436D01*
X0128213Y0017436D01*
X0126376Y0016675D01*
X0124969Y0015268D01*
X0124208Y0013431D01*
X0124208Y0011442D01*
X0124208Y0013431D01*
X0123447Y0015268D01*
X0122040Y0016675D01*
X0120202Y0017436D01*
X0118213Y0017436D01*
X0116376Y0016675D01*
X0114969Y0015268D01*
X0114208Y0013431D01*
X0114208Y0011442D01*
X0114208Y0013431D01*
X0113447Y0015268D01*
X0112040Y0016675D01*
X0110202Y0017436D01*
X0108213Y0017436D01*
X0106376Y0016675D01*
X0104969Y0015268D01*
X0104208Y0013431D01*
X0104208Y0011442D01*
X0104208Y0013431D01*
X0103447Y0015268D01*
X0102040Y0016675D01*
X0100202Y0017436D01*
X0098213Y0017436D01*
X0096376Y0016675D01*
X0094969Y0015268D01*
X0094208Y0013431D01*
X0094208Y0011442D01*
X0094208Y0013431D01*
X0093447Y0015268D01*
X0092040Y0016675D01*
X0090202Y0017436D01*
X0088213Y0017436D01*
X0086376Y0016675D01*
X0084969Y0015268D01*
X0084208Y0013431D01*
X0084208Y0011442D01*
X0084208Y0013431D01*
X0083447Y0015268D01*
X0082040Y0016675D01*
X0080202Y0017436D01*
X0078213Y0017436D01*
X0076376Y0016675D01*
X0074969Y0015268D01*
X0074208Y0013431D01*
X0074208Y0011442D01*
X0074208Y0013431D01*
X0073447Y0015268D01*
X0072040Y0016675D01*
X0070202Y0017436D01*
X0068213Y0017436D01*
X0066376Y0016675D01*
X0064969Y0015268D01*
X0064208Y0013431D01*
X0064208Y0011442D01*
X0064208Y0013431D01*
X0063447Y0015268D01*
X0062040Y0016675D01*
X0060202Y0017436D01*
X0058213Y0017436D01*
X0056376Y0016675D01*
X0054969Y0015268D01*
X0054208Y0013431D01*
X0054208Y0011442D01*
X0054208Y0013431D01*
X0053447Y0015268D01*
X0052040Y0016675D01*
X0050202Y0017436D01*
X0048213Y0017436D01*
X0046376Y0016675D01*
X0044969Y0015268D01*
X0044208Y0013431D01*
X0044208Y0011442D01*
X0044208Y0013431D01*
X0043447Y0015268D01*
X0042040Y0016675D01*
X0040202Y0017436D01*
X0038213Y0017436D01*
X0036376Y0016675D01*
X0034969Y0015268D01*
X0034208Y0013431D01*
X0034208Y0011442D01*
X0034208Y0013431D01*
X0033447Y0015268D01*
X0032040Y0016675D01*
X0030202Y0017436D01*
X0028213Y0017436D01*
X0026376Y0016675D01*
X0024969Y0015268D01*
X0024208Y0013431D01*
X0024208Y0011442D01*
X0024208Y0013431D01*
X0023447Y0015268D01*
X0022040Y0016675D01*
X0020202Y0017436D01*
X0018213Y0017436D01*
X0016376Y0016675D01*
X0014969Y0015268D01*
X0014208Y0013431D01*
X0014208Y0011442D01*
X0013447Y0009604D01*
X0012040Y0008197D01*
X0010202Y0007436D01*
X0008213Y0007436D01*
X0007400Y0007773D01*
X0013238Y0009396D02*
X0015177Y0009396D01*
X0014208Y0011794D02*
X0014208Y0011794D01*
X0013892Y0014193D02*
X0014523Y0014193D01*
X0016292Y0016591D02*
X0012124Y0016591D01*
X0007400Y0018990D02*
X0396008Y0018990D01*
X0396008Y0021388D02*
X0007400Y0021388D01*
X0007400Y0023787D02*
X0129823Y0023787D01*
X0128731Y0026185D02*
X0007400Y0026185D01*
X0007400Y0028584D02*
X0129204Y0028584D01*
X0132515Y0026806D02*
X0132712Y0026609D01*
X0132909Y0026609D01*
X0221294Y0026609D01*
X0242200Y0047515D01*
X0242239Y0047515D01*
X0242239Y0065113D01*
X0242476Y0065350D01*
X0242476Y0068657D01*
X0262239Y0088420D01*
X0262239Y0095113D01*
X0262476Y0095350D01*
X0262397Y0095350D01*
X0252594Y0105153D01*
X0249050Y0105153D01*
X0254537Y0107734D02*
X0264750Y0107734D01*
X0264750Y0105336D02*
X0256936Y0105336D01*
X0259334Y0102937D02*
X0264750Y0102937D01*
X0264750Y0100539D02*
X0263797Y0100539D01*
X0251154Y0100539D02*
X0244303Y0100539D01*
X0242476Y0100539D02*
X0242476Y0100539D01*
X0240648Y0100539D02*
X0233797Y0100539D01*
X0231154Y0100539D02*
X0230150Y0100539D01*
X0237056Y0098140D02*
X0237725Y0098140D01*
X0242476Y0098140D02*
X0242476Y0098140D01*
X0242476Y0095742D02*
X0242476Y0095742D01*
X0242476Y0095349D02*
X0242476Y0089850D01*
X0242908Y0089850D01*
X0243764Y0089985D01*
X0244587Y0090253D01*
X0245358Y0090646D01*
X0246059Y0091154D01*
X0246671Y0091767D01*
X0247180Y0092467D01*
X0247573Y0093238D01*
X0247591Y0093294D01*
X0247982Y0092347D01*
X0249473Y0090856D01*
X0251421Y0090050D01*
X0253530Y0090050D01*
X0255478Y0090856D01*
X0256969Y0092347D01*
X0257476Y0093571D01*
X0257982Y0092347D01*
X0259039Y0091290D01*
X0259039Y0089746D01*
X0239763Y0070469D01*
X0239600Y0070076D01*
X0239600Y0090642D01*
X0240364Y0090253D01*
X0241188Y0089985D01*
X0242043Y0089850D01*
X0242476Y0089850D01*
X0242476Y0095349D01*
X0242476Y0095349D01*
X0242476Y0093343D02*
X0242476Y0093343D01*
X0242476Y0090945D02*
X0242476Y0090945D01*
X0245770Y0090945D02*
X0249385Y0090945D01*
X0255566Y0090945D02*
X0259039Y0090945D01*
X0257840Y0088546D02*
X0239600Y0088546D01*
X0239600Y0086148D02*
X0255441Y0086148D01*
X0253043Y0083749D02*
X0239600Y0083749D01*
X0239600Y0081351D02*
X0250644Y0081351D01*
X0248246Y0078952D02*
X0239600Y0078952D01*
X0239600Y0076554D02*
X0245847Y0076554D01*
X0243449Y0074155D02*
X0239600Y0074155D01*
X0239600Y0071757D02*
X0241050Y0071757D01*
X0246832Y0068488D02*
X0264052Y0085708D01*
X0264750Y0086406D01*
X0264750Y0080003D01*
X0265131Y0079084D01*
X0273590Y0070625D01*
X0273530Y0070650D01*
X0271421Y0070650D01*
X0269473Y0069843D01*
X0267982Y0068352D01*
X0267476Y0067128D01*
X0266969Y0068352D01*
X0265478Y0069843D01*
X0263530Y0070650D01*
X0261421Y0070650D01*
X0259473Y0069843D01*
X0257982Y0068352D01*
X0257591Y0067406D01*
X0257573Y0067461D01*
X0257180Y0068232D01*
X0256671Y0068933D01*
X0256059Y0069545D01*
X0255358Y0070054D01*
X0254587Y0070447D01*
X0253764Y0070714D01*
X0252908Y0070850D01*
X0252476Y0070850D01*
X0252476Y0065350D01*
X0252476Y0065350D01*
X0252476Y0070850D01*
X0252043Y0070850D01*
X0251188Y0070714D01*
X0250364Y0070447D01*
X0249593Y0070054D01*
X0248893Y0069545D01*
X0248280Y0068933D01*
X0247772Y0068232D01*
X0247379Y0067461D01*
X0247361Y0067406D01*
X0246969Y0068352D01*
X0246832Y0068488D01*
X0247703Y0069358D02*
X0248706Y0069358D01*
X0250101Y0071757D02*
X0272458Y0071757D01*
X0270059Y0074155D02*
X0252500Y0074155D01*
X0254898Y0076554D02*
X0267661Y0076554D01*
X0265262Y0078952D02*
X0257297Y0078952D01*
X0259695Y0081351D02*
X0264750Y0081351D01*
X0264750Y0083749D02*
X0262094Y0083749D01*
X0264492Y0086148D02*
X0264750Y0086148D01*
X0257570Y0093343D02*
X0257381Y0093343D01*
X0247895Y0098140D02*
X0247226Y0098140D01*
X0248596Y0110133D02*
X0264750Y0110133D01*
X0264750Y0112532D02*
X0246197Y0112532D01*
X0246741Y0114930D02*
X0247849Y0114930D01*
X0252436Y0114930D02*
X0252436Y0114930D01*
X0252436Y0112559D02*
X0254652Y0112559D01*
X0257786Y0115693D01*
X0257786Y0117909D01*
X0252436Y0117909D01*
X0252436Y0117909D01*
X0252436Y0117909D01*
X0252436Y0112559D01*
X0257024Y0114930D02*
X0264750Y0114930D01*
X0264750Y0117329D02*
X0257786Y0117329D01*
X0257786Y0119727D02*
X0264750Y0119727D01*
X0252436Y0119727D02*
X0252436Y0119727D01*
X0252436Y0117329D02*
X0252436Y0117329D01*
X0255915Y0131720D02*
X0258925Y0131720D01*
X0257837Y0138915D02*
X0256858Y0138915D01*
X0227837Y0138915D02*
X0226720Y0138915D01*
X0217837Y0138915D02*
X0216720Y0138915D01*
X0195000Y0114930D02*
X0188205Y0114930D01*
X0190086Y0112532D02*
X0195000Y0112532D01*
X0195000Y0110133D02*
X0190100Y0110133D01*
X0190100Y0107734D02*
X0195000Y0107734D01*
X0195000Y0105336D02*
X0190100Y0105336D01*
X0190100Y0102937D02*
X0195000Y0102937D01*
X0195000Y0100539D02*
X0193797Y0100539D01*
X0191154Y0100539D02*
X0190100Y0100539D01*
X0175200Y0093343D02*
X0146342Y0093343D01*
X0148741Y0090945D02*
X0176770Y0090945D01*
X0179168Y0088546D02*
X0151139Y0088546D01*
X0153538Y0086148D02*
X0179700Y0086148D01*
X0179700Y0083749D02*
X0155936Y0083749D01*
X0158335Y0081351D02*
X0179700Y0081351D01*
X0179700Y0078952D02*
X0160733Y0078952D01*
X0163132Y0076554D02*
X0179700Y0076554D01*
X0179700Y0074155D02*
X0165530Y0074155D01*
X0167929Y0071757D02*
X0179700Y0071757D01*
X0177176Y0069358D02*
X0170327Y0069358D01*
X0172726Y0066960D02*
X0177176Y0066960D01*
X0177176Y0064561D02*
X0175124Y0064561D01*
X0172850Y0059764D02*
X0007400Y0059764D01*
X0007400Y0057366D02*
X0175249Y0057366D01*
X0177568Y0054967D02*
X0007400Y0054967D01*
X0007400Y0052569D02*
X0179596Y0052569D01*
X0207900Y0050170D02*
X0007400Y0050170D01*
X0007400Y0047772D02*
X0208821Y0047772D01*
X0209400Y0045373D02*
X0007400Y0045373D01*
X0007400Y0042975D02*
X0208768Y0042975D01*
X0207900Y0040576D02*
X0007400Y0040576D01*
X0007400Y0038178D02*
X0208515Y0038178D01*
X0215285Y0038178D02*
X0228337Y0038178D01*
X0230736Y0040576D02*
X0215900Y0040576D01*
X0215032Y0042975D02*
X0233134Y0042975D01*
X0235533Y0045373D02*
X0214400Y0045373D01*
X0214979Y0047772D02*
X0237089Y0047772D01*
X0237611Y0050170D02*
X0215900Y0050170D01*
X0215311Y0052569D02*
X0239039Y0052569D01*
X0239039Y0054967D02*
X0215103Y0054967D01*
X0217501Y0057366D02*
X0239039Y0057366D01*
X0239039Y0059764D02*
X0237000Y0059764D01*
X0249026Y0052569D02*
X0249727Y0052569D01*
X0252239Y0052569D02*
X0252239Y0052569D01*
X0252239Y0052865D02*
X0252239Y0047515D01*
X0252239Y0042165D01*
X0254455Y0042165D01*
X0257589Y0045299D01*
X0257589Y0047515D01*
X0257589Y0049731D01*
X0254455Y0052865D01*
X0252239Y0052865D01*
X0254752Y0052569D02*
X0369303Y0052569D01*
X0371702Y0054967D02*
X0312303Y0054967D01*
X0314701Y0057366D02*
X0374100Y0057366D01*
X0376499Y0059764D02*
X0317100Y0059764D01*
X0319498Y0062163D02*
X0378897Y0062163D01*
X0381296Y0064561D02*
X0321897Y0064561D01*
X0324295Y0066960D02*
X0383694Y0066960D01*
X0387436Y0066176D02*
X0348066Y0026806D01*
X0280153Y0026806D01*
X0277264Y0023787D02*
X0222842Y0023787D01*
X0225396Y0026185D02*
X0275975Y0026185D01*
X0276367Y0028584D02*
X0227794Y0028584D01*
X0230193Y0030982D02*
X0279317Y0030982D01*
X0280989Y0030982D02*
X0347717Y0030982D01*
X0350115Y0033381D02*
X0232591Y0033381D01*
X0234990Y0035779D02*
X0352514Y0035779D01*
X0354912Y0038178D02*
X0237388Y0038178D01*
X0239787Y0040576D02*
X0357311Y0040576D01*
X0359709Y0042975D02*
X0255265Y0042975D01*
X0252239Y0042975D02*
X0252239Y0042975D01*
X0252239Y0045373D02*
X0252239Y0045373D01*
X0252239Y0047515D02*
X0252239Y0047515D01*
X0257589Y0047515D01*
X0252239Y0047515D01*
X0252239Y0047772D02*
X0252239Y0047772D01*
X0252239Y0050170D02*
X0252239Y0050170D01*
X0247329Y0050170D02*
X0246867Y0050170D01*
X0257150Y0050170D02*
X0366905Y0050170D01*
X0364506Y0047772D02*
X0257589Y0047772D01*
X0257589Y0045373D02*
X0362108Y0045373D01*
X0368760Y0042975D02*
X0384486Y0042975D01*
X0383929Y0040576D02*
X0366361Y0040576D01*
X0363963Y0038178D02*
X0383929Y0038178D01*
X0383929Y0035779D02*
X0361564Y0035779D01*
X0359166Y0033381D02*
X0384068Y0033381D01*
X0385426Y0030982D02*
X0356767Y0030982D01*
X0354369Y0028584D02*
X0396008Y0028584D01*
X0396008Y0026185D02*
X0351970Y0026185D01*
X0349138Y0023787D02*
X0396008Y0023787D01*
X0395709Y0030982D02*
X0392832Y0030982D01*
X0394190Y0033381D02*
X0394236Y0033381D01*
X0389129Y0033381D02*
X0389129Y0033381D01*
X0389129Y0035779D02*
X0389129Y0035779D01*
X0389129Y0038178D02*
X0389129Y0038178D01*
X0389129Y0040576D02*
X0389129Y0040576D01*
X0389129Y0042975D02*
X0389129Y0042975D01*
X0389129Y0045373D02*
X0389129Y0045373D01*
X0386978Y0045373D02*
X0371159Y0045373D01*
X0373557Y0047772D02*
X0395929Y0047772D01*
X0395929Y0050170D02*
X0375956Y0050170D01*
X0378354Y0052569D02*
X0386312Y0052569D01*
X0389129Y0052569D02*
X0389129Y0052569D01*
X0389129Y0054967D02*
X0389129Y0054967D01*
X0389129Y0057318D02*
X0389129Y0062668D01*
X0388453Y0062668D01*
X0388762Y0062976D01*
X0388945Y0062976D01*
X0389254Y0062668D01*
X0389129Y0062668D01*
X0389129Y0057318D01*
X0389129Y0057318D01*
X0389129Y0057366D02*
X0389129Y0057366D01*
X0389129Y0059764D02*
X0389129Y0059764D01*
X0389129Y0062163D02*
X0389129Y0062163D01*
X0383779Y0057366D02*
X0383151Y0057366D01*
X0383914Y0054967D02*
X0380753Y0054967D01*
X0391946Y0052569D02*
X0395929Y0052569D01*
X0394529Y0054967D02*
X0394344Y0054967D01*
X0399129Y0057318D02*
X0390271Y0066176D01*
X0387436Y0066176D01*
X0394013Y0066960D02*
X0554997Y0066960D01*
X0552715Y0069358D02*
X0474744Y0069358D01*
X0473669Y0068284D02*
X0473669Y0068284D01*
X0477142Y0071757D02*
X0551330Y0071757D01*
X0550668Y0074155D02*
X0479541Y0074155D01*
X0481939Y0076554D02*
X0550476Y0076554D01*
X0550722Y0078952D02*
X0484338Y0078952D01*
X0486736Y0081351D02*
X0551448Y0081351D01*
X0552832Y0083749D02*
X0489135Y0083749D01*
X0491533Y0086148D02*
X0555269Y0086148D01*
X0569682Y0086148D02*
X0602000Y0086148D01*
X0602000Y0088546D02*
X0493932Y0088546D01*
X0496330Y0090945D02*
X0602000Y0090945D01*
X0602000Y0093343D02*
X0498729Y0093343D01*
X0501127Y0095742D02*
X0602000Y0095742D01*
X0602000Y0098140D02*
X0530636Y0098140D01*
X0529395Y0096900D02*
X0532500Y0100005D01*
X0532500Y0104395D01*
X0529395Y0107500D01*
X0525005Y0107500D01*
X0521900Y0104395D01*
X0521900Y0100005D01*
X0525005Y0096900D01*
X0529395Y0096900D01*
X0532500Y0100539D02*
X0602000Y0100539D01*
X0602000Y0102937D02*
X0576483Y0102937D01*
X0577860Y0105336D02*
X0602000Y0105336D01*
X0602000Y0107734D02*
X0577976Y0107734D01*
X0576829Y0110133D02*
X0602000Y0110133D01*
X0602000Y0112532D02*
X0577077Y0112532D01*
X0577976Y0114930D02*
X0602000Y0114930D01*
X0602000Y0117329D02*
X0577757Y0117329D01*
X0576235Y0119727D02*
X0602000Y0119727D01*
X0602000Y0122126D02*
X0577359Y0122126D01*
X0577976Y0124524D02*
X0602000Y0124524D01*
X0602000Y0126923D02*
X0577511Y0126923D01*
X0575867Y0129321D02*
X0602000Y0129321D01*
X0602000Y0131720D02*
X0577605Y0131720D01*
X0577976Y0134118D02*
X0602000Y0134118D01*
X0602000Y0136517D02*
X0577265Y0136517D01*
X0576461Y0138915D02*
X0602000Y0138915D01*
X0602000Y0141314D02*
X0577851Y0141314D01*
X0577976Y0143712D02*
X0602000Y0143712D01*
X0602000Y0146111D02*
X0576851Y0146111D01*
X0568100Y0146111D02*
X0568073Y0146111D01*
X0568041Y0148509D02*
X0602000Y0148509D01*
X0602000Y0150908D02*
X0566833Y0150908D01*
X0562476Y0150908D02*
X0562476Y0150908D01*
X0562476Y0152908D02*
X0562476Y0147208D01*
X0562476Y0147208D01*
X0562476Y0138208D01*
X0568176Y0138208D01*
X0568176Y0138656D01*
X0568068Y0139338D01*
X0569197Y0138208D01*
X0568068Y0137078D01*
X0568176Y0137759D01*
X0568176Y0138208D01*
X0562476Y0138208D01*
X0562476Y0138208D01*
X0562476Y0138208D01*
X0562476Y0141508D01*
X0562476Y0147208D01*
X0562476Y0147208D01*
X0562475Y0147208D02*
X0562475Y0147208D01*
X0556776Y0147208D01*
X0556776Y0147656D01*
X0556916Y0148543D01*
X0557193Y0149396D01*
X0557601Y0150195D01*
X0558128Y0150921D01*
X0558762Y0151556D01*
X0559488Y0152083D01*
X0560288Y0152490D01*
X0561141Y0152768D01*
X0562027Y0152908D01*
X0562476Y0152908D01*
X0562476Y0148509D02*
X0562476Y0148509D01*
X0562475Y0147208D02*
X0556776Y0147208D01*
X0556776Y0146759D01*
X0556883Y0146078D01*
X0554754Y0148208D01*
X0550197Y0148208D01*
X0546976Y0144986D01*
X0546976Y0140430D01*
X0549197Y0138208D01*
X0547813Y0136823D01*
X0546976Y0134802D01*
X0546976Y0132614D01*
X0547813Y0130592D01*
X0549197Y0129208D01*
X0547813Y0127823D01*
X0546976Y0125802D01*
X0546976Y0123614D01*
X0547813Y0121592D01*
X0549197Y0120208D01*
X0547813Y0118823D01*
X0546976Y0116802D01*
X0546976Y0114614D01*
X0547813Y0112592D01*
X0549103Y0111303D01*
X0548762Y0111056D01*
X0548128Y0110421D01*
X0547601Y0109695D01*
X0547193Y0108896D01*
X0546916Y0108043D01*
X0546776Y0107156D01*
X0546776Y0106708D01*
X0552475Y0106708D01*
X0552475Y0106708D01*
X0546776Y0106708D01*
X0546776Y0106259D01*
X0546916Y0105373D01*
X0547193Y0104520D01*
X0547601Y0103720D01*
X0548128Y0102995D01*
X0548762Y0102360D01*
X0549488Y0101833D01*
X0550288Y0101425D01*
X0551141Y0101148D01*
X0552027Y0101008D01*
X0552476Y0101008D01*
X0552924Y0101008D01*
X0553810Y0101148D01*
X0554664Y0101425D01*
X0555463Y0101833D01*
X0556189Y0102360D01*
X0556823Y0102995D01*
X0557351Y0103720D01*
X0557758Y0104520D01*
X0558035Y0105373D01*
X0558176Y0106259D01*
X0558176Y0106708D01*
X0558023Y0105336D02*
X0567091Y0105336D01*
X0568468Y0102937D02*
X0556766Y0102937D01*
X0552476Y0102937D02*
X0552476Y0102937D01*
X0552476Y0101008D02*
X0552476Y0106708D01*
X0552476Y0101008D01*
X0548185Y0102937D02*
X0532500Y0102937D01*
X0531559Y0105336D02*
X0546928Y0105336D01*
X0546867Y0107734D02*
X0513120Y0107734D01*
X0515519Y0110133D02*
X0547919Y0110133D01*
X0547874Y0112532D02*
X0517917Y0112532D01*
X0520316Y0114930D02*
X0546976Y0114930D01*
X0547194Y0117329D02*
X0522714Y0117329D01*
X0525113Y0119727D02*
X0548717Y0119727D01*
X0547592Y0122126D02*
X0527511Y0122126D01*
X0529910Y0124524D02*
X0546976Y0124524D01*
X0547440Y0126923D02*
X0532308Y0126923D01*
X0533266Y0127881D02*
X0533266Y0127881D01*
X0534275Y0129321D02*
X0549084Y0129321D01*
X0547346Y0131720D02*
X0534350Y0131720D01*
X0534350Y0134118D02*
X0546976Y0134118D01*
X0547686Y0136517D02*
X0534350Y0136517D01*
X0534350Y0138915D02*
X0548490Y0138915D01*
X0546976Y0141314D02*
X0534350Y0141314D01*
X0541207Y0143712D02*
X0546976Y0143712D01*
X0548100Y0146111D02*
X0542500Y0146111D01*
X0542500Y0148509D02*
X0556911Y0148509D01*
X0556851Y0146111D02*
X0556878Y0146111D01*
X0558118Y0150908D02*
X0540988Y0150908D01*
X0534350Y0153306D02*
X0602000Y0153306D01*
X0602000Y0155705D02*
X0534350Y0155705D01*
X0534350Y0158103D02*
X0602000Y0158103D01*
X0602000Y0160502D02*
X0534350Y0160502D01*
X0534350Y0162900D02*
X0560810Y0162900D01*
X0560896Y0162877D02*
X0564055Y0162877D01*
X0567107Y0163695D01*
X0569844Y0165275D01*
X0572078Y0167509D01*
X0573658Y0170245D01*
X0574476Y0173297D01*
X0574476Y0176457D01*
X0573658Y0179509D01*
X0572078Y0182245D01*
X0569844Y0184480D01*
X0567107Y0186059D01*
X0564055Y0186877D01*
X0560896Y0186877D01*
X0557844Y0186059D01*
X0555107Y0184480D01*
X0552873Y0182245D01*
X0551293Y0179509D01*
X0550476Y0176457D01*
X0550476Y0173297D01*
X0551293Y0170245D01*
X0552873Y0167509D01*
X0555107Y0165275D01*
X0557844Y0163695D01*
X0560896Y0162877D01*
X0564142Y0162900D02*
X0602000Y0162900D01*
X0602000Y0165299D02*
X0569868Y0165299D01*
X0572187Y0167697D02*
X0602000Y0167697D01*
X0602000Y0170096D02*
X0573571Y0170096D01*
X0574260Y0172494D02*
X0602000Y0172494D01*
X0602000Y0174893D02*
X0574476Y0174893D01*
X0574252Y0177291D02*
X0602000Y0177291D01*
X0602000Y0179690D02*
X0573553Y0179690D01*
X0572169Y0182088D02*
X0602000Y0182088D01*
X0602000Y0184487D02*
X0569831Y0184487D01*
X0581743Y0186885D02*
X0539171Y0186885D01*
X0536772Y0184487D02*
X0555120Y0184487D01*
X0552783Y0182088D02*
X0534374Y0182088D01*
X0534350Y0179690D02*
X0551398Y0179690D01*
X0550699Y0177291D02*
X0534350Y0177291D01*
X0534350Y0174893D02*
X0550476Y0174893D01*
X0550691Y0172494D02*
X0534350Y0172494D01*
X0534350Y0170096D02*
X0551380Y0170096D01*
X0552764Y0167697D02*
X0534350Y0167697D01*
X0534350Y0165299D02*
X0555083Y0165299D01*
X0562476Y0147208D02*
X0562476Y0138208D01*
X0562476Y0129208D01*
X0568176Y0129208D01*
X0568176Y0129656D01*
X0568068Y0130338D01*
X0569197Y0129208D01*
X0568068Y0128078D01*
X0568176Y0128759D01*
X0568176Y0129208D01*
X0562476Y0129208D01*
X0562476Y0129208D01*
X0562476Y0129208D01*
X0562476Y0132508D01*
X0562476Y0138208D01*
X0562476Y0138208D01*
X0562476Y0129208D01*
X0562475Y0129208D02*
X0562475Y0129208D01*
X0556776Y0129208D01*
X0556776Y0129656D01*
X0556883Y0130338D01*
X0555754Y0129208D01*
X0556883Y0128078D01*
X0556776Y0128759D01*
X0556776Y0129208D01*
X0562475Y0129208D01*
X0562476Y0129321D02*
X0562476Y0129321D01*
X0562476Y0131720D02*
X0562476Y0131720D01*
X0562476Y0134118D02*
X0562476Y0134118D01*
X0562476Y0136517D02*
X0562476Y0136517D01*
X0562475Y0138208D02*
X0556776Y0138208D01*
X0562475Y0138208D01*
X0562475Y0138208D01*
X0562476Y0138915D02*
X0562476Y0138915D01*
X0562476Y0141314D02*
X0562476Y0141314D01*
X0562476Y0143712D02*
X0562476Y0143712D01*
X0562476Y0146111D02*
X0562476Y0146111D01*
X0556883Y0139338D02*
X0556776Y0138656D01*
X0556776Y0138208D01*
X0556776Y0137759D01*
X0556883Y0137078D01*
X0555754Y0138208D01*
X0556883Y0139338D01*
X0556817Y0138915D02*
X0556461Y0138915D01*
X0568135Y0138915D02*
X0568490Y0138915D01*
X0568176Y0129321D02*
X0569084Y0129321D01*
X0556776Y0129321D02*
X0555867Y0129321D01*
X0568076Y0110133D02*
X0568123Y0110133D01*
X0552476Y0106708D02*
X0552476Y0106708D01*
X0552476Y0105336D02*
X0552476Y0105336D01*
X0523764Y0098140D02*
X0515636Y0098140D01*
X0517500Y0100539D02*
X0521900Y0100539D01*
X0521900Y0102937D02*
X0517500Y0102937D01*
X0516559Y0105336D02*
X0522841Y0105336D01*
X0506900Y0100539D02*
X0505924Y0100539D01*
X0503526Y0098140D02*
X0508764Y0098140D01*
X0572119Y0083749D02*
X0602000Y0083749D01*
X0602000Y0081351D02*
X0573504Y0081351D01*
X0574229Y0078952D02*
X0602000Y0078952D01*
X0602000Y0076554D02*
X0574476Y0076554D01*
X0574284Y0074155D02*
X0602000Y0074155D01*
X0602000Y0071757D02*
X0573621Y0071757D01*
X0572236Y0069358D02*
X0602000Y0069358D01*
X0602000Y0066960D02*
X0569954Y0066960D01*
X0597279Y0093932D02*
X0597279Y0106728D01*
X0597206Y0106800D01*
X0597279Y0106728D02*
X0597279Y0133893D01*
X0597186Y0133800D01*
X0597279Y0133893D02*
X0597279Y0146885D01*
X0596956Y0147208D01*
X0597279Y0146885D02*
X0597279Y0157712D01*
X0602000Y0186885D02*
X0588405Y0186885D01*
X0589793Y0187460D02*
X0586731Y0186192D01*
X0583417Y0186192D01*
X0580355Y0187460D01*
X0578012Y0189804D01*
X0576743Y0192866D01*
X0576743Y0196180D01*
X0578012Y0199242D01*
X0580355Y0201585D01*
X0583417Y0202854D01*
X0586731Y0202854D01*
X0589793Y0201585D01*
X0592136Y0199242D01*
X0593405Y0196180D01*
X0593405Y0192866D01*
X0592136Y0189804D01*
X0589793Y0187460D01*
X0591616Y0189284D02*
X0602000Y0189284D01*
X0602000Y0191682D02*
X0592915Y0191682D01*
X0593405Y0194081D02*
X0602000Y0194081D01*
X0602000Y0196479D02*
X0593281Y0196479D01*
X0592287Y0198878D02*
X0602000Y0198878D01*
X0602000Y0201276D02*
X0590102Y0201276D01*
X0580046Y0201276D02*
X0553562Y0201276D01*
X0551163Y0198878D02*
X0577861Y0198878D01*
X0576867Y0196479D02*
X0548765Y0196479D01*
X0546366Y0194081D02*
X0576743Y0194081D01*
X0577233Y0191682D02*
X0543968Y0191682D01*
X0541569Y0189284D02*
X0578532Y0189284D01*
X0574212Y0204043D02*
X0575966Y0204769D01*
X0577308Y0206111D01*
X0578035Y0207865D01*
X0578035Y0209763D01*
X0577308Y0211517D01*
X0575966Y0212859D01*
X0575752Y0212948D01*
X0575966Y0213037D01*
X0577308Y0214379D01*
X0578035Y0216133D01*
X0578035Y0218031D01*
X0577308Y0219785D01*
X0575966Y0221127D01*
X0574212Y0221854D01*
X0572314Y0221854D01*
X0570560Y0221127D01*
X0569218Y0219785D01*
X0568491Y0218031D01*
X0568491Y0216133D01*
X0569218Y0214379D01*
X0570560Y0213037D01*
X0570774Y0212948D01*
X0570560Y0212859D01*
X0569218Y0211517D01*
X0568491Y0209763D01*
X0568491Y0207865D01*
X0569218Y0206111D01*
X0570560Y0204769D01*
X0572314Y0204043D01*
X0574212Y0204043D01*
X0577270Y0206073D02*
X0602000Y0206073D01*
X0602000Y0203675D02*
X0555960Y0203675D01*
X0558359Y0206073D02*
X0559413Y0206073D01*
X0567428Y0206073D02*
X0569256Y0206073D01*
X0568491Y0208472D02*
X0568192Y0208472D01*
X0567734Y0210870D02*
X0568950Y0210870D01*
X0570328Y0213269D02*
X0565505Y0213269D01*
X0565850Y0215668D02*
X0568684Y0215668D01*
X0568506Y0218066D02*
X0565850Y0218066D01*
X0565850Y0220465D02*
X0569898Y0220465D01*
X0571550Y0222863D02*
X0565850Y0222863D01*
X0565850Y0225262D02*
X0568950Y0225262D01*
X0568491Y0227660D02*
X0565850Y0227660D01*
X0565850Y0230059D02*
X0569106Y0230059D01*
X0577271Y0230059D02*
X0585427Y0230059D01*
X0586567Y0230531D02*
X0583505Y0229262D01*
X0581161Y0226919D01*
X0579893Y0223857D01*
X0579893Y0220543D01*
X0581161Y0217481D01*
X0583505Y0215138D01*
X0586567Y0213869D01*
X0589881Y0213869D01*
X0592943Y0215138D01*
X0595286Y0217481D01*
X0596554Y0220543D01*
X0596554Y0223857D01*
X0595286Y0226919D01*
X0592943Y0229262D01*
X0589881Y0230531D01*
X0586567Y0230531D01*
X0591021Y0230059D02*
X0602000Y0230059D01*
X0602000Y0232457D02*
X0577135Y0232457D01*
X0578181Y0234856D02*
X0602000Y0234856D01*
X0602000Y0237254D02*
X0577948Y0237254D01*
X0576124Y0239653D02*
X0602000Y0239653D01*
X0602000Y0242051D02*
X0588045Y0242051D01*
X0591467Y0244450D02*
X0602000Y0244450D01*
X0602000Y0246848D02*
X0592853Y0246848D01*
X0593405Y0249247D02*
X0602000Y0249247D01*
X0602000Y0251645D02*
X0593342Y0251645D01*
X0576806Y0251645D02*
X0063049Y0251645D01*
X0074825Y0246848D02*
X0088315Y0246848D01*
X0086628Y0244450D02*
X0076512Y0244450D01*
X0076770Y0242051D02*
X0086370Y0242051D01*
X0087479Y0239653D02*
X0075661Y0239653D01*
X0094370Y0230059D02*
X0094370Y0230059D01*
X0094370Y0227660D02*
X0094370Y0227660D01*
X0094370Y0225262D02*
X0094370Y0225262D01*
X0094370Y0225032D02*
X0094370Y0225032D01*
X0094370Y0222863D02*
X0094370Y0222863D01*
X0094370Y0220465D02*
X0094370Y0220465D01*
X0095420Y0218066D02*
X0160192Y0218066D01*
X0159176Y0215668D02*
X0097818Y0215668D01*
X0100217Y0213269D02*
X0159176Y0213269D01*
X0161089Y0210870D02*
X0102615Y0210870D01*
X0105014Y0208472D02*
X0160315Y0208472D01*
X0158976Y0206073D02*
X0107412Y0206073D01*
X0109811Y0203675D02*
X0158976Y0203675D01*
X0160400Y0201276D02*
X0112209Y0201276D01*
X0092200Y0196479D02*
X0092200Y0196479D01*
X0092200Y0194081D02*
X0092200Y0194081D01*
X0092200Y0191682D02*
X0092200Y0191682D01*
X0092200Y0189284D02*
X0092200Y0189284D01*
X0092200Y0186885D02*
X0092200Y0186885D01*
X0092200Y0184487D02*
X0092200Y0184487D01*
X0089106Y0186885D02*
X0085011Y0186885D01*
X0085363Y0189284D02*
X0088754Y0189284D01*
X0087200Y0191682D02*
X0087000Y0191682D01*
X0087000Y0194081D02*
X0087200Y0194081D01*
X0088700Y0196479D02*
X0085417Y0196479D01*
X0085769Y0179690D02*
X0085775Y0179690D01*
X0088173Y0177291D02*
X0080300Y0177291D01*
X0080300Y0174893D02*
X0090572Y0174893D01*
X0092970Y0172494D02*
X0080300Y0172494D01*
X0080300Y0170096D02*
X0095369Y0170096D01*
X0097767Y0167697D02*
X0080300Y0167697D01*
X0080300Y0165299D02*
X0100166Y0165299D01*
X0102564Y0162900D02*
X0080300Y0162900D01*
X0080300Y0160502D02*
X0104963Y0160502D01*
X0107361Y0158103D02*
X0081582Y0158103D01*
X0083981Y0155705D02*
X0109760Y0155705D01*
X0112158Y0153306D02*
X0086379Y0153306D01*
X0081707Y0150908D02*
X0029475Y0150908D01*
X0030126Y0150256D02*
X0028209Y0152174D01*
X0025860Y0153530D01*
X0023241Y0154231D01*
X0020529Y0154231D01*
X0017910Y0153530D01*
X0015561Y0152174D01*
X0013644Y0150256D01*
X0012288Y0147908D01*
X0011586Y0145288D01*
X0011586Y0142576D01*
X0012288Y0139957D01*
X0013644Y0137608D01*
X0015561Y0135691D01*
X0017910Y0134335D01*
X0020529Y0133633D01*
X0023241Y0133633D01*
X0025860Y0134335D01*
X0028209Y0135691D01*
X0030126Y0137608D01*
X0031482Y0139957D01*
X0032184Y0142576D01*
X0032184Y0145288D01*
X0031482Y0147908D01*
X0030126Y0150256D01*
X0031135Y0148509D02*
X0084105Y0148509D01*
X0086504Y0146111D02*
X0031964Y0146111D01*
X0032184Y0143712D02*
X0088902Y0143712D01*
X0091301Y0141314D02*
X0031846Y0141314D01*
X0030881Y0138915D02*
X0093699Y0138915D01*
X0096098Y0136517D02*
X0029035Y0136517D01*
X0025051Y0134118D02*
X0098496Y0134118D01*
X0100895Y0131720D02*
X0007400Y0131720D01*
X0007400Y0134118D02*
X0018719Y0134118D01*
X0020529Y0130609D02*
X0017910Y0129908D01*
X0015561Y0128552D01*
X0013644Y0126634D01*
X0012288Y0124286D01*
X0011586Y0121666D01*
X0011586Y0118954D01*
X0012288Y0116335D01*
X0013644Y0113986D01*
X0015561Y0112069D01*
X0017910Y0110713D01*
X0020529Y0110011D01*
X0023241Y0110011D01*
X0025860Y0110713D01*
X0028209Y0112069D01*
X0030126Y0113986D01*
X0031482Y0116335D01*
X0032184Y0118954D01*
X0032184Y0121666D01*
X0031482Y0124286D01*
X0030126Y0126634D01*
X0028209Y0128552D01*
X0025860Y0129908D01*
X0023241Y0130609D01*
X0020529Y0130609D01*
X0016894Y0129321D02*
X0007400Y0129321D01*
X0007400Y0126923D02*
X0013932Y0126923D01*
X0012425Y0124524D02*
X0007400Y0124524D01*
X0007400Y0122126D02*
X0011709Y0122126D01*
X0011586Y0119727D02*
X0007400Y0119727D01*
X0007400Y0117329D02*
X0012021Y0117329D01*
X0013099Y0114930D02*
X0007400Y0114930D01*
X0007400Y0112532D02*
X0015098Y0112532D01*
X0020074Y0110133D02*
X0007400Y0110133D01*
X0007400Y0107734D02*
X0124880Y0107734D01*
X0127278Y0105336D02*
X0007400Y0105336D01*
X0007400Y0102937D02*
X0129677Y0102937D01*
X0132075Y0100539D02*
X0007400Y0100539D01*
X0023696Y0110133D02*
X0122481Y0110133D01*
X0120083Y0112532D02*
X0118545Y0112532D01*
X0108217Y0112532D02*
X0028672Y0112532D01*
X0030671Y0114930D02*
X0106981Y0114930D01*
X0107390Y0117329D02*
X0031749Y0117329D01*
X0032184Y0119727D02*
X0112887Y0119727D01*
X0110489Y0122126D02*
X0032061Y0122126D01*
X0031345Y0124524D02*
X0108090Y0124524D01*
X0105692Y0126923D02*
X0029838Y0126923D01*
X0026876Y0129321D02*
X0103293Y0129321D01*
X0099064Y0141314D02*
X0098372Y0141314D01*
X0098149Y0143712D02*
X0095973Y0143712D01*
X0098149Y0146111D02*
X0093575Y0146111D01*
X0107000Y0148509D02*
X0110281Y0148509D01*
X0079308Y0153306D02*
X0026247Y0153306D01*
X0025860Y0157957D02*
X0023241Y0157255D01*
X0020529Y0157255D01*
X0017910Y0157957D01*
X0015561Y0159313D01*
X0013644Y0161230D01*
X0012288Y0163579D01*
X0011586Y0166198D01*
X0011586Y0168910D01*
X0012288Y0171530D01*
X0013644Y0173878D01*
X0015561Y0175796D01*
X0017910Y0177152D01*
X0020529Y0177854D01*
X0023241Y0177854D01*
X0025860Y0177152D01*
X0028209Y0175796D01*
X0030126Y0173878D01*
X0031482Y0171530D01*
X0032184Y0168910D01*
X0032184Y0166198D01*
X0031482Y0163579D01*
X0030126Y0161230D01*
X0028209Y0159313D01*
X0025860Y0157957D01*
X0026114Y0158103D02*
X0075300Y0158103D01*
X0075300Y0160502D02*
X0029398Y0160502D01*
X0031091Y0162900D02*
X0075300Y0162900D01*
X0075300Y0165299D02*
X0031943Y0165299D01*
X0032184Y0167697D02*
X0075300Y0167697D01*
X0075300Y0170096D02*
X0031867Y0170096D01*
X0030925Y0172494D02*
X0075300Y0172494D01*
X0075300Y0174893D02*
X0029112Y0174893D01*
X0025339Y0177291D02*
X0075300Y0177291D01*
X0076910Y0155705D02*
X0007400Y0155705D01*
X0007400Y0158103D02*
X0017656Y0158103D01*
X0014372Y0160502D02*
X0007400Y0160502D01*
X0007400Y0162900D02*
X0012680Y0162900D01*
X0011827Y0165299D02*
X0007400Y0165299D01*
X0007400Y0167697D02*
X0011586Y0167697D01*
X0011903Y0170096D02*
X0007400Y0170096D01*
X0007400Y0172494D02*
X0012845Y0172494D01*
X0014658Y0174893D02*
X0007400Y0174893D01*
X0007400Y0177291D02*
X0018431Y0177291D01*
X0017523Y0153306D02*
X0007400Y0153306D01*
X0007400Y0150908D02*
X0014295Y0150908D01*
X0012635Y0148509D02*
X0007400Y0148509D01*
X0007400Y0146111D02*
X0011806Y0146111D01*
X0011586Y0143712D02*
X0007400Y0143712D01*
X0007400Y0141314D02*
X0011924Y0141314D01*
X0012889Y0138915D02*
X0007400Y0138915D01*
X0007400Y0136517D02*
X0014735Y0136517D01*
X0007400Y0078952D02*
X0153662Y0078952D01*
X0156061Y0076554D02*
X0007400Y0076554D01*
X0007400Y0035779D02*
X0225939Y0035779D01*
X0223540Y0033381D02*
X0007400Y0033381D01*
X0007400Y0030982D02*
X0221142Y0030982D01*
X0222124Y0016591D02*
X0226292Y0016591D01*
X0224523Y0014193D02*
X0223892Y0014193D01*
X0224208Y0011794D02*
X0224208Y0011794D01*
X0223238Y0009396D02*
X0225177Y0009396D01*
X0233238Y0009396D02*
X0235177Y0009396D01*
X0234208Y0011794D02*
X0234208Y0011794D01*
X0233892Y0014193D02*
X0234523Y0014193D01*
X0236292Y0016591D02*
X0232124Y0016591D01*
X0242124Y0016591D02*
X0246292Y0016591D01*
X0244523Y0014193D02*
X0243892Y0014193D01*
X0244208Y0011794D02*
X0244208Y0011794D01*
X0243238Y0009396D02*
X0245177Y0009396D01*
X0253238Y0009396D02*
X0255177Y0009396D01*
X0254208Y0011794D02*
X0254208Y0011794D01*
X0253892Y0014193D02*
X0254523Y0014193D01*
X0256292Y0016591D02*
X0252124Y0016591D01*
X0262124Y0016591D02*
X0266292Y0016591D01*
X0264523Y0014193D02*
X0263892Y0014193D01*
X0264208Y0011794D02*
X0264208Y0011794D01*
X0263238Y0009396D02*
X0265177Y0009396D01*
X0273238Y0009396D02*
X0275177Y0009396D01*
X0274208Y0011794D02*
X0274208Y0011794D01*
X0273892Y0014193D02*
X0274523Y0014193D01*
X0276292Y0016591D02*
X0272124Y0016591D01*
X0282124Y0016591D02*
X0286292Y0016591D01*
X0284523Y0014193D02*
X0283892Y0014193D01*
X0284208Y0011794D02*
X0284208Y0011794D01*
X0283238Y0009396D02*
X0285177Y0009396D01*
X0293238Y0009396D02*
X0295177Y0009396D01*
X0294208Y0011794D02*
X0294208Y0011794D01*
X0293892Y0014193D02*
X0294523Y0014193D01*
X0296292Y0016591D02*
X0292124Y0016591D01*
X0302124Y0016591D02*
X0306292Y0016591D01*
X0304523Y0014193D02*
X0303892Y0014193D01*
X0304208Y0011794D02*
X0304208Y0011794D01*
X0303238Y0009396D02*
X0305177Y0009396D01*
X0313238Y0009396D02*
X0315177Y0009396D01*
X0314208Y0011794D02*
X0314208Y0011794D01*
X0313892Y0014193D02*
X0314523Y0014193D01*
X0316292Y0016591D02*
X0312124Y0016591D01*
X0322124Y0016591D02*
X0326292Y0016591D01*
X0324523Y0014193D02*
X0323892Y0014193D01*
X0324208Y0011794D02*
X0324208Y0011794D01*
X0323238Y0009396D02*
X0325177Y0009396D01*
X0333238Y0009396D02*
X0335177Y0009396D01*
X0334208Y0011794D02*
X0334208Y0011794D01*
X0333892Y0014193D02*
X0334523Y0014193D01*
X0336292Y0016591D02*
X0332124Y0016591D01*
X0342124Y0016591D02*
X0346292Y0016591D01*
X0344523Y0014193D02*
X0343892Y0014193D01*
X0344208Y0011794D02*
X0344208Y0011794D01*
X0343238Y0009396D02*
X0345177Y0009396D01*
X0353238Y0009396D02*
X0355177Y0009396D01*
X0354208Y0011794D02*
X0354208Y0011794D01*
X0353892Y0014193D02*
X0354523Y0014193D01*
X0356292Y0016591D02*
X0352124Y0016591D01*
X0362124Y0016591D02*
X0366292Y0016591D01*
X0364523Y0014193D02*
X0363892Y0014193D01*
X0364208Y0011794D02*
X0364208Y0011794D01*
X0363238Y0009396D02*
X0365177Y0009396D01*
X0373238Y0009396D02*
X0375177Y0009396D01*
X0374208Y0011794D02*
X0374208Y0011794D01*
X0373892Y0014193D02*
X0374523Y0014193D01*
X0376292Y0016591D02*
X0372124Y0016591D01*
X0382124Y0016591D02*
X0386080Y0016591D01*
X0384311Y0014193D02*
X0383892Y0014193D01*
X0383238Y0009396D02*
X0384989Y0009396D01*
X0389129Y0030982D02*
X0389129Y0030982D01*
X0393772Y0042975D02*
X0394687Y0042975D01*
X0395929Y0045373D02*
X0391280Y0045373D01*
X0268989Y0069358D02*
X0265962Y0069358D01*
X0258989Y0069358D02*
X0256245Y0069358D01*
X0252476Y0069358D02*
X0252476Y0069358D01*
X0252476Y0066960D02*
X0252476Y0066960D01*
X0249214Y0042975D02*
X0244982Y0042975D01*
X0216292Y0016591D02*
X0212124Y0016591D01*
X0213892Y0014193D02*
X0214523Y0014193D01*
X0214208Y0011794D02*
X0214208Y0011794D01*
X0213238Y0009396D02*
X0215177Y0009396D01*
X0205177Y0009396D02*
X0203238Y0009396D01*
X0204208Y0011794D02*
X0204208Y0011794D01*
X0203892Y0014193D02*
X0204523Y0014193D01*
X0206292Y0016591D02*
X0202124Y0016591D01*
X0196292Y0016591D02*
X0192124Y0016591D01*
X0193892Y0014193D02*
X0194523Y0014193D01*
X0194208Y0011794D02*
X0194208Y0011794D01*
X0193238Y0009396D02*
X0195177Y0009396D01*
X0185177Y0009396D02*
X0183238Y0009396D01*
X0184208Y0011794D02*
X0184208Y0011794D01*
X0183892Y0014193D02*
X0184523Y0014193D01*
X0186292Y0016591D02*
X0182124Y0016591D01*
X0176292Y0016591D02*
X0172124Y0016591D01*
X0173892Y0014193D02*
X0174523Y0014193D01*
X0174208Y0011794D02*
X0174208Y0011794D01*
X0173238Y0009396D02*
X0175177Y0009396D01*
X0165177Y0009396D02*
X0163238Y0009396D01*
X0164208Y0011794D02*
X0164208Y0011794D01*
X0163892Y0014193D02*
X0164523Y0014193D01*
X0166292Y0016591D02*
X0162124Y0016591D01*
X0156292Y0016591D02*
X0152124Y0016591D01*
X0153892Y0014193D02*
X0154523Y0014193D01*
X0154208Y0011794D02*
X0154208Y0011794D01*
X0153238Y0009396D02*
X0155177Y0009396D01*
X0145177Y0009396D02*
X0143238Y0009396D01*
X0144208Y0011794D02*
X0144208Y0011794D01*
X0143892Y0014193D02*
X0144523Y0014193D01*
X0146292Y0016591D02*
X0142124Y0016591D01*
X0136292Y0016591D02*
X0132124Y0016591D01*
X0133892Y0014193D02*
X0134523Y0014193D01*
X0134208Y0011794D02*
X0134208Y0011794D01*
X0133238Y0009396D02*
X0135177Y0009396D01*
X0125177Y0009396D02*
X0123238Y0009396D01*
X0124208Y0011794D02*
X0124208Y0011794D01*
X0123892Y0014193D02*
X0124523Y0014193D01*
X0126292Y0016591D02*
X0122124Y0016591D01*
X0116292Y0016591D02*
X0112124Y0016591D01*
X0113892Y0014193D02*
X0114523Y0014193D01*
X0114208Y0011794D02*
X0114208Y0011794D01*
X0113238Y0009396D02*
X0115177Y0009396D01*
X0105177Y0009396D02*
X0103238Y0009396D01*
X0104208Y0011794D02*
X0104208Y0011794D01*
X0103892Y0014193D02*
X0104523Y0014193D01*
X0106292Y0016591D02*
X0102124Y0016591D01*
X0096292Y0016591D02*
X0092124Y0016591D01*
X0093892Y0014193D02*
X0094523Y0014193D01*
X0094208Y0011794D02*
X0094208Y0011794D01*
X0093238Y0009396D02*
X0095177Y0009396D01*
X0085177Y0009396D02*
X0083238Y0009396D01*
X0084208Y0011794D02*
X0084208Y0011794D01*
X0083892Y0014193D02*
X0084523Y0014193D01*
X0086292Y0016591D02*
X0082124Y0016591D01*
X0076292Y0016591D02*
X0072124Y0016591D01*
X0073892Y0014193D02*
X0074523Y0014193D01*
X0074208Y0011794D02*
X0074208Y0011794D01*
X0073238Y0009396D02*
X0075177Y0009396D01*
X0065177Y0009396D02*
X0063238Y0009396D01*
X0064208Y0011794D02*
X0064208Y0011794D01*
X0063892Y0014193D02*
X0064523Y0014193D01*
X0066292Y0016591D02*
X0062124Y0016591D01*
X0056292Y0016591D02*
X0052124Y0016591D01*
X0053892Y0014193D02*
X0054523Y0014193D01*
X0054208Y0011794D02*
X0054208Y0011794D01*
X0053238Y0009396D02*
X0055177Y0009396D01*
X0045177Y0009396D02*
X0043238Y0009396D01*
X0044208Y0011794D02*
X0044208Y0011794D01*
X0043892Y0014193D02*
X0044523Y0014193D01*
X0046292Y0016591D02*
X0042124Y0016591D01*
X0036292Y0016591D02*
X0032124Y0016591D01*
X0033892Y0014193D02*
X0034523Y0014193D01*
X0034208Y0011794D02*
X0034208Y0011794D01*
X0033238Y0009396D02*
X0035177Y0009396D01*
X0025177Y0009396D02*
X0023238Y0009396D01*
X0024208Y0011794D02*
X0024208Y0011794D01*
X0023892Y0014193D02*
X0024523Y0014193D01*
X0026292Y0016591D02*
X0022124Y0016591D01*
X0164326Y0201276D02*
X0164326Y0201276D01*
X0164326Y0203675D02*
X0164326Y0203675D01*
X0195182Y0208472D02*
X0197392Y0208472D01*
X0394809Y0249247D02*
X0576743Y0249247D01*
X0577295Y0246848D02*
X0397387Y0246848D01*
X0399786Y0244450D02*
X0578681Y0244450D01*
X0582103Y0242051D02*
X0566248Y0242051D01*
X0568833Y0239653D02*
X0570402Y0239653D01*
X0573263Y0239653D02*
X0573263Y0239653D01*
X0573263Y0237254D02*
X0573263Y0237254D01*
X0578035Y0227660D02*
X0581902Y0227660D01*
X0580475Y0225262D02*
X0577576Y0225262D01*
X0579893Y0222863D02*
X0574976Y0222863D01*
X0576628Y0220465D02*
X0579925Y0220465D01*
X0580919Y0218066D02*
X0578020Y0218066D01*
X0577842Y0215668D02*
X0582975Y0215668D01*
X0576198Y0213269D02*
X0602000Y0213269D01*
X0602000Y0210870D02*
X0577576Y0210870D01*
X0578035Y0208472D02*
X0602000Y0208472D01*
X0602000Y0215668D02*
X0593473Y0215668D01*
X0595528Y0218066D02*
X0602000Y0218066D01*
X0602000Y0220465D02*
X0596522Y0220465D01*
X0596554Y0222863D02*
X0602000Y0222863D01*
X0602000Y0225262D02*
X0595973Y0225262D01*
X0594545Y0227660D02*
X0602000Y0227660D01*
X0524902Y0242051D02*
X0519703Y0242051D01*
X0517200Y0242051D02*
X0517200Y0242051D01*
X0517200Y0242400D02*
X0517200Y0237200D01*
X0517200Y0237200D01*
X0517200Y0237254D02*
X0517200Y0237254D01*
X0517200Y0239653D02*
X0517200Y0239653D01*
X0517200Y0242400D02*
X0515046Y0242400D01*
X0512059Y0239412D01*
X0509271Y0242200D01*
X0505129Y0242200D01*
X0502200Y0239271D01*
X0499271Y0242200D01*
X0495129Y0242200D01*
X0492200Y0239271D01*
X0489271Y0242200D01*
X0485129Y0242200D01*
X0482200Y0239271D01*
X0479271Y0242200D01*
X0475129Y0242200D01*
X0472200Y0239271D01*
X0469271Y0242200D01*
X0465129Y0242200D01*
X0462200Y0239271D01*
X0462200Y0235129D01*
X0462229Y0235100D01*
X0432400Y0235100D01*
X0432400Y0237200D01*
X0427200Y0237200D01*
X0427200Y0237254D02*
X0427200Y0237254D01*
X0427200Y0239653D02*
X0427200Y0239653D01*
X0427200Y0242051D02*
X0427200Y0242051D01*
X0429703Y0242051D02*
X0464980Y0242051D01*
X0462582Y0239653D02*
X0432101Y0239653D01*
X0432400Y0237254D02*
X0462200Y0237254D01*
X0469420Y0242051D02*
X0474980Y0242051D01*
X0472582Y0239653D02*
X0471818Y0239653D01*
X0472200Y0239271D02*
X0472200Y0235129D01*
X0472171Y0235100D01*
X0472229Y0235100D01*
X0472200Y0235129D01*
X0472200Y0239271D01*
X0472200Y0237254D02*
X0472200Y0237254D01*
X0479420Y0242051D02*
X0484980Y0242051D01*
X0482582Y0239653D02*
X0481818Y0239653D01*
X0482200Y0239271D02*
X0482200Y0235129D01*
X0482171Y0235100D01*
X0482229Y0235100D01*
X0482200Y0235129D01*
X0482200Y0239271D01*
X0482200Y0237254D02*
X0482200Y0237254D01*
X0489420Y0242051D02*
X0494980Y0242051D01*
X0492582Y0239653D02*
X0491818Y0239653D01*
X0492200Y0239271D02*
X0492200Y0235129D01*
X0492171Y0235100D01*
X0492229Y0235100D01*
X0492200Y0235129D01*
X0492200Y0239271D01*
X0492200Y0237254D02*
X0492200Y0237254D01*
X0499420Y0242051D02*
X0504980Y0242051D01*
X0502582Y0239653D02*
X0501818Y0239653D01*
X0502200Y0239271D02*
X0502200Y0235129D01*
X0502171Y0235100D01*
X0502229Y0235100D01*
X0502200Y0235129D01*
X0502200Y0239271D01*
X0502200Y0237254D02*
X0502200Y0237254D01*
X0509420Y0242051D02*
X0514697Y0242051D01*
X0512299Y0239653D02*
X0511818Y0239653D01*
X0522101Y0239653D02*
X0522317Y0239653D01*
X0517161Y0250625D02*
X0427594Y0250625D01*
X0424697Y0242051D02*
X0419420Y0242051D01*
X0421818Y0239653D02*
X0422299Y0239653D01*
X0414980Y0242051D02*
X0409420Y0242051D01*
X0411818Y0239653D02*
X0412582Y0239653D01*
X0412200Y0239271D02*
X0412200Y0235129D01*
X0412171Y0235100D01*
X0412229Y0235100D01*
X0412200Y0235129D01*
X0412200Y0239271D01*
X0412200Y0237254D02*
X0412200Y0237254D01*
X0404980Y0242051D02*
X0402184Y0242051D01*
X0582726Y0018990D02*
X0585690Y0018990D01*
X0584274Y0016591D02*
X0584141Y0016591D01*
X0584208Y0014193D02*
X0584208Y0014193D01*
X0584208Y0011794D02*
X0584208Y0011794D01*
X0584208Y0009396D02*
X0584208Y0009396D01*
X0594208Y0009396D02*
X0594208Y0009396D01*
X0594208Y0011794D02*
X0594208Y0011794D01*
X0594208Y0014193D02*
X0594208Y0014193D01*
X0594141Y0016591D02*
X0594274Y0016591D01*
X0595690Y0018990D02*
X0592726Y0018990D01*
D27*
X0597279Y0055546D03*
X0399247Y0065783D03*
X0280153Y0026806D03*
X0132909Y0026609D03*
D28*
X0179950Y0055750D02*
X0182200Y0053500D01*
X0210100Y0053500D01*
X0217300Y0060700D01*
X0234400Y0060700D01*
X0237100Y0063400D01*
X0237100Y0090400D01*
X0232600Y0094900D01*
X0232476Y0095350D01*
X0222476Y0095350D02*
X0222250Y0094900D01*
X0217750Y0090400D01*
X0217750Y0063850D01*
X0214600Y0060700D01*
X0210550Y0060700D01*
X0207850Y0063400D01*
X0207850Y0066550D01*
X0187600Y0086800D01*
X0187600Y0112000D01*
X0184450Y0115150D01*
X0153850Y0115150D01*
X0086350Y0182650D01*
X0082300Y0182650D01*
X0082200Y0182909D01*
X0077800Y0184450D02*
X0077800Y0158350D01*
X0179950Y0056200D01*
X0179950Y0055750D01*
X0183550Y0057100D02*
X0183550Y0064300D01*
X0182650Y0065200D01*
X0182476Y0065350D01*
X0182200Y0065650D01*
X0182200Y0089050D01*
X0177700Y0093550D01*
X0177700Y0105700D01*
X0182200Y0110200D01*
X0182476Y0110428D01*
X0207400Y0119200D02*
X0211450Y0115150D01*
X0214600Y0115150D01*
X0227650Y0102100D01*
X0227650Y0070150D01*
X0232150Y0065650D01*
X0232476Y0065350D01*
X0247900Y0060700D02*
X0297850Y0060700D01*
X0302350Y0065200D01*
X0302476Y0065350D01*
X0292900Y0065650D02*
X0292476Y0065350D01*
X0292900Y0065650D02*
X0292900Y0079150D01*
X0307300Y0093550D01*
X0307300Y0154300D01*
X0296950Y0164650D01*
X0296950Y0179050D01*
X0252400Y0223600D01*
X0248350Y0217750D02*
X0242500Y0223600D01*
X0201550Y0223600D01*
X0198400Y0217750D02*
X0191650Y0224500D01*
X0191650Y0232150D01*
X0204700Y0245200D01*
X0378400Y0245200D01*
X0386050Y0237550D01*
X0386950Y0237550D01*
X0387200Y0237200D01*
X0388750Y0232600D02*
X0393250Y0237100D01*
X0396850Y0237100D01*
X0397200Y0237200D01*
X0401800Y0236200D02*
X0401800Y0238900D01*
X0393700Y0247000D01*
X0203800Y0247000D01*
X0188050Y0231250D01*
X0188050Y0209200D01*
X0198400Y0211000D02*
X0201550Y0207850D01*
X0236200Y0207850D01*
X0252400Y0191650D01*
X0254200Y0191650D01*
X0256900Y0188950D01*
X0256900Y0180850D01*
X0254200Y0178150D01*
X0209650Y0178150D01*
X0202900Y0184900D01*
X0202633Y0184995D01*
X0193000Y0184900D02*
X0192633Y0184995D01*
X0193000Y0184900D02*
X0193000Y0171850D01*
X0197050Y0167800D01*
X0197050Y0140800D01*
X0192550Y0136300D01*
X0192279Y0135861D01*
X0197500Y0138550D02*
X0207400Y0148450D01*
X0207400Y0167800D01*
X0210100Y0170500D01*
X0227650Y0170500D01*
X0232150Y0166000D01*
X0232279Y0165861D01*
X0212279Y0165861D02*
X0211900Y0165550D01*
X0211900Y0142150D01*
X0207400Y0137650D01*
X0207400Y0119200D01*
X0182279Y0135861D02*
X0182200Y0136300D01*
X0173650Y0136300D01*
X0086800Y0223150D01*
X0086800Y0226750D01*
X0094000Y0233950D01*
X0094000Y0242500D01*
X0094370Y0242832D01*
X0195250Y0230800D02*
X0274450Y0230800D01*
X0248350Y0217750D02*
X0248350Y0209650D01*
X0292000Y0166000D01*
X0292279Y0165861D01*
X0287500Y0167350D02*
X0287500Y0150700D01*
X0301900Y0136300D01*
X0302279Y0135861D01*
X0300550Y0137200D01*
X0283900Y0120550D01*
X0282100Y0120550D01*
X0282082Y0120546D01*
X0282279Y0135861D02*
X0282100Y0136300D01*
X0277600Y0140800D01*
X0277600Y0170950D01*
X0255100Y0193450D01*
X0253300Y0193450D01*
X0233050Y0213700D01*
X0233050Y0214600D01*
X0232633Y0214995D01*
X0238450Y0217300D02*
X0238450Y0211000D01*
X0254200Y0195250D01*
X0259600Y0195250D01*
X0287500Y0167350D01*
X0302279Y0165861D02*
X0302350Y0165550D01*
X0335650Y0132250D01*
X0512050Y0132250D01*
X0512200Y0132200D01*
X0521950Y0137200D02*
X0526900Y0132250D01*
X0527200Y0132200D01*
X0531850Y0130000D02*
X0471550Y0069700D01*
X0323500Y0069700D01*
X0309550Y0055750D01*
X0246550Y0055750D01*
X0211900Y0050350D02*
X0211900Y0040450D01*
X0212476Y0065350D02*
X0212350Y0065650D01*
X0212350Y0078700D01*
X0197500Y0093550D01*
X0197500Y0138550D01*
X0202279Y0165861D02*
X0202450Y0166000D01*
X0208750Y0172300D01*
X0262750Y0172300D01*
X0267250Y0167800D01*
X0267250Y0080500D01*
X0282100Y0065650D01*
X0282476Y0065350D01*
X0451300Y0158800D02*
X0472900Y0137200D01*
X0521950Y0137200D01*
X0531850Y0130000D02*
X0531850Y0183100D01*
X0563350Y0214600D01*
X0563350Y0235300D01*
X0563420Y0235586D01*
X0567850Y0234850D02*
X0567850Y0237100D01*
X0565150Y0239800D01*
X0526000Y0239800D01*
X0518800Y0232600D01*
X0405400Y0232600D01*
X0401800Y0236200D01*
X0388750Y0232600D02*
X0385600Y0232600D01*
X0381550Y0236650D01*
X0381550Y0239350D01*
X0379300Y0241600D01*
X0230800Y0241600D01*
X0223600Y0227200D02*
X0385600Y0227200D01*
X0465250Y0147550D01*
X0507100Y0147550D01*
X0507200Y0147200D01*
X0451300Y0158800D02*
X0314500Y0158800D01*
X0378400Y0237100D02*
X0407200Y0208300D01*
X0521950Y0208300D01*
X0522200Y0208145D01*
X0573263Y0227318D02*
X0573250Y0227650D01*
X0573250Y0229450D01*
X0567850Y0234850D01*
X0378400Y0237100D02*
X0377500Y0237100D01*
X0377200Y0237200D01*
X0238450Y0217300D02*
X0233950Y0221800D01*
X0211000Y0221800D01*
X0204250Y0215050D01*
X0202900Y0215050D01*
X0202633Y0214995D01*
X0198400Y0217750D02*
X0198400Y0211000D01*
X0082200Y0192909D02*
X0081850Y0192550D01*
X0081850Y0188500D01*
X0077800Y0184450D01*
D29*
X0188050Y0209200D03*
X0201550Y0223600D03*
X0195250Y0230800D03*
X0223600Y0227200D03*
X0252400Y0223600D03*
X0274450Y0230800D03*
X0230800Y0241600D03*
X0314500Y0158800D03*
X0247900Y0060700D03*
X0246550Y0055750D03*
X0211900Y0050350D03*
X0211900Y0040450D03*
X0183550Y0057100D03*
D30*
X0021885Y0120310D03*
X0021885Y0143932D03*
X0021885Y0167554D03*
X0021885Y0191176D03*
M02*
