G75*
%MOIN*%
%OFA0B0*%
%FSLAX25Y25*%
%IPPOS*%
%LPD*%
%AMOC8*
5,1,8,0,0,1.08239X$1,22.5*
%
%ADD10C,0.00600*%
%ADD11C,0.00800*%
%ADD12C,0.00300*%
%ADD13C,0.00500*%
%ADD14C,0.00400*%
%ADD15R,0.24016X0.01575*%
%ADD16R,0.14173X0.01575*%
%ADD17R,0.12205X0.01575*%
%ADD18C,0.00700*%
%ADD19C,0.00100*%
%ADD20C,0.00200*%
%ADD21C,0.01000*%
%ADD22R,0.01500X0.02000*%
%ADD23R,0.02000X0.01500*%
%ADD24R,0.03000X0.02500*%
%ADD25R,0.05000X0.11000*%
D10*
X0006708Y0007436D02*
X0011708Y0007436D01*
X0014208Y0009936D01*
X0016708Y0007436D01*
X0021708Y0007436D01*
X0024208Y0009936D01*
X0026708Y0007436D01*
X0031708Y0007436D01*
X0034208Y0009936D01*
X0036708Y0007436D01*
X0041708Y0007436D01*
X0044208Y0009936D01*
X0046708Y0007436D01*
X0051708Y0007436D01*
X0054208Y0009936D01*
X0056708Y0007436D01*
X0061708Y0007436D01*
X0064208Y0009936D01*
X0066708Y0007436D01*
X0071708Y0007436D01*
X0074208Y0009936D01*
X0076708Y0007436D01*
X0081708Y0007436D01*
X0084208Y0009936D01*
X0086708Y0007436D01*
X0091708Y0007436D01*
X0094208Y0009936D01*
X0096708Y0007436D01*
X0101708Y0007436D01*
X0104208Y0009936D01*
X0106708Y0007436D01*
X0111708Y0007436D01*
X0114208Y0009936D01*
X0116708Y0007436D01*
X0121708Y0007436D01*
X0124208Y0009936D01*
X0126708Y0007436D01*
X0131708Y0007436D01*
X0134208Y0009936D01*
X0136708Y0007436D01*
X0141708Y0007436D01*
X0144208Y0009936D01*
X0146708Y0007436D01*
X0151708Y0007436D01*
X0154208Y0009936D01*
X0156708Y0007436D01*
X0161708Y0007436D01*
X0164208Y0009936D01*
X0166708Y0007436D01*
X0171708Y0007436D01*
X0174208Y0009936D01*
X0176708Y0007436D01*
X0181708Y0007436D01*
X0184208Y0009936D01*
X0186708Y0007436D01*
X0191708Y0007436D01*
X0194208Y0009936D01*
X0196708Y0007436D01*
X0201708Y0007436D01*
X0204208Y0009936D01*
X0206708Y0007436D01*
X0211708Y0007436D01*
X0214208Y0009936D01*
X0216708Y0007436D01*
X0221708Y0007436D01*
X0224208Y0009936D01*
X0226708Y0007436D01*
X0231708Y0007436D01*
X0234208Y0009936D01*
X0236708Y0007436D01*
X0241708Y0007436D01*
X0244208Y0009936D01*
X0246708Y0007436D01*
X0251708Y0007436D01*
X0254208Y0009936D01*
X0256708Y0007436D01*
X0261708Y0007436D01*
X0264208Y0009936D01*
X0266708Y0007436D01*
X0271708Y0007436D01*
X0274208Y0009936D01*
X0276708Y0007436D01*
X0281708Y0007436D01*
X0284208Y0009936D01*
X0286708Y0007436D01*
X0291708Y0007436D01*
X0294208Y0009936D01*
X0296708Y0007436D01*
X0301708Y0007436D01*
X0304208Y0009936D01*
X0306708Y0007436D01*
X0311708Y0007436D01*
X0314208Y0009936D01*
X0316708Y0007436D01*
X0321708Y0007436D01*
X0324208Y0009936D01*
X0326708Y0007436D01*
X0331708Y0007436D01*
X0334208Y0009936D01*
X0336708Y0007436D01*
X0341708Y0007436D01*
X0344208Y0009936D01*
X0346708Y0007436D01*
X0351708Y0007436D01*
X0354208Y0009936D01*
X0356708Y0007436D01*
X0361708Y0007436D01*
X0364208Y0009936D01*
X0366708Y0007436D01*
X0371708Y0007436D01*
X0374208Y0009936D01*
X0376708Y0007436D01*
X0381708Y0007436D01*
X0384208Y0009936D01*
X0386708Y0007436D01*
X0391708Y0007436D01*
X0394208Y0009936D01*
X0396708Y0007436D01*
X0401708Y0007436D01*
X0404208Y0009936D01*
X0406708Y0007436D01*
X0411708Y0007436D01*
X0414208Y0009936D01*
X0416708Y0007436D01*
X0421708Y0007436D01*
X0424208Y0009936D01*
X0424208Y0014936D01*
X0421708Y0017436D01*
X0416708Y0017436D01*
X0414208Y0014936D01*
X0414208Y0009936D01*
X0414208Y0014936D02*
X0411708Y0017436D01*
X0406708Y0017436D01*
X0404208Y0014936D01*
X0404208Y0009936D01*
X0404208Y0014936D01*
X0401708Y0017436D01*
X0396708Y0017436D01*
X0394208Y0014936D01*
X0391708Y0017436D01*
X0386708Y0017436D01*
X0384208Y0014936D01*
X0381708Y0017436D01*
X0376708Y0017436D01*
X0374208Y0014936D01*
X0371708Y0017436D01*
X0366708Y0017436D01*
X0364208Y0014936D01*
X0361708Y0017436D01*
X0356708Y0017436D01*
X0354208Y0014936D01*
X0351708Y0017436D01*
X0346708Y0017436D01*
X0344208Y0014936D01*
X0341708Y0017436D01*
X0336708Y0017436D01*
X0334208Y0014936D01*
X0331708Y0017436D01*
X0326708Y0017436D01*
X0324208Y0014936D01*
X0321708Y0017436D01*
X0316708Y0017436D01*
X0314208Y0014936D01*
X0311708Y0017436D01*
X0306708Y0017436D01*
X0304208Y0014936D01*
X0301708Y0017436D01*
X0296708Y0017436D01*
X0294208Y0014936D01*
X0291708Y0017436D01*
X0286708Y0017436D01*
X0284208Y0014936D01*
X0281708Y0017436D01*
X0276708Y0017436D01*
X0274208Y0014936D01*
X0271708Y0017436D01*
X0266708Y0017436D01*
X0264208Y0014936D01*
X0261708Y0017436D01*
X0256708Y0017436D01*
X0254208Y0014936D01*
X0251708Y0017436D01*
X0246708Y0017436D01*
X0244208Y0014936D01*
X0241708Y0017436D01*
X0236708Y0017436D01*
X0234208Y0014936D01*
X0231708Y0017436D01*
X0226708Y0017436D01*
X0224208Y0014936D01*
X0221708Y0017436D01*
X0216708Y0017436D01*
X0214208Y0014936D01*
X0211708Y0017436D01*
X0206708Y0017436D01*
X0204208Y0014936D01*
X0201708Y0017436D01*
X0196708Y0017436D01*
X0194208Y0014936D01*
X0191708Y0017436D01*
X0186708Y0017436D01*
X0184208Y0014936D01*
X0181708Y0017436D01*
X0176708Y0017436D01*
X0174208Y0014936D01*
X0171708Y0017436D01*
X0166708Y0017436D01*
X0164208Y0014936D01*
X0161708Y0017436D01*
X0156708Y0017436D01*
X0154208Y0014936D01*
X0151708Y0017436D01*
X0146708Y0017436D01*
X0144208Y0014936D01*
X0141708Y0017436D01*
X0136708Y0017436D01*
X0134208Y0014936D01*
X0131708Y0017436D01*
X0126708Y0017436D01*
X0124208Y0014936D01*
X0121708Y0017436D01*
X0116708Y0017436D01*
X0114208Y0014936D01*
X0111708Y0017436D01*
X0106708Y0017436D01*
X0104208Y0014936D01*
X0101708Y0017436D01*
X0096708Y0017436D01*
X0094208Y0014936D01*
X0091708Y0017436D01*
X0086708Y0017436D01*
X0084208Y0014936D01*
X0081708Y0017436D01*
X0076708Y0017436D01*
X0074208Y0014936D01*
X0071708Y0017436D01*
X0066708Y0017436D01*
X0064208Y0014936D01*
X0061708Y0017436D01*
X0056708Y0017436D01*
X0054208Y0014936D01*
X0051708Y0017436D01*
X0046708Y0017436D01*
X0044208Y0014936D01*
X0041708Y0017436D01*
X0036708Y0017436D01*
X0034208Y0014936D01*
X0031708Y0017436D01*
X0026708Y0017436D01*
X0024208Y0014936D01*
X0021708Y0017436D01*
X0016708Y0017436D01*
X0014208Y0014936D01*
X0011708Y0017436D01*
X0006708Y0017436D01*
X0004208Y0014936D01*
X0004208Y0009936D01*
X0006708Y0007436D01*
X0178976Y0070550D02*
X0178976Y0079150D01*
X0178976Y0081550D01*
X0178976Y0091550D01*
X0178976Y0081550D02*
X0179045Y0081548D01*
X0179113Y0081542D01*
X0179181Y0081532D01*
X0179248Y0081519D01*
X0179314Y0081501D01*
X0179379Y0081480D01*
X0179443Y0081455D01*
X0179505Y0081427D01*
X0179566Y0081395D01*
X0179625Y0081360D01*
X0179681Y0081321D01*
X0179736Y0081279D01*
X0179787Y0081234D01*
X0179837Y0081186D01*
X0179883Y0081136D01*
X0179926Y0081083D01*
X0179967Y0081027D01*
X0180004Y0080970D01*
X0180037Y0080910D01*
X0180068Y0080848D01*
X0180094Y0080785D01*
X0180117Y0080721D01*
X0180137Y0080655D01*
X0180152Y0080588D01*
X0180164Y0080521D01*
X0180172Y0080453D01*
X0180176Y0080384D01*
X0180176Y0080316D01*
X0180172Y0080247D01*
X0180164Y0080179D01*
X0180152Y0080112D01*
X0180137Y0080045D01*
X0180117Y0079979D01*
X0180094Y0079915D01*
X0180068Y0079852D01*
X0180037Y0079790D01*
X0180004Y0079730D01*
X0179967Y0079673D01*
X0179926Y0079617D01*
X0179883Y0079564D01*
X0179837Y0079514D01*
X0179787Y0079466D01*
X0179736Y0079421D01*
X0179681Y0079379D01*
X0179625Y0079340D01*
X0179566Y0079305D01*
X0179505Y0079273D01*
X0179443Y0079245D01*
X0179379Y0079220D01*
X0179314Y0079199D01*
X0179248Y0079181D01*
X0179181Y0079168D01*
X0179113Y0079158D01*
X0179045Y0079152D01*
X0178976Y0079150D01*
X0134641Y0102672D02*
X0134641Y0112672D01*
X0064641Y0112672D01*
X0064641Y0118672D01*
X0064767Y0118674D01*
X0064892Y0118680D01*
X0065017Y0118690D01*
X0065142Y0118704D01*
X0065267Y0118721D01*
X0065391Y0118743D01*
X0065514Y0118768D01*
X0065636Y0118798D01*
X0065757Y0118831D01*
X0065877Y0118868D01*
X0065996Y0118908D01*
X0066113Y0118953D01*
X0066230Y0119001D01*
X0066344Y0119053D01*
X0066457Y0119108D01*
X0066568Y0119167D01*
X0066677Y0119229D01*
X0066784Y0119295D01*
X0066889Y0119364D01*
X0066992Y0119436D01*
X0067093Y0119511D01*
X0067191Y0119590D01*
X0067286Y0119672D01*
X0067379Y0119756D01*
X0067469Y0119844D01*
X0067557Y0119934D01*
X0067641Y0120027D01*
X0067723Y0120122D01*
X0067802Y0120220D01*
X0067877Y0120321D01*
X0067949Y0120424D01*
X0068018Y0120529D01*
X0068084Y0120636D01*
X0068146Y0120745D01*
X0068205Y0120856D01*
X0068260Y0120969D01*
X0068312Y0121083D01*
X0068360Y0121200D01*
X0068405Y0121317D01*
X0068445Y0121436D01*
X0068482Y0121556D01*
X0068515Y0121677D01*
X0068545Y0121799D01*
X0068570Y0121922D01*
X0068592Y0122046D01*
X0068609Y0122171D01*
X0068623Y0122296D01*
X0068633Y0122421D01*
X0068639Y0122546D01*
X0068641Y0122672D01*
X0068639Y0122798D01*
X0068633Y0122923D01*
X0068623Y0123048D01*
X0068609Y0123173D01*
X0068592Y0123298D01*
X0068570Y0123422D01*
X0068545Y0123545D01*
X0068515Y0123667D01*
X0068482Y0123788D01*
X0068445Y0123908D01*
X0068405Y0124027D01*
X0068360Y0124144D01*
X0068312Y0124261D01*
X0068260Y0124375D01*
X0068205Y0124488D01*
X0068146Y0124599D01*
X0068084Y0124708D01*
X0068018Y0124815D01*
X0067949Y0124920D01*
X0067877Y0125023D01*
X0067802Y0125124D01*
X0067723Y0125222D01*
X0067641Y0125317D01*
X0067557Y0125410D01*
X0067469Y0125500D01*
X0067379Y0125588D01*
X0067286Y0125672D01*
X0067191Y0125754D01*
X0067093Y0125833D01*
X0066992Y0125908D01*
X0066889Y0125980D01*
X0066784Y0126049D01*
X0066677Y0126115D01*
X0066568Y0126177D01*
X0066457Y0126236D01*
X0066344Y0126291D01*
X0066230Y0126343D01*
X0066113Y0126391D01*
X0065996Y0126436D01*
X0065877Y0126476D01*
X0065757Y0126513D01*
X0065636Y0126546D01*
X0065514Y0126576D01*
X0065391Y0126601D01*
X0065267Y0126623D01*
X0065142Y0126640D01*
X0065017Y0126654D01*
X0064892Y0126664D01*
X0064767Y0126670D01*
X0064641Y0126672D01*
X0064641Y0132672D01*
X0134641Y0132672D01*
X0134641Y0112672D01*
X0134641Y0102672D02*
X0064641Y0102672D01*
X0064641Y0112672D01*
X0064641Y0132672D02*
X0064641Y0142672D01*
X0134641Y0142672D01*
X0134641Y0132672D01*
X0178779Y0141061D02*
X0178779Y0149661D01*
X0178779Y0152061D01*
X0178779Y0162061D01*
X0178779Y0152061D02*
X0178848Y0152059D01*
X0178916Y0152053D01*
X0178984Y0152043D01*
X0179051Y0152030D01*
X0179117Y0152012D01*
X0179182Y0151991D01*
X0179246Y0151966D01*
X0179308Y0151938D01*
X0179369Y0151906D01*
X0179428Y0151871D01*
X0179484Y0151832D01*
X0179539Y0151790D01*
X0179590Y0151745D01*
X0179640Y0151697D01*
X0179686Y0151647D01*
X0179729Y0151594D01*
X0179770Y0151538D01*
X0179807Y0151481D01*
X0179840Y0151421D01*
X0179871Y0151359D01*
X0179897Y0151296D01*
X0179920Y0151232D01*
X0179940Y0151166D01*
X0179955Y0151099D01*
X0179967Y0151032D01*
X0179975Y0150964D01*
X0179979Y0150895D01*
X0179979Y0150827D01*
X0179975Y0150758D01*
X0179967Y0150690D01*
X0179955Y0150623D01*
X0179940Y0150556D01*
X0179920Y0150490D01*
X0179897Y0150426D01*
X0179871Y0150363D01*
X0179840Y0150301D01*
X0179807Y0150241D01*
X0179770Y0150184D01*
X0179729Y0150128D01*
X0179686Y0150075D01*
X0179640Y0150025D01*
X0179590Y0149977D01*
X0179539Y0149932D01*
X0179484Y0149890D01*
X0179428Y0149851D01*
X0179369Y0149816D01*
X0179308Y0149784D01*
X0179246Y0149756D01*
X0179182Y0149731D01*
X0179117Y0149710D01*
X0179051Y0149692D01*
X0178984Y0149679D01*
X0178916Y0149669D01*
X0178848Y0149663D01*
X0178779Y0149661D01*
X0188672Y0124546D02*
X0190172Y0124546D01*
X0190672Y0124046D01*
X0204672Y0124046D01*
X0205172Y0124546D01*
X0206672Y0124546D01*
X0206732Y0124544D01*
X0206793Y0124539D01*
X0206852Y0124530D01*
X0206911Y0124517D01*
X0206970Y0124501D01*
X0207027Y0124481D01*
X0207082Y0124458D01*
X0207137Y0124431D01*
X0207189Y0124402D01*
X0207240Y0124369D01*
X0207289Y0124333D01*
X0207335Y0124295D01*
X0207379Y0124253D01*
X0207421Y0124209D01*
X0207459Y0124163D01*
X0207495Y0124114D01*
X0207528Y0124063D01*
X0207557Y0124011D01*
X0207584Y0123956D01*
X0207607Y0123901D01*
X0207627Y0123844D01*
X0207643Y0123785D01*
X0207656Y0123726D01*
X0207665Y0123667D01*
X0207670Y0123606D01*
X0207672Y0123546D01*
X0207672Y0117546D01*
X0207670Y0117486D01*
X0207665Y0117425D01*
X0207656Y0117366D01*
X0207643Y0117307D01*
X0207627Y0117248D01*
X0207607Y0117191D01*
X0207584Y0117136D01*
X0207557Y0117081D01*
X0207528Y0117029D01*
X0207495Y0116978D01*
X0207459Y0116929D01*
X0207421Y0116883D01*
X0207379Y0116839D01*
X0207335Y0116797D01*
X0207289Y0116759D01*
X0207240Y0116723D01*
X0207189Y0116690D01*
X0207137Y0116661D01*
X0207082Y0116634D01*
X0207027Y0116611D01*
X0206970Y0116591D01*
X0206911Y0116575D01*
X0206852Y0116562D01*
X0206793Y0116553D01*
X0206732Y0116548D01*
X0206672Y0116546D01*
X0205172Y0116546D01*
X0204672Y0117046D01*
X0190672Y0117046D01*
X0190172Y0116546D01*
X0188672Y0116546D01*
X0188612Y0116548D01*
X0188551Y0116553D01*
X0188492Y0116562D01*
X0188433Y0116575D01*
X0188374Y0116591D01*
X0188317Y0116611D01*
X0188262Y0116634D01*
X0188207Y0116661D01*
X0188155Y0116690D01*
X0188104Y0116723D01*
X0188055Y0116759D01*
X0188009Y0116797D01*
X0187965Y0116839D01*
X0187923Y0116883D01*
X0187885Y0116929D01*
X0187849Y0116978D01*
X0187816Y0117029D01*
X0187787Y0117081D01*
X0187760Y0117136D01*
X0187737Y0117191D01*
X0187717Y0117248D01*
X0187701Y0117307D01*
X0187688Y0117366D01*
X0187679Y0117425D01*
X0187674Y0117486D01*
X0187672Y0117546D01*
X0187672Y0123546D01*
X0187674Y0123606D01*
X0187679Y0123667D01*
X0187688Y0123726D01*
X0187701Y0123785D01*
X0187717Y0123844D01*
X0187737Y0123901D01*
X0187760Y0123956D01*
X0187787Y0124011D01*
X0187816Y0124063D01*
X0187849Y0124114D01*
X0187885Y0124163D01*
X0187923Y0124209D01*
X0187965Y0124253D01*
X0188009Y0124295D01*
X0188055Y0124333D01*
X0188104Y0124369D01*
X0188155Y0124402D01*
X0188207Y0124431D01*
X0188262Y0124458D01*
X0188317Y0124481D01*
X0188374Y0124501D01*
X0188433Y0124517D01*
X0188492Y0124530D01*
X0188551Y0124539D01*
X0188612Y0124544D01*
X0188672Y0124546D01*
X0188476Y0114428D02*
X0189976Y0114428D01*
X0190476Y0113928D01*
X0204476Y0113928D01*
X0204976Y0114428D01*
X0206476Y0114428D01*
X0206536Y0114426D01*
X0206597Y0114421D01*
X0206656Y0114412D01*
X0206715Y0114399D01*
X0206774Y0114383D01*
X0206831Y0114363D01*
X0206886Y0114340D01*
X0206941Y0114313D01*
X0206993Y0114284D01*
X0207044Y0114251D01*
X0207093Y0114215D01*
X0207139Y0114177D01*
X0207183Y0114135D01*
X0207225Y0114091D01*
X0207263Y0114045D01*
X0207299Y0113996D01*
X0207332Y0113945D01*
X0207361Y0113893D01*
X0207388Y0113838D01*
X0207411Y0113783D01*
X0207431Y0113726D01*
X0207447Y0113667D01*
X0207460Y0113608D01*
X0207469Y0113549D01*
X0207474Y0113488D01*
X0207476Y0113428D01*
X0207476Y0107428D01*
X0207474Y0107368D01*
X0207469Y0107307D01*
X0207460Y0107248D01*
X0207447Y0107189D01*
X0207431Y0107130D01*
X0207411Y0107073D01*
X0207388Y0107018D01*
X0207361Y0106963D01*
X0207332Y0106911D01*
X0207299Y0106860D01*
X0207263Y0106811D01*
X0207225Y0106765D01*
X0207183Y0106721D01*
X0207139Y0106679D01*
X0207093Y0106641D01*
X0207044Y0106605D01*
X0206993Y0106572D01*
X0206941Y0106543D01*
X0206886Y0106516D01*
X0206831Y0106493D01*
X0206774Y0106473D01*
X0206715Y0106457D01*
X0206656Y0106444D01*
X0206597Y0106435D01*
X0206536Y0106430D01*
X0206476Y0106428D01*
X0204976Y0106428D01*
X0204476Y0106928D01*
X0190476Y0106928D01*
X0189976Y0106428D01*
X0188476Y0106428D01*
X0188416Y0106430D01*
X0188355Y0106435D01*
X0188296Y0106444D01*
X0188237Y0106457D01*
X0188178Y0106473D01*
X0188121Y0106493D01*
X0188066Y0106516D01*
X0188011Y0106543D01*
X0187959Y0106572D01*
X0187908Y0106605D01*
X0187859Y0106641D01*
X0187813Y0106679D01*
X0187769Y0106721D01*
X0187727Y0106765D01*
X0187689Y0106811D01*
X0187653Y0106860D01*
X0187620Y0106911D01*
X0187591Y0106963D01*
X0187564Y0107018D01*
X0187541Y0107073D01*
X0187521Y0107130D01*
X0187505Y0107189D01*
X0187492Y0107248D01*
X0187483Y0107307D01*
X0187478Y0107368D01*
X0187476Y0107428D01*
X0187476Y0113428D01*
X0187478Y0113488D01*
X0187483Y0113549D01*
X0187492Y0113608D01*
X0187505Y0113667D01*
X0187521Y0113726D01*
X0187541Y0113783D01*
X0187564Y0113838D01*
X0187591Y0113893D01*
X0187620Y0113945D01*
X0187653Y0113996D01*
X0187689Y0114045D01*
X0187727Y0114091D01*
X0187769Y0114135D01*
X0187813Y0114177D01*
X0187859Y0114215D01*
X0187908Y0114251D01*
X0187959Y0114284D01*
X0188011Y0114313D01*
X0188066Y0114340D01*
X0188121Y0114363D01*
X0188178Y0114383D01*
X0188237Y0114399D01*
X0188296Y0114412D01*
X0188355Y0114421D01*
X0188416Y0114426D01*
X0188476Y0114428D01*
X0237936Y0112909D02*
X0237936Y0122909D01*
X0237938Y0122969D01*
X0237943Y0123030D01*
X0237952Y0123089D01*
X0237965Y0123148D01*
X0237981Y0123207D01*
X0238001Y0123264D01*
X0238024Y0123319D01*
X0238051Y0123374D01*
X0238080Y0123426D01*
X0238113Y0123477D01*
X0238149Y0123526D01*
X0238187Y0123572D01*
X0238229Y0123616D01*
X0238273Y0123658D01*
X0238319Y0123696D01*
X0238368Y0123732D01*
X0238419Y0123765D01*
X0238471Y0123794D01*
X0238526Y0123821D01*
X0238581Y0123844D01*
X0238638Y0123864D01*
X0238697Y0123880D01*
X0238756Y0123893D01*
X0238815Y0123902D01*
X0238876Y0123907D01*
X0238936Y0123909D01*
X0255936Y0123909D01*
X0255996Y0123907D01*
X0256057Y0123902D01*
X0256116Y0123893D01*
X0256175Y0123880D01*
X0256234Y0123864D01*
X0256291Y0123844D01*
X0256346Y0123821D01*
X0256401Y0123794D01*
X0256453Y0123765D01*
X0256504Y0123732D01*
X0256553Y0123696D01*
X0256599Y0123658D01*
X0256643Y0123616D01*
X0256685Y0123572D01*
X0256723Y0123526D01*
X0256759Y0123477D01*
X0256792Y0123426D01*
X0256821Y0123374D01*
X0256848Y0123319D01*
X0256871Y0123264D01*
X0256891Y0123207D01*
X0256907Y0123148D01*
X0256920Y0123089D01*
X0256929Y0123030D01*
X0256934Y0122969D01*
X0256936Y0122909D01*
X0256936Y0112909D01*
X0256934Y0112849D01*
X0256929Y0112788D01*
X0256920Y0112729D01*
X0256907Y0112670D01*
X0256891Y0112611D01*
X0256871Y0112554D01*
X0256848Y0112499D01*
X0256821Y0112444D01*
X0256792Y0112392D01*
X0256759Y0112341D01*
X0256723Y0112292D01*
X0256685Y0112246D01*
X0256643Y0112202D01*
X0256599Y0112160D01*
X0256553Y0112122D01*
X0256504Y0112086D01*
X0256453Y0112053D01*
X0256401Y0112024D01*
X0256346Y0111997D01*
X0256291Y0111974D01*
X0256234Y0111954D01*
X0256175Y0111938D01*
X0256116Y0111925D01*
X0256057Y0111916D01*
X0255996Y0111911D01*
X0255936Y0111909D01*
X0238936Y0111909D01*
X0238876Y0111911D01*
X0238815Y0111916D01*
X0238756Y0111925D01*
X0238697Y0111938D01*
X0238638Y0111954D01*
X0238581Y0111974D01*
X0238526Y0111997D01*
X0238471Y0112024D01*
X0238419Y0112053D01*
X0238368Y0112086D01*
X0238319Y0112122D01*
X0238273Y0112160D01*
X0238229Y0112202D01*
X0238187Y0112246D01*
X0238149Y0112292D01*
X0238113Y0112341D01*
X0238080Y0112392D01*
X0238051Y0112444D01*
X0238024Y0112499D01*
X0238001Y0112554D01*
X0237981Y0112611D01*
X0237965Y0112670D01*
X0237952Y0112729D01*
X0237943Y0112788D01*
X0237938Y0112849D01*
X0237936Y0112909D01*
X0245936Y0117909D02*
X0246436Y0117909D01*
X0248436Y0117909D02*
X0248936Y0117909D01*
X0287082Y0117546D02*
X0287082Y0123546D01*
X0287084Y0123606D01*
X0287089Y0123667D01*
X0287098Y0123726D01*
X0287111Y0123785D01*
X0287127Y0123844D01*
X0287147Y0123901D01*
X0287170Y0123956D01*
X0287197Y0124011D01*
X0287226Y0124063D01*
X0287259Y0124114D01*
X0287295Y0124163D01*
X0287333Y0124209D01*
X0287375Y0124253D01*
X0287419Y0124295D01*
X0287465Y0124333D01*
X0287514Y0124369D01*
X0287565Y0124402D01*
X0287617Y0124431D01*
X0287672Y0124458D01*
X0287727Y0124481D01*
X0287784Y0124501D01*
X0287843Y0124517D01*
X0287902Y0124530D01*
X0287961Y0124539D01*
X0288022Y0124544D01*
X0288082Y0124546D01*
X0289582Y0124546D01*
X0290082Y0124046D01*
X0304082Y0124046D01*
X0304582Y0124546D01*
X0306082Y0124546D01*
X0306142Y0124544D01*
X0306203Y0124539D01*
X0306262Y0124530D01*
X0306321Y0124517D01*
X0306380Y0124501D01*
X0306437Y0124481D01*
X0306492Y0124458D01*
X0306547Y0124431D01*
X0306599Y0124402D01*
X0306650Y0124369D01*
X0306699Y0124333D01*
X0306745Y0124295D01*
X0306789Y0124253D01*
X0306831Y0124209D01*
X0306869Y0124163D01*
X0306905Y0124114D01*
X0306938Y0124063D01*
X0306967Y0124011D01*
X0306994Y0123956D01*
X0307017Y0123901D01*
X0307037Y0123844D01*
X0307053Y0123785D01*
X0307066Y0123726D01*
X0307075Y0123667D01*
X0307080Y0123606D01*
X0307082Y0123546D01*
X0307082Y0117546D01*
X0307080Y0117486D01*
X0307075Y0117425D01*
X0307066Y0117366D01*
X0307053Y0117307D01*
X0307037Y0117248D01*
X0307017Y0117191D01*
X0306994Y0117136D01*
X0306967Y0117081D01*
X0306938Y0117029D01*
X0306905Y0116978D01*
X0306869Y0116929D01*
X0306831Y0116883D01*
X0306789Y0116839D01*
X0306745Y0116797D01*
X0306699Y0116759D01*
X0306650Y0116723D01*
X0306599Y0116690D01*
X0306547Y0116661D01*
X0306492Y0116634D01*
X0306437Y0116611D01*
X0306380Y0116591D01*
X0306321Y0116575D01*
X0306262Y0116562D01*
X0306203Y0116553D01*
X0306142Y0116548D01*
X0306082Y0116546D01*
X0304582Y0116546D01*
X0304082Y0117046D01*
X0290082Y0117046D01*
X0289582Y0116546D01*
X0288082Y0116546D01*
X0288022Y0116548D01*
X0287961Y0116553D01*
X0287902Y0116562D01*
X0287843Y0116575D01*
X0287784Y0116591D01*
X0287727Y0116611D01*
X0287672Y0116634D01*
X0287617Y0116661D01*
X0287565Y0116690D01*
X0287514Y0116723D01*
X0287465Y0116759D01*
X0287419Y0116797D01*
X0287375Y0116839D01*
X0287333Y0116883D01*
X0287295Y0116929D01*
X0287259Y0116978D01*
X0287226Y0117029D01*
X0287197Y0117081D01*
X0287170Y0117136D01*
X0287147Y0117191D01*
X0287127Y0117248D01*
X0287111Y0117307D01*
X0287098Y0117366D01*
X0287089Y0117425D01*
X0287084Y0117486D01*
X0287082Y0117546D01*
X0288082Y0114428D02*
X0289582Y0114428D01*
X0290082Y0113928D01*
X0304082Y0113928D01*
X0304582Y0114428D01*
X0306082Y0114428D01*
X0306142Y0114426D01*
X0306203Y0114421D01*
X0306262Y0114412D01*
X0306321Y0114399D01*
X0306380Y0114383D01*
X0306437Y0114363D01*
X0306492Y0114340D01*
X0306547Y0114313D01*
X0306599Y0114284D01*
X0306650Y0114251D01*
X0306699Y0114215D01*
X0306745Y0114177D01*
X0306789Y0114135D01*
X0306831Y0114091D01*
X0306869Y0114045D01*
X0306905Y0113996D01*
X0306938Y0113945D01*
X0306967Y0113893D01*
X0306994Y0113838D01*
X0307017Y0113783D01*
X0307037Y0113726D01*
X0307053Y0113667D01*
X0307066Y0113608D01*
X0307075Y0113549D01*
X0307080Y0113488D01*
X0307082Y0113428D01*
X0307082Y0107428D01*
X0307080Y0107368D01*
X0307075Y0107307D01*
X0307066Y0107248D01*
X0307053Y0107189D01*
X0307037Y0107130D01*
X0307017Y0107073D01*
X0306994Y0107018D01*
X0306967Y0106963D01*
X0306938Y0106911D01*
X0306905Y0106860D01*
X0306869Y0106811D01*
X0306831Y0106765D01*
X0306789Y0106721D01*
X0306745Y0106679D01*
X0306699Y0106641D01*
X0306650Y0106605D01*
X0306599Y0106572D01*
X0306547Y0106543D01*
X0306492Y0106516D01*
X0306437Y0106493D01*
X0306380Y0106473D01*
X0306321Y0106457D01*
X0306262Y0106444D01*
X0306203Y0106435D01*
X0306142Y0106430D01*
X0306082Y0106428D01*
X0304582Y0106428D01*
X0304082Y0106928D01*
X0290082Y0106928D01*
X0289582Y0106428D01*
X0288082Y0106428D01*
X0288022Y0106430D01*
X0287961Y0106435D01*
X0287902Y0106444D01*
X0287843Y0106457D01*
X0287784Y0106473D01*
X0287727Y0106493D01*
X0287672Y0106516D01*
X0287617Y0106543D01*
X0287565Y0106572D01*
X0287514Y0106605D01*
X0287465Y0106641D01*
X0287419Y0106679D01*
X0287375Y0106721D01*
X0287333Y0106765D01*
X0287295Y0106811D01*
X0287259Y0106860D01*
X0287226Y0106911D01*
X0287197Y0106963D01*
X0287170Y0107018D01*
X0287147Y0107073D01*
X0287127Y0107130D01*
X0287111Y0107189D01*
X0287098Y0107248D01*
X0287089Y0107307D01*
X0287084Y0107368D01*
X0287082Y0107428D01*
X0287082Y0113428D01*
X0287084Y0113488D01*
X0287089Y0113549D01*
X0287098Y0113608D01*
X0287111Y0113667D01*
X0287127Y0113726D01*
X0287147Y0113783D01*
X0287170Y0113838D01*
X0287197Y0113893D01*
X0287226Y0113945D01*
X0287259Y0113996D01*
X0287295Y0114045D01*
X0287333Y0114091D01*
X0287375Y0114135D01*
X0287419Y0114177D01*
X0287465Y0114215D01*
X0287514Y0114251D01*
X0287565Y0114284D01*
X0287617Y0114313D01*
X0287672Y0114340D01*
X0287727Y0114363D01*
X0287784Y0114383D01*
X0287843Y0114399D01*
X0287902Y0114412D01*
X0287961Y0114421D01*
X0288022Y0114426D01*
X0288082Y0114428D01*
X0315976Y0091550D02*
X0315976Y0069150D01*
X0256739Y0052515D02*
X0256739Y0042515D01*
X0256737Y0042455D01*
X0256732Y0042394D01*
X0256723Y0042335D01*
X0256710Y0042276D01*
X0256694Y0042217D01*
X0256674Y0042160D01*
X0256651Y0042105D01*
X0256624Y0042050D01*
X0256595Y0041998D01*
X0256562Y0041947D01*
X0256526Y0041898D01*
X0256488Y0041852D01*
X0256446Y0041808D01*
X0256402Y0041766D01*
X0256356Y0041728D01*
X0256307Y0041692D01*
X0256256Y0041659D01*
X0256204Y0041630D01*
X0256149Y0041603D01*
X0256094Y0041580D01*
X0256037Y0041560D01*
X0255978Y0041544D01*
X0255919Y0041531D01*
X0255860Y0041522D01*
X0255799Y0041517D01*
X0255739Y0041515D01*
X0238739Y0041515D01*
X0238679Y0041517D01*
X0238618Y0041522D01*
X0238559Y0041531D01*
X0238500Y0041544D01*
X0238441Y0041560D01*
X0238384Y0041580D01*
X0238329Y0041603D01*
X0238274Y0041630D01*
X0238222Y0041659D01*
X0238171Y0041692D01*
X0238122Y0041728D01*
X0238076Y0041766D01*
X0238032Y0041808D01*
X0237990Y0041852D01*
X0237952Y0041898D01*
X0237916Y0041947D01*
X0237883Y0041998D01*
X0237854Y0042050D01*
X0237827Y0042105D01*
X0237804Y0042160D01*
X0237784Y0042217D01*
X0237768Y0042276D01*
X0237755Y0042335D01*
X0237746Y0042394D01*
X0237741Y0042455D01*
X0237739Y0042515D01*
X0237739Y0052515D01*
X0237741Y0052575D01*
X0237746Y0052636D01*
X0237755Y0052695D01*
X0237768Y0052754D01*
X0237784Y0052813D01*
X0237804Y0052870D01*
X0237827Y0052925D01*
X0237854Y0052980D01*
X0237883Y0053032D01*
X0237916Y0053083D01*
X0237952Y0053132D01*
X0237990Y0053178D01*
X0238032Y0053222D01*
X0238076Y0053264D01*
X0238122Y0053302D01*
X0238171Y0053338D01*
X0238222Y0053371D01*
X0238274Y0053400D01*
X0238329Y0053427D01*
X0238384Y0053450D01*
X0238441Y0053470D01*
X0238500Y0053486D01*
X0238559Y0053499D01*
X0238618Y0053508D01*
X0238679Y0053513D01*
X0238739Y0053515D01*
X0255739Y0053515D01*
X0255799Y0053513D01*
X0255860Y0053508D01*
X0255919Y0053499D01*
X0255978Y0053486D01*
X0256037Y0053470D01*
X0256094Y0053450D01*
X0256149Y0053427D01*
X0256204Y0053400D01*
X0256256Y0053371D01*
X0256307Y0053338D01*
X0256356Y0053302D01*
X0256402Y0053264D01*
X0256446Y0053222D01*
X0256488Y0053178D01*
X0256526Y0053132D01*
X0256562Y0053083D01*
X0256595Y0053032D01*
X0256624Y0052980D01*
X0256651Y0052925D01*
X0256674Y0052870D01*
X0256694Y0052813D01*
X0256710Y0052754D01*
X0256723Y0052695D01*
X0256732Y0052636D01*
X0256737Y0052575D01*
X0256739Y0052515D01*
X0248739Y0047515D02*
X0248239Y0047515D01*
X0246239Y0047515D02*
X0245739Y0047515D01*
X0362691Y0040405D02*
X0362691Y0036134D01*
X0363759Y0035067D01*
X0365894Y0035067D01*
X0366961Y0036134D01*
X0366961Y0038270D01*
X0364826Y0038270D01*
X0362691Y0040405D02*
X0363759Y0041472D01*
X0365894Y0041472D01*
X0366961Y0040405D01*
X0369137Y0041472D02*
X0373407Y0035067D01*
X0373407Y0041472D01*
X0375582Y0041472D02*
X0378785Y0041472D01*
X0379852Y0040405D01*
X0379852Y0036134D01*
X0378785Y0035067D01*
X0375582Y0035067D01*
X0375582Y0041472D01*
X0369137Y0041472D02*
X0369137Y0035067D01*
X0384129Y0035133D02*
X0384129Y0040133D01*
X0386629Y0042633D01*
X0391629Y0042633D01*
X0394129Y0040133D01*
X0396629Y0042633D01*
X0401629Y0042633D01*
X0404129Y0040133D01*
X0404129Y0035133D01*
X0401629Y0032633D01*
X0396629Y0032633D01*
X0394129Y0035133D01*
X0391629Y0032633D01*
X0386629Y0032633D01*
X0384129Y0035133D01*
X0394129Y0035133D02*
X0394129Y0040133D01*
X0406240Y0041386D02*
X0406240Y0037115D01*
X0408375Y0034980D01*
X0410510Y0037115D01*
X0410510Y0041386D01*
X0412686Y0040318D02*
X0412686Y0036048D01*
X0413753Y0034980D01*
X0415888Y0034980D01*
X0416956Y0036048D01*
X0419131Y0036048D02*
X0420199Y0034980D01*
X0422334Y0034980D01*
X0423401Y0036048D01*
X0419131Y0036048D02*
X0419131Y0040318D01*
X0420199Y0041386D01*
X0422334Y0041386D01*
X0423401Y0040318D01*
X0416956Y0040318D02*
X0415888Y0041386D01*
X0413753Y0041386D01*
X0412686Y0040318D01*
X0402629Y0051318D02*
X0385629Y0051318D01*
X0385569Y0051320D01*
X0385508Y0051325D01*
X0385449Y0051334D01*
X0385390Y0051347D01*
X0385331Y0051363D01*
X0385274Y0051383D01*
X0385219Y0051406D01*
X0385164Y0051433D01*
X0385112Y0051462D01*
X0385061Y0051495D01*
X0385012Y0051531D01*
X0384966Y0051569D01*
X0384922Y0051611D01*
X0384880Y0051655D01*
X0384842Y0051701D01*
X0384806Y0051750D01*
X0384773Y0051801D01*
X0384744Y0051853D01*
X0384717Y0051908D01*
X0384694Y0051963D01*
X0384674Y0052020D01*
X0384658Y0052079D01*
X0384645Y0052138D01*
X0384636Y0052197D01*
X0384631Y0052258D01*
X0384629Y0052318D01*
X0384629Y0062318D01*
X0384631Y0062378D01*
X0384636Y0062439D01*
X0384645Y0062498D01*
X0384658Y0062557D01*
X0384674Y0062616D01*
X0384694Y0062673D01*
X0384717Y0062728D01*
X0384744Y0062783D01*
X0384773Y0062835D01*
X0384806Y0062886D01*
X0384842Y0062935D01*
X0384880Y0062981D01*
X0384922Y0063025D01*
X0384966Y0063067D01*
X0385012Y0063105D01*
X0385061Y0063141D01*
X0385112Y0063174D01*
X0385164Y0063203D01*
X0385219Y0063230D01*
X0385274Y0063253D01*
X0385331Y0063273D01*
X0385390Y0063289D01*
X0385449Y0063302D01*
X0385508Y0063311D01*
X0385569Y0063316D01*
X0385629Y0063318D01*
X0402629Y0063318D01*
X0402689Y0063316D01*
X0402750Y0063311D01*
X0402809Y0063302D01*
X0402868Y0063289D01*
X0402927Y0063273D01*
X0402984Y0063253D01*
X0403039Y0063230D01*
X0403094Y0063203D01*
X0403146Y0063174D01*
X0403197Y0063141D01*
X0403246Y0063105D01*
X0403292Y0063067D01*
X0403336Y0063025D01*
X0403378Y0062981D01*
X0403416Y0062935D01*
X0403452Y0062886D01*
X0403485Y0062835D01*
X0403514Y0062783D01*
X0403541Y0062728D01*
X0403564Y0062673D01*
X0403584Y0062616D01*
X0403600Y0062557D01*
X0403613Y0062498D01*
X0403622Y0062439D01*
X0403627Y0062378D01*
X0403629Y0062318D01*
X0403629Y0052318D01*
X0403627Y0052258D01*
X0403622Y0052197D01*
X0403613Y0052138D01*
X0403600Y0052079D01*
X0403584Y0052020D01*
X0403564Y0051963D01*
X0403541Y0051908D01*
X0403514Y0051853D01*
X0403485Y0051801D01*
X0403452Y0051750D01*
X0403416Y0051701D01*
X0403378Y0051655D01*
X0403336Y0051611D01*
X0403292Y0051569D01*
X0403246Y0051531D01*
X0403197Y0051495D01*
X0403146Y0051462D01*
X0403094Y0051433D01*
X0403039Y0051406D01*
X0402984Y0051383D01*
X0402927Y0051363D01*
X0402868Y0051347D01*
X0402809Y0051334D01*
X0402750Y0051325D01*
X0402689Y0051320D01*
X0402629Y0051318D01*
X0395629Y0057318D02*
X0395129Y0057318D01*
X0393129Y0057318D02*
X0392629Y0057318D01*
X0437948Y0077468D02*
X0437948Y0078968D01*
X0436448Y0078968D01*
X0437948Y0078968D02*
X0437948Y0080468D01*
X0437948Y0078968D02*
X0439448Y0078968D01*
X0431948Y0085468D02*
X0431951Y0085738D01*
X0431961Y0086008D01*
X0431978Y0086277D01*
X0432001Y0086546D01*
X0432031Y0086815D01*
X0432067Y0087082D01*
X0432110Y0087349D01*
X0432159Y0087614D01*
X0432215Y0087878D01*
X0432278Y0088141D01*
X0432346Y0088402D01*
X0432422Y0088661D01*
X0432503Y0088918D01*
X0432591Y0089174D01*
X0432685Y0089427D01*
X0432785Y0089678D01*
X0432892Y0089926D01*
X0433004Y0090171D01*
X0433123Y0090414D01*
X0433247Y0090653D01*
X0433377Y0090890D01*
X0433513Y0091123D01*
X0433655Y0091353D01*
X0433802Y0091579D01*
X0433955Y0091802D01*
X0434113Y0092021D01*
X0434276Y0092236D01*
X0434445Y0092446D01*
X0434619Y0092653D01*
X0434798Y0092855D01*
X0434981Y0093053D01*
X0435170Y0093246D01*
X0435363Y0093435D01*
X0435561Y0093618D01*
X0435763Y0093797D01*
X0435970Y0093971D01*
X0436180Y0094140D01*
X0436395Y0094303D01*
X0436614Y0094461D01*
X0436837Y0094614D01*
X0437063Y0094761D01*
X0437293Y0094903D01*
X0437526Y0095039D01*
X0437763Y0095169D01*
X0438002Y0095293D01*
X0438245Y0095412D01*
X0438490Y0095524D01*
X0438738Y0095631D01*
X0438989Y0095731D01*
X0439242Y0095825D01*
X0439498Y0095913D01*
X0439755Y0095994D01*
X0440014Y0096070D01*
X0440275Y0096138D01*
X0440538Y0096201D01*
X0440802Y0096257D01*
X0441067Y0096306D01*
X0441334Y0096349D01*
X0441601Y0096385D01*
X0441870Y0096415D01*
X0442139Y0096438D01*
X0442408Y0096455D01*
X0442678Y0096465D01*
X0442948Y0096468D01*
X0443218Y0096465D01*
X0443488Y0096455D01*
X0443757Y0096438D01*
X0444026Y0096415D01*
X0444295Y0096385D01*
X0444562Y0096349D01*
X0444829Y0096306D01*
X0445094Y0096257D01*
X0445358Y0096201D01*
X0445621Y0096138D01*
X0445882Y0096070D01*
X0446141Y0095994D01*
X0446398Y0095913D01*
X0446654Y0095825D01*
X0446907Y0095731D01*
X0447158Y0095631D01*
X0447406Y0095524D01*
X0447651Y0095412D01*
X0447894Y0095293D01*
X0448133Y0095169D01*
X0448370Y0095039D01*
X0448603Y0094903D01*
X0448833Y0094761D01*
X0449059Y0094614D01*
X0449282Y0094461D01*
X0449501Y0094303D01*
X0449716Y0094140D01*
X0449926Y0093971D01*
X0450133Y0093797D01*
X0450335Y0093618D01*
X0450533Y0093435D01*
X0450726Y0093246D01*
X0450915Y0093053D01*
X0451098Y0092855D01*
X0451277Y0092653D01*
X0451451Y0092446D01*
X0451620Y0092236D01*
X0451783Y0092021D01*
X0451941Y0091802D01*
X0452094Y0091579D01*
X0452241Y0091353D01*
X0452383Y0091123D01*
X0452519Y0090890D01*
X0452649Y0090653D01*
X0452773Y0090414D01*
X0452892Y0090171D01*
X0453004Y0089926D01*
X0453111Y0089678D01*
X0453211Y0089427D01*
X0453305Y0089174D01*
X0453393Y0088918D01*
X0453474Y0088661D01*
X0453550Y0088402D01*
X0453618Y0088141D01*
X0453681Y0087878D01*
X0453737Y0087614D01*
X0453786Y0087349D01*
X0453829Y0087082D01*
X0453865Y0086815D01*
X0453895Y0086546D01*
X0453918Y0086277D01*
X0453935Y0086008D01*
X0453945Y0085738D01*
X0453948Y0085468D01*
X0453945Y0085198D01*
X0453935Y0084928D01*
X0453918Y0084659D01*
X0453895Y0084390D01*
X0453865Y0084121D01*
X0453829Y0083854D01*
X0453786Y0083587D01*
X0453737Y0083322D01*
X0453681Y0083058D01*
X0453618Y0082795D01*
X0453550Y0082534D01*
X0453474Y0082275D01*
X0453393Y0082018D01*
X0453305Y0081762D01*
X0453211Y0081509D01*
X0453111Y0081258D01*
X0453004Y0081010D01*
X0452892Y0080765D01*
X0452773Y0080522D01*
X0452649Y0080283D01*
X0452519Y0080046D01*
X0452383Y0079813D01*
X0452241Y0079583D01*
X0452094Y0079357D01*
X0451941Y0079134D01*
X0451783Y0078915D01*
X0451620Y0078700D01*
X0451451Y0078490D01*
X0451277Y0078283D01*
X0451098Y0078081D01*
X0450915Y0077883D01*
X0450726Y0077690D01*
X0450533Y0077501D01*
X0450335Y0077318D01*
X0450133Y0077139D01*
X0449926Y0076965D01*
X0449716Y0076796D01*
X0449501Y0076633D01*
X0449282Y0076475D01*
X0449059Y0076322D01*
X0448833Y0076175D01*
X0448603Y0076033D01*
X0448370Y0075897D01*
X0448133Y0075767D01*
X0447894Y0075643D01*
X0447651Y0075524D01*
X0447406Y0075412D01*
X0447158Y0075305D01*
X0446907Y0075205D01*
X0446654Y0075111D01*
X0446398Y0075023D01*
X0446141Y0074942D01*
X0445882Y0074866D01*
X0445621Y0074798D01*
X0445358Y0074735D01*
X0445094Y0074679D01*
X0444829Y0074630D01*
X0444562Y0074587D01*
X0444295Y0074551D01*
X0444026Y0074521D01*
X0443757Y0074498D01*
X0443488Y0074481D01*
X0443218Y0074471D01*
X0442948Y0074468D01*
X0442678Y0074471D01*
X0442408Y0074481D01*
X0442139Y0074498D01*
X0441870Y0074521D01*
X0441601Y0074551D01*
X0441334Y0074587D01*
X0441067Y0074630D01*
X0440802Y0074679D01*
X0440538Y0074735D01*
X0440275Y0074798D01*
X0440014Y0074866D01*
X0439755Y0074942D01*
X0439498Y0075023D01*
X0439242Y0075111D01*
X0438989Y0075205D01*
X0438738Y0075305D01*
X0438490Y0075412D01*
X0438245Y0075524D01*
X0438002Y0075643D01*
X0437763Y0075767D01*
X0437526Y0075897D01*
X0437293Y0076033D01*
X0437063Y0076175D01*
X0436837Y0076322D01*
X0436614Y0076475D01*
X0436395Y0076633D01*
X0436180Y0076796D01*
X0435970Y0076965D01*
X0435763Y0077139D01*
X0435561Y0077318D01*
X0435363Y0077501D01*
X0435170Y0077690D01*
X0434981Y0077883D01*
X0434798Y0078081D01*
X0434619Y0078283D01*
X0434445Y0078490D01*
X0434276Y0078700D01*
X0434113Y0078915D01*
X0433955Y0079134D01*
X0433802Y0079357D01*
X0433655Y0079583D01*
X0433513Y0079813D01*
X0433377Y0080046D01*
X0433247Y0080283D01*
X0433123Y0080522D01*
X0433004Y0080765D01*
X0432892Y0081010D01*
X0432785Y0081258D01*
X0432685Y0081509D01*
X0432591Y0081762D01*
X0432503Y0082018D01*
X0432422Y0082275D01*
X0432346Y0082534D01*
X0432278Y0082795D01*
X0432215Y0083058D01*
X0432159Y0083322D01*
X0432110Y0083587D01*
X0432067Y0083854D01*
X0432031Y0084121D01*
X0432001Y0084390D01*
X0431978Y0084659D01*
X0431961Y0084928D01*
X0431951Y0085198D01*
X0431948Y0085468D01*
X0419354Y0090507D02*
X0419354Y0139507D01*
X0415854Y0139507D01*
X0415854Y0145507D01*
X0419354Y0145507D01*
X0419354Y0153007D01*
X0378354Y0153007D01*
X0378354Y0145507D01*
X0381854Y0145507D01*
X0381854Y0139507D01*
X0378354Y0139507D01*
X0378354Y0090507D01*
X0419354Y0090507D01*
X0466869Y0093968D02*
X0466869Y0076968D01*
X0466871Y0076908D01*
X0466876Y0076847D01*
X0466885Y0076788D01*
X0466898Y0076729D01*
X0466914Y0076670D01*
X0466934Y0076613D01*
X0466957Y0076558D01*
X0466984Y0076503D01*
X0467013Y0076451D01*
X0467046Y0076400D01*
X0467082Y0076351D01*
X0467120Y0076305D01*
X0467162Y0076261D01*
X0467206Y0076219D01*
X0467252Y0076181D01*
X0467301Y0076145D01*
X0467352Y0076112D01*
X0467404Y0076083D01*
X0467459Y0076056D01*
X0467514Y0076033D01*
X0467571Y0076013D01*
X0467630Y0075997D01*
X0467689Y0075984D01*
X0467748Y0075975D01*
X0467809Y0075970D01*
X0467869Y0075968D01*
X0477869Y0075968D01*
X0477929Y0075970D01*
X0477990Y0075975D01*
X0478049Y0075984D01*
X0478108Y0075997D01*
X0478167Y0076013D01*
X0478224Y0076033D01*
X0478279Y0076056D01*
X0478334Y0076083D01*
X0478386Y0076112D01*
X0478437Y0076145D01*
X0478486Y0076181D01*
X0478532Y0076219D01*
X0478576Y0076261D01*
X0478618Y0076305D01*
X0478656Y0076351D01*
X0478692Y0076400D01*
X0478725Y0076451D01*
X0478754Y0076503D01*
X0478781Y0076558D01*
X0478804Y0076613D01*
X0478824Y0076670D01*
X0478840Y0076729D01*
X0478853Y0076788D01*
X0478862Y0076847D01*
X0478867Y0076908D01*
X0478869Y0076968D01*
X0478869Y0093968D01*
X0478867Y0094028D01*
X0478862Y0094089D01*
X0478853Y0094148D01*
X0478840Y0094207D01*
X0478824Y0094266D01*
X0478804Y0094323D01*
X0478781Y0094378D01*
X0478754Y0094433D01*
X0478725Y0094485D01*
X0478692Y0094536D01*
X0478656Y0094585D01*
X0478618Y0094631D01*
X0478576Y0094675D01*
X0478532Y0094717D01*
X0478486Y0094755D01*
X0478437Y0094791D01*
X0478386Y0094824D01*
X0478334Y0094853D01*
X0478279Y0094880D01*
X0478224Y0094903D01*
X0478167Y0094923D01*
X0478108Y0094939D01*
X0478049Y0094952D01*
X0477990Y0094961D01*
X0477929Y0094966D01*
X0477869Y0094968D01*
X0467869Y0094968D01*
X0467809Y0094966D01*
X0467748Y0094961D01*
X0467689Y0094952D01*
X0467630Y0094939D01*
X0467571Y0094923D01*
X0467514Y0094903D01*
X0467459Y0094880D01*
X0467404Y0094853D01*
X0467352Y0094824D01*
X0467301Y0094791D01*
X0467252Y0094755D01*
X0467206Y0094717D01*
X0467162Y0094675D01*
X0467120Y0094631D01*
X0467082Y0094585D01*
X0467046Y0094536D01*
X0467013Y0094485D01*
X0466984Y0094433D01*
X0466957Y0094378D01*
X0466934Y0094323D01*
X0466914Y0094266D01*
X0466898Y0094207D01*
X0466885Y0094148D01*
X0466876Y0094089D01*
X0466871Y0094028D01*
X0466869Y0093968D01*
X0472869Y0086968D02*
X0472869Y0086468D01*
X0472869Y0084468D02*
X0472869Y0083968D01*
X0508200Y0108200D02*
X0508200Y0109700D01*
X0508700Y0110200D01*
X0508700Y0124200D01*
X0508200Y0124700D01*
X0508200Y0126200D01*
X0508202Y0126260D01*
X0508207Y0126321D01*
X0508216Y0126380D01*
X0508229Y0126439D01*
X0508245Y0126498D01*
X0508265Y0126555D01*
X0508288Y0126610D01*
X0508315Y0126665D01*
X0508344Y0126717D01*
X0508377Y0126768D01*
X0508413Y0126817D01*
X0508451Y0126863D01*
X0508493Y0126907D01*
X0508537Y0126949D01*
X0508583Y0126987D01*
X0508632Y0127023D01*
X0508683Y0127056D01*
X0508735Y0127085D01*
X0508790Y0127112D01*
X0508845Y0127135D01*
X0508902Y0127155D01*
X0508961Y0127171D01*
X0509020Y0127184D01*
X0509079Y0127193D01*
X0509140Y0127198D01*
X0509200Y0127200D01*
X0515200Y0127200D01*
X0515260Y0127198D01*
X0515321Y0127193D01*
X0515380Y0127184D01*
X0515439Y0127171D01*
X0515498Y0127155D01*
X0515555Y0127135D01*
X0515610Y0127112D01*
X0515665Y0127085D01*
X0515717Y0127056D01*
X0515768Y0127023D01*
X0515817Y0126987D01*
X0515863Y0126949D01*
X0515907Y0126907D01*
X0515949Y0126863D01*
X0515987Y0126817D01*
X0516023Y0126768D01*
X0516056Y0126717D01*
X0516085Y0126665D01*
X0516112Y0126610D01*
X0516135Y0126555D01*
X0516155Y0126498D01*
X0516171Y0126439D01*
X0516184Y0126380D01*
X0516193Y0126321D01*
X0516198Y0126260D01*
X0516200Y0126200D01*
X0516200Y0124700D01*
X0515700Y0124200D01*
X0515700Y0110200D01*
X0516200Y0109700D01*
X0516200Y0108200D01*
X0516198Y0108140D01*
X0516193Y0108079D01*
X0516184Y0108020D01*
X0516171Y0107961D01*
X0516155Y0107902D01*
X0516135Y0107845D01*
X0516112Y0107790D01*
X0516085Y0107735D01*
X0516056Y0107683D01*
X0516023Y0107632D01*
X0515987Y0107583D01*
X0515949Y0107537D01*
X0515907Y0107493D01*
X0515863Y0107451D01*
X0515817Y0107413D01*
X0515768Y0107377D01*
X0515717Y0107344D01*
X0515665Y0107315D01*
X0515610Y0107288D01*
X0515555Y0107265D01*
X0515498Y0107245D01*
X0515439Y0107229D01*
X0515380Y0107216D01*
X0515321Y0107207D01*
X0515260Y0107202D01*
X0515200Y0107200D01*
X0509200Y0107200D01*
X0509140Y0107202D01*
X0509079Y0107207D01*
X0509020Y0107216D01*
X0508961Y0107229D01*
X0508902Y0107245D01*
X0508845Y0107265D01*
X0508790Y0107288D01*
X0508735Y0107315D01*
X0508683Y0107344D01*
X0508632Y0107377D01*
X0508583Y0107413D01*
X0508537Y0107451D01*
X0508493Y0107493D01*
X0508451Y0107537D01*
X0508413Y0107583D01*
X0508377Y0107632D01*
X0508344Y0107683D01*
X0508315Y0107735D01*
X0508288Y0107790D01*
X0508265Y0107845D01*
X0508245Y0107902D01*
X0508229Y0107961D01*
X0508216Y0108020D01*
X0508207Y0108079D01*
X0508202Y0108140D01*
X0508200Y0108200D01*
X0523200Y0108200D02*
X0523200Y0109700D01*
X0523700Y0110200D01*
X0523700Y0124200D01*
X0523200Y0124700D01*
X0523200Y0126200D01*
X0523202Y0126260D01*
X0523207Y0126321D01*
X0523216Y0126380D01*
X0523229Y0126439D01*
X0523245Y0126498D01*
X0523265Y0126555D01*
X0523288Y0126610D01*
X0523315Y0126665D01*
X0523344Y0126717D01*
X0523377Y0126768D01*
X0523413Y0126817D01*
X0523451Y0126863D01*
X0523493Y0126907D01*
X0523537Y0126949D01*
X0523583Y0126987D01*
X0523632Y0127023D01*
X0523683Y0127056D01*
X0523735Y0127085D01*
X0523790Y0127112D01*
X0523845Y0127135D01*
X0523902Y0127155D01*
X0523961Y0127171D01*
X0524020Y0127184D01*
X0524079Y0127193D01*
X0524140Y0127198D01*
X0524200Y0127200D01*
X0530200Y0127200D01*
X0530260Y0127198D01*
X0530321Y0127193D01*
X0530380Y0127184D01*
X0530439Y0127171D01*
X0530498Y0127155D01*
X0530555Y0127135D01*
X0530610Y0127112D01*
X0530665Y0127085D01*
X0530717Y0127056D01*
X0530768Y0127023D01*
X0530817Y0126987D01*
X0530863Y0126949D01*
X0530907Y0126907D01*
X0530949Y0126863D01*
X0530987Y0126817D01*
X0531023Y0126768D01*
X0531056Y0126717D01*
X0531085Y0126665D01*
X0531112Y0126610D01*
X0531135Y0126555D01*
X0531155Y0126498D01*
X0531171Y0126439D01*
X0531184Y0126380D01*
X0531193Y0126321D01*
X0531198Y0126260D01*
X0531200Y0126200D01*
X0531200Y0124700D01*
X0530700Y0124200D01*
X0530700Y0110200D01*
X0531200Y0109700D01*
X0531200Y0108200D01*
X0531198Y0108140D01*
X0531193Y0108079D01*
X0531184Y0108020D01*
X0531171Y0107961D01*
X0531155Y0107902D01*
X0531135Y0107845D01*
X0531112Y0107790D01*
X0531085Y0107735D01*
X0531056Y0107683D01*
X0531023Y0107632D01*
X0530987Y0107583D01*
X0530949Y0107537D01*
X0530907Y0107493D01*
X0530863Y0107451D01*
X0530817Y0107413D01*
X0530768Y0107377D01*
X0530717Y0107344D01*
X0530665Y0107315D01*
X0530610Y0107288D01*
X0530555Y0107265D01*
X0530498Y0107245D01*
X0530439Y0107229D01*
X0530380Y0107216D01*
X0530321Y0107207D01*
X0530260Y0107202D01*
X0530200Y0107200D01*
X0524200Y0107200D01*
X0524140Y0107202D01*
X0524079Y0107207D01*
X0524020Y0107216D01*
X0523961Y0107229D01*
X0523902Y0107245D01*
X0523845Y0107265D01*
X0523790Y0107288D01*
X0523735Y0107315D01*
X0523683Y0107344D01*
X0523632Y0107377D01*
X0523583Y0107413D01*
X0523537Y0107451D01*
X0523493Y0107493D01*
X0523451Y0107537D01*
X0523413Y0107583D01*
X0523377Y0107632D01*
X0523344Y0107683D01*
X0523315Y0107735D01*
X0523288Y0107790D01*
X0523265Y0107845D01*
X0523245Y0107902D01*
X0523229Y0107961D01*
X0523216Y0108020D01*
X0523207Y0108079D01*
X0523202Y0108140D01*
X0523200Y0108200D01*
X0544976Y0086165D02*
X0544976Y0066665D01*
X0546976Y0064665D01*
X0592476Y0064665D01*
X0592476Y0186590D01*
X0606869Y0186665D02*
X0547476Y0186665D01*
X0544976Y0184165D01*
X0544976Y0165165D01*
X0546976Y0163165D01*
X0592476Y0163165D01*
X0594976Y0163015D02*
X0603294Y0163015D01*
X0603294Y0088314D01*
X0603294Y0087814D01*
X0606869Y0087814D01*
X0603294Y0088314D02*
X0594976Y0088314D01*
X0594878Y0088316D01*
X0594780Y0088322D01*
X0594682Y0088331D01*
X0594585Y0088345D01*
X0594488Y0088362D01*
X0594392Y0088383D01*
X0594297Y0088408D01*
X0594203Y0088436D01*
X0594111Y0088469D01*
X0594019Y0088504D01*
X0593929Y0088544D01*
X0593841Y0088586D01*
X0593754Y0088633D01*
X0593670Y0088682D01*
X0593587Y0088735D01*
X0593507Y0088791D01*
X0593428Y0088851D01*
X0593352Y0088913D01*
X0593279Y0088978D01*
X0593208Y0089046D01*
X0593140Y0089117D01*
X0593075Y0089190D01*
X0593013Y0089266D01*
X0592953Y0089345D01*
X0592897Y0089425D01*
X0592844Y0089508D01*
X0592795Y0089592D01*
X0592748Y0089679D01*
X0592706Y0089767D01*
X0592666Y0089857D01*
X0592631Y0089949D01*
X0592598Y0090041D01*
X0592570Y0090135D01*
X0592545Y0090230D01*
X0592524Y0090326D01*
X0592507Y0090423D01*
X0592493Y0090520D01*
X0592484Y0090618D01*
X0592478Y0090716D01*
X0592476Y0090814D01*
X0592476Y0088165D02*
X0546976Y0088165D01*
X0544976Y0086165D01*
X0555976Y0076452D02*
X0555978Y0076613D01*
X0555984Y0076773D01*
X0555994Y0076934D01*
X0556008Y0077094D01*
X0556026Y0077254D01*
X0556047Y0077413D01*
X0556073Y0077572D01*
X0556103Y0077730D01*
X0556136Y0077887D01*
X0556174Y0078044D01*
X0556215Y0078199D01*
X0556260Y0078353D01*
X0556309Y0078506D01*
X0556362Y0078658D01*
X0556418Y0078809D01*
X0556479Y0078958D01*
X0556542Y0079106D01*
X0556610Y0079252D01*
X0556681Y0079396D01*
X0556755Y0079538D01*
X0556833Y0079679D01*
X0556915Y0079817D01*
X0557000Y0079954D01*
X0557088Y0080088D01*
X0557180Y0080220D01*
X0557275Y0080350D01*
X0557373Y0080478D01*
X0557474Y0080603D01*
X0557578Y0080725D01*
X0557685Y0080845D01*
X0557795Y0080962D01*
X0557908Y0081077D01*
X0558024Y0081188D01*
X0558143Y0081297D01*
X0558264Y0081402D01*
X0558388Y0081505D01*
X0558514Y0081605D01*
X0558642Y0081701D01*
X0558773Y0081794D01*
X0558907Y0081884D01*
X0559042Y0081971D01*
X0559180Y0082054D01*
X0559319Y0082134D01*
X0559461Y0082210D01*
X0559604Y0082283D01*
X0559749Y0082352D01*
X0559896Y0082418D01*
X0560044Y0082480D01*
X0560194Y0082538D01*
X0560345Y0082593D01*
X0560498Y0082644D01*
X0560652Y0082691D01*
X0560807Y0082734D01*
X0560963Y0082773D01*
X0561119Y0082809D01*
X0561277Y0082840D01*
X0561435Y0082868D01*
X0561594Y0082892D01*
X0561754Y0082912D01*
X0561914Y0082928D01*
X0562074Y0082940D01*
X0562235Y0082948D01*
X0562396Y0082952D01*
X0562556Y0082952D01*
X0562717Y0082948D01*
X0562878Y0082940D01*
X0563038Y0082928D01*
X0563198Y0082912D01*
X0563358Y0082892D01*
X0563517Y0082868D01*
X0563675Y0082840D01*
X0563833Y0082809D01*
X0563989Y0082773D01*
X0564145Y0082734D01*
X0564300Y0082691D01*
X0564454Y0082644D01*
X0564607Y0082593D01*
X0564758Y0082538D01*
X0564908Y0082480D01*
X0565056Y0082418D01*
X0565203Y0082352D01*
X0565348Y0082283D01*
X0565491Y0082210D01*
X0565633Y0082134D01*
X0565772Y0082054D01*
X0565910Y0081971D01*
X0566045Y0081884D01*
X0566179Y0081794D01*
X0566310Y0081701D01*
X0566438Y0081605D01*
X0566564Y0081505D01*
X0566688Y0081402D01*
X0566809Y0081297D01*
X0566928Y0081188D01*
X0567044Y0081077D01*
X0567157Y0080962D01*
X0567267Y0080845D01*
X0567374Y0080725D01*
X0567478Y0080603D01*
X0567579Y0080478D01*
X0567677Y0080350D01*
X0567772Y0080220D01*
X0567864Y0080088D01*
X0567952Y0079954D01*
X0568037Y0079817D01*
X0568119Y0079679D01*
X0568197Y0079538D01*
X0568271Y0079396D01*
X0568342Y0079252D01*
X0568410Y0079106D01*
X0568473Y0078958D01*
X0568534Y0078809D01*
X0568590Y0078658D01*
X0568643Y0078506D01*
X0568692Y0078353D01*
X0568737Y0078199D01*
X0568778Y0078044D01*
X0568816Y0077887D01*
X0568849Y0077730D01*
X0568879Y0077572D01*
X0568905Y0077413D01*
X0568926Y0077254D01*
X0568944Y0077094D01*
X0568958Y0076934D01*
X0568968Y0076773D01*
X0568974Y0076613D01*
X0568976Y0076452D01*
X0568974Y0076291D01*
X0568968Y0076131D01*
X0568958Y0075970D01*
X0568944Y0075810D01*
X0568926Y0075650D01*
X0568905Y0075491D01*
X0568879Y0075332D01*
X0568849Y0075174D01*
X0568816Y0075017D01*
X0568778Y0074860D01*
X0568737Y0074705D01*
X0568692Y0074551D01*
X0568643Y0074398D01*
X0568590Y0074246D01*
X0568534Y0074095D01*
X0568473Y0073946D01*
X0568410Y0073798D01*
X0568342Y0073652D01*
X0568271Y0073508D01*
X0568197Y0073366D01*
X0568119Y0073225D01*
X0568037Y0073087D01*
X0567952Y0072950D01*
X0567864Y0072816D01*
X0567772Y0072684D01*
X0567677Y0072554D01*
X0567579Y0072426D01*
X0567478Y0072301D01*
X0567374Y0072179D01*
X0567267Y0072059D01*
X0567157Y0071942D01*
X0567044Y0071827D01*
X0566928Y0071716D01*
X0566809Y0071607D01*
X0566688Y0071502D01*
X0566564Y0071399D01*
X0566438Y0071299D01*
X0566310Y0071203D01*
X0566179Y0071110D01*
X0566045Y0071020D01*
X0565910Y0070933D01*
X0565772Y0070850D01*
X0565633Y0070770D01*
X0565491Y0070694D01*
X0565348Y0070621D01*
X0565203Y0070552D01*
X0565056Y0070486D01*
X0564908Y0070424D01*
X0564758Y0070366D01*
X0564607Y0070311D01*
X0564454Y0070260D01*
X0564300Y0070213D01*
X0564145Y0070170D01*
X0563989Y0070131D01*
X0563833Y0070095D01*
X0563675Y0070064D01*
X0563517Y0070036D01*
X0563358Y0070012D01*
X0563198Y0069992D01*
X0563038Y0069976D01*
X0562878Y0069964D01*
X0562717Y0069956D01*
X0562556Y0069952D01*
X0562396Y0069952D01*
X0562235Y0069956D01*
X0562074Y0069964D01*
X0561914Y0069976D01*
X0561754Y0069992D01*
X0561594Y0070012D01*
X0561435Y0070036D01*
X0561277Y0070064D01*
X0561119Y0070095D01*
X0560963Y0070131D01*
X0560807Y0070170D01*
X0560652Y0070213D01*
X0560498Y0070260D01*
X0560345Y0070311D01*
X0560194Y0070366D01*
X0560044Y0070424D01*
X0559896Y0070486D01*
X0559749Y0070552D01*
X0559604Y0070621D01*
X0559461Y0070694D01*
X0559319Y0070770D01*
X0559180Y0070850D01*
X0559042Y0070933D01*
X0558907Y0071020D01*
X0558773Y0071110D01*
X0558642Y0071203D01*
X0558514Y0071299D01*
X0558388Y0071399D01*
X0558264Y0071502D01*
X0558143Y0071607D01*
X0558024Y0071716D01*
X0557908Y0071827D01*
X0557795Y0071942D01*
X0557685Y0072059D01*
X0557578Y0072179D01*
X0557474Y0072301D01*
X0557373Y0072426D01*
X0557275Y0072554D01*
X0557180Y0072684D01*
X0557088Y0072816D01*
X0557000Y0072950D01*
X0556915Y0073087D01*
X0556833Y0073225D01*
X0556755Y0073366D01*
X0556681Y0073508D01*
X0556610Y0073652D01*
X0556542Y0073798D01*
X0556479Y0073946D01*
X0556418Y0074095D01*
X0556362Y0074246D01*
X0556309Y0074398D01*
X0556260Y0074551D01*
X0556215Y0074705D01*
X0556174Y0074860D01*
X0556136Y0075017D01*
X0556103Y0075174D01*
X0556073Y0075332D01*
X0556047Y0075491D01*
X0556026Y0075650D01*
X0556008Y0075810D01*
X0555994Y0075970D01*
X0555984Y0076131D01*
X0555978Y0076291D01*
X0555976Y0076452D01*
X0592476Y0064665D02*
X0606869Y0064665D01*
X0606940Y0065113D02*
X0606940Y0186594D01*
X0555976Y0174877D02*
X0555978Y0175038D01*
X0555984Y0175198D01*
X0555994Y0175359D01*
X0556008Y0175519D01*
X0556026Y0175679D01*
X0556047Y0175838D01*
X0556073Y0175997D01*
X0556103Y0176155D01*
X0556136Y0176312D01*
X0556174Y0176469D01*
X0556215Y0176624D01*
X0556260Y0176778D01*
X0556309Y0176931D01*
X0556362Y0177083D01*
X0556418Y0177234D01*
X0556479Y0177383D01*
X0556542Y0177531D01*
X0556610Y0177677D01*
X0556681Y0177821D01*
X0556755Y0177963D01*
X0556833Y0178104D01*
X0556915Y0178242D01*
X0557000Y0178379D01*
X0557088Y0178513D01*
X0557180Y0178645D01*
X0557275Y0178775D01*
X0557373Y0178903D01*
X0557474Y0179028D01*
X0557578Y0179150D01*
X0557685Y0179270D01*
X0557795Y0179387D01*
X0557908Y0179502D01*
X0558024Y0179613D01*
X0558143Y0179722D01*
X0558264Y0179827D01*
X0558388Y0179930D01*
X0558514Y0180030D01*
X0558642Y0180126D01*
X0558773Y0180219D01*
X0558907Y0180309D01*
X0559042Y0180396D01*
X0559180Y0180479D01*
X0559319Y0180559D01*
X0559461Y0180635D01*
X0559604Y0180708D01*
X0559749Y0180777D01*
X0559896Y0180843D01*
X0560044Y0180905D01*
X0560194Y0180963D01*
X0560345Y0181018D01*
X0560498Y0181069D01*
X0560652Y0181116D01*
X0560807Y0181159D01*
X0560963Y0181198D01*
X0561119Y0181234D01*
X0561277Y0181265D01*
X0561435Y0181293D01*
X0561594Y0181317D01*
X0561754Y0181337D01*
X0561914Y0181353D01*
X0562074Y0181365D01*
X0562235Y0181373D01*
X0562396Y0181377D01*
X0562556Y0181377D01*
X0562717Y0181373D01*
X0562878Y0181365D01*
X0563038Y0181353D01*
X0563198Y0181337D01*
X0563358Y0181317D01*
X0563517Y0181293D01*
X0563675Y0181265D01*
X0563833Y0181234D01*
X0563989Y0181198D01*
X0564145Y0181159D01*
X0564300Y0181116D01*
X0564454Y0181069D01*
X0564607Y0181018D01*
X0564758Y0180963D01*
X0564908Y0180905D01*
X0565056Y0180843D01*
X0565203Y0180777D01*
X0565348Y0180708D01*
X0565491Y0180635D01*
X0565633Y0180559D01*
X0565772Y0180479D01*
X0565910Y0180396D01*
X0566045Y0180309D01*
X0566179Y0180219D01*
X0566310Y0180126D01*
X0566438Y0180030D01*
X0566564Y0179930D01*
X0566688Y0179827D01*
X0566809Y0179722D01*
X0566928Y0179613D01*
X0567044Y0179502D01*
X0567157Y0179387D01*
X0567267Y0179270D01*
X0567374Y0179150D01*
X0567478Y0179028D01*
X0567579Y0178903D01*
X0567677Y0178775D01*
X0567772Y0178645D01*
X0567864Y0178513D01*
X0567952Y0178379D01*
X0568037Y0178242D01*
X0568119Y0178104D01*
X0568197Y0177963D01*
X0568271Y0177821D01*
X0568342Y0177677D01*
X0568410Y0177531D01*
X0568473Y0177383D01*
X0568534Y0177234D01*
X0568590Y0177083D01*
X0568643Y0176931D01*
X0568692Y0176778D01*
X0568737Y0176624D01*
X0568778Y0176469D01*
X0568816Y0176312D01*
X0568849Y0176155D01*
X0568879Y0175997D01*
X0568905Y0175838D01*
X0568926Y0175679D01*
X0568944Y0175519D01*
X0568958Y0175359D01*
X0568968Y0175198D01*
X0568974Y0175038D01*
X0568976Y0174877D01*
X0568974Y0174716D01*
X0568968Y0174556D01*
X0568958Y0174395D01*
X0568944Y0174235D01*
X0568926Y0174075D01*
X0568905Y0173916D01*
X0568879Y0173757D01*
X0568849Y0173599D01*
X0568816Y0173442D01*
X0568778Y0173285D01*
X0568737Y0173130D01*
X0568692Y0172976D01*
X0568643Y0172823D01*
X0568590Y0172671D01*
X0568534Y0172520D01*
X0568473Y0172371D01*
X0568410Y0172223D01*
X0568342Y0172077D01*
X0568271Y0171933D01*
X0568197Y0171791D01*
X0568119Y0171650D01*
X0568037Y0171512D01*
X0567952Y0171375D01*
X0567864Y0171241D01*
X0567772Y0171109D01*
X0567677Y0170979D01*
X0567579Y0170851D01*
X0567478Y0170726D01*
X0567374Y0170604D01*
X0567267Y0170484D01*
X0567157Y0170367D01*
X0567044Y0170252D01*
X0566928Y0170141D01*
X0566809Y0170032D01*
X0566688Y0169927D01*
X0566564Y0169824D01*
X0566438Y0169724D01*
X0566310Y0169628D01*
X0566179Y0169535D01*
X0566045Y0169445D01*
X0565910Y0169358D01*
X0565772Y0169275D01*
X0565633Y0169195D01*
X0565491Y0169119D01*
X0565348Y0169046D01*
X0565203Y0168977D01*
X0565056Y0168911D01*
X0564908Y0168849D01*
X0564758Y0168791D01*
X0564607Y0168736D01*
X0564454Y0168685D01*
X0564300Y0168638D01*
X0564145Y0168595D01*
X0563989Y0168556D01*
X0563833Y0168520D01*
X0563675Y0168489D01*
X0563517Y0168461D01*
X0563358Y0168437D01*
X0563198Y0168417D01*
X0563038Y0168401D01*
X0562878Y0168389D01*
X0562717Y0168381D01*
X0562556Y0168377D01*
X0562396Y0168377D01*
X0562235Y0168381D01*
X0562074Y0168389D01*
X0561914Y0168401D01*
X0561754Y0168417D01*
X0561594Y0168437D01*
X0561435Y0168461D01*
X0561277Y0168489D01*
X0561119Y0168520D01*
X0560963Y0168556D01*
X0560807Y0168595D01*
X0560652Y0168638D01*
X0560498Y0168685D01*
X0560345Y0168736D01*
X0560194Y0168791D01*
X0560044Y0168849D01*
X0559896Y0168911D01*
X0559749Y0168977D01*
X0559604Y0169046D01*
X0559461Y0169119D01*
X0559319Y0169195D01*
X0559180Y0169275D01*
X0559042Y0169358D01*
X0558907Y0169445D01*
X0558773Y0169535D01*
X0558642Y0169628D01*
X0558514Y0169724D01*
X0558388Y0169824D01*
X0558264Y0169927D01*
X0558143Y0170032D01*
X0558024Y0170141D01*
X0557908Y0170252D01*
X0557795Y0170367D01*
X0557685Y0170484D01*
X0557578Y0170604D01*
X0557474Y0170726D01*
X0557373Y0170851D01*
X0557275Y0170979D01*
X0557180Y0171109D01*
X0557088Y0171241D01*
X0557000Y0171375D01*
X0556915Y0171512D01*
X0556833Y0171650D01*
X0556755Y0171791D01*
X0556681Y0171933D01*
X0556610Y0172077D01*
X0556542Y0172223D01*
X0556479Y0172371D01*
X0556418Y0172520D01*
X0556362Y0172671D01*
X0556309Y0172823D01*
X0556260Y0172976D01*
X0556215Y0173130D01*
X0556174Y0173285D01*
X0556136Y0173442D01*
X0556103Y0173599D01*
X0556073Y0173757D01*
X0556047Y0173916D01*
X0556026Y0174075D01*
X0556008Y0174235D01*
X0555994Y0174395D01*
X0555984Y0174556D01*
X0555978Y0174716D01*
X0555976Y0174877D01*
X0528200Y0180739D02*
X0528200Y0163739D01*
X0528198Y0163679D01*
X0528193Y0163618D01*
X0528184Y0163559D01*
X0528171Y0163500D01*
X0528155Y0163441D01*
X0528135Y0163384D01*
X0528112Y0163329D01*
X0528085Y0163274D01*
X0528056Y0163222D01*
X0528023Y0163171D01*
X0527987Y0163122D01*
X0527949Y0163076D01*
X0527907Y0163032D01*
X0527863Y0162990D01*
X0527817Y0162952D01*
X0527768Y0162916D01*
X0527717Y0162883D01*
X0527665Y0162854D01*
X0527610Y0162827D01*
X0527555Y0162804D01*
X0527498Y0162784D01*
X0527439Y0162768D01*
X0527380Y0162755D01*
X0527321Y0162746D01*
X0527260Y0162741D01*
X0527200Y0162739D01*
X0517200Y0162739D01*
X0517140Y0162741D01*
X0517079Y0162746D01*
X0517020Y0162755D01*
X0516961Y0162768D01*
X0516902Y0162784D01*
X0516845Y0162804D01*
X0516790Y0162827D01*
X0516735Y0162854D01*
X0516683Y0162883D01*
X0516632Y0162916D01*
X0516583Y0162952D01*
X0516537Y0162990D01*
X0516493Y0163032D01*
X0516451Y0163076D01*
X0516413Y0163122D01*
X0516377Y0163171D01*
X0516344Y0163222D01*
X0516315Y0163274D01*
X0516288Y0163329D01*
X0516265Y0163384D01*
X0516245Y0163441D01*
X0516229Y0163500D01*
X0516216Y0163559D01*
X0516207Y0163618D01*
X0516202Y0163679D01*
X0516200Y0163739D01*
X0516200Y0180739D01*
X0516202Y0180799D01*
X0516207Y0180860D01*
X0516216Y0180919D01*
X0516229Y0180978D01*
X0516245Y0181037D01*
X0516265Y0181094D01*
X0516288Y0181149D01*
X0516315Y0181204D01*
X0516344Y0181256D01*
X0516377Y0181307D01*
X0516413Y0181356D01*
X0516451Y0181402D01*
X0516493Y0181446D01*
X0516537Y0181488D01*
X0516583Y0181526D01*
X0516632Y0181562D01*
X0516683Y0181595D01*
X0516735Y0181624D01*
X0516790Y0181651D01*
X0516845Y0181674D01*
X0516902Y0181694D01*
X0516961Y0181710D01*
X0517020Y0181723D01*
X0517079Y0181732D01*
X0517140Y0181737D01*
X0517200Y0181739D01*
X0527200Y0181739D01*
X0527260Y0181737D01*
X0527321Y0181732D01*
X0527380Y0181723D01*
X0527439Y0181710D01*
X0527498Y0181694D01*
X0527555Y0181674D01*
X0527610Y0181651D01*
X0527665Y0181624D01*
X0527717Y0181595D01*
X0527768Y0181562D01*
X0527817Y0181526D01*
X0527863Y0181488D01*
X0527907Y0181446D01*
X0527949Y0181402D01*
X0527987Y0181356D01*
X0528023Y0181307D01*
X0528056Y0181256D01*
X0528085Y0181204D01*
X0528112Y0181149D01*
X0528135Y0181094D01*
X0528155Y0181037D01*
X0528171Y0180978D01*
X0528184Y0180919D01*
X0528193Y0180860D01*
X0528198Y0180799D01*
X0528200Y0180739D01*
X0522200Y0173739D02*
X0522200Y0173239D01*
X0522200Y0171239D02*
X0522200Y0170739D01*
X0501924Y0162794D02*
X0500424Y0161294D01*
X0493424Y0161294D01*
X0491924Y0162794D01*
X0490424Y0161294D01*
X0483424Y0161294D01*
X0481924Y0162794D01*
X0480424Y0161294D01*
X0473424Y0161294D01*
X0471924Y0162794D01*
X0470424Y0161294D01*
X0463424Y0161294D01*
X0461924Y0162794D01*
X0461924Y0179794D01*
X0463424Y0181294D01*
X0470424Y0181294D01*
X0471924Y0179794D01*
X0473424Y0181294D01*
X0480424Y0181294D01*
X0481924Y0179794D01*
X0483424Y0181294D01*
X0490424Y0181294D01*
X0491924Y0179794D01*
X0493424Y0181294D01*
X0500424Y0181294D01*
X0501924Y0179794D01*
X0501924Y0162794D01*
X0513200Y0151200D02*
X0514700Y0151200D01*
X0515200Y0150700D01*
X0529200Y0150700D01*
X0529700Y0151200D01*
X0531200Y0151200D01*
X0531260Y0151198D01*
X0531321Y0151193D01*
X0531380Y0151184D01*
X0531439Y0151171D01*
X0531498Y0151155D01*
X0531555Y0151135D01*
X0531610Y0151112D01*
X0531665Y0151085D01*
X0531717Y0151056D01*
X0531768Y0151023D01*
X0531817Y0150987D01*
X0531863Y0150949D01*
X0531907Y0150907D01*
X0531949Y0150863D01*
X0531987Y0150817D01*
X0532023Y0150768D01*
X0532056Y0150717D01*
X0532085Y0150665D01*
X0532112Y0150610D01*
X0532135Y0150555D01*
X0532155Y0150498D01*
X0532171Y0150439D01*
X0532184Y0150380D01*
X0532193Y0150321D01*
X0532198Y0150260D01*
X0532200Y0150200D01*
X0532200Y0144200D01*
X0532198Y0144140D01*
X0532193Y0144079D01*
X0532184Y0144020D01*
X0532171Y0143961D01*
X0532155Y0143902D01*
X0532135Y0143845D01*
X0532112Y0143790D01*
X0532085Y0143735D01*
X0532056Y0143683D01*
X0532023Y0143632D01*
X0531987Y0143583D01*
X0531949Y0143537D01*
X0531907Y0143493D01*
X0531863Y0143451D01*
X0531817Y0143413D01*
X0531768Y0143377D01*
X0531717Y0143344D01*
X0531665Y0143315D01*
X0531610Y0143288D01*
X0531555Y0143265D01*
X0531498Y0143245D01*
X0531439Y0143229D01*
X0531380Y0143216D01*
X0531321Y0143207D01*
X0531260Y0143202D01*
X0531200Y0143200D01*
X0529700Y0143200D01*
X0529200Y0143700D01*
X0515200Y0143700D01*
X0514700Y0143200D01*
X0513200Y0143200D01*
X0513140Y0143202D01*
X0513079Y0143207D01*
X0513020Y0143216D01*
X0512961Y0143229D01*
X0512902Y0143245D01*
X0512845Y0143265D01*
X0512790Y0143288D01*
X0512735Y0143315D01*
X0512683Y0143344D01*
X0512632Y0143377D01*
X0512583Y0143413D01*
X0512537Y0143451D01*
X0512493Y0143493D01*
X0512451Y0143537D01*
X0512413Y0143583D01*
X0512377Y0143632D01*
X0512344Y0143683D01*
X0512315Y0143735D01*
X0512288Y0143790D01*
X0512265Y0143845D01*
X0512245Y0143902D01*
X0512229Y0143961D01*
X0512216Y0144020D01*
X0512207Y0144079D01*
X0512202Y0144140D01*
X0512200Y0144200D01*
X0512200Y0150200D01*
X0512202Y0150260D01*
X0512207Y0150321D01*
X0512216Y0150380D01*
X0512229Y0150439D01*
X0512245Y0150498D01*
X0512265Y0150555D01*
X0512288Y0150610D01*
X0512315Y0150665D01*
X0512344Y0150717D01*
X0512377Y0150768D01*
X0512413Y0150817D01*
X0512451Y0150863D01*
X0512493Y0150907D01*
X0512537Y0150949D01*
X0512583Y0150987D01*
X0512632Y0151023D01*
X0512683Y0151056D01*
X0512735Y0151085D01*
X0512790Y0151112D01*
X0512845Y0151135D01*
X0512902Y0151155D01*
X0512961Y0151171D01*
X0513020Y0151184D01*
X0513079Y0151193D01*
X0513140Y0151198D01*
X0513200Y0151200D01*
X0592476Y0160515D02*
X0592478Y0160613D01*
X0592484Y0160711D01*
X0592493Y0160809D01*
X0592507Y0160906D01*
X0592524Y0161003D01*
X0592545Y0161099D01*
X0592570Y0161194D01*
X0592598Y0161288D01*
X0592631Y0161380D01*
X0592666Y0161472D01*
X0592706Y0161562D01*
X0592748Y0161650D01*
X0592795Y0161737D01*
X0592844Y0161821D01*
X0592897Y0161904D01*
X0592953Y0161984D01*
X0593013Y0162063D01*
X0593075Y0162139D01*
X0593140Y0162212D01*
X0593208Y0162283D01*
X0593279Y0162351D01*
X0593352Y0162416D01*
X0593428Y0162478D01*
X0593507Y0162538D01*
X0593587Y0162594D01*
X0593670Y0162647D01*
X0593754Y0162696D01*
X0593841Y0162743D01*
X0593929Y0162785D01*
X0594019Y0162825D01*
X0594111Y0162860D01*
X0594203Y0162893D01*
X0594297Y0162921D01*
X0594392Y0162946D01*
X0594488Y0162967D01*
X0594585Y0162984D01*
X0594682Y0162998D01*
X0594780Y0163007D01*
X0594878Y0163013D01*
X0594976Y0163015D01*
X0603294Y0163015D02*
X0603294Y0163515D01*
X0606869Y0163515D01*
X0606901Y0160165D02*
X0606903Y0160067D01*
X0606909Y0159969D01*
X0606918Y0159871D01*
X0606932Y0159774D01*
X0606949Y0159677D01*
X0606970Y0159581D01*
X0606995Y0159486D01*
X0607023Y0159392D01*
X0607056Y0159300D01*
X0607091Y0159208D01*
X0607131Y0159118D01*
X0607173Y0159030D01*
X0607220Y0158943D01*
X0607269Y0158859D01*
X0607322Y0158776D01*
X0607378Y0158696D01*
X0607438Y0158617D01*
X0607500Y0158541D01*
X0607565Y0158468D01*
X0607633Y0158397D01*
X0607704Y0158329D01*
X0607777Y0158264D01*
X0607853Y0158202D01*
X0607932Y0158142D01*
X0608012Y0158086D01*
X0608095Y0158033D01*
X0608179Y0157984D01*
X0608266Y0157937D01*
X0608354Y0157895D01*
X0608444Y0157855D01*
X0608536Y0157820D01*
X0608628Y0157787D01*
X0608722Y0157759D01*
X0608817Y0157734D01*
X0608913Y0157713D01*
X0609010Y0157696D01*
X0609107Y0157682D01*
X0609205Y0157673D01*
X0609303Y0157667D01*
X0609401Y0157665D01*
X0629794Y0157665D01*
X0629881Y0157663D01*
X0629968Y0157657D01*
X0630055Y0157648D01*
X0630141Y0157635D01*
X0630227Y0157618D01*
X0630312Y0157597D01*
X0630395Y0157572D01*
X0630478Y0157544D01*
X0630559Y0157513D01*
X0630639Y0157478D01*
X0630717Y0157439D01*
X0630794Y0157397D01*
X0630869Y0157352D01*
X0630941Y0157303D01*
X0631012Y0157252D01*
X0631080Y0157197D01*
X0631145Y0157140D01*
X0631208Y0157079D01*
X0631269Y0157016D01*
X0631326Y0156951D01*
X0631381Y0156883D01*
X0631432Y0156812D01*
X0631481Y0156740D01*
X0631526Y0156665D01*
X0631568Y0156588D01*
X0631607Y0156510D01*
X0631642Y0156430D01*
X0631673Y0156349D01*
X0631701Y0156266D01*
X0631726Y0156183D01*
X0631747Y0156098D01*
X0631764Y0156012D01*
X0631777Y0155926D01*
X0631786Y0155839D01*
X0631792Y0155752D01*
X0631794Y0155665D01*
X0631794Y0095665D01*
X0631792Y0095578D01*
X0631786Y0095491D01*
X0631777Y0095404D01*
X0631764Y0095318D01*
X0631747Y0095232D01*
X0631726Y0095147D01*
X0631701Y0095064D01*
X0631673Y0094981D01*
X0631642Y0094900D01*
X0631607Y0094820D01*
X0631568Y0094742D01*
X0631526Y0094665D01*
X0631481Y0094590D01*
X0631432Y0094518D01*
X0631381Y0094447D01*
X0631326Y0094379D01*
X0631269Y0094314D01*
X0631208Y0094251D01*
X0631145Y0094190D01*
X0631080Y0094133D01*
X0631012Y0094078D01*
X0630941Y0094027D01*
X0630869Y0093978D01*
X0630794Y0093933D01*
X0630717Y0093891D01*
X0630639Y0093852D01*
X0630559Y0093817D01*
X0630478Y0093786D01*
X0630395Y0093758D01*
X0630312Y0093733D01*
X0630227Y0093712D01*
X0630141Y0093695D01*
X0630055Y0093682D01*
X0629968Y0093673D01*
X0629881Y0093667D01*
X0629794Y0093665D01*
X0609401Y0093665D01*
X0609303Y0093663D01*
X0609205Y0093657D01*
X0609107Y0093648D01*
X0609010Y0093634D01*
X0608913Y0093617D01*
X0608817Y0093596D01*
X0608722Y0093571D01*
X0608628Y0093543D01*
X0608536Y0093510D01*
X0608444Y0093475D01*
X0608354Y0093435D01*
X0608266Y0093393D01*
X0608179Y0093346D01*
X0608095Y0093297D01*
X0608012Y0093244D01*
X0607932Y0093188D01*
X0607853Y0093128D01*
X0607777Y0093066D01*
X0607704Y0093001D01*
X0607633Y0092933D01*
X0607565Y0092862D01*
X0607500Y0092789D01*
X0607438Y0092713D01*
X0607378Y0092634D01*
X0607322Y0092554D01*
X0607269Y0092471D01*
X0607220Y0092387D01*
X0607173Y0092300D01*
X0607131Y0092212D01*
X0607091Y0092122D01*
X0607056Y0092030D01*
X0607023Y0091938D01*
X0606995Y0091844D01*
X0606970Y0091749D01*
X0606949Y0091653D01*
X0606932Y0091556D01*
X0606918Y0091459D01*
X0606909Y0091361D01*
X0606903Y0091263D01*
X0606901Y0091165D01*
X0601708Y0017436D02*
X0596708Y0017436D01*
X0594208Y0014936D01*
X0594208Y0009936D01*
X0596708Y0007436D01*
X0601708Y0007436D01*
X0604208Y0009936D01*
X0604208Y0014936D01*
X0601708Y0017436D01*
X0594208Y0014936D02*
X0591708Y0017436D01*
X0586708Y0017436D01*
X0584208Y0014936D01*
X0584208Y0009936D01*
X0586708Y0007436D01*
X0591708Y0007436D01*
X0594208Y0009936D01*
X0584208Y0009936D02*
X0581708Y0007436D01*
X0576708Y0007436D01*
X0574208Y0009936D01*
X0571708Y0007436D01*
X0566708Y0007436D01*
X0564208Y0009936D01*
X0561708Y0007436D01*
X0556708Y0007436D01*
X0554208Y0009936D01*
X0551708Y0007436D01*
X0546708Y0007436D01*
X0544208Y0009936D01*
X0541708Y0007436D01*
X0536708Y0007436D01*
X0534208Y0009936D01*
X0531708Y0007436D01*
X0526708Y0007436D01*
X0524208Y0009936D01*
X0521708Y0007436D01*
X0516708Y0007436D01*
X0514208Y0009936D01*
X0511708Y0007436D01*
X0506708Y0007436D01*
X0504208Y0009936D01*
X0501708Y0007436D01*
X0496708Y0007436D01*
X0494208Y0009936D01*
X0491708Y0007436D01*
X0486708Y0007436D01*
X0484208Y0009936D01*
X0481708Y0007436D01*
X0476708Y0007436D01*
X0474208Y0009936D01*
X0471708Y0007436D01*
X0466708Y0007436D01*
X0464208Y0009936D01*
X0461708Y0007436D01*
X0456708Y0007436D01*
X0454208Y0009936D01*
X0451708Y0007436D01*
X0446708Y0007436D01*
X0444208Y0009936D01*
X0441708Y0007436D01*
X0436708Y0007436D01*
X0434208Y0009936D01*
X0431708Y0007436D01*
X0426708Y0007436D01*
X0424208Y0009936D01*
X0434208Y0009936D02*
X0434208Y0014936D01*
X0436708Y0017436D01*
X0441708Y0017436D01*
X0444208Y0014936D01*
X0446708Y0017436D01*
X0451708Y0017436D01*
X0454208Y0014936D01*
X0454208Y0009936D01*
X0444208Y0009936D02*
X0444208Y0014936D01*
X0454208Y0014936D02*
X0456708Y0017436D01*
X0461708Y0017436D01*
X0464208Y0014936D01*
X0466708Y0017436D01*
X0471708Y0017436D01*
X0474208Y0014936D01*
X0476708Y0017436D01*
X0481708Y0017436D01*
X0484208Y0014936D01*
X0484208Y0009936D01*
X0484208Y0014936D02*
X0486708Y0017436D01*
X0491708Y0017436D01*
X0494208Y0014936D01*
X0496708Y0017436D01*
X0501708Y0017436D01*
X0504208Y0014936D01*
X0506708Y0017436D01*
X0511708Y0017436D01*
X0514208Y0014936D01*
X0514208Y0009936D01*
X0524208Y0009936D02*
X0524208Y0014936D01*
X0526708Y0017436D01*
X0531708Y0017436D01*
X0534208Y0014936D01*
X0536708Y0017436D01*
X0541708Y0017436D01*
X0544208Y0014936D01*
X0544208Y0009936D01*
X0534208Y0009936D02*
X0534208Y0014936D01*
X0544208Y0014936D02*
X0546708Y0017436D01*
X0551708Y0017436D01*
X0554208Y0014936D01*
X0556708Y0017436D01*
X0561708Y0017436D01*
X0564208Y0014936D01*
X0566708Y0017436D01*
X0571708Y0017436D01*
X0574208Y0014936D01*
X0574208Y0009936D01*
X0564208Y0009936D02*
X0564208Y0014936D01*
X0574208Y0014936D02*
X0576708Y0017436D01*
X0581708Y0017436D01*
X0584208Y0014936D01*
X0554208Y0014936D02*
X0554208Y0009936D01*
X0524208Y0014936D02*
X0521708Y0017436D01*
X0516708Y0017436D01*
X0514208Y0014936D01*
X0504208Y0014936D02*
X0504208Y0009936D01*
X0494208Y0009936D02*
X0494208Y0014936D01*
X0474208Y0014936D02*
X0474208Y0009936D01*
X0464208Y0009936D02*
X0464208Y0014936D01*
X0434208Y0014936D02*
X0431708Y0017436D01*
X0426708Y0017436D01*
X0424208Y0014936D01*
X0391754Y0139507D02*
X0391756Y0139681D01*
X0391763Y0139855D01*
X0391773Y0140029D01*
X0391788Y0140203D01*
X0391807Y0140376D01*
X0391831Y0140549D01*
X0391859Y0140721D01*
X0391890Y0140892D01*
X0391927Y0141063D01*
X0391967Y0141232D01*
X0392011Y0141401D01*
X0392060Y0141568D01*
X0392112Y0141734D01*
X0392169Y0141899D01*
X0392230Y0142062D01*
X0392294Y0142224D01*
X0392363Y0142384D01*
X0392436Y0142543D01*
X0392512Y0142699D01*
X0392592Y0142854D01*
X0392676Y0143007D01*
X0392764Y0143157D01*
X0392856Y0143305D01*
X0392951Y0143452D01*
X0393049Y0143595D01*
X0393151Y0143736D01*
X0393257Y0143875D01*
X0393366Y0144011D01*
X0393478Y0144145D01*
X0393593Y0144275D01*
X0393712Y0144403D01*
X0393834Y0144527D01*
X0393958Y0144649D01*
X0394086Y0144768D01*
X0394216Y0144883D01*
X0394350Y0144995D01*
X0394486Y0145104D01*
X0394625Y0145210D01*
X0394766Y0145312D01*
X0394909Y0145410D01*
X0395056Y0145505D01*
X0395204Y0145597D01*
X0395354Y0145685D01*
X0395507Y0145769D01*
X0395662Y0145849D01*
X0395818Y0145925D01*
X0395977Y0145998D01*
X0396137Y0146067D01*
X0396299Y0146131D01*
X0396462Y0146192D01*
X0396627Y0146249D01*
X0396793Y0146301D01*
X0396960Y0146350D01*
X0397129Y0146394D01*
X0397298Y0146434D01*
X0397469Y0146471D01*
X0397640Y0146502D01*
X0397812Y0146530D01*
X0397985Y0146554D01*
X0398158Y0146573D01*
X0398332Y0146588D01*
X0398506Y0146598D01*
X0398680Y0146605D01*
X0398854Y0146607D01*
X0399028Y0146605D01*
X0399202Y0146598D01*
X0399376Y0146588D01*
X0399550Y0146573D01*
X0399723Y0146554D01*
X0399896Y0146530D01*
X0400068Y0146502D01*
X0400239Y0146471D01*
X0400410Y0146434D01*
X0400579Y0146394D01*
X0400748Y0146350D01*
X0400915Y0146301D01*
X0401081Y0146249D01*
X0401246Y0146192D01*
X0401409Y0146131D01*
X0401571Y0146067D01*
X0401731Y0145998D01*
X0401890Y0145925D01*
X0402046Y0145849D01*
X0402201Y0145769D01*
X0402354Y0145685D01*
X0402504Y0145597D01*
X0402652Y0145505D01*
X0402799Y0145410D01*
X0402942Y0145312D01*
X0403083Y0145210D01*
X0403222Y0145104D01*
X0403358Y0144995D01*
X0403492Y0144883D01*
X0403622Y0144768D01*
X0403750Y0144649D01*
X0403874Y0144527D01*
X0403996Y0144403D01*
X0404115Y0144275D01*
X0404230Y0144145D01*
X0404342Y0144011D01*
X0404451Y0143875D01*
X0404557Y0143736D01*
X0404659Y0143595D01*
X0404757Y0143452D01*
X0404852Y0143305D01*
X0404944Y0143157D01*
X0405032Y0143007D01*
X0405116Y0142854D01*
X0405196Y0142699D01*
X0405272Y0142543D01*
X0405345Y0142384D01*
X0405414Y0142224D01*
X0405478Y0142062D01*
X0405539Y0141899D01*
X0405596Y0141734D01*
X0405648Y0141568D01*
X0405697Y0141401D01*
X0405741Y0141232D01*
X0405781Y0141063D01*
X0405818Y0140892D01*
X0405849Y0140721D01*
X0405877Y0140549D01*
X0405901Y0140376D01*
X0405920Y0140203D01*
X0405935Y0140029D01*
X0405945Y0139855D01*
X0405952Y0139681D01*
X0405954Y0139507D01*
X0405952Y0139333D01*
X0405945Y0139159D01*
X0405935Y0138985D01*
X0405920Y0138811D01*
X0405901Y0138638D01*
X0405877Y0138465D01*
X0405849Y0138293D01*
X0405818Y0138122D01*
X0405781Y0137951D01*
X0405741Y0137782D01*
X0405697Y0137613D01*
X0405648Y0137446D01*
X0405596Y0137280D01*
X0405539Y0137115D01*
X0405478Y0136952D01*
X0405414Y0136790D01*
X0405345Y0136630D01*
X0405272Y0136471D01*
X0405196Y0136315D01*
X0405116Y0136160D01*
X0405032Y0136007D01*
X0404944Y0135857D01*
X0404852Y0135709D01*
X0404757Y0135562D01*
X0404659Y0135419D01*
X0404557Y0135278D01*
X0404451Y0135139D01*
X0404342Y0135003D01*
X0404230Y0134869D01*
X0404115Y0134739D01*
X0403996Y0134611D01*
X0403874Y0134487D01*
X0403750Y0134365D01*
X0403622Y0134246D01*
X0403492Y0134131D01*
X0403358Y0134019D01*
X0403222Y0133910D01*
X0403083Y0133804D01*
X0402942Y0133702D01*
X0402799Y0133604D01*
X0402652Y0133509D01*
X0402504Y0133417D01*
X0402354Y0133329D01*
X0402201Y0133245D01*
X0402046Y0133165D01*
X0401890Y0133089D01*
X0401731Y0133016D01*
X0401571Y0132947D01*
X0401409Y0132883D01*
X0401246Y0132822D01*
X0401081Y0132765D01*
X0400915Y0132713D01*
X0400748Y0132664D01*
X0400579Y0132620D01*
X0400410Y0132580D01*
X0400239Y0132543D01*
X0400068Y0132512D01*
X0399896Y0132484D01*
X0399723Y0132460D01*
X0399550Y0132441D01*
X0399376Y0132426D01*
X0399202Y0132416D01*
X0399028Y0132409D01*
X0398854Y0132407D01*
X0398680Y0132409D01*
X0398506Y0132416D01*
X0398332Y0132426D01*
X0398158Y0132441D01*
X0397985Y0132460D01*
X0397812Y0132484D01*
X0397640Y0132512D01*
X0397469Y0132543D01*
X0397298Y0132580D01*
X0397129Y0132620D01*
X0396960Y0132664D01*
X0396793Y0132713D01*
X0396627Y0132765D01*
X0396462Y0132822D01*
X0396299Y0132883D01*
X0396137Y0132947D01*
X0395977Y0133016D01*
X0395818Y0133089D01*
X0395662Y0133165D01*
X0395507Y0133245D01*
X0395354Y0133329D01*
X0395204Y0133417D01*
X0395056Y0133509D01*
X0394909Y0133604D01*
X0394766Y0133702D01*
X0394625Y0133804D01*
X0394486Y0133910D01*
X0394350Y0134019D01*
X0394216Y0134131D01*
X0394086Y0134246D01*
X0393958Y0134365D01*
X0393834Y0134487D01*
X0393712Y0134611D01*
X0393593Y0134739D01*
X0393478Y0134869D01*
X0393366Y0135003D01*
X0393257Y0135139D01*
X0393151Y0135278D01*
X0393049Y0135419D01*
X0392951Y0135562D01*
X0392856Y0135709D01*
X0392764Y0135857D01*
X0392676Y0136007D01*
X0392592Y0136160D01*
X0392512Y0136315D01*
X0392436Y0136471D01*
X0392363Y0136630D01*
X0392294Y0136790D01*
X0392230Y0136952D01*
X0392169Y0137115D01*
X0392112Y0137280D01*
X0392060Y0137446D01*
X0392011Y0137613D01*
X0391967Y0137782D01*
X0391927Y0137951D01*
X0391890Y0138122D01*
X0391859Y0138293D01*
X0391831Y0138465D01*
X0391807Y0138638D01*
X0391788Y0138811D01*
X0391773Y0138985D01*
X0391763Y0139159D01*
X0391756Y0139333D01*
X0391754Y0139507D01*
X0315779Y0139661D02*
X0315779Y0162061D01*
X0257633Y0188495D02*
X0257633Y0211495D01*
X0177633Y0211495D01*
X0177633Y0203995D01*
X0177759Y0203993D01*
X0177884Y0203987D01*
X0178009Y0203977D01*
X0178134Y0203963D01*
X0178259Y0203946D01*
X0178383Y0203924D01*
X0178506Y0203899D01*
X0178628Y0203869D01*
X0178749Y0203836D01*
X0178869Y0203799D01*
X0178988Y0203759D01*
X0179105Y0203714D01*
X0179222Y0203666D01*
X0179336Y0203614D01*
X0179449Y0203559D01*
X0179560Y0203500D01*
X0179669Y0203438D01*
X0179776Y0203372D01*
X0179881Y0203303D01*
X0179984Y0203231D01*
X0180085Y0203156D01*
X0180183Y0203077D01*
X0180278Y0202995D01*
X0180371Y0202911D01*
X0180461Y0202823D01*
X0180549Y0202733D01*
X0180633Y0202640D01*
X0180715Y0202545D01*
X0180794Y0202447D01*
X0180869Y0202346D01*
X0180941Y0202243D01*
X0181010Y0202138D01*
X0181076Y0202031D01*
X0181138Y0201922D01*
X0181197Y0201811D01*
X0181252Y0201698D01*
X0181304Y0201584D01*
X0181352Y0201467D01*
X0181397Y0201350D01*
X0181437Y0201231D01*
X0181474Y0201111D01*
X0181507Y0200990D01*
X0181537Y0200868D01*
X0181562Y0200745D01*
X0181584Y0200621D01*
X0181601Y0200496D01*
X0181615Y0200371D01*
X0181625Y0200246D01*
X0181631Y0200121D01*
X0181633Y0199995D01*
X0181631Y0199869D01*
X0181625Y0199744D01*
X0181615Y0199619D01*
X0181601Y0199494D01*
X0181584Y0199369D01*
X0181562Y0199245D01*
X0181537Y0199122D01*
X0181507Y0199000D01*
X0181474Y0198879D01*
X0181437Y0198759D01*
X0181397Y0198640D01*
X0181352Y0198523D01*
X0181304Y0198406D01*
X0181252Y0198292D01*
X0181197Y0198179D01*
X0181138Y0198068D01*
X0181076Y0197959D01*
X0181010Y0197852D01*
X0180941Y0197747D01*
X0180869Y0197644D01*
X0180794Y0197543D01*
X0180715Y0197445D01*
X0180633Y0197350D01*
X0180549Y0197257D01*
X0180461Y0197167D01*
X0180371Y0197079D01*
X0180278Y0196995D01*
X0180183Y0196913D01*
X0180085Y0196834D01*
X0179984Y0196759D01*
X0179881Y0196687D01*
X0179776Y0196618D01*
X0179669Y0196552D01*
X0179560Y0196490D01*
X0179449Y0196431D01*
X0179336Y0196376D01*
X0179222Y0196324D01*
X0179105Y0196276D01*
X0178988Y0196231D01*
X0178869Y0196191D01*
X0178749Y0196154D01*
X0178628Y0196121D01*
X0178506Y0196091D01*
X0178383Y0196066D01*
X0178259Y0196044D01*
X0178134Y0196027D01*
X0178009Y0196013D01*
X0177884Y0196003D01*
X0177759Y0195997D01*
X0177633Y0195995D01*
X0177633Y0188495D01*
X0257633Y0188495D01*
X0170326Y0201417D02*
X0170326Y0218417D01*
X0170324Y0218477D01*
X0170319Y0218538D01*
X0170310Y0218597D01*
X0170297Y0218656D01*
X0170281Y0218715D01*
X0170261Y0218772D01*
X0170238Y0218827D01*
X0170211Y0218882D01*
X0170182Y0218934D01*
X0170149Y0218985D01*
X0170113Y0219034D01*
X0170075Y0219080D01*
X0170033Y0219124D01*
X0169989Y0219166D01*
X0169943Y0219204D01*
X0169894Y0219240D01*
X0169843Y0219273D01*
X0169791Y0219302D01*
X0169736Y0219329D01*
X0169681Y0219352D01*
X0169624Y0219372D01*
X0169565Y0219388D01*
X0169506Y0219401D01*
X0169447Y0219410D01*
X0169386Y0219415D01*
X0169326Y0219417D01*
X0159326Y0219417D01*
X0159266Y0219415D01*
X0159205Y0219410D01*
X0159146Y0219401D01*
X0159087Y0219388D01*
X0159028Y0219372D01*
X0158971Y0219352D01*
X0158916Y0219329D01*
X0158861Y0219302D01*
X0158809Y0219273D01*
X0158758Y0219240D01*
X0158709Y0219204D01*
X0158663Y0219166D01*
X0158619Y0219124D01*
X0158577Y0219080D01*
X0158539Y0219034D01*
X0158503Y0218985D01*
X0158470Y0218934D01*
X0158441Y0218882D01*
X0158414Y0218827D01*
X0158391Y0218772D01*
X0158371Y0218715D01*
X0158355Y0218656D01*
X0158342Y0218597D01*
X0158333Y0218538D01*
X0158328Y0218477D01*
X0158326Y0218417D01*
X0158326Y0201417D01*
X0158328Y0201357D01*
X0158333Y0201296D01*
X0158342Y0201237D01*
X0158355Y0201178D01*
X0158371Y0201119D01*
X0158391Y0201062D01*
X0158414Y0201007D01*
X0158441Y0200952D01*
X0158470Y0200900D01*
X0158503Y0200849D01*
X0158539Y0200800D01*
X0158577Y0200754D01*
X0158619Y0200710D01*
X0158663Y0200668D01*
X0158709Y0200630D01*
X0158758Y0200594D01*
X0158809Y0200561D01*
X0158861Y0200532D01*
X0158916Y0200505D01*
X0158971Y0200482D01*
X0159028Y0200462D01*
X0159087Y0200446D01*
X0159146Y0200433D01*
X0159205Y0200424D01*
X0159266Y0200419D01*
X0159326Y0200417D01*
X0169326Y0200417D01*
X0169386Y0200419D01*
X0169447Y0200424D01*
X0169506Y0200433D01*
X0169565Y0200446D01*
X0169624Y0200462D01*
X0169681Y0200482D01*
X0169736Y0200505D01*
X0169791Y0200532D01*
X0169843Y0200561D01*
X0169894Y0200594D01*
X0169943Y0200630D01*
X0169989Y0200668D01*
X0170033Y0200710D01*
X0170075Y0200754D01*
X0170113Y0200800D01*
X0170149Y0200849D01*
X0170182Y0200900D01*
X0170211Y0200952D01*
X0170238Y0201007D01*
X0170261Y0201062D01*
X0170281Y0201119D01*
X0170297Y0201178D01*
X0170310Y0201237D01*
X0170319Y0201296D01*
X0170324Y0201357D01*
X0170326Y0201417D01*
X0164326Y0208417D02*
X0164326Y0208917D01*
X0164326Y0210917D02*
X0164326Y0211417D01*
X0097200Y0196409D02*
X0097200Y0189409D01*
X0095700Y0187909D01*
X0097200Y0186409D01*
X0097200Y0179409D01*
X0095700Y0177909D01*
X0078700Y0177909D01*
X0077200Y0179409D01*
X0077200Y0186409D01*
X0078700Y0187909D01*
X0077200Y0189409D01*
X0077200Y0196409D01*
X0078700Y0197909D01*
X0095700Y0197909D01*
X0097200Y0196409D01*
X0090070Y0221932D02*
X0086070Y0221932D01*
X0076570Y0221932D01*
X0073070Y0221932D01*
X0069570Y0229932D02*
X0069570Y0230932D01*
X0068570Y0230932D01*
X0068570Y0236932D01*
X0069570Y0236932D01*
X0069570Y0237932D01*
X0080570Y0233932D02*
X0080572Y0233995D01*
X0080578Y0234057D01*
X0080588Y0234119D01*
X0080601Y0234181D01*
X0080619Y0234241D01*
X0080640Y0234300D01*
X0080665Y0234358D01*
X0080694Y0234414D01*
X0080726Y0234468D01*
X0080761Y0234520D01*
X0080799Y0234569D01*
X0080841Y0234617D01*
X0080885Y0234661D01*
X0080933Y0234703D01*
X0080982Y0234741D01*
X0081034Y0234776D01*
X0081088Y0234808D01*
X0081144Y0234837D01*
X0081202Y0234862D01*
X0081261Y0234883D01*
X0081321Y0234901D01*
X0081383Y0234914D01*
X0081445Y0234924D01*
X0081507Y0234930D01*
X0081570Y0234932D01*
X0081633Y0234930D01*
X0081695Y0234924D01*
X0081757Y0234914D01*
X0081819Y0234901D01*
X0081879Y0234883D01*
X0081938Y0234862D01*
X0081996Y0234837D01*
X0082052Y0234808D01*
X0082106Y0234776D01*
X0082158Y0234741D01*
X0082207Y0234703D01*
X0082255Y0234661D01*
X0082299Y0234617D01*
X0082341Y0234569D01*
X0082379Y0234520D01*
X0082414Y0234468D01*
X0082446Y0234414D01*
X0082475Y0234358D01*
X0082500Y0234300D01*
X0082521Y0234241D01*
X0082539Y0234181D01*
X0082552Y0234119D01*
X0082562Y0234057D01*
X0082568Y0233995D01*
X0082570Y0233932D01*
X0082568Y0233869D01*
X0082562Y0233807D01*
X0082552Y0233745D01*
X0082539Y0233683D01*
X0082521Y0233623D01*
X0082500Y0233564D01*
X0082475Y0233506D01*
X0082446Y0233450D01*
X0082414Y0233396D01*
X0082379Y0233344D01*
X0082341Y0233295D01*
X0082299Y0233247D01*
X0082255Y0233203D01*
X0082207Y0233161D01*
X0082158Y0233123D01*
X0082106Y0233088D01*
X0082052Y0233056D01*
X0081996Y0233027D01*
X0081938Y0233002D01*
X0081879Y0232981D01*
X0081819Y0232963D01*
X0081757Y0232950D01*
X0081695Y0232940D01*
X0081633Y0232934D01*
X0081570Y0232932D01*
X0081507Y0232934D01*
X0081445Y0232940D01*
X0081383Y0232950D01*
X0081321Y0232963D01*
X0081261Y0232981D01*
X0081202Y0233002D01*
X0081144Y0233027D01*
X0081088Y0233056D01*
X0081034Y0233088D01*
X0080982Y0233123D01*
X0080933Y0233161D01*
X0080885Y0233203D01*
X0080841Y0233247D01*
X0080799Y0233295D01*
X0080761Y0233344D01*
X0080726Y0233396D01*
X0080694Y0233450D01*
X0080665Y0233506D01*
X0080640Y0233564D01*
X0080619Y0233623D01*
X0080601Y0233683D01*
X0080588Y0233745D01*
X0080578Y0233807D01*
X0080572Y0233869D01*
X0080570Y0233932D01*
X0074570Y0233932D02*
X0074572Y0234104D01*
X0074578Y0234275D01*
X0074589Y0234447D01*
X0074604Y0234618D01*
X0074623Y0234789D01*
X0074646Y0234959D01*
X0074673Y0235129D01*
X0074705Y0235298D01*
X0074740Y0235466D01*
X0074780Y0235633D01*
X0074824Y0235799D01*
X0074871Y0235964D01*
X0074923Y0236128D01*
X0074979Y0236290D01*
X0075039Y0236451D01*
X0075103Y0236611D01*
X0075171Y0236769D01*
X0075242Y0236925D01*
X0075317Y0237079D01*
X0075397Y0237232D01*
X0075479Y0237382D01*
X0075566Y0237531D01*
X0075656Y0237677D01*
X0075750Y0237821D01*
X0075847Y0237963D01*
X0075948Y0238102D01*
X0076052Y0238239D01*
X0076159Y0238373D01*
X0076270Y0238504D01*
X0076383Y0238633D01*
X0076500Y0238759D01*
X0076620Y0238882D01*
X0076743Y0239002D01*
X0076869Y0239119D01*
X0076998Y0239232D01*
X0077129Y0239343D01*
X0077263Y0239450D01*
X0077400Y0239554D01*
X0077539Y0239655D01*
X0077681Y0239752D01*
X0077825Y0239846D01*
X0077971Y0239936D01*
X0078120Y0240023D01*
X0078270Y0240105D01*
X0078423Y0240185D01*
X0078577Y0240260D01*
X0078733Y0240331D01*
X0078891Y0240399D01*
X0079051Y0240463D01*
X0079212Y0240523D01*
X0079374Y0240579D01*
X0079538Y0240631D01*
X0079703Y0240678D01*
X0079869Y0240722D01*
X0080036Y0240762D01*
X0080204Y0240797D01*
X0080373Y0240829D01*
X0080543Y0240856D01*
X0080713Y0240879D01*
X0080884Y0240898D01*
X0081055Y0240913D01*
X0081227Y0240924D01*
X0081398Y0240930D01*
X0081570Y0240932D01*
X0081742Y0240930D01*
X0081913Y0240924D01*
X0082085Y0240913D01*
X0082256Y0240898D01*
X0082427Y0240879D01*
X0082597Y0240856D01*
X0082767Y0240829D01*
X0082936Y0240797D01*
X0083104Y0240762D01*
X0083271Y0240722D01*
X0083437Y0240678D01*
X0083602Y0240631D01*
X0083766Y0240579D01*
X0083928Y0240523D01*
X0084089Y0240463D01*
X0084249Y0240399D01*
X0084407Y0240331D01*
X0084563Y0240260D01*
X0084717Y0240185D01*
X0084870Y0240105D01*
X0085020Y0240023D01*
X0085169Y0239936D01*
X0085315Y0239846D01*
X0085459Y0239752D01*
X0085601Y0239655D01*
X0085740Y0239554D01*
X0085877Y0239450D01*
X0086011Y0239343D01*
X0086142Y0239232D01*
X0086271Y0239119D01*
X0086397Y0239002D01*
X0086520Y0238882D01*
X0086640Y0238759D01*
X0086757Y0238633D01*
X0086870Y0238504D01*
X0086981Y0238373D01*
X0087088Y0238239D01*
X0087192Y0238102D01*
X0087293Y0237963D01*
X0087390Y0237821D01*
X0087484Y0237677D01*
X0087574Y0237531D01*
X0087661Y0237382D01*
X0087743Y0237232D01*
X0087823Y0237079D01*
X0087898Y0236925D01*
X0087969Y0236769D01*
X0088037Y0236611D01*
X0088101Y0236451D01*
X0088161Y0236290D01*
X0088217Y0236128D01*
X0088269Y0235964D01*
X0088316Y0235799D01*
X0088360Y0235633D01*
X0088400Y0235466D01*
X0088435Y0235298D01*
X0088467Y0235129D01*
X0088494Y0234959D01*
X0088517Y0234789D01*
X0088536Y0234618D01*
X0088551Y0234447D01*
X0088562Y0234275D01*
X0088568Y0234104D01*
X0088570Y0233932D01*
X0088568Y0233760D01*
X0088562Y0233589D01*
X0088551Y0233417D01*
X0088536Y0233246D01*
X0088517Y0233075D01*
X0088494Y0232905D01*
X0088467Y0232735D01*
X0088435Y0232566D01*
X0088400Y0232398D01*
X0088360Y0232231D01*
X0088316Y0232065D01*
X0088269Y0231900D01*
X0088217Y0231736D01*
X0088161Y0231574D01*
X0088101Y0231413D01*
X0088037Y0231253D01*
X0087969Y0231095D01*
X0087898Y0230939D01*
X0087823Y0230785D01*
X0087743Y0230632D01*
X0087661Y0230482D01*
X0087574Y0230333D01*
X0087484Y0230187D01*
X0087390Y0230043D01*
X0087293Y0229901D01*
X0087192Y0229762D01*
X0087088Y0229625D01*
X0086981Y0229491D01*
X0086870Y0229360D01*
X0086757Y0229231D01*
X0086640Y0229105D01*
X0086520Y0228982D01*
X0086397Y0228862D01*
X0086271Y0228745D01*
X0086142Y0228632D01*
X0086011Y0228521D01*
X0085877Y0228414D01*
X0085740Y0228310D01*
X0085601Y0228209D01*
X0085459Y0228112D01*
X0085315Y0228018D01*
X0085169Y0227928D01*
X0085020Y0227841D01*
X0084870Y0227759D01*
X0084717Y0227679D01*
X0084563Y0227604D01*
X0084407Y0227533D01*
X0084249Y0227465D01*
X0084089Y0227401D01*
X0083928Y0227341D01*
X0083766Y0227285D01*
X0083602Y0227233D01*
X0083437Y0227186D01*
X0083271Y0227142D01*
X0083104Y0227102D01*
X0082936Y0227067D01*
X0082767Y0227035D01*
X0082597Y0227008D01*
X0082427Y0226985D01*
X0082256Y0226966D01*
X0082085Y0226951D01*
X0081913Y0226940D01*
X0081742Y0226934D01*
X0081570Y0226932D01*
X0081398Y0226934D01*
X0081227Y0226940D01*
X0081055Y0226951D01*
X0080884Y0226966D01*
X0080713Y0226985D01*
X0080543Y0227008D01*
X0080373Y0227035D01*
X0080204Y0227067D01*
X0080036Y0227102D01*
X0079869Y0227142D01*
X0079703Y0227186D01*
X0079538Y0227233D01*
X0079374Y0227285D01*
X0079212Y0227341D01*
X0079051Y0227401D01*
X0078891Y0227465D01*
X0078733Y0227533D01*
X0078577Y0227604D01*
X0078423Y0227679D01*
X0078270Y0227759D01*
X0078120Y0227841D01*
X0077971Y0227928D01*
X0077825Y0228018D01*
X0077681Y0228112D01*
X0077539Y0228209D01*
X0077400Y0228310D01*
X0077263Y0228414D01*
X0077129Y0228521D01*
X0076998Y0228632D01*
X0076869Y0228745D01*
X0076743Y0228862D01*
X0076620Y0228982D01*
X0076500Y0229105D01*
X0076383Y0229231D01*
X0076270Y0229360D01*
X0076159Y0229491D01*
X0076052Y0229625D01*
X0075948Y0229762D01*
X0075847Y0229901D01*
X0075750Y0230043D01*
X0075656Y0230187D01*
X0075566Y0230333D01*
X0075479Y0230482D01*
X0075397Y0230632D01*
X0075317Y0230785D01*
X0075242Y0230939D01*
X0075171Y0231095D01*
X0075103Y0231253D01*
X0075039Y0231413D01*
X0074979Y0231574D01*
X0074923Y0231736D01*
X0074871Y0231900D01*
X0074824Y0232065D01*
X0074780Y0232231D01*
X0074740Y0232398D01*
X0074705Y0232566D01*
X0074673Y0232735D01*
X0074646Y0232905D01*
X0074623Y0233075D01*
X0074604Y0233246D01*
X0074589Y0233417D01*
X0074578Y0233589D01*
X0074572Y0233760D01*
X0074570Y0233932D01*
X0093570Y0230932D02*
X0093570Y0229932D01*
X0093570Y0230932D02*
X0094570Y0230932D01*
X0094570Y0236932D01*
X0093570Y0236932D01*
X0093570Y0237932D01*
X0090070Y0245932D02*
X0086570Y0245932D01*
X0076570Y0245932D01*
X0073070Y0245932D01*
X0372200Y0239700D02*
X0372200Y0234700D01*
X0374700Y0232200D01*
X0379700Y0232200D01*
X0382200Y0234700D01*
X0382200Y0239700D01*
X0379700Y0242200D01*
X0374700Y0242200D01*
X0372200Y0239700D01*
X0382200Y0239700D02*
X0384700Y0242200D01*
X0389700Y0242200D01*
X0392200Y0239700D01*
X0394700Y0242200D01*
X0399700Y0242200D01*
X0402200Y0239700D01*
X0404700Y0242200D01*
X0409700Y0242200D01*
X0412200Y0239700D01*
X0414700Y0242200D01*
X0419700Y0242200D01*
X0422200Y0239700D01*
X0424700Y0242200D01*
X0429700Y0242200D01*
X0432200Y0239700D01*
X0432200Y0234700D01*
X0429700Y0232200D01*
X0424700Y0232200D01*
X0422200Y0234700D01*
X0419700Y0232200D01*
X0414700Y0232200D01*
X0412200Y0234700D01*
X0412200Y0239700D01*
X0422200Y0239700D02*
X0422200Y0234700D01*
X0412200Y0234700D02*
X0409700Y0232200D01*
X0404700Y0232200D01*
X0402200Y0234700D01*
X0399700Y0232200D01*
X0394700Y0232200D01*
X0392200Y0234700D01*
X0389700Y0232200D01*
X0384700Y0232200D01*
X0382200Y0234700D01*
X0392200Y0234700D02*
X0392200Y0239700D01*
X0402200Y0239700D02*
X0402200Y0234700D01*
X0462200Y0234700D02*
X0464700Y0232200D01*
X0469700Y0232200D01*
X0472200Y0234700D01*
X0472200Y0239700D01*
X0469700Y0242200D01*
X0464700Y0242200D01*
X0462200Y0239700D01*
X0462200Y0234700D01*
X0472200Y0234700D02*
X0474700Y0232200D01*
X0479700Y0232200D01*
X0482200Y0234700D01*
X0482200Y0239700D01*
X0479700Y0242200D01*
X0474700Y0242200D01*
X0472200Y0239700D01*
X0482200Y0239700D02*
X0484700Y0242200D01*
X0489700Y0242200D01*
X0492200Y0239700D01*
X0494700Y0242200D01*
X0499700Y0242200D01*
X0502200Y0239700D01*
X0504700Y0242200D01*
X0509700Y0242200D01*
X0512200Y0239700D01*
X0514700Y0242200D01*
X0519700Y0242200D01*
X0522200Y0239700D01*
X0522200Y0234700D01*
X0519700Y0232200D01*
X0514700Y0232200D01*
X0512200Y0234700D01*
X0509700Y0232200D01*
X0504700Y0232200D01*
X0502200Y0234700D01*
X0502200Y0239700D01*
X0512200Y0239700D02*
X0512200Y0234700D01*
X0502200Y0234700D02*
X0499700Y0232200D01*
X0494700Y0232200D01*
X0492200Y0234700D01*
X0489700Y0232200D01*
X0484700Y0232200D01*
X0482200Y0234700D01*
X0492200Y0234700D02*
X0492200Y0239700D01*
X0517200Y0212645D02*
X0527200Y0212645D01*
X0527260Y0212643D01*
X0527321Y0212638D01*
X0527380Y0212629D01*
X0527439Y0212616D01*
X0527498Y0212600D01*
X0527555Y0212580D01*
X0527610Y0212557D01*
X0527665Y0212530D01*
X0527717Y0212501D01*
X0527768Y0212468D01*
X0527817Y0212432D01*
X0527863Y0212394D01*
X0527907Y0212352D01*
X0527949Y0212308D01*
X0527987Y0212262D01*
X0528023Y0212213D01*
X0528056Y0212162D01*
X0528085Y0212110D01*
X0528112Y0212055D01*
X0528135Y0212000D01*
X0528155Y0211943D01*
X0528171Y0211884D01*
X0528184Y0211825D01*
X0528193Y0211766D01*
X0528198Y0211705D01*
X0528200Y0211645D01*
X0528200Y0194645D01*
X0528198Y0194585D01*
X0528193Y0194524D01*
X0528184Y0194465D01*
X0528171Y0194406D01*
X0528155Y0194347D01*
X0528135Y0194290D01*
X0528112Y0194235D01*
X0528085Y0194180D01*
X0528056Y0194128D01*
X0528023Y0194077D01*
X0527987Y0194028D01*
X0527949Y0193982D01*
X0527907Y0193938D01*
X0527863Y0193896D01*
X0527817Y0193858D01*
X0527768Y0193822D01*
X0527717Y0193789D01*
X0527665Y0193760D01*
X0527610Y0193733D01*
X0527555Y0193710D01*
X0527498Y0193690D01*
X0527439Y0193674D01*
X0527380Y0193661D01*
X0527321Y0193652D01*
X0527260Y0193647D01*
X0527200Y0193645D01*
X0517200Y0193645D01*
X0517140Y0193647D01*
X0517079Y0193652D01*
X0517020Y0193661D01*
X0516961Y0193674D01*
X0516902Y0193690D01*
X0516845Y0193710D01*
X0516790Y0193733D01*
X0516735Y0193760D01*
X0516683Y0193789D01*
X0516632Y0193822D01*
X0516583Y0193858D01*
X0516537Y0193896D01*
X0516493Y0193938D01*
X0516451Y0193982D01*
X0516413Y0194028D01*
X0516377Y0194077D01*
X0516344Y0194128D01*
X0516315Y0194180D01*
X0516288Y0194235D01*
X0516265Y0194290D01*
X0516245Y0194347D01*
X0516229Y0194406D01*
X0516216Y0194465D01*
X0516207Y0194524D01*
X0516202Y0194585D01*
X0516200Y0194645D01*
X0516200Y0211645D01*
X0516202Y0211705D01*
X0516207Y0211766D01*
X0516216Y0211825D01*
X0516229Y0211884D01*
X0516245Y0211943D01*
X0516265Y0212000D01*
X0516288Y0212055D01*
X0516315Y0212110D01*
X0516344Y0212162D01*
X0516377Y0212213D01*
X0516413Y0212262D01*
X0516451Y0212308D01*
X0516493Y0212352D01*
X0516537Y0212394D01*
X0516583Y0212432D01*
X0516632Y0212468D01*
X0516683Y0212501D01*
X0516735Y0212530D01*
X0516790Y0212557D01*
X0516845Y0212580D01*
X0516902Y0212600D01*
X0516961Y0212616D01*
X0517020Y0212629D01*
X0517079Y0212638D01*
X0517140Y0212643D01*
X0517200Y0212645D01*
X0522200Y0204645D02*
X0522200Y0204145D01*
X0522200Y0202145D02*
X0522200Y0201645D01*
D11*
X0557909Y0194641D02*
X0557909Y0249759D01*
X0606728Y0249759D01*
X0606728Y0194641D01*
X0557909Y0194641D01*
X0442188Y0196104D02*
X0439119Y0196104D01*
X0440653Y0196104D02*
X0440653Y0205312D01*
X0439119Y0205312D01*
X0436049Y0200708D02*
X0436049Y0196104D01*
X0431446Y0196104D01*
X0429911Y0197639D01*
X0431446Y0199173D01*
X0436049Y0199173D01*
X0436049Y0200708D02*
X0434515Y0202243D01*
X0431446Y0202243D01*
X0426842Y0200708D02*
X0426842Y0196104D01*
X0420703Y0196104D02*
X0420703Y0202243D01*
X0425307Y0202243D01*
X0426842Y0200708D01*
X0417634Y0196104D02*
X0414564Y0196104D01*
X0416099Y0196104D02*
X0416099Y0202243D01*
X0414564Y0202243D01*
X0416099Y0205312D02*
X0416099Y0206846D01*
X0411495Y0200708D02*
X0411495Y0196104D01*
X0408426Y0196104D02*
X0408426Y0200708D01*
X0409961Y0202243D01*
X0411495Y0200708D01*
X0408426Y0200708D02*
X0406891Y0202243D01*
X0405357Y0202243D01*
X0405357Y0196104D01*
X0402287Y0202243D02*
X0400753Y0202243D01*
X0397683Y0199173D01*
X0394614Y0199173D02*
X0388476Y0199173D01*
X0388476Y0197639D02*
X0388476Y0200708D01*
X0390010Y0202243D01*
X0393079Y0202243D01*
X0394614Y0200708D01*
X0394614Y0199173D01*
X0393079Y0196104D02*
X0390010Y0196104D01*
X0388476Y0197639D01*
X0382337Y0196104D02*
X0382337Y0205312D01*
X0379268Y0205312D02*
X0385406Y0205312D01*
X0397683Y0202243D02*
X0397683Y0196104D01*
X0366990Y0196104D02*
X0362387Y0196104D01*
X0360852Y0197639D01*
X0362387Y0199173D01*
X0366990Y0199173D01*
X0366990Y0200708D02*
X0366990Y0196104D01*
X0356248Y0196104D02*
X0356248Y0203777D01*
X0357783Y0205312D01*
X0357783Y0200708D02*
X0354713Y0200708D01*
X0351644Y0200708D02*
X0348575Y0200708D01*
X0345505Y0200708D02*
X0345505Y0196104D01*
X0340902Y0196104D01*
X0339367Y0197639D01*
X0340902Y0199173D01*
X0345505Y0199173D01*
X0345505Y0200708D02*
X0343971Y0202243D01*
X0340902Y0202243D01*
X0336298Y0202243D02*
X0334763Y0200708D01*
X0330159Y0200708D01*
X0330159Y0205312D02*
X0334763Y0205312D01*
X0336298Y0203777D01*
X0336298Y0202243D01*
X0334763Y0200708D02*
X0336298Y0199173D01*
X0336298Y0197639D01*
X0334763Y0196104D01*
X0330159Y0196104D01*
X0330159Y0205312D01*
X0350109Y0203777D02*
X0350109Y0196104D01*
X0362387Y0202243D02*
X0365456Y0202243D01*
X0366990Y0200708D01*
X0351644Y0205312D02*
X0350109Y0203777D01*
X0257018Y0156645D02*
X0254549Y0159114D01*
X0252080Y0156645D01*
X0252080Y0151708D01*
X0249468Y0152942D02*
X0249468Y0155411D01*
X0246999Y0155411D01*
X0249468Y0152942D02*
X0248233Y0151708D01*
X0245764Y0151708D01*
X0244530Y0152942D01*
X0244530Y0157880D01*
X0245764Y0159114D01*
X0248233Y0159114D01*
X0249468Y0157880D01*
X0252080Y0155411D02*
X0257018Y0155411D01*
X0257018Y0156645D02*
X0257018Y0151708D01*
X0241917Y0154177D02*
X0241917Y0159114D01*
X0236980Y0159114D02*
X0236980Y0154177D01*
X0239448Y0151708D01*
X0241917Y0154177D01*
X0243253Y0087854D02*
X0248190Y0087854D01*
X0245722Y0087854D02*
X0245722Y0080448D01*
X0240640Y0080448D02*
X0238171Y0082917D01*
X0239406Y0082917D02*
X0235702Y0082917D01*
X0235702Y0080448D02*
X0235702Y0087854D01*
X0239406Y0087854D01*
X0240640Y0086620D01*
X0240640Y0084151D01*
X0239406Y0082917D01*
X0233090Y0084151D02*
X0228152Y0084151D01*
X0228152Y0085386D02*
X0230621Y0087854D01*
X0233090Y0085386D01*
X0233090Y0080448D01*
X0228152Y0080448D02*
X0228152Y0085386D01*
X0225539Y0087854D02*
X0225539Y0081682D01*
X0224305Y0080448D01*
X0221836Y0080448D01*
X0220602Y0081682D01*
X0220602Y0087854D01*
X0250803Y0079214D02*
X0255741Y0079214D01*
X0258354Y0080448D02*
X0258354Y0087854D01*
X0262057Y0087854D01*
X0263291Y0086620D01*
X0263291Y0084151D01*
X0262057Y0082917D01*
X0258354Y0082917D01*
X0265904Y0081682D02*
X0267139Y0080448D01*
X0269607Y0080448D01*
X0270842Y0081682D01*
X0270842Y0082917D01*
X0269607Y0084151D01*
X0267139Y0084151D01*
X0265904Y0085386D01*
X0265904Y0086620D01*
X0267139Y0087854D01*
X0269607Y0087854D01*
X0270842Y0086620D01*
X0273455Y0086620D02*
X0274689Y0087854D01*
X0277158Y0087854D01*
X0278392Y0086620D01*
X0278392Y0085386D01*
X0273455Y0080448D01*
X0278392Y0080448D01*
D12*
X0177142Y0066336D02*
X0174006Y0063200D01*
X0175574Y0063200D02*
X0175574Y0066336D01*
X0174006Y0066336D02*
X0177142Y0063200D01*
X0177142Y0064768D02*
X0174006Y0064768D01*
X0173809Y0133711D02*
X0176945Y0136847D01*
X0176945Y0135279D02*
X0173809Y0135279D01*
X0173809Y0136847D02*
X0176945Y0133711D01*
X0175377Y0133711D02*
X0175377Y0136847D01*
X0329122Y0170657D02*
X0330973Y0170657D01*
X0331590Y0171274D01*
X0331590Y0172509D01*
X0330973Y0173126D01*
X0329122Y0173126D01*
X0329122Y0174360D02*
X0329122Y0170657D01*
X0332805Y0171274D02*
X0332805Y0173126D01*
X0332805Y0171274D02*
X0333422Y0170657D01*
X0335274Y0170657D01*
X0335274Y0170040D02*
X0334656Y0169423D01*
X0334039Y0169423D01*
X0335274Y0170040D02*
X0335274Y0173126D01*
X0335274Y0176657D02*
X0333422Y0176657D01*
X0332805Y0177274D01*
X0333422Y0177891D01*
X0335274Y0177891D01*
X0335274Y0178509D02*
X0335274Y0176657D01*
X0336488Y0176657D02*
X0338340Y0176657D01*
X0338957Y0177274D01*
X0338340Y0177891D01*
X0337105Y0177891D01*
X0336488Y0178509D01*
X0337105Y0179126D01*
X0338957Y0179126D01*
X0340171Y0178509D02*
X0340788Y0179126D01*
X0342023Y0179126D01*
X0342640Y0178509D01*
X0342640Y0177891D01*
X0340171Y0177891D01*
X0340171Y0177274D02*
X0340171Y0178509D01*
X0340171Y0177274D02*
X0340788Y0176657D01*
X0342023Y0176657D01*
X0343854Y0177274D02*
X0344471Y0176657D01*
X0346323Y0176657D01*
X0346323Y0180360D01*
X0346323Y0179126D02*
X0344471Y0179126D01*
X0343854Y0178509D01*
X0343854Y0177274D01*
X0351221Y0177274D02*
X0351838Y0176657D01*
X0353072Y0176657D01*
X0353689Y0177274D01*
X0353689Y0178509D01*
X0353072Y0179126D01*
X0351838Y0179126D01*
X0351221Y0178509D01*
X0351221Y0177274D01*
X0354904Y0176657D02*
X0354904Y0179126D01*
X0356755Y0179126D01*
X0357372Y0178509D01*
X0357372Y0176657D01*
X0357362Y0173126D02*
X0358597Y0173126D01*
X0359214Y0172509D01*
X0359214Y0171891D01*
X0356745Y0171891D01*
X0356745Y0171274D02*
X0356745Y0172509D01*
X0357362Y0173126D01*
X0355524Y0173126D02*
X0354290Y0173126D01*
X0354907Y0173743D02*
X0354907Y0171274D01*
X0355524Y0170657D01*
X0356745Y0171274D02*
X0357362Y0170657D01*
X0358597Y0170657D01*
X0360428Y0170657D02*
X0360428Y0173126D01*
X0362280Y0173126D01*
X0362897Y0172509D01*
X0362897Y0170657D01*
X0367795Y0170657D02*
X0367795Y0174360D01*
X0367795Y0172509D02*
X0370263Y0172509D01*
X0371478Y0172509D02*
X0372095Y0173126D01*
X0373329Y0173126D01*
X0373947Y0172509D01*
X0373947Y0171891D01*
X0371478Y0171891D01*
X0371478Y0171274D02*
X0371478Y0172509D01*
X0371478Y0171274D02*
X0372095Y0170657D01*
X0373329Y0170657D01*
X0375161Y0170657D02*
X0375161Y0173126D01*
X0376395Y0173126D02*
X0377013Y0173126D01*
X0376395Y0173126D02*
X0375161Y0171891D01*
X0378230Y0173126D02*
X0379465Y0173126D01*
X0378847Y0173743D02*
X0378847Y0171274D01*
X0379465Y0170657D01*
X0380686Y0170657D02*
X0381920Y0170657D01*
X0381303Y0170657D02*
X0381303Y0173126D01*
X0380686Y0173126D01*
X0381303Y0174360D02*
X0381303Y0174977D01*
X0380699Y0176657D02*
X0378847Y0176657D01*
X0378230Y0177274D01*
X0378847Y0177891D01*
X0380699Y0177891D01*
X0380699Y0178509D02*
X0380699Y0176657D01*
X0381913Y0176657D02*
X0383148Y0176657D01*
X0382531Y0176657D02*
X0382531Y0180360D01*
X0381913Y0180360D01*
X0380082Y0179126D02*
X0378847Y0179126D01*
X0380082Y0179126D02*
X0380699Y0178509D01*
X0377016Y0178509D02*
X0377016Y0176657D01*
X0375781Y0176657D02*
X0375781Y0178509D01*
X0376399Y0179126D01*
X0377016Y0178509D01*
X0375781Y0178509D02*
X0375164Y0179126D01*
X0374547Y0179126D01*
X0374547Y0176657D01*
X0373326Y0176657D02*
X0372092Y0176657D01*
X0372709Y0176657D02*
X0372709Y0179126D01*
X0372092Y0179126D01*
X0370877Y0178509D02*
X0370877Y0176657D01*
X0370877Y0178509D02*
X0370260Y0179126D01*
X0368409Y0179126D01*
X0368409Y0176657D01*
X0367187Y0176657D02*
X0365953Y0176657D01*
X0366570Y0176657D02*
X0366570Y0179126D01*
X0365953Y0179126D01*
X0366570Y0180360D02*
X0366570Y0180977D01*
X0364739Y0180360D02*
X0364739Y0176657D01*
X0362270Y0176657D02*
X0362270Y0180360D01*
X0363504Y0179126D01*
X0364739Y0180360D01*
X0372709Y0180360D02*
X0372709Y0180977D01*
X0370263Y0174360D02*
X0370263Y0170657D01*
X0383141Y0170657D02*
X0383141Y0173126D01*
X0384993Y0173126D01*
X0385610Y0172509D01*
X0385610Y0170657D01*
X0386824Y0171274D02*
X0386824Y0172509D01*
X0387441Y0173126D01*
X0389293Y0173126D01*
X0389293Y0170040D01*
X0388676Y0169423D01*
X0388059Y0169423D01*
X0387441Y0170657D02*
X0389293Y0170657D01*
X0387441Y0170657D02*
X0386824Y0171274D01*
X0394191Y0170657D02*
X0396659Y0173126D01*
X0396659Y0173743D01*
X0396042Y0174360D01*
X0394808Y0174360D01*
X0394191Y0173743D01*
X0393587Y0176657D02*
X0392352Y0176657D01*
X0391735Y0177274D01*
X0391735Y0178509D01*
X0392352Y0179126D01*
X0393587Y0179126D01*
X0394204Y0178509D01*
X0394204Y0177891D01*
X0391735Y0177891D01*
X0389286Y0176657D02*
X0389286Y0180360D01*
X0388052Y0180360D02*
X0390521Y0180360D01*
X0395418Y0179126D02*
X0395418Y0176657D01*
X0395418Y0177891D02*
X0396653Y0179126D01*
X0397270Y0179126D01*
X0398488Y0179126D02*
X0399105Y0179126D01*
X0399722Y0178509D01*
X0400339Y0179126D01*
X0400956Y0178509D01*
X0400956Y0176657D01*
X0402171Y0176657D02*
X0403405Y0176657D01*
X0402788Y0176657D02*
X0402788Y0179126D01*
X0402171Y0179126D01*
X0402788Y0180360D02*
X0402788Y0180977D01*
X0404626Y0179126D02*
X0406478Y0179126D01*
X0407095Y0178509D01*
X0407095Y0176657D01*
X0408309Y0177274D02*
X0408926Y0176657D01*
X0410778Y0176657D01*
X0410778Y0178509D01*
X0410161Y0179126D01*
X0408926Y0179126D01*
X0408926Y0177891D02*
X0410778Y0177891D01*
X0411992Y0176657D02*
X0413227Y0176657D01*
X0412610Y0176657D02*
X0412610Y0180360D01*
X0411992Y0180360D01*
X0408926Y0177891D02*
X0408309Y0177274D01*
X0404626Y0176657D02*
X0404626Y0179126D01*
X0399722Y0178509D02*
X0399722Y0176657D01*
X0398488Y0176657D02*
X0398488Y0179126D01*
X0398491Y0174360D02*
X0399725Y0174360D01*
X0400342Y0173743D01*
X0397874Y0171274D01*
X0398491Y0170657D01*
X0399725Y0170657D01*
X0400342Y0171274D01*
X0400342Y0173743D01*
X0401557Y0173743D02*
X0402174Y0174360D01*
X0403408Y0174360D01*
X0404026Y0173743D01*
X0404026Y0173126D01*
X0401557Y0170657D01*
X0404026Y0170657D01*
X0405240Y0170657D02*
X0407709Y0170657D01*
X0406474Y0170657D02*
X0406474Y0174360D01*
X0405240Y0173126D01*
X0398491Y0174360D02*
X0397874Y0173743D01*
X0397874Y0171274D01*
X0396659Y0170657D02*
X0394191Y0170657D01*
X0418131Y0177274D02*
X0418748Y0176657D01*
X0420600Y0176657D01*
X0420600Y0180360D01*
X0420600Y0179126D02*
X0418748Y0179126D01*
X0418131Y0178509D01*
X0418131Y0177274D01*
X0421814Y0177274D02*
X0421814Y0178509D01*
X0422431Y0179126D01*
X0423666Y0179126D01*
X0424283Y0178509D01*
X0424283Y0177891D01*
X0421814Y0177891D01*
X0421814Y0177274D02*
X0422431Y0176657D01*
X0423666Y0176657D01*
X0425497Y0176657D02*
X0427349Y0176657D01*
X0427966Y0177274D01*
X0427349Y0177891D01*
X0426114Y0177891D01*
X0425497Y0178509D01*
X0426114Y0179126D01*
X0427966Y0179126D01*
X0429180Y0179126D02*
X0429798Y0179126D01*
X0429798Y0176657D01*
X0430415Y0176657D02*
X0429180Y0176657D01*
X0431636Y0177274D02*
X0432253Y0176657D01*
X0434105Y0176657D01*
X0434105Y0176040D02*
X0434105Y0179126D01*
X0432253Y0179126D01*
X0431636Y0178509D01*
X0431636Y0177274D01*
X0432870Y0175423D02*
X0433487Y0175423D01*
X0434105Y0176040D01*
X0435319Y0176657D02*
X0435319Y0179126D01*
X0437171Y0179126D01*
X0437788Y0178509D01*
X0437788Y0176657D01*
X0439002Y0177274D02*
X0439619Y0176657D01*
X0440854Y0176657D01*
X0441471Y0177891D02*
X0439002Y0177891D01*
X0439002Y0177274D02*
X0439002Y0178509D01*
X0439619Y0179126D01*
X0440854Y0179126D01*
X0441471Y0178509D01*
X0441471Y0177891D01*
X0442685Y0177274D02*
X0442685Y0178509D01*
X0443302Y0179126D01*
X0445154Y0179126D01*
X0445154Y0180360D02*
X0445154Y0176657D01*
X0443302Y0176657D01*
X0442685Y0177274D01*
X0429798Y0180360D02*
X0429798Y0180977D01*
X0416303Y0188657D02*
X0413834Y0188657D01*
X0412620Y0188657D02*
X0410151Y0188657D01*
X0412620Y0191126D01*
X0412620Y0191743D01*
X0412002Y0192360D01*
X0410768Y0192360D01*
X0410151Y0191743D01*
X0408936Y0191743D02*
X0406468Y0189274D01*
X0407085Y0188657D01*
X0408319Y0188657D01*
X0408936Y0189274D01*
X0408936Y0191743D01*
X0408319Y0192360D01*
X0407085Y0192360D01*
X0406468Y0191743D01*
X0406468Y0189274D01*
X0405253Y0188657D02*
X0402785Y0188657D01*
X0405253Y0191126D01*
X0405253Y0191743D01*
X0404636Y0192360D01*
X0403402Y0192360D01*
X0402785Y0191743D01*
X0401570Y0192360D02*
X0399101Y0188657D01*
X0397887Y0188657D02*
X0396035Y0188657D01*
X0395418Y0189274D01*
X0395418Y0190509D01*
X0396035Y0191126D01*
X0397887Y0191126D01*
X0394204Y0190509D02*
X0394204Y0189891D01*
X0391735Y0189891D01*
X0391735Y0189274D02*
X0391735Y0190509D01*
X0392352Y0191126D01*
X0393587Y0191126D01*
X0394204Y0190509D01*
X0393587Y0188657D02*
X0392352Y0188657D01*
X0391735Y0189274D01*
X0390521Y0189274D02*
X0390521Y0191743D01*
X0389904Y0192360D01*
X0388052Y0192360D01*
X0388052Y0188657D01*
X0389904Y0188657D01*
X0390521Y0189274D01*
X0383154Y0188657D02*
X0383154Y0190509D01*
X0382537Y0191126D01*
X0381303Y0191126D01*
X0381303Y0189891D02*
X0383154Y0189891D01*
X0383154Y0188657D02*
X0381303Y0188657D01*
X0380686Y0189274D01*
X0381303Y0189891D01*
X0379465Y0190509D02*
X0378230Y0190509D01*
X0377009Y0190509D02*
X0375775Y0190509D01*
X0374560Y0190509D02*
X0374560Y0188657D01*
X0372709Y0188657D01*
X0372092Y0189274D01*
X0372709Y0189891D01*
X0374560Y0189891D01*
X0374560Y0190509D02*
X0373943Y0191126D01*
X0372709Y0191126D01*
X0370877Y0191126D02*
X0370260Y0190509D01*
X0368409Y0190509D01*
X0370260Y0190509D02*
X0370877Y0189891D01*
X0370877Y0189274D01*
X0370260Y0188657D01*
X0368409Y0188657D01*
X0368409Y0192360D01*
X0370260Y0192360D01*
X0370877Y0191743D01*
X0370877Y0191126D01*
X0376392Y0191743D02*
X0376392Y0188657D01*
X0378847Y0188657D02*
X0378847Y0191743D01*
X0379465Y0192360D01*
X0377009Y0192360D02*
X0376392Y0191743D01*
X0363511Y0190509D02*
X0363511Y0189274D01*
X0362894Y0188657D01*
X0361659Y0188657D01*
X0361042Y0189274D01*
X0361042Y0190509D01*
X0361659Y0191126D01*
X0362894Y0191126D01*
X0363511Y0190509D01*
X0359821Y0191126D02*
X0358587Y0191126D01*
X0359204Y0191743D02*
X0359204Y0189274D01*
X0359821Y0188657D01*
X0357372Y0189274D02*
X0356755Y0189891D01*
X0355521Y0189891D01*
X0354904Y0190509D01*
X0355521Y0191126D01*
X0357372Y0191126D01*
X0357372Y0189274D02*
X0356755Y0188657D01*
X0354904Y0188657D01*
X0353689Y0188657D02*
X0353689Y0191126D01*
X0351221Y0191126D02*
X0351221Y0189274D01*
X0351838Y0188657D01*
X0353689Y0188657D01*
X0350006Y0188657D02*
X0348155Y0188657D01*
X0347537Y0189274D01*
X0347537Y0190509D01*
X0348155Y0191126D01*
X0350006Y0191126D01*
X0350006Y0188040D01*
X0349389Y0187423D01*
X0348772Y0187423D01*
X0346323Y0188657D02*
X0346323Y0191126D01*
X0343854Y0191126D02*
X0343854Y0189274D01*
X0344471Y0188657D01*
X0346323Y0188657D01*
X0342640Y0188657D02*
X0342640Y0191126D01*
X0341405Y0192360D01*
X0340171Y0191126D01*
X0340171Y0188657D01*
X0340171Y0190509D02*
X0342640Y0190509D01*
X0335274Y0191126D02*
X0335274Y0188040D01*
X0334656Y0187423D01*
X0334039Y0187423D01*
X0333422Y0188657D02*
X0335274Y0188657D01*
X0333422Y0188657D02*
X0332805Y0189274D01*
X0332805Y0191126D01*
X0331590Y0191126D02*
X0330973Y0190509D01*
X0329122Y0190509D01*
X0330973Y0190509D02*
X0331590Y0189891D01*
X0331590Y0189274D01*
X0330973Y0188657D01*
X0329122Y0188657D01*
X0329122Y0192360D01*
X0330973Y0192360D01*
X0331590Y0191743D01*
X0331590Y0191126D01*
X0330973Y0180360D02*
X0329122Y0180360D01*
X0329122Y0176657D01*
X0330973Y0176657D01*
X0331590Y0177274D01*
X0331590Y0177891D01*
X0330973Y0178509D01*
X0329122Y0178509D01*
X0330973Y0178509D02*
X0331590Y0179126D01*
X0331590Y0179743D01*
X0330973Y0180360D01*
X0333422Y0179126D02*
X0334656Y0179126D01*
X0335274Y0178509D01*
X0340171Y0173743D02*
X0340171Y0171274D01*
X0340788Y0170657D01*
X0342023Y0170657D01*
X0342640Y0171274D01*
X0343854Y0171274D02*
X0344471Y0171891D01*
X0346323Y0171891D01*
X0346323Y0172509D02*
X0346323Y0170657D01*
X0344471Y0170657D01*
X0343854Y0171274D01*
X0344471Y0173126D02*
X0345706Y0173126D01*
X0346323Y0172509D01*
X0347537Y0173126D02*
X0347537Y0170657D01*
X0347537Y0171891D02*
X0348772Y0173126D01*
X0349389Y0173126D01*
X0350607Y0172509D02*
X0351224Y0173126D01*
X0353075Y0173126D01*
X0352458Y0171891D02*
X0351224Y0171891D01*
X0350607Y0172509D01*
X0350607Y0170657D02*
X0352458Y0170657D01*
X0353075Y0171274D01*
X0352458Y0171891D01*
X0342640Y0173743D02*
X0342023Y0174360D01*
X0340788Y0174360D01*
X0340171Y0173743D01*
X0413834Y0191126D02*
X0415068Y0192360D01*
X0415068Y0188657D01*
X0421137Y0225005D02*
X0421621Y0225005D01*
X0422105Y0225488D01*
X0422105Y0227907D01*
X0420654Y0227907D01*
X0420170Y0227423D01*
X0420170Y0226456D01*
X0420654Y0225972D01*
X0422105Y0225972D01*
X0423116Y0225972D02*
X0423116Y0227907D01*
X0424568Y0227907D01*
X0425051Y0227423D01*
X0425051Y0225972D01*
X0426063Y0226456D02*
X0426063Y0227423D01*
X0426547Y0227907D01*
X0427998Y0227907D01*
X0427998Y0228875D02*
X0427998Y0225972D01*
X0426547Y0225972D01*
X0426063Y0226456D01*
X0416212Y0227423D02*
X0414277Y0227423D01*
X0410319Y0227907D02*
X0408867Y0227907D01*
X0408384Y0227423D01*
X0408384Y0226456D01*
X0408867Y0225972D01*
X0410319Y0225972D01*
X0407372Y0225972D02*
X0405921Y0225972D01*
X0405437Y0226456D01*
X0405437Y0227423D01*
X0405921Y0227907D01*
X0407372Y0227907D01*
X0404426Y0227907D02*
X0403458Y0225972D01*
X0402491Y0227907D01*
X0398533Y0227907D02*
X0396598Y0225972D01*
X0396598Y0227907D02*
X0398533Y0225972D01*
X0395593Y0227907D02*
X0395110Y0227907D01*
X0394142Y0226940D01*
X0394142Y0227907D02*
X0394142Y0225972D01*
X0390184Y0225972D02*
X0388249Y0227907D01*
X0387252Y0227907D02*
X0386285Y0227907D01*
X0386769Y0228391D02*
X0386769Y0226456D01*
X0387252Y0225972D01*
X0388249Y0225972D02*
X0390184Y0227907D01*
X0382341Y0227907D02*
X0381374Y0227907D01*
X0381858Y0228391D02*
X0381858Y0226456D01*
X0382341Y0225972D01*
X0380362Y0226456D02*
X0379879Y0226940D01*
X0378911Y0226940D01*
X0378427Y0227423D01*
X0378911Y0227907D01*
X0380362Y0227907D01*
X0380362Y0226456D02*
X0379879Y0225972D01*
X0378427Y0225972D01*
X0377423Y0227907D02*
X0376940Y0227907D01*
X0375972Y0226940D01*
X0375972Y0227907D02*
X0375972Y0225972D01*
X0466130Y0225972D02*
X0466130Y0227907D01*
X0467097Y0227907D02*
X0467581Y0227907D01*
X0467097Y0227907D02*
X0466130Y0226940D01*
X0468585Y0227423D02*
X0469069Y0227907D01*
X0470520Y0227907D01*
X0471531Y0227907D02*
X0472499Y0227907D01*
X0472015Y0228391D02*
X0472015Y0226456D01*
X0472499Y0225972D01*
X0470520Y0226456D02*
X0470036Y0226940D01*
X0469069Y0226940D01*
X0468585Y0227423D01*
X0468585Y0225972D02*
X0470036Y0225972D01*
X0470520Y0226456D01*
X0476442Y0227907D02*
X0477410Y0227907D01*
X0476926Y0228391D02*
X0476926Y0226456D01*
X0477410Y0225972D01*
X0478407Y0225972D02*
X0480342Y0227907D01*
X0478407Y0227907D02*
X0480342Y0225972D01*
X0484300Y0225972D02*
X0484300Y0227907D01*
X0485267Y0227907D02*
X0485751Y0227907D01*
X0485267Y0227907D02*
X0484300Y0226940D01*
X0486755Y0227907D02*
X0488690Y0225972D01*
X0486755Y0225972D02*
X0488690Y0227907D01*
X0492648Y0227907D02*
X0493616Y0225972D01*
X0494583Y0227907D01*
X0495595Y0227423D02*
X0495595Y0226456D01*
X0496078Y0225972D01*
X0497530Y0225972D01*
X0498541Y0226456D02*
X0499025Y0225972D01*
X0500476Y0225972D01*
X0500476Y0227907D02*
X0499025Y0227907D01*
X0498541Y0227423D01*
X0498541Y0226456D01*
X0497530Y0227907D02*
X0496078Y0227907D01*
X0495595Y0227423D01*
X0504434Y0227423D02*
X0506369Y0227423D01*
X0510327Y0227423D02*
X0510327Y0226456D01*
X0510811Y0225972D01*
X0512262Y0225972D01*
X0512262Y0225488D02*
X0512262Y0227907D01*
X0510811Y0227907D01*
X0510327Y0227423D01*
X0511295Y0225005D02*
X0511779Y0225005D01*
X0512262Y0225488D01*
X0513274Y0225972D02*
X0513274Y0227907D01*
X0514725Y0227907D01*
X0515209Y0227423D01*
X0515209Y0225972D01*
X0516220Y0226456D02*
X0516220Y0227423D01*
X0516704Y0227907D01*
X0518155Y0227907D01*
X0518155Y0228875D02*
X0518155Y0225972D01*
X0516704Y0225972D01*
X0516220Y0226456D01*
X0502145Y0151709D02*
X0501178Y0151709D01*
X0500694Y0151225D01*
X0499683Y0150742D02*
X0497748Y0148807D01*
X0497748Y0150742D02*
X0499683Y0148807D01*
X0500694Y0148807D02*
X0502629Y0150742D01*
X0502629Y0151225D01*
X0502145Y0151709D01*
X0502629Y0148807D02*
X0500694Y0148807D01*
X0496743Y0150742D02*
X0496260Y0150742D01*
X0495292Y0149774D01*
X0495292Y0148807D02*
X0495292Y0150742D01*
X0491334Y0150742D02*
X0491334Y0151225D01*
X0490850Y0151709D01*
X0489883Y0151709D01*
X0489399Y0151225D01*
X0488388Y0150742D02*
X0486453Y0148807D01*
X0485456Y0148807D02*
X0484972Y0149290D01*
X0484972Y0151225D01*
X0484488Y0150742D02*
X0485456Y0150742D01*
X0486453Y0150742D02*
X0488388Y0148807D01*
X0489399Y0148807D02*
X0491334Y0150742D01*
X0491334Y0148807D02*
X0489399Y0148807D01*
X0480530Y0148807D02*
X0478595Y0148807D01*
X0479563Y0148807D02*
X0479563Y0151709D01*
X0478595Y0150742D01*
X0477584Y0150742D02*
X0475649Y0148807D01*
X0475649Y0150742D02*
X0477584Y0148807D01*
X0474645Y0150742D02*
X0474161Y0150742D01*
X0473193Y0149774D01*
X0473193Y0148807D02*
X0473193Y0150742D01*
X0469235Y0148807D02*
X0467300Y0148807D01*
X0468268Y0148807D02*
X0468268Y0151709D01*
X0467300Y0150742D01*
X0466289Y0150742D02*
X0464354Y0148807D01*
X0463357Y0148807D02*
X0462873Y0149290D01*
X0462873Y0151225D01*
X0462389Y0150742D02*
X0463357Y0150742D01*
X0464354Y0150742D02*
X0466289Y0148807D01*
D13*
X0466676Y0155044D02*
X0466676Y0159548D01*
X0465174Y0158047D01*
X0465174Y0155044D02*
X0468177Y0155044D01*
X0475174Y0155044D02*
X0478177Y0158047D01*
X0478177Y0158798D01*
X0477426Y0159548D01*
X0475925Y0159548D01*
X0475174Y0158798D01*
X0485174Y0158798D02*
X0485925Y0159548D01*
X0487426Y0159548D01*
X0488177Y0158798D01*
X0488177Y0158047D01*
X0487426Y0157296D01*
X0488177Y0156546D01*
X0488177Y0155795D01*
X0487426Y0155044D01*
X0485925Y0155044D01*
X0485174Y0155795D01*
X0486676Y0157296D02*
X0487426Y0157296D01*
X0478177Y0155044D02*
X0475174Y0155044D01*
X0495174Y0157296D02*
X0498177Y0157296D01*
X0497426Y0155044D02*
X0497426Y0159548D01*
X0495174Y0157296D01*
X0510446Y0159006D02*
X0511947Y0157504D01*
X0512450Y0155953D02*
X0514151Y0155953D01*
X0514719Y0155386D01*
X0514719Y0154251D01*
X0514151Y0153684D01*
X0512450Y0153684D01*
X0512450Y0152550D02*
X0512450Y0155953D01*
X0513584Y0153684D02*
X0514719Y0152550D01*
X0516041Y0152550D02*
X0518310Y0152550D01*
X0517175Y0152550D02*
X0517175Y0155953D01*
X0516041Y0154819D01*
X0514950Y0157504D02*
X0514950Y0160507D01*
X0514950Y0159006D02*
X0510446Y0159006D01*
X0511197Y0162108D02*
X0510446Y0162859D01*
X0510446Y0164360D01*
X0511197Y0165111D01*
X0514199Y0162108D01*
X0514950Y0162859D01*
X0514950Y0164360D01*
X0514199Y0165111D01*
X0511197Y0165111D01*
X0511197Y0166712D02*
X0510446Y0167463D01*
X0510446Y0168964D01*
X0511197Y0169715D01*
X0514199Y0166712D01*
X0514950Y0167463D01*
X0514950Y0168964D01*
X0514199Y0169715D01*
X0511197Y0169715D01*
X0511947Y0171316D02*
X0511947Y0173568D01*
X0512698Y0174319D01*
X0514950Y0174319D01*
X0514950Y0176671D02*
X0511197Y0176671D01*
X0510446Y0177421D01*
X0512698Y0177421D02*
X0512698Y0175920D01*
X0511947Y0171316D02*
X0514950Y0171316D01*
X0514199Y0166712D02*
X0511197Y0166712D01*
X0511197Y0162108D02*
X0514199Y0162108D01*
X0520199Y0155953D02*
X0521334Y0155953D01*
X0521901Y0155386D01*
X0521901Y0154819D01*
X0521334Y0154251D01*
X0521901Y0153684D01*
X0521901Y0153117D01*
X0521334Y0152550D01*
X0520199Y0152550D01*
X0519632Y0153117D01*
X0520766Y0154251D02*
X0521334Y0154251D01*
X0519632Y0155386D02*
X0520199Y0155953D01*
X0519641Y0148953D02*
X0519641Y0147251D01*
X0520775Y0147819D01*
X0521343Y0147819D01*
X0521910Y0147251D01*
X0521910Y0146117D01*
X0521343Y0145550D01*
X0520208Y0145550D01*
X0519641Y0146117D01*
X0518319Y0145550D02*
X0516050Y0145550D01*
X0517184Y0145550D02*
X0517184Y0148953D01*
X0516050Y0147819D01*
X0519641Y0148953D02*
X0521910Y0148953D01*
X0523232Y0148386D02*
X0523799Y0148953D01*
X0524934Y0148953D01*
X0525501Y0148386D01*
X0523232Y0146117D01*
X0523799Y0145550D01*
X0524934Y0145550D01*
X0525501Y0146117D01*
X0525501Y0148386D01*
X0523232Y0148386D02*
X0523232Y0146117D01*
X0549474Y0148991D02*
X0553978Y0148991D01*
X0553978Y0150492D02*
X0553978Y0147489D01*
X0550975Y0147489D02*
X0549474Y0148991D01*
X0559946Y0154823D02*
X0560697Y0153321D01*
X0562198Y0151820D01*
X0562198Y0154072D01*
X0562949Y0154823D01*
X0563699Y0154823D01*
X0564450Y0154072D01*
X0564450Y0152571D01*
X0563699Y0151820D01*
X0562198Y0151820D01*
X0570576Y0150959D02*
X0575080Y0150959D01*
X0575080Y0149458D02*
X0575080Y0152460D01*
X0575080Y0154062D02*
X0575080Y0157064D01*
X0575080Y0155563D02*
X0570576Y0155563D01*
X0572077Y0154062D01*
X0570576Y0150959D02*
X0572077Y0149458D01*
X0533950Y0170532D02*
X0533950Y0172033D01*
X0533199Y0172784D01*
X0533199Y0174385D02*
X0533950Y0175136D01*
X0533950Y0176637D01*
X0533199Y0177388D01*
X0532449Y0177388D01*
X0531698Y0176637D01*
X0531698Y0174385D01*
X0533199Y0174385D01*
X0531698Y0174385D02*
X0530197Y0175887D01*
X0529446Y0177388D01*
X0530197Y0172784D02*
X0529446Y0172033D01*
X0529446Y0170532D01*
X0530197Y0169782D01*
X0533199Y0169782D01*
X0533950Y0170532D01*
X0500431Y0183493D02*
X0500431Y0187997D01*
X0501932Y0187997D02*
X0498929Y0187997D01*
X0497328Y0187247D02*
X0496577Y0187997D01*
X0494326Y0187997D01*
X0494326Y0183493D01*
X0494326Y0184995D02*
X0496577Y0184995D01*
X0497328Y0185745D01*
X0497328Y0187247D01*
X0495827Y0184995D02*
X0497328Y0183493D01*
X0492724Y0183493D02*
X0492724Y0186496D01*
X0491223Y0187997D01*
X0489722Y0186496D01*
X0489722Y0183493D01*
X0488120Y0184244D02*
X0488120Y0187997D01*
X0489722Y0185745D02*
X0492724Y0185745D01*
X0488120Y0184244D02*
X0487370Y0183493D01*
X0485868Y0183493D01*
X0485118Y0184244D01*
X0485118Y0187997D01*
X0478912Y0187247D02*
X0478162Y0187997D01*
X0476660Y0187997D01*
X0475910Y0187247D01*
X0475910Y0186496D01*
X0476660Y0185745D01*
X0478162Y0185745D01*
X0478912Y0184995D01*
X0478912Y0184244D01*
X0478162Y0183493D01*
X0476660Y0183493D01*
X0475910Y0184244D01*
X0474308Y0184244D02*
X0474308Y0187997D01*
X0471306Y0187997D02*
X0471306Y0184244D01*
X0472057Y0183493D01*
X0473558Y0183493D01*
X0474308Y0184244D01*
X0469705Y0184244D02*
X0468954Y0183493D01*
X0466702Y0183493D01*
X0466702Y0187997D01*
X0468954Y0187997D01*
X0469705Y0187247D01*
X0469705Y0186496D01*
X0468954Y0185745D01*
X0466702Y0185745D01*
X0468954Y0185745D02*
X0469705Y0184995D01*
X0469705Y0184244D01*
X0459832Y0179700D02*
X0459832Y0176697D01*
X0456829Y0179700D01*
X0456079Y0179700D01*
X0455328Y0178949D01*
X0455328Y0177448D01*
X0456079Y0176697D01*
X0456079Y0175096D02*
X0457580Y0175096D01*
X0458331Y0174345D01*
X0458331Y0172093D01*
X0459832Y0172093D02*
X0455328Y0172093D01*
X0455328Y0174345D01*
X0456079Y0175096D01*
X0455328Y0170492D02*
X0455328Y0168991D01*
X0455328Y0169741D02*
X0459081Y0169741D01*
X0459832Y0168991D01*
X0459832Y0168240D01*
X0459081Y0167489D01*
X0510446Y0189911D02*
X0514950Y0189911D01*
X0514950Y0188410D02*
X0514950Y0191412D01*
X0514199Y0193014D02*
X0511197Y0193014D01*
X0510446Y0193764D01*
X0510446Y0195266D01*
X0511197Y0196016D01*
X0514199Y0193014D01*
X0514950Y0193764D01*
X0514950Y0195266D01*
X0514199Y0196016D01*
X0511197Y0196016D01*
X0511197Y0197618D02*
X0510446Y0198368D01*
X0510446Y0199870D01*
X0511197Y0200620D01*
X0514199Y0197618D01*
X0514950Y0198368D01*
X0514950Y0199870D01*
X0514199Y0200620D01*
X0511197Y0200620D01*
X0511947Y0202222D02*
X0511947Y0204474D01*
X0512698Y0205224D01*
X0514950Y0205224D01*
X0514950Y0207576D02*
X0511197Y0207576D01*
X0510446Y0208327D01*
X0512698Y0208327D02*
X0512698Y0206826D01*
X0511947Y0202222D02*
X0514950Y0202222D01*
X0514199Y0197618D02*
X0511197Y0197618D01*
X0510446Y0189911D02*
X0511947Y0188410D01*
X0529446Y0201438D02*
X0530197Y0200687D01*
X0533199Y0200687D01*
X0533950Y0201438D01*
X0533950Y0202939D01*
X0533199Y0203690D01*
X0533199Y0205291D02*
X0533950Y0206042D01*
X0533950Y0207543D01*
X0533199Y0208294D01*
X0530197Y0208294D01*
X0529446Y0207543D01*
X0529446Y0206042D01*
X0530197Y0205291D01*
X0530947Y0205291D01*
X0531698Y0206042D01*
X0531698Y0208294D01*
X0530197Y0203690D02*
X0529446Y0202939D01*
X0529446Y0201438D01*
X0546829Y0201369D02*
X0546829Y0198316D01*
X0552934Y0198316D01*
X0550899Y0198316D02*
X0550899Y0201369D01*
X0549882Y0202386D01*
X0547847Y0202386D01*
X0546829Y0201369D01*
X0547847Y0204393D02*
X0548864Y0204393D01*
X0549882Y0205411D01*
X0549882Y0207446D01*
X0550899Y0208463D01*
X0551917Y0208463D01*
X0552934Y0207446D01*
X0552934Y0205411D01*
X0551917Y0204393D01*
X0547847Y0204393D02*
X0546829Y0205411D01*
X0546829Y0207446D01*
X0547847Y0208463D01*
X0552934Y0210471D02*
X0546829Y0214541D01*
X0547847Y0216548D02*
X0546829Y0217565D01*
X0546829Y0219600D01*
X0547847Y0220618D01*
X0548864Y0220618D01*
X0552934Y0216548D01*
X0552934Y0220618D01*
X0552934Y0228702D02*
X0552934Y0230737D01*
X0552934Y0229720D02*
X0546829Y0229720D01*
X0546829Y0230737D02*
X0546829Y0228702D01*
X0548864Y0232754D02*
X0548864Y0235806D01*
X0549882Y0236824D01*
X0552934Y0236824D01*
X0552934Y0238831D02*
X0552934Y0241883D01*
X0551917Y0242901D01*
X0549882Y0242901D01*
X0548864Y0241883D01*
X0548864Y0238831D01*
X0554969Y0238831D01*
X0552934Y0232754D02*
X0548864Y0232754D01*
X0548864Y0244908D02*
X0551917Y0244908D01*
X0552934Y0245925D01*
X0552934Y0248978D01*
X0548864Y0248978D01*
X0548864Y0250985D02*
X0548864Y0253020D01*
X0547847Y0252003D02*
X0551917Y0252003D01*
X0552934Y0253020D01*
X0296783Y0128732D02*
X0296215Y0129299D01*
X0295081Y0129299D01*
X0294514Y0128732D01*
X0296783Y0128732D02*
X0296783Y0128165D01*
X0294514Y0125896D01*
X0296783Y0125896D01*
X0293192Y0125896D02*
X0290923Y0125896D01*
X0292057Y0125896D02*
X0292057Y0129299D01*
X0290923Y0128165D01*
X0289600Y0127598D02*
X0289033Y0127031D01*
X0287332Y0127031D01*
X0288466Y0127031D02*
X0289600Y0125896D01*
X0289600Y0127598D02*
X0289600Y0128732D01*
X0289033Y0129299D01*
X0287332Y0129299D01*
X0287332Y0125896D01*
X0290932Y0121165D02*
X0292066Y0122299D01*
X0292066Y0118896D01*
X0290932Y0118896D02*
X0293200Y0118896D01*
X0294523Y0118896D02*
X0294523Y0122299D01*
X0296224Y0121165D02*
X0294523Y0120031D01*
X0296224Y0118896D01*
X0294523Y0112181D02*
X0294523Y0108778D01*
X0294523Y0109913D02*
X0296224Y0108778D01*
X0294523Y0109913D02*
X0296224Y0111047D01*
X0293200Y0108778D02*
X0290932Y0108778D01*
X0292066Y0108778D02*
X0292066Y0112181D01*
X0290932Y0111047D01*
X0291860Y0105008D02*
X0291860Y0101605D01*
X0290726Y0101605D02*
X0292995Y0101605D01*
X0294317Y0101605D02*
X0296586Y0101605D01*
X0295451Y0101605D02*
X0295451Y0105008D01*
X0294317Y0103874D01*
X0291860Y0105008D02*
X0290726Y0103874D01*
X0289404Y0104441D02*
X0289404Y0103307D01*
X0288836Y0102739D01*
X0287135Y0102739D01*
X0287135Y0101605D02*
X0287135Y0105008D01*
X0288836Y0105008D01*
X0289404Y0104441D01*
X0288269Y0102739D02*
X0289404Y0101605D01*
X0261103Y0108411D02*
X0259602Y0108411D01*
X0258001Y0108411D02*
X0258001Y0106159D01*
X0258001Y0108411D02*
X0257250Y0109161D01*
X0254998Y0109161D01*
X0254998Y0106159D01*
X0253397Y0106909D02*
X0252646Y0106159D01*
X0251145Y0106159D01*
X0250394Y0106909D01*
X0253397Y0109912D01*
X0253397Y0106909D01*
X0253397Y0109912D02*
X0252646Y0110662D01*
X0251145Y0110662D01*
X0250394Y0109912D01*
X0250394Y0106909D01*
X0248793Y0106909D02*
X0248042Y0106159D01*
X0246541Y0106159D01*
X0245790Y0106909D01*
X0248793Y0109912D01*
X0248793Y0106909D01*
X0245790Y0106909D02*
X0245790Y0109912D01*
X0246541Y0110662D01*
X0248042Y0110662D01*
X0248793Y0109912D01*
X0242687Y0110662D02*
X0241186Y0109161D01*
X0242687Y0110662D02*
X0242687Y0106159D01*
X0241186Y0106159D02*
X0244189Y0106159D01*
X0260353Y0106159D02*
X0260353Y0109912D01*
X0261103Y0110662D01*
X0253397Y0125159D02*
X0250394Y0125159D01*
X0253397Y0128161D01*
X0253397Y0128912D01*
X0252646Y0129662D01*
X0251145Y0129662D01*
X0250394Y0128912D01*
X0247291Y0129662D02*
X0247291Y0125159D01*
X0245790Y0125159D02*
X0248793Y0125159D01*
X0245790Y0128161D02*
X0247291Y0129662D01*
X0244189Y0128912D02*
X0243438Y0129662D01*
X0241937Y0129662D01*
X0241186Y0128912D01*
X0241186Y0125909D01*
X0241937Y0125159D01*
X0243438Y0125159D01*
X0244189Y0125909D01*
X0200406Y0121165D02*
X0198705Y0120031D01*
X0200406Y0118896D01*
X0198705Y0118896D02*
X0198705Y0122299D01*
X0197382Y0121732D02*
X0195114Y0119464D01*
X0195681Y0118896D01*
X0196815Y0118896D01*
X0197382Y0119464D01*
X0197382Y0121732D01*
X0196815Y0122299D01*
X0195681Y0122299D01*
X0195114Y0121732D01*
X0195114Y0119464D01*
X0193791Y0118896D02*
X0191522Y0118896D01*
X0192657Y0118896D02*
X0192657Y0122299D01*
X0191522Y0121165D01*
X0191514Y0125896D02*
X0193782Y0125896D01*
X0192648Y0125896D02*
X0192648Y0129299D01*
X0191514Y0128165D01*
X0190191Y0127598D02*
X0189624Y0127031D01*
X0187922Y0127031D01*
X0187922Y0125896D02*
X0187922Y0129299D01*
X0189624Y0129299D01*
X0190191Y0128732D01*
X0190191Y0127598D01*
X0189057Y0127031D02*
X0190191Y0125896D01*
X0195105Y0126464D02*
X0195672Y0125896D01*
X0196806Y0125896D01*
X0197373Y0126464D01*
X0197373Y0127031D01*
X0196806Y0127598D01*
X0195105Y0127598D01*
X0195105Y0126464D01*
X0195105Y0127598D02*
X0196239Y0128732D01*
X0197373Y0129299D01*
X0196618Y0112181D02*
X0195484Y0112181D01*
X0194917Y0111614D01*
X0194917Y0109345D01*
X0197185Y0111614D01*
X0197185Y0109345D01*
X0196618Y0108778D01*
X0195484Y0108778D01*
X0194917Y0109345D01*
X0193594Y0108778D02*
X0191326Y0108778D01*
X0192460Y0108778D02*
X0192460Y0112181D01*
X0191326Y0111047D01*
X0196618Y0112181D02*
X0197185Y0111614D01*
X0198508Y0112181D02*
X0198508Y0108778D01*
X0198508Y0109913D02*
X0200209Y0108778D01*
X0198508Y0109913D02*
X0200209Y0111047D01*
X0196412Y0104614D02*
X0195278Y0104614D01*
X0194711Y0104047D01*
X0194711Y0101779D01*
X0196979Y0104047D01*
X0196979Y0101779D01*
X0196412Y0101211D01*
X0195278Y0101211D01*
X0194711Y0101779D01*
X0193388Y0101211D02*
X0191120Y0101211D01*
X0192254Y0101211D02*
X0192254Y0104614D01*
X0191120Y0103480D01*
X0189797Y0102913D02*
X0189230Y0102346D01*
X0187529Y0102346D01*
X0188663Y0102346D02*
X0189797Y0101211D01*
X0189797Y0102913D02*
X0189797Y0104047D01*
X0189230Y0104614D01*
X0187529Y0104614D01*
X0187529Y0101211D01*
X0196412Y0104614D02*
X0196979Y0104047D01*
X0098809Y0120422D02*
X0095807Y0120422D01*
X0098809Y0123425D01*
X0095807Y0123425D01*
X0094205Y0122674D02*
X0094205Y0120422D01*
X0094205Y0122674D02*
X0093455Y0123425D01*
X0091953Y0123425D01*
X0091203Y0122674D01*
X0091203Y0124926D02*
X0091203Y0120422D01*
X0089601Y0120422D02*
X0089601Y0124926D01*
X0088100Y0123425D01*
X0086599Y0124926D01*
X0086599Y0120422D01*
X0084247Y0120422D02*
X0084247Y0124926D01*
X0081995Y0122674D01*
X0084997Y0122674D01*
X0080394Y0123425D02*
X0077391Y0120422D01*
X0080394Y0120422D01*
X0080394Y0123425D02*
X0080394Y0124176D01*
X0079643Y0124926D01*
X0078142Y0124926D01*
X0077391Y0124176D01*
X0063391Y0124237D02*
X0063391Y0121234D01*
X0058887Y0121234D01*
X0060388Y0119633D02*
X0063391Y0119633D01*
X0061139Y0119633D02*
X0061139Y0116630D01*
X0060388Y0116630D02*
X0058887Y0118132D01*
X0060388Y0119633D01*
X0060388Y0116630D02*
X0063391Y0116630D01*
X0063391Y0113528D02*
X0058887Y0113528D01*
X0058887Y0115029D02*
X0058887Y0112026D01*
X0058887Y0110425D02*
X0063391Y0107422D01*
X0063391Y0110425D02*
X0058887Y0107422D01*
X0074199Y0178159D02*
X0074950Y0178909D01*
X0074950Y0179660D01*
X0074199Y0180411D01*
X0070446Y0180411D01*
X0070446Y0181161D02*
X0070446Y0179660D01*
X0070446Y0182763D02*
X0070446Y0185015D01*
X0071197Y0185765D01*
X0072698Y0185765D01*
X0073449Y0185015D01*
X0073449Y0182763D01*
X0074950Y0182763D02*
X0070446Y0182763D01*
X0070446Y0187367D02*
X0070446Y0190369D01*
X0071197Y0190369D01*
X0074199Y0187367D01*
X0074950Y0187367D01*
X0098946Y0191909D02*
X0099697Y0191159D01*
X0098946Y0191909D02*
X0098946Y0193411D01*
X0099697Y0194161D01*
X0100447Y0194161D01*
X0103450Y0191159D01*
X0103450Y0194161D01*
X0095849Y0201409D02*
X0095849Y0204412D01*
X0095098Y0205162D01*
X0092846Y0205162D01*
X0092846Y0200659D01*
X0095098Y0200659D01*
X0095849Y0201409D01*
X0091245Y0200659D02*
X0088242Y0200659D01*
X0088242Y0205162D01*
X0091245Y0205162D01*
X0089743Y0202911D02*
X0088242Y0202911D01*
X0086641Y0205162D02*
X0083638Y0205162D01*
X0083638Y0200659D01*
X0086641Y0200659D01*
X0085139Y0202911D02*
X0083638Y0202911D01*
X0082037Y0202911D02*
X0082037Y0204412D01*
X0081286Y0205162D01*
X0079034Y0205162D01*
X0079034Y0200659D01*
X0079034Y0202160D02*
X0081286Y0202160D01*
X0082037Y0202911D01*
X0077433Y0202160D02*
X0077433Y0201409D01*
X0076682Y0200659D01*
X0075181Y0200659D01*
X0074430Y0201409D01*
X0075181Y0202911D02*
X0076682Y0202911D01*
X0077433Y0202160D01*
X0077433Y0204412D02*
X0076682Y0205162D01*
X0075181Y0205162D01*
X0074430Y0204412D01*
X0074430Y0203661D01*
X0075181Y0202911D01*
X0074424Y0214182D02*
X0077427Y0214182D01*
X0079028Y0214933D02*
X0079779Y0214182D01*
X0081280Y0214182D01*
X0082030Y0214933D01*
X0082030Y0215684D01*
X0081280Y0216434D01*
X0079779Y0216434D01*
X0079028Y0217185D01*
X0079028Y0217935D01*
X0079779Y0218686D01*
X0081280Y0218686D01*
X0082030Y0217935D01*
X0083632Y0218686D02*
X0083632Y0214182D01*
X0086634Y0214182D01*
X0085133Y0216434D02*
X0083632Y0216434D01*
X0083632Y0218686D02*
X0086634Y0218686D01*
X0088236Y0218686D02*
X0091238Y0218686D01*
X0089737Y0218686D02*
X0089737Y0214182D01*
X0077427Y0218686D02*
X0074424Y0218686D01*
X0074424Y0214182D01*
X0072823Y0214182D02*
X0071321Y0215684D01*
X0072072Y0215684D02*
X0069820Y0215684D01*
X0069820Y0214182D02*
X0069820Y0218686D01*
X0072072Y0218686D01*
X0072823Y0217935D01*
X0072823Y0216434D01*
X0072072Y0215684D01*
X0074424Y0216434D02*
X0075925Y0216434D01*
X0075175Y0248682D02*
X0074424Y0249433D01*
X0075175Y0248682D02*
X0076676Y0248682D01*
X0077427Y0249433D01*
X0077427Y0250934D01*
X0076676Y0251685D01*
X0075925Y0251685D01*
X0074424Y0250934D01*
X0074424Y0253186D01*
X0077427Y0253186D01*
X0072823Y0252435D02*
X0072072Y0253186D01*
X0070571Y0253186D01*
X0069820Y0252435D01*
X0069820Y0251685D01*
X0070571Y0250934D01*
X0072072Y0250934D01*
X0072823Y0250184D01*
X0072823Y0249433D01*
X0072072Y0248682D01*
X0070571Y0248682D01*
X0069820Y0249433D01*
X0152572Y0215098D02*
X0153323Y0214348D01*
X0157076Y0214348D01*
X0157076Y0211996D02*
X0154824Y0211996D01*
X0154073Y0211245D01*
X0154073Y0208993D01*
X0157076Y0208993D01*
X0156325Y0207392D02*
X0157076Y0206641D01*
X0157076Y0205140D01*
X0156325Y0204389D01*
X0153323Y0207392D01*
X0156325Y0207392D01*
X0153323Y0207392D02*
X0152572Y0206641D01*
X0152572Y0205140D01*
X0153323Y0204389D01*
X0156325Y0204389D01*
X0156325Y0202788D02*
X0157076Y0202037D01*
X0157076Y0200536D01*
X0156325Y0199785D01*
X0153323Y0202788D01*
X0156325Y0202788D01*
X0153323Y0202788D02*
X0152572Y0202037D01*
X0152572Y0200536D01*
X0153323Y0199785D01*
X0156325Y0199785D01*
X0157076Y0198184D02*
X0157076Y0195182D01*
X0157076Y0196683D02*
X0152572Y0196683D01*
X0154073Y0195182D01*
X0171379Y0194066D02*
X0171379Y0192565D01*
X0172130Y0191815D01*
X0175132Y0191815D01*
X0175883Y0192565D01*
X0175883Y0194066D01*
X0175132Y0194817D01*
X0175883Y0196418D02*
X0172881Y0199421D01*
X0172130Y0199421D01*
X0171379Y0198670D01*
X0171379Y0197169D01*
X0172130Y0196418D01*
X0172130Y0194817D02*
X0171379Y0194066D01*
X0171379Y0190247D02*
X0171379Y0188745D01*
X0171379Y0189496D02*
X0175883Y0189496D01*
X0175883Y0188745D02*
X0175883Y0190247D01*
X0175883Y0196418D02*
X0175883Y0199421D01*
X0175325Y0202855D02*
X0176076Y0203605D01*
X0176076Y0205107D01*
X0175325Y0205857D01*
X0176076Y0207459D02*
X0176076Y0210461D01*
X0176076Y0208960D02*
X0171572Y0208960D01*
X0173073Y0207459D01*
X0172323Y0205857D02*
X0171572Y0205107D01*
X0171572Y0203605D01*
X0172323Y0202855D01*
X0175325Y0202855D01*
X0188383Y0202249D02*
X0191386Y0202249D01*
X0191386Y0201498D01*
X0188383Y0198496D01*
X0188383Y0197745D01*
X0192987Y0199997D02*
X0195990Y0199997D01*
X0197591Y0199997D02*
X0200593Y0199997D01*
X0202195Y0198496D02*
X0202945Y0197745D01*
X0204447Y0197745D01*
X0205197Y0198496D01*
X0206799Y0197745D02*
X0209801Y0197745D01*
X0208300Y0197745D02*
X0208300Y0202249D01*
X0206799Y0200748D01*
X0205197Y0201498D02*
X0204447Y0202249D01*
X0202945Y0202249D01*
X0202195Y0201498D01*
X0202195Y0198496D01*
X0200593Y0197745D02*
X0200593Y0202249D01*
X0197591Y0202249D02*
X0197591Y0197745D01*
X0195239Y0197745D02*
X0195239Y0202249D01*
X0192987Y0199997D01*
X0211403Y0199997D02*
X0213655Y0199997D01*
X0214405Y0199247D01*
X0214405Y0198496D01*
X0213655Y0197745D01*
X0212153Y0197745D01*
X0211403Y0198496D01*
X0211403Y0199997D01*
X0212904Y0201498D01*
X0214405Y0202249D01*
X0216007Y0199997D02*
X0218259Y0199997D01*
X0219009Y0199247D01*
X0219009Y0198496D01*
X0218259Y0197745D01*
X0216757Y0197745D01*
X0216007Y0198496D01*
X0216007Y0199997D01*
X0217508Y0201498D01*
X0219009Y0202249D01*
X0220611Y0202249D02*
X0223613Y0197745D01*
X0223613Y0202249D01*
X0220611Y0202249D02*
X0220611Y0197745D01*
X0176076Y0212063D02*
X0176076Y0215065D01*
X0176076Y0213564D02*
X0171572Y0213564D01*
X0173073Y0212063D01*
X0154824Y0213597D02*
X0154824Y0215098D01*
X0103450Y0184161D02*
X0103450Y0181159D01*
X0103450Y0182660D02*
X0098946Y0182660D01*
X0100447Y0181159D01*
X0379394Y0068321D02*
X0380145Y0069072D01*
X0381646Y0069072D01*
X0382397Y0068321D01*
X0382397Y0067571D01*
X0381646Y0066820D01*
X0382397Y0066069D01*
X0382397Y0065319D01*
X0381646Y0064568D01*
X0380145Y0064568D01*
X0379394Y0065319D01*
X0380895Y0066820D02*
X0381646Y0066820D01*
X0383998Y0065319D02*
X0384749Y0064568D01*
X0386250Y0064568D01*
X0387001Y0065319D01*
X0387001Y0066069D01*
X0386250Y0066820D01*
X0385499Y0066820D01*
X0386250Y0066820D02*
X0387001Y0067571D01*
X0387001Y0068321D01*
X0386250Y0069072D01*
X0384749Y0069072D01*
X0383998Y0068321D01*
X0388602Y0068321D02*
X0388602Y0065319D01*
X0391605Y0068321D01*
X0391605Y0065319D01*
X0390854Y0064568D01*
X0389353Y0064568D01*
X0388602Y0065319D01*
X0388602Y0068321D02*
X0389353Y0069072D01*
X0390854Y0069072D01*
X0391605Y0068321D01*
X0393206Y0067571D02*
X0395458Y0067571D01*
X0396208Y0066820D01*
X0396208Y0064568D01*
X0398560Y0064568D02*
X0398560Y0068321D01*
X0399311Y0069072D01*
X0399311Y0066820D02*
X0397810Y0066820D01*
X0393206Y0067571D02*
X0393206Y0064568D01*
X0393923Y0050072D02*
X0392422Y0050072D01*
X0391671Y0049321D01*
X0391671Y0046319D01*
X0392422Y0045568D01*
X0393923Y0045568D01*
X0394674Y0046319D01*
X0396275Y0045568D02*
X0399278Y0045568D01*
X0397776Y0045568D02*
X0397776Y0050072D01*
X0396275Y0048571D01*
X0394674Y0049321D02*
X0393923Y0050072D01*
X0461115Y0079968D02*
X0461866Y0079218D01*
X0464869Y0079218D01*
X0465619Y0079968D01*
X0465619Y0081470D01*
X0464869Y0082220D01*
X0465619Y0083822D02*
X0462617Y0086824D01*
X0461866Y0086824D01*
X0461115Y0086074D01*
X0461115Y0084572D01*
X0461866Y0083822D01*
X0461866Y0082220D02*
X0461115Y0081470D01*
X0461115Y0079968D01*
X0465619Y0083822D02*
X0465619Y0086824D01*
X0480115Y0086074D02*
X0480115Y0084572D01*
X0480866Y0083822D01*
X0483869Y0083822D01*
X0480866Y0086824D01*
X0483869Y0086824D01*
X0484619Y0086074D01*
X0484619Y0084572D01*
X0483869Y0083822D01*
X0484619Y0082220D02*
X0484619Y0079218D01*
X0484619Y0080719D02*
X0480115Y0080719D01*
X0481617Y0079218D01*
X0480115Y0086074D02*
X0480866Y0086824D01*
X0480866Y0088426D02*
X0480115Y0089176D01*
X0480115Y0090677D01*
X0480866Y0091428D01*
X0483869Y0088426D01*
X0484619Y0089176D01*
X0484619Y0090677D01*
X0483869Y0091428D01*
X0480866Y0091428D01*
X0481617Y0093029D02*
X0481617Y0095281D01*
X0482367Y0096032D01*
X0484619Y0096032D01*
X0484619Y0098384D02*
X0480866Y0098384D01*
X0480115Y0099135D01*
X0482367Y0099135D02*
X0482367Y0097633D01*
X0481617Y0093029D02*
X0484619Y0093029D01*
X0483869Y0088426D02*
X0480866Y0088426D01*
X0453198Y0098470D02*
X0448694Y0098470D01*
X0450946Y0096218D01*
X0450946Y0099220D01*
X0452447Y0100822D02*
X0453198Y0100822D01*
X0452447Y0100822D02*
X0449445Y0103824D01*
X0448694Y0103824D01*
X0448694Y0100822D01*
X0450195Y0105426D02*
X0452447Y0105426D01*
X0453198Y0106176D01*
X0453198Y0108428D01*
X0450195Y0108428D01*
X0450946Y0110029D02*
X0450946Y0111531D01*
X0449445Y0110780D02*
X0453198Y0110780D01*
X0449445Y0110780D02*
X0448694Y0111531D01*
X0435947Y0100822D02*
X0432945Y0103824D01*
X0432194Y0103824D01*
X0432194Y0100822D01*
X0432945Y0099220D02*
X0432194Y0098470D01*
X0432194Y0096968D01*
X0432945Y0096218D01*
X0435947Y0096218D01*
X0436698Y0096968D01*
X0436698Y0098470D01*
X0435947Y0099220D01*
X0435947Y0100822D02*
X0436698Y0100822D01*
X0503447Y0107450D02*
X0503447Y0109151D01*
X0504014Y0109719D01*
X0505149Y0109719D01*
X0505716Y0109151D01*
X0505716Y0107450D01*
X0506850Y0107450D02*
X0503447Y0107450D01*
X0505716Y0108584D02*
X0506850Y0109719D01*
X0506850Y0111041D02*
X0506850Y0113310D01*
X0506850Y0112175D02*
X0503447Y0112175D01*
X0504581Y0111041D01*
X0510447Y0111050D02*
X0510447Y0113319D01*
X0511014Y0113319D01*
X0513283Y0111050D01*
X0513850Y0111050D01*
X0518447Y0112175D02*
X0521850Y0112175D01*
X0521850Y0111041D02*
X0521850Y0113310D01*
X0520149Y0114632D02*
X0518447Y0116334D01*
X0521850Y0116334D01*
X0520149Y0116901D02*
X0520149Y0114632D01*
X0518447Y0112175D02*
X0519581Y0111041D01*
X0519014Y0109719D02*
X0520149Y0109719D01*
X0520716Y0109151D01*
X0520716Y0107450D01*
X0521850Y0107450D02*
X0518447Y0107450D01*
X0518447Y0109151D01*
X0519014Y0109719D01*
X0520716Y0108584D02*
X0521850Y0109719D01*
X0525447Y0111050D02*
X0525447Y0113319D01*
X0526014Y0113319D01*
X0528283Y0111050D01*
X0528850Y0111050D01*
X0528283Y0114641D02*
X0528850Y0115208D01*
X0528850Y0116343D01*
X0528283Y0116910D01*
X0527149Y0116910D01*
X0526581Y0116343D01*
X0526581Y0115775D01*
X0527149Y0114641D01*
X0525447Y0114641D01*
X0525447Y0116910D01*
X0513850Y0116343D02*
X0513850Y0115208D01*
X0513283Y0114641D01*
X0512149Y0114641D02*
X0511581Y0115775D01*
X0511581Y0116343D01*
X0512149Y0116910D01*
X0513283Y0116910D01*
X0513850Y0116343D01*
X0512149Y0114641D02*
X0510447Y0114641D01*
X0510447Y0116910D01*
X0506850Y0116334D02*
X0506850Y0115199D01*
X0506283Y0114632D01*
X0505149Y0114632D02*
X0504581Y0115766D01*
X0504581Y0116334D01*
X0505149Y0116901D01*
X0506283Y0116901D01*
X0506850Y0116334D01*
X0505149Y0114632D02*
X0503447Y0114632D01*
X0503447Y0116901D01*
X0549867Y0101693D02*
X0549867Y0098690D01*
X0552119Y0098690D01*
X0551369Y0100191D01*
X0551369Y0100942D01*
X0552119Y0101693D01*
X0553621Y0101693D01*
X0554371Y0100942D01*
X0554371Y0099441D01*
X0553621Y0098690D01*
X0560340Y0099404D02*
X0564844Y0099404D01*
X0564844Y0097903D02*
X0564844Y0100905D01*
X0564093Y0102507D02*
X0561091Y0102507D01*
X0560340Y0103257D01*
X0560340Y0104759D01*
X0561091Y0105509D01*
X0564093Y0102507D01*
X0564844Y0103257D01*
X0564844Y0104759D01*
X0564093Y0105509D01*
X0561091Y0105509D01*
X0560340Y0099404D02*
X0561841Y0097903D01*
X0571757Y0096628D02*
X0573258Y0095127D01*
X0571757Y0096628D02*
X0576261Y0096628D01*
X0576261Y0095127D02*
X0576261Y0098130D01*
X0575510Y0099731D02*
X0576261Y0100482D01*
X0576261Y0101983D01*
X0575510Y0102734D01*
X0574009Y0102734D01*
X0573258Y0101983D01*
X0573258Y0101232D01*
X0574009Y0099731D01*
X0571757Y0099731D01*
X0571757Y0102734D01*
X0260906Y0040269D02*
X0260156Y0039518D01*
X0260156Y0035765D01*
X0257804Y0035765D02*
X0257804Y0038017D01*
X0257053Y0038768D01*
X0254801Y0038768D01*
X0254801Y0035765D01*
X0253200Y0036516D02*
X0252449Y0035765D01*
X0250948Y0035765D01*
X0250197Y0036516D01*
X0253200Y0039518D01*
X0253200Y0036516D01*
X0253200Y0039518D02*
X0252449Y0040269D01*
X0250948Y0040269D01*
X0250197Y0039518D01*
X0250197Y0036516D01*
X0248596Y0036516D02*
X0247845Y0035765D01*
X0246344Y0035765D01*
X0245593Y0036516D01*
X0248596Y0039518D01*
X0248596Y0036516D01*
X0248596Y0039518D02*
X0247845Y0040269D01*
X0246344Y0040269D01*
X0245593Y0039518D01*
X0245593Y0036516D01*
X0243992Y0035765D02*
X0240989Y0035765D01*
X0242491Y0035765D02*
X0242491Y0040269D01*
X0240989Y0038768D01*
X0259405Y0038017D02*
X0260906Y0038017D01*
X0252449Y0054765D02*
X0250948Y0054765D01*
X0250197Y0055516D01*
X0253200Y0058518D01*
X0253200Y0055516D01*
X0252449Y0054765D01*
X0250197Y0055516D02*
X0250197Y0058518D01*
X0250948Y0059269D01*
X0252449Y0059269D01*
X0253200Y0058518D01*
X0248596Y0054765D02*
X0245593Y0054765D01*
X0247095Y0054765D02*
X0247095Y0059269D01*
X0245593Y0057768D01*
X0243992Y0058518D02*
X0243241Y0059269D01*
X0241740Y0059269D01*
X0240989Y0058518D01*
X0240989Y0055516D01*
X0241740Y0054765D01*
X0243241Y0054765D01*
X0243992Y0055516D01*
D14*
X0243917Y0072026D02*
X0244517Y0072626D01*
X0244517Y0073828D01*
X0243316Y0073828D01*
X0242115Y0075029D02*
X0242115Y0072626D01*
X0242716Y0072026D01*
X0243917Y0072026D01*
X0245798Y0072026D02*
X0245798Y0074428D01*
X0246999Y0075629D01*
X0248200Y0074428D01*
X0248200Y0072026D01*
X0249482Y0072626D02*
X0250082Y0072026D01*
X0251283Y0072026D01*
X0251884Y0072626D01*
X0251884Y0073227D01*
X0251283Y0073828D01*
X0250683Y0073828D01*
X0251283Y0073828D02*
X0251884Y0074428D01*
X0251884Y0075029D01*
X0251283Y0075629D01*
X0250082Y0075629D01*
X0249482Y0075029D01*
X0248200Y0073828D02*
X0245798Y0073828D01*
X0244517Y0075029D02*
X0243917Y0075629D01*
X0242716Y0075629D01*
X0242115Y0075029D01*
X0240834Y0075629D02*
X0238432Y0075629D01*
X0238432Y0072026D01*
X0240834Y0072026D01*
X0239633Y0073828D02*
X0238432Y0073828D01*
X0237151Y0075629D02*
X0235950Y0074428D01*
X0234749Y0075629D01*
X0234749Y0072026D01*
X0237151Y0072026D02*
X0237151Y0075629D01*
X0233468Y0075629D02*
X0231066Y0075629D01*
X0232267Y0075629D02*
X0232267Y0072026D01*
X0229785Y0072026D02*
X0229785Y0074428D01*
X0228584Y0075629D01*
X0227383Y0074428D01*
X0227383Y0072026D01*
X0227383Y0073828D02*
X0229785Y0073828D01*
X0253165Y0075029D02*
X0253765Y0075629D01*
X0254966Y0075629D01*
X0255567Y0075029D01*
X0255567Y0074428D01*
X0253165Y0072026D01*
X0255567Y0072026D01*
X0256848Y0072626D02*
X0256848Y0073227D01*
X0257448Y0073828D01*
X0258649Y0073828D01*
X0259250Y0073227D01*
X0259250Y0072626D01*
X0258649Y0072026D01*
X0257448Y0072026D01*
X0256848Y0072626D01*
X0257448Y0073828D02*
X0256848Y0074428D01*
X0256848Y0075029D01*
X0257448Y0075629D01*
X0258649Y0075629D01*
X0259250Y0075029D01*
X0259250Y0074428D01*
X0258649Y0073828D01*
X0260531Y0073227D02*
X0262333Y0073227D01*
X0262933Y0073828D01*
X0262933Y0075029D01*
X0262333Y0075629D01*
X0260531Y0075629D01*
X0260531Y0072026D01*
X0264214Y0073828D02*
X0266616Y0073828D01*
X0267897Y0073227D02*
X0269699Y0073227D01*
X0270299Y0073828D01*
X0270299Y0075029D01*
X0269699Y0075629D01*
X0267897Y0075629D01*
X0267897Y0072026D01*
X0271580Y0072626D02*
X0272181Y0072026D01*
X0273382Y0072026D01*
X0273982Y0072626D01*
X0273982Y0075629D01*
X0271580Y0075629D02*
X0271580Y0072626D01*
X0363508Y0029661D02*
X0365810Y0029661D01*
X0366578Y0028894D01*
X0366578Y0027359D01*
X0365810Y0026592D01*
X0363508Y0026592D01*
X0363508Y0025057D02*
X0363508Y0029661D01*
X0368112Y0027359D02*
X0368112Y0025825D01*
X0368880Y0025057D01*
X0370414Y0025057D01*
X0371181Y0025825D01*
X0371181Y0027359D01*
X0370414Y0028127D01*
X0368880Y0028127D01*
X0368112Y0027359D01*
X0372716Y0028127D02*
X0372716Y0025825D01*
X0373483Y0025057D01*
X0374251Y0025825D01*
X0375018Y0025057D01*
X0375785Y0025825D01*
X0375785Y0028127D01*
X0377320Y0027359D02*
X0378087Y0028127D01*
X0379622Y0028127D01*
X0380389Y0027359D01*
X0380389Y0026592D01*
X0377320Y0026592D01*
X0377320Y0025825D02*
X0377320Y0027359D01*
X0377320Y0025825D02*
X0378087Y0025057D01*
X0379622Y0025057D01*
X0381924Y0025057D02*
X0381924Y0028127D01*
X0383459Y0028127D02*
X0384226Y0028127D01*
X0383459Y0028127D02*
X0381924Y0026592D01*
X0390365Y0025825D02*
X0391132Y0025057D01*
X0392666Y0025057D01*
X0393434Y0025825D01*
X0393434Y0028894D01*
X0392666Y0029661D01*
X0391132Y0029661D01*
X0390365Y0028894D01*
X0390365Y0028127D01*
X0391132Y0027359D01*
X0393434Y0027359D01*
X0394968Y0027359D02*
X0398038Y0027359D01*
X0399572Y0028127D02*
X0401107Y0029661D01*
X0401107Y0025057D01*
X0399572Y0025057D02*
X0402642Y0025057D01*
X0404176Y0025057D02*
X0407246Y0028127D01*
X0407246Y0028894D01*
X0406478Y0029661D01*
X0404944Y0029661D01*
X0404176Y0028894D01*
X0408780Y0028127D02*
X0410315Y0025057D01*
X0411849Y0028127D01*
X0407246Y0025057D02*
X0404176Y0025057D01*
X0595672Y0135365D02*
X0595672Y0138434D01*
X0597974Y0139968D02*
X0597206Y0140736D01*
X0597206Y0142270D01*
X0597974Y0143038D01*
X0598741Y0143038D01*
X0598741Y0139968D01*
X0599508Y0139968D02*
X0597974Y0139968D01*
X0599508Y0139968D02*
X0600276Y0140736D01*
X0600276Y0142270D01*
X0600276Y0144572D02*
X0597206Y0144572D01*
X0597206Y0145340D01*
X0597974Y0146107D01*
X0597206Y0146874D01*
X0597974Y0147642D01*
X0600276Y0147642D01*
X0600276Y0146107D02*
X0597974Y0146107D01*
X0599508Y0149176D02*
X0598741Y0149944D01*
X0598741Y0152246D01*
X0597974Y0152246D02*
X0600276Y0152246D01*
X0600276Y0149944D01*
X0599508Y0149176D01*
X0597206Y0149944D02*
X0597206Y0151478D01*
X0597974Y0152246D01*
X0600276Y0153780D02*
X0600276Y0155315D01*
X0600276Y0154548D02*
X0595672Y0154548D01*
X0595672Y0153780D01*
X0597974Y0156850D02*
X0597206Y0157617D01*
X0597206Y0159152D01*
X0597974Y0159919D01*
X0598741Y0159919D01*
X0598741Y0156850D01*
X0599508Y0156850D02*
X0597974Y0156850D01*
X0599508Y0156850D02*
X0600276Y0157617D01*
X0600276Y0159152D01*
X0597974Y0136899D02*
X0597974Y0135365D01*
X0600276Y0135365D02*
X0595672Y0135365D01*
X0519331Y0244900D02*
X0519331Y0249504D01*
X0520865Y0249504D02*
X0517796Y0249504D01*
X0516261Y0248737D02*
X0516261Y0247202D01*
X0515494Y0246435D01*
X0513192Y0246435D01*
X0514727Y0246435D02*
X0516261Y0244900D01*
X0513192Y0244900D02*
X0513192Y0249504D01*
X0515494Y0249504D01*
X0516261Y0248737D01*
X0511657Y0247969D02*
X0511657Y0244900D01*
X0511657Y0247202D02*
X0508588Y0247202D01*
X0508588Y0247969D02*
X0508588Y0244900D01*
X0507054Y0245667D02*
X0507054Y0249504D01*
X0508588Y0247969D02*
X0510123Y0249504D01*
X0511657Y0247969D01*
X0507054Y0245667D02*
X0506286Y0244900D01*
X0504752Y0244900D01*
X0503984Y0245667D01*
X0503984Y0249504D01*
X0430865Y0247969D02*
X0430865Y0244900D01*
X0430865Y0247202D02*
X0427796Y0247202D01*
X0427796Y0247969D02*
X0427796Y0244900D01*
X0426261Y0245667D02*
X0426261Y0247202D01*
X0424727Y0247202D01*
X0426261Y0248737D02*
X0425494Y0249504D01*
X0423959Y0249504D01*
X0423192Y0248737D01*
X0423192Y0245667D01*
X0423959Y0244900D01*
X0425494Y0244900D01*
X0426261Y0245667D01*
X0427796Y0247969D02*
X0429331Y0249504D01*
X0430865Y0247969D01*
X0421657Y0246435D02*
X0421657Y0249504D01*
X0418588Y0249504D02*
X0418588Y0246435D01*
X0420123Y0244900D01*
X0421657Y0246435D01*
X0273825Y0146692D02*
X0273825Y0143689D01*
X0273224Y0143089D01*
X0272023Y0143089D01*
X0271423Y0143689D01*
X0271423Y0146692D01*
X0270142Y0146092D02*
X0270142Y0144891D01*
X0269541Y0144290D01*
X0267740Y0144290D01*
X0267740Y0143089D02*
X0267740Y0146692D01*
X0269541Y0146692D01*
X0270142Y0146092D01*
X0266459Y0144891D02*
X0264057Y0144891D01*
X0262776Y0144891D02*
X0262175Y0144290D01*
X0260373Y0144290D01*
X0260373Y0143089D02*
X0260373Y0146692D01*
X0262175Y0146692D01*
X0262776Y0146092D01*
X0262776Y0144891D01*
X0259092Y0145491D02*
X0259092Y0146092D01*
X0258492Y0146692D01*
X0257291Y0146692D01*
X0256690Y0146092D01*
X0256690Y0145491D01*
X0257291Y0144891D01*
X0258492Y0144891D01*
X0259092Y0144290D01*
X0259092Y0143689D01*
X0258492Y0143089D01*
X0257291Y0143089D01*
X0256690Y0143689D01*
X0256690Y0144290D01*
X0257291Y0144891D01*
X0258492Y0144891D02*
X0259092Y0145491D01*
X0255409Y0145491D02*
X0255409Y0146092D01*
X0254809Y0146692D01*
X0253608Y0146692D01*
X0253007Y0146092D01*
X0251726Y0146092D02*
X0251726Y0145491D01*
X0251126Y0144891D01*
X0251726Y0144290D01*
X0251726Y0143689D01*
X0251126Y0143089D01*
X0249925Y0143089D01*
X0249324Y0143689D01*
X0248043Y0143089D02*
X0248043Y0145491D01*
X0246842Y0146692D01*
X0245641Y0145491D01*
X0245641Y0143089D01*
X0244360Y0143689D02*
X0243759Y0143089D01*
X0242558Y0143089D01*
X0241958Y0143689D01*
X0241958Y0146092D01*
X0242558Y0146692D01*
X0243759Y0146692D01*
X0244360Y0146092D01*
X0244360Y0144891D02*
X0243159Y0144891D01*
X0244360Y0144891D02*
X0244360Y0143689D01*
X0245641Y0144891D02*
X0248043Y0144891D01*
X0249324Y0146092D02*
X0249925Y0146692D01*
X0251126Y0146692D01*
X0251726Y0146092D01*
X0251126Y0144891D02*
X0250525Y0144891D01*
X0253007Y0143089D02*
X0255409Y0145491D01*
X0255409Y0143089D02*
X0253007Y0143089D01*
X0240677Y0143089D02*
X0238275Y0143089D01*
X0238275Y0146692D01*
X0240677Y0146692D01*
X0239476Y0144891D02*
X0238275Y0144891D01*
X0236994Y0146692D02*
X0235793Y0145491D01*
X0234591Y0146692D01*
X0234591Y0143089D01*
X0236994Y0143089D02*
X0236994Y0146692D01*
X0233310Y0146692D02*
X0230908Y0146692D01*
X0232109Y0146692D02*
X0232109Y0143089D01*
X0229627Y0143089D02*
X0229627Y0145491D01*
X0228426Y0146692D01*
X0227225Y0145491D01*
X0227225Y0143089D01*
X0227225Y0144891D02*
X0229627Y0144891D01*
D15*
X0580389Y0147208D03*
X0580389Y0138208D03*
X0580389Y0129208D03*
X0580389Y0120208D03*
X0580389Y0111208D03*
D16*
X0585310Y0115708D03*
X0585310Y0124708D03*
X0585310Y0133708D03*
X0585310Y0142708D03*
X0585310Y0106708D03*
D17*
X0562672Y0106708D03*
X0562672Y0115708D03*
X0562672Y0124708D03*
X0562672Y0133708D03*
X0562672Y0142708D03*
D18*
X0427504Y0105241D02*
X0421198Y0105241D01*
X0421198Y0103139D02*
X0421198Y0107343D01*
X0421198Y0100897D02*
X0422249Y0098795D01*
X0424351Y0096694D01*
X0424351Y0099846D01*
X0425402Y0100897D01*
X0426453Y0100897D01*
X0427504Y0099846D01*
X0427504Y0097744D01*
X0426453Y0096694D01*
X0424351Y0096694D01*
X0422249Y0094452D02*
X0426453Y0094452D01*
X0427504Y0093401D01*
X0427504Y0091299D01*
X0426453Y0090248D01*
X0422249Y0094452D01*
X0421198Y0093401D01*
X0421198Y0091299D01*
X0422249Y0090248D01*
X0426453Y0090248D01*
X0426453Y0088006D02*
X0427504Y0086955D01*
X0427504Y0084853D01*
X0426453Y0083803D01*
X0425402Y0083803D01*
X0424351Y0084853D01*
X0424351Y0086955D01*
X0425402Y0088006D01*
X0426453Y0088006D01*
X0424351Y0086955D02*
X0423300Y0088006D01*
X0422249Y0088006D01*
X0421198Y0086955D01*
X0421198Y0084853D01*
X0422249Y0083803D01*
X0423300Y0083803D01*
X0424351Y0084853D01*
X0422249Y0081561D02*
X0426453Y0077357D01*
X0427504Y0077357D01*
X0421198Y0077357D02*
X0421198Y0081561D01*
X0422249Y0081561D01*
X0377004Y0079959D02*
X0377004Y0077857D01*
X0377004Y0078908D02*
X0370698Y0078908D01*
X0370698Y0077857D02*
X0370698Y0079959D01*
X0371749Y0082154D02*
X0375953Y0082154D01*
X0377004Y0083205D01*
X0377004Y0085307D01*
X0375953Y0086358D01*
X0377004Y0088600D02*
X0377004Y0092803D01*
X0377004Y0090701D02*
X0370698Y0090701D01*
X0372800Y0088600D01*
X0371749Y0086358D02*
X0370698Y0085307D01*
X0370698Y0083205D01*
X0371749Y0082154D01*
X0533691Y0060438D02*
X0533691Y0056234D01*
X0535793Y0054133D01*
X0537895Y0056234D01*
X0537895Y0060438D01*
X0540137Y0059387D02*
X0540137Y0055184D01*
X0541188Y0054133D01*
X0543289Y0054133D01*
X0544340Y0055184D01*
X0544340Y0057285D01*
X0542238Y0057285D01*
X0540137Y0059387D02*
X0541188Y0060438D01*
X0543289Y0060438D01*
X0544340Y0059387D01*
X0546582Y0058336D02*
X0548684Y0060438D01*
X0550786Y0058336D01*
X0550786Y0054133D01*
X0546582Y0054133D02*
X0546582Y0058336D01*
X0546582Y0057285D02*
X0550786Y0057285D01*
X0559473Y0055184D02*
X0560524Y0054133D01*
X0562626Y0054133D01*
X0563677Y0055184D01*
X0563677Y0059387D01*
X0562626Y0060438D01*
X0560524Y0060438D01*
X0559473Y0059387D01*
X0559473Y0055184D01*
X0565919Y0055184D02*
X0566970Y0054133D01*
X0570122Y0054133D01*
X0570122Y0058336D01*
X0572364Y0058336D02*
X0574466Y0058336D01*
X0573415Y0059387D02*
X0573415Y0055184D01*
X0574466Y0054133D01*
X0576661Y0054133D02*
X0579814Y0054133D01*
X0580865Y0055184D01*
X0580865Y0057285D01*
X0579814Y0058336D01*
X0576661Y0058336D01*
X0576661Y0052031D01*
X0583107Y0055184D02*
X0584158Y0054133D01*
X0587310Y0054133D01*
X0587310Y0058336D01*
X0589552Y0058336D02*
X0591654Y0058336D01*
X0590603Y0059387D02*
X0590603Y0055184D01*
X0591654Y0054133D01*
X0583107Y0055184D02*
X0583107Y0058336D01*
X0565919Y0058336D02*
X0565919Y0055184D01*
D19*
X0581776Y0226044D02*
X0582277Y0226545D01*
X0581776Y0227045D01*
X0583278Y0227045D01*
X0583278Y0227517D02*
X0583278Y0228018D01*
X0583278Y0227768D02*
X0581776Y0227768D01*
X0581776Y0228018D02*
X0581776Y0227517D01*
X0581776Y0228500D02*
X0583278Y0229500D01*
X0581776Y0229500D01*
X0581776Y0229973D02*
X0581776Y0230473D01*
X0581776Y0230223D02*
X0583278Y0230223D01*
X0583278Y0229973D02*
X0583278Y0230473D01*
X0582527Y0230955D02*
X0582527Y0231956D01*
X0583278Y0232428D02*
X0583278Y0233179D01*
X0583027Y0233429D01*
X0582027Y0233429D01*
X0581776Y0233179D01*
X0581776Y0232428D01*
X0583278Y0232428D01*
X0583278Y0233902D02*
X0583278Y0234402D01*
X0583278Y0234152D02*
X0581776Y0234152D01*
X0581776Y0233902D02*
X0581776Y0234402D01*
X0581776Y0234884D02*
X0583278Y0235885D01*
X0581776Y0235885D01*
X0582527Y0236357D02*
X0582027Y0236857D01*
X0581776Y0237358D01*
X0581776Y0237830D02*
X0581776Y0238581D01*
X0582027Y0238831D01*
X0582527Y0238831D01*
X0582777Y0238581D01*
X0582777Y0237830D01*
X0582777Y0237358D02*
X0582527Y0237108D01*
X0582527Y0236357D01*
X0583027Y0236357D01*
X0583278Y0236607D01*
X0583278Y0237108D01*
X0583027Y0237358D01*
X0582777Y0237358D01*
X0583278Y0237830D02*
X0581776Y0237830D01*
X0581776Y0239303D02*
X0581776Y0240304D01*
X0581776Y0240777D02*
X0583278Y0240777D01*
X0582527Y0240777D02*
X0582527Y0241778D01*
X0581776Y0241778D02*
X0583278Y0241778D01*
X0583278Y0239804D02*
X0581776Y0239804D01*
X0586776Y0239795D02*
X0586776Y0240295D01*
X0586776Y0240045D02*
X0588278Y0240045D01*
X0588278Y0239795D02*
X0588278Y0240295D01*
X0588278Y0240777D02*
X0586776Y0240777D01*
X0588278Y0241778D01*
X0586776Y0241778D01*
X0587027Y0239322D02*
X0586776Y0239072D01*
X0586776Y0238321D01*
X0588278Y0238321D01*
X0588278Y0239072D01*
X0588027Y0239322D01*
X0587027Y0239322D01*
X0588528Y0237849D02*
X0588528Y0236848D01*
X0588278Y0236376D02*
X0588278Y0235375D01*
X0587277Y0236376D01*
X0587027Y0236376D01*
X0586776Y0236125D01*
X0586776Y0235625D01*
X0587027Y0235375D01*
X0587027Y0234902D02*
X0586776Y0234652D01*
X0586776Y0234152D01*
X0587027Y0233902D01*
X0587277Y0233902D01*
X0587527Y0234152D01*
X0587527Y0234652D01*
X0587777Y0234902D01*
X0588027Y0234902D01*
X0588278Y0234652D01*
X0588278Y0234152D01*
X0588027Y0233902D01*
X0587527Y0233429D02*
X0587777Y0233179D01*
X0587777Y0232428D01*
X0588278Y0232428D02*
X0586776Y0232428D01*
X0586776Y0233179D01*
X0587027Y0233429D01*
X0587527Y0233429D01*
X0583278Y0234884D02*
X0581776Y0234884D01*
X0581776Y0228500D02*
X0583278Y0228500D01*
X0583278Y0226044D02*
X0581776Y0226044D01*
D20*
X0416854Y0125507D02*
X0380854Y0125507D01*
X0380854Y0093007D01*
X0416854Y0093007D01*
X0416854Y0125507D01*
X0086070Y0221932D02*
X0086070Y0222932D01*
X0076570Y0222932D01*
X0076570Y0221932D01*
X0076570Y0244932D02*
X0086570Y0244932D01*
X0086570Y0245932D01*
X0076570Y0245932D02*
X0076570Y0244932D01*
D21*
X0161326Y0210917D02*
X0164326Y0210917D01*
X0167326Y0210917D01*
X0167326Y0208917D02*
X0164326Y0208917D01*
X0161326Y0208917D01*
X0246436Y0120909D02*
X0246436Y0117909D01*
X0246436Y0114909D01*
X0248436Y0114909D02*
X0248436Y0117909D01*
X0248436Y0120909D01*
X0393129Y0060318D02*
X0393129Y0057318D01*
X0393129Y0054318D01*
X0395129Y0054318D02*
X0395129Y0057318D01*
X0395129Y0060318D01*
X0469869Y0084468D02*
X0472869Y0084468D01*
X0475869Y0084468D01*
X0475869Y0086468D02*
X0472869Y0086468D01*
X0469869Y0086468D01*
X0519200Y0171239D02*
X0522200Y0171239D01*
X0525200Y0171239D01*
X0525200Y0173239D02*
X0522200Y0173239D01*
X0519200Y0173239D01*
X0519200Y0202145D02*
X0522200Y0202145D01*
X0525200Y0202145D01*
X0525200Y0204145D02*
X0522200Y0204145D01*
X0519200Y0204145D01*
X0248239Y0050515D02*
X0248239Y0047515D01*
X0248239Y0044515D01*
X0246239Y0044515D02*
X0246239Y0047515D01*
X0246239Y0050515D01*
D22*
X0208226Y0110428D03*
X0186726Y0110428D03*
X0186922Y0120546D03*
X0208422Y0120546D03*
X0286332Y0120546D03*
X0307832Y0120546D03*
X0307832Y0110428D03*
X0286332Y0110428D03*
X0511450Y0147200D03*
X0532950Y0147200D03*
D23*
X0527200Y0127950D03*
X0512200Y0127950D03*
X0512200Y0106450D03*
X0527200Y0106450D03*
D24*
X0408854Y0078257D03*
X0398854Y0078257D03*
X0388854Y0078257D03*
D25*
X0388854Y0085007D03*
X0398854Y0085007D03*
X0408854Y0085007D03*
M02*
