%
M48
M72
T01C0.0240
T02C0.0276
T03C0.0320
T04C0.0354
T05C0.0360
T06C0.0400
T07C0.0440
T08C0.0866
T09C0.1102
T10C0.1260
T11C0.1300
%
T01
X20110Y4990
X20740Y5350
X23620Y4765
X22225Y3370
X25735Y2650
X30550Y1705
X19750Y7195
X36175Y9535
X43735Y11560
X44770Y17275
X26725Y18400
X26365Y18760
X24205Y20695
X19300Y22360
X19885Y14620
T02
X13291Y2661
X28015Y2681
X36775Y2681
X39511Y2248
X47287Y2228
X59728Y5555
T03
X52720Y10220
X51220Y10220
X47287Y9047
X47287Y8047
X44295Y8047
X44295Y9047
X39913Y5732
X38913Y5732
X31208Y11043
X31208Y12055
X28208Y12055
X28208Y11043
X25244Y11791
X24244Y11791
X21267Y12055
X21248Y11043
X18248Y11043
X18267Y12055
X12964Y10767
X11964Y10767
X10964Y10767
X9964Y10767
X8964Y10767
X7964Y10767
X6964Y10767
X6964Y13767
X7964Y13767
X8964Y13767
X9964Y13767
X10964Y13767
X11964Y13767
X12964Y13767
X18263Y18500
X19263Y18500
X20263Y18500
X21263Y18500
X22263Y18500
X23263Y18500
X24263Y18500
X25263Y18500
X25263Y21500
X24263Y21500
X23263Y21500
X22263Y21500
X21263Y21500
X20263Y21500
X19263Y21500
X18263Y21500
X16433Y21492
X16433Y20492
X50720Y14720
X53720Y14720
X52720Y13220
X51220Y13220
X52220Y16724
X52220Y17724
X52220Y19814
X52220Y20814
X25224Y4751
X24224Y4751
T04
X55248Y10671
X56248Y11121
X57248Y11571
X56248Y12021
X55248Y12471
X56248Y12921
X57248Y13371
X56248Y13821
X55248Y14271
X56248Y14721
X57248Y14271
X55248Y13371
X57248Y12471
X55248Y11571
X57248Y10671
X57326Y20881
X56342Y20881
X57326Y21708
X57326Y22732
X57326Y23559
X56342Y23559
T05
X49692Y17629
X48692Y17629
X47692Y17629
X46692Y17629
X46692Y16629
X47692Y16629
X48692Y16629
X49692Y16629
X9220Y18291
X8220Y18291
X8220Y19291
X9220Y19291
T06
X921Y1244
X1921Y1244
X2921Y1244
X3921Y1244
X4921Y1244
X5921Y1244
X6921Y1244
X7921Y1244
X8921Y1244
X9921Y1244
X10921Y1244
X11921Y1244
X12921Y1244
X13921Y1244
X14921Y1244
X15921Y1244
X16921Y1244
X17921Y1244
X18921Y1244
X19921Y1244
X20921Y1244
X21921Y1244
X22921Y1244
X23921Y1244
X24921Y1244
X25921Y1244
X26921Y1244
X27921Y1244
X28921Y1244
X29921Y1244
X30921Y1244
X31921Y1244
X32921Y1244
X33921Y1244
X34921Y1244
X35921Y1244
X36921Y1244
X37921Y1244
X38921Y1244
X39921Y1244
X40921Y1244
X41921Y1244
X42921Y1244
X43921Y1244
X44921Y1244
X45921Y1244
X46921Y1244
X47921Y1244
X48921Y1244
X49921Y1244
X50921Y1244
X51921Y1244
X52921Y1244
X53921Y1244
X54921Y1244
X55921Y1244
X56921Y1244
X57921Y1244
X58921Y1244
X59921Y1244
X39913Y3763
X38913Y3763
X9437Y22503
X6877Y22503
X6877Y24283
X9437Y24283
X37720Y23720
X38720Y23720
X39720Y23720
X40720Y23720
X41720Y23720
X42720Y23720
X46720Y23720
X47720Y23720
X48720Y23720
X49720Y23720
X50720Y23720
X51720Y23720
T07
X31228Y16586
X30228Y16586
X29228Y16586
X28228Y16586
X27228Y16586
X26228Y16586
X25228Y16586
X24228Y16586
X23228Y16586
X22228Y16586
X21228Y16586
X20228Y16586
X19228Y16586
X18228Y16586
X18228Y13586
X19228Y13586
X20228Y13586
X21228Y13586
X22228Y13586
X23228Y13586
X24228Y13586
X25228Y13586
X26228Y13586
X27228Y13586
X28228Y13586
X29228Y13586
X30228Y13586
X31228Y13586
X31248Y9535
X30248Y9535
X29248Y9535
X28248Y9535
X27248Y9535
X26248Y9535
X25248Y9535
X24248Y9535
X23248Y9535
X22248Y9535
X21248Y9535
X20248Y9535
X19248Y9535
X18248Y9535
X18248Y6535
X19248Y6535
X20248Y6535
X21248Y6535
X22248Y6535
X23248Y6535
X24248Y6535
X25248Y6535
X26248Y6535
X27248Y6535
X28248Y6535
X29248Y6535
X30248Y6535
X31248Y6535
X38885Y8051
X39885Y8051
X40885Y8051
T08
X58507Y19452
X58822Y22220
X58507Y24984
T09
X56248Y17488
X56248Y7645
T10
X2189Y12031
X2189Y14393
X2189Y16755
X2189Y19118
T11
X39885Y13951
M30
