G75*
%MOIN*%
%OFA0B0*%
%FSLAX25Y25*%
%IPPOS*%
%LPD*%
%AMOC8*
5,1,8,0,0,1.08239X$1,22.5*
%
%ADD10C,0.00000*%
D10*
X0002200Y0002200D02*
X0002200Y0199050D01*
X0062200Y0258106D01*
X0607200Y0258106D01*
X0607200Y0002200D01*
X0002200Y0002200D01*
X0392354Y0139507D02*
X0392356Y0139668D01*
X0392362Y0139828D01*
X0392372Y0139989D01*
X0392386Y0140149D01*
X0392404Y0140309D01*
X0392425Y0140468D01*
X0392451Y0140627D01*
X0392481Y0140785D01*
X0392514Y0140942D01*
X0392552Y0141099D01*
X0392593Y0141254D01*
X0392638Y0141408D01*
X0392687Y0141561D01*
X0392740Y0141713D01*
X0392796Y0141864D01*
X0392857Y0142013D01*
X0392920Y0142161D01*
X0392988Y0142307D01*
X0393059Y0142451D01*
X0393133Y0142593D01*
X0393211Y0142734D01*
X0393293Y0142872D01*
X0393378Y0143009D01*
X0393466Y0143143D01*
X0393558Y0143275D01*
X0393653Y0143405D01*
X0393751Y0143533D01*
X0393852Y0143658D01*
X0393956Y0143780D01*
X0394063Y0143900D01*
X0394173Y0144017D01*
X0394286Y0144132D01*
X0394402Y0144243D01*
X0394521Y0144352D01*
X0394642Y0144457D01*
X0394766Y0144560D01*
X0394892Y0144660D01*
X0395020Y0144756D01*
X0395151Y0144849D01*
X0395285Y0144939D01*
X0395420Y0145026D01*
X0395558Y0145109D01*
X0395697Y0145189D01*
X0395839Y0145265D01*
X0395982Y0145338D01*
X0396127Y0145407D01*
X0396274Y0145473D01*
X0396422Y0145535D01*
X0396572Y0145593D01*
X0396723Y0145648D01*
X0396876Y0145699D01*
X0397030Y0145746D01*
X0397185Y0145789D01*
X0397341Y0145828D01*
X0397497Y0145864D01*
X0397655Y0145895D01*
X0397813Y0145923D01*
X0397972Y0145947D01*
X0398132Y0145967D01*
X0398292Y0145983D01*
X0398452Y0145995D01*
X0398613Y0146003D01*
X0398774Y0146007D01*
X0398934Y0146007D01*
X0399095Y0146003D01*
X0399256Y0145995D01*
X0399416Y0145983D01*
X0399576Y0145967D01*
X0399736Y0145947D01*
X0399895Y0145923D01*
X0400053Y0145895D01*
X0400211Y0145864D01*
X0400367Y0145828D01*
X0400523Y0145789D01*
X0400678Y0145746D01*
X0400832Y0145699D01*
X0400985Y0145648D01*
X0401136Y0145593D01*
X0401286Y0145535D01*
X0401434Y0145473D01*
X0401581Y0145407D01*
X0401726Y0145338D01*
X0401869Y0145265D01*
X0402011Y0145189D01*
X0402150Y0145109D01*
X0402288Y0145026D01*
X0402423Y0144939D01*
X0402557Y0144849D01*
X0402688Y0144756D01*
X0402816Y0144660D01*
X0402942Y0144560D01*
X0403066Y0144457D01*
X0403187Y0144352D01*
X0403306Y0144243D01*
X0403422Y0144132D01*
X0403535Y0144017D01*
X0403645Y0143900D01*
X0403752Y0143780D01*
X0403856Y0143658D01*
X0403957Y0143533D01*
X0404055Y0143405D01*
X0404150Y0143275D01*
X0404242Y0143143D01*
X0404330Y0143009D01*
X0404415Y0142872D01*
X0404497Y0142734D01*
X0404575Y0142593D01*
X0404649Y0142451D01*
X0404720Y0142307D01*
X0404788Y0142161D01*
X0404851Y0142013D01*
X0404912Y0141864D01*
X0404968Y0141713D01*
X0405021Y0141561D01*
X0405070Y0141408D01*
X0405115Y0141254D01*
X0405156Y0141099D01*
X0405194Y0140942D01*
X0405227Y0140785D01*
X0405257Y0140627D01*
X0405283Y0140468D01*
X0405304Y0140309D01*
X0405322Y0140149D01*
X0405336Y0139989D01*
X0405346Y0139828D01*
X0405352Y0139668D01*
X0405354Y0139507D01*
X0405352Y0139346D01*
X0405346Y0139186D01*
X0405336Y0139025D01*
X0405322Y0138865D01*
X0405304Y0138705D01*
X0405283Y0138546D01*
X0405257Y0138387D01*
X0405227Y0138229D01*
X0405194Y0138072D01*
X0405156Y0137915D01*
X0405115Y0137760D01*
X0405070Y0137606D01*
X0405021Y0137453D01*
X0404968Y0137301D01*
X0404912Y0137150D01*
X0404851Y0137001D01*
X0404788Y0136853D01*
X0404720Y0136707D01*
X0404649Y0136563D01*
X0404575Y0136421D01*
X0404497Y0136280D01*
X0404415Y0136142D01*
X0404330Y0136005D01*
X0404242Y0135871D01*
X0404150Y0135739D01*
X0404055Y0135609D01*
X0403957Y0135481D01*
X0403856Y0135356D01*
X0403752Y0135234D01*
X0403645Y0135114D01*
X0403535Y0134997D01*
X0403422Y0134882D01*
X0403306Y0134771D01*
X0403187Y0134662D01*
X0403066Y0134557D01*
X0402942Y0134454D01*
X0402816Y0134354D01*
X0402688Y0134258D01*
X0402557Y0134165D01*
X0402423Y0134075D01*
X0402288Y0133988D01*
X0402150Y0133905D01*
X0402011Y0133825D01*
X0401869Y0133749D01*
X0401726Y0133676D01*
X0401581Y0133607D01*
X0401434Y0133541D01*
X0401286Y0133479D01*
X0401136Y0133421D01*
X0400985Y0133366D01*
X0400832Y0133315D01*
X0400678Y0133268D01*
X0400523Y0133225D01*
X0400367Y0133186D01*
X0400211Y0133150D01*
X0400053Y0133119D01*
X0399895Y0133091D01*
X0399736Y0133067D01*
X0399576Y0133047D01*
X0399416Y0133031D01*
X0399256Y0133019D01*
X0399095Y0133011D01*
X0398934Y0133007D01*
X0398774Y0133007D01*
X0398613Y0133011D01*
X0398452Y0133019D01*
X0398292Y0133031D01*
X0398132Y0133047D01*
X0397972Y0133067D01*
X0397813Y0133091D01*
X0397655Y0133119D01*
X0397497Y0133150D01*
X0397341Y0133186D01*
X0397185Y0133225D01*
X0397030Y0133268D01*
X0396876Y0133315D01*
X0396723Y0133366D01*
X0396572Y0133421D01*
X0396422Y0133479D01*
X0396274Y0133541D01*
X0396127Y0133607D01*
X0395982Y0133676D01*
X0395839Y0133749D01*
X0395697Y0133825D01*
X0395558Y0133905D01*
X0395420Y0133988D01*
X0395285Y0134075D01*
X0395151Y0134165D01*
X0395020Y0134258D01*
X0394892Y0134354D01*
X0394766Y0134454D01*
X0394642Y0134557D01*
X0394521Y0134662D01*
X0394402Y0134771D01*
X0394286Y0134882D01*
X0394173Y0134997D01*
X0394063Y0135114D01*
X0393956Y0135234D01*
X0393852Y0135356D01*
X0393751Y0135481D01*
X0393653Y0135609D01*
X0393558Y0135739D01*
X0393466Y0135871D01*
X0393378Y0136005D01*
X0393293Y0136142D01*
X0393211Y0136280D01*
X0393133Y0136421D01*
X0393059Y0136563D01*
X0392988Y0136707D01*
X0392920Y0136853D01*
X0392857Y0137001D01*
X0392796Y0137150D01*
X0392740Y0137301D01*
X0392687Y0137453D01*
X0392638Y0137606D01*
X0392593Y0137760D01*
X0392552Y0137915D01*
X0392514Y0138072D01*
X0392481Y0138229D01*
X0392451Y0138387D01*
X0392425Y0138546D01*
X0392404Y0138705D01*
X0392386Y0138865D01*
X0392372Y0139025D01*
X0392362Y0139186D01*
X0392356Y0139346D01*
X0392354Y0139507D01*
M02*
