G75*
%MOIN*%
%OFA0B0*%
%FSLAX25Y25*%
%IPPOS*%
%LPD*%
%AMOC8*
5,1,8,0,0,1.08239X$1,22.5*
%
%ADD10C,0.07000*%
%ADD11OC8,0.07000*%
%ADD12C,0.20000*%
%ADD13R,0.06600X0.06600*%
%ADD14C,0.06600*%
%ADD15C,0.05543*%
%ADD16C,0.12661*%
%ADD17OC8,0.06300*%
%ADD18C,0.06300*%
%ADD19C,0.05200*%
%ADD20OC8,0.05600*%
%ADD21OC8,0.06000*%
%ADD22C,0.06000*%
%ADD23OC8,0.06600*%
%ADD24C,0.06000*%
%ADD25C,0.06600*%
%ADD26C,0.02400*%
%ADD27C,0.03200*%
%ADD28C,0.04356*%
%ADD29C,0.01000*%
%ADD30C,0.04000*%
%ADD31C,0.16598*%
D10*
X0552476Y0106708D03*
X0562476Y0111208D03*
X0572476Y0115708D03*
X0562476Y0120208D03*
X0552476Y0124708D03*
X0562476Y0129208D03*
X0572476Y0133708D03*
X0562476Y0138208D03*
X0572476Y0142708D03*
X0562476Y0147208D03*
X0552476Y0133708D03*
X0572476Y0124708D03*
X0552476Y0115708D03*
X0572476Y0106708D03*
D11*
X0552476Y0142708D03*
D12*
X0562476Y0174877D03*
X0562476Y0076452D03*
D13*
X0182476Y0065350D03*
X0182279Y0135861D03*
D14*
X0192279Y0135861D03*
X0202279Y0135861D03*
X0212279Y0135861D03*
X0222279Y0135861D03*
X0232279Y0135861D03*
X0242279Y0135861D03*
X0252279Y0135861D03*
X0262279Y0135861D03*
X0272279Y0135861D03*
X0282279Y0135861D03*
X0292279Y0135861D03*
X0302279Y0135861D03*
X0312279Y0135861D03*
X0312279Y0165861D03*
X0302279Y0165861D03*
X0292279Y0165861D03*
X0282279Y0165861D03*
X0272279Y0165861D03*
X0262279Y0165861D03*
X0252279Y0165861D03*
X0242279Y0165861D03*
X0232279Y0165861D03*
X0222279Y0165861D03*
X0212279Y0165861D03*
X0202279Y0165861D03*
X0192279Y0165861D03*
X0182279Y0165861D03*
X0182476Y0095350D03*
X0192476Y0095350D03*
X0202476Y0095350D03*
X0212476Y0095350D03*
X0222476Y0095350D03*
X0232476Y0095350D03*
X0242476Y0095350D03*
X0252476Y0095350D03*
X0262476Y0095350D03*
X0272476Y0095350D03*
X0282476Y0095350D03*
X0292476Y0095350D03*
X0302476Y0095350D03*
X0312476Y0095350D03*
X0312476Y0065350D03*
X0302476Y0065350D03*
X0292476Y0065350D03*
X0282476Y0065350D03*
X0272476Y0065350D03*
X0262476Y0065350D03*
X0252476Y0065350D03*
X0242476Y0065350D03*
X0232476Y0065350D03*
X0222476Y0065350D03*
X0212476Y0065350D03*
X0202476Y0065350D03*
X0192476Y0065350D03*
D15*
X0563420Y0208814D03*
X0573263Y0208814D03*
X0573263Y0217082D03*
X0573263Y0227318D03*
X0573263Y0235586D03*
X0563420Y0235586D03*
D16*
X0585074Y0249838D03*
X0588224Y0222200D03*
X0585074Y0194523D03*
D17*
X0522200Y0198145D03*
X0522200Y0208145D03*
X0522200Y0177239D03*
X0522200Y0167239D03*
X0472869Y0090468D03*
X0472869Y0080468D03*
X0442948Y0090468D03*
X0399129Y0057318D03*
X0389129Y0057318D03*
X0252239Y0047515D03*
X0242239Y0047515D03*
X0242436Y0117909D03*
X0252436Y0117909D03*
X0164326Y0204917D03*
X0164326Y0214917D03*
D18*
X0442948Y0080468D03*
D19*
X0252633Y0182395D02*
X0252633Y0187595D01*
X0242633Y0187595D02*
X0242633Y0182395D01*
X0232633Y0182395D02*
X0232633Y0187595D01*
X0222633Y0187595D02*
X0222633Y0182395D01*
X0212633Y0182395D02*
X0212633Y0187595D01*
X0202633Y0187595D02*
X0202633Y0182395D01*
X0192633Y0182395D02*
X0192633Y0187595D01*
X0182633Y0187595D02*
X0182633Y0182395D01*
X0182633Y0212395D02*
X0182633Y0217595D01*
X0192633Y0217595D02*
X0192633Y0212395D01*
X0202633Y0212395D02*
X0202633Y0217595D01*
X0212633Y0217595D02*
X0212633Y0212395D01*
X0222633Y0212395D02*
X0222633Y0217595D01*
X0232633Y0217595D02*
X0232633Y0212395D01*
X0242633Y0212395D02*
X0242633Y0217595D01*
X0252633Y0217595D02*
X0252633Y0212395D01*
X0129641Y0140272D02*
X0129641Y0135072D01*
X0119641Y0135072D02*
X0119641Y0140272D01*
X0109641Y0140272D02*
X0109641Y0135072D01*
X0099641Y0135072D02*
X0099641Y0140272D01*
X0089641Y0140272D02*
X0089641Y0135072D01*
X0079641Y0135072D02*
X0079641Y0140272D01*
X0069641Y0140272D02*
X0069641Y0135072D01*
X0069641Y0110272D02*
X0069641Y0105072D01*
X0079641Y0105072D02*
X0079641Y0110272D01*
X0089641Y0110272D02*
X0089641Y0105072D01*
X0099641Y0105072D02*
X0099641Y0110272D01*
X0109641Y0110272D02*
X0109641Y0105072D01*
X0119641Y0105072D02*
X0119641Y0110272D01*
X0129641Y0110272D02*
X0129641Y0105072D01*
D20*
X0092200Y0182909D03*
X0082200Y0182909D03*
X0082200Y0192909D03*
X0092200Y0192909D03*
X0466924Y0176294D03*
X0476924Y0176294D03*
X0486924Y0176294D03*
X0496924Y0176294D03*
X0496924Y0166294D03*
X0486924Y0166294D03*
X0476924Y0166294D03*
X0466924Y0166294D03*
D21*
X0467200Y0237200D03*
X0477200Y0237200D03*
X0487200Y0237200D03*
X0497200Y0237200D03*
X0507200Y0237200D03*
X0517200Y0237200D03*
X0427200Y0237200D03*
X0417200Y0237200D03*
X0407200Y0237200D03*
X0397200Y0237200D03*
X0387200Y0237200D03*
X0377200Y0237200D03*
D22*
X0097370Y0242832D02*
X0091370Y0242832D01*
X0071770Y0242832D02*
X0065770Y0242832D01*
X0065770Y0225032D02*
X0071770Y0225032D01*
X0091370Y0225032D02*
X0097370Y0225032D01*
X0389129Y0040633D02*
X0389129Y0034633D01*
X0399129Y0034633D02*
X0399129Y0040633D01*
X0409208Y0015436D02*
X0409208Y0009436D01*
X0419208Y0009436D02*
X0419208Y0015436D01*
X0429208Y0015436D02*
X0429208Y0009436D01*
X0439208Y0009436D02*
X0439208Y0015436D01*
X0449208Y0015436D02*
X0449208Y0009436D01*
X0459208Y0009436D02*
X0459208Y0015436D01*
X0469208Y0015436D02*
X0469208Y0009436D01*
X0479208Y0009436D02*
X0479208Y0015436D01*
X0489208Y0015436D02*
X0489208Y0009436D01*
X0499208Y0009436D02*
X0499208Y0015436D01*
X0509208Y0015436D02*
X0509208Y0009436D01*
X0519208Y0009436D02*
X0519208Y0015436D01*
X0529208Y0015436D02*
X0529208Y0009436D01*
X0539208Y0009436D02*
X0539208Y0015436D01*
X0549208Y0015436D02*
X0549208Y0009436D01*
X0559208Y0009436D02*
X0559208Y0015436D01*
X0569208Y0015436D02*
X0569208Y0009436D01*
X0579208Y0009436D02*
X0579208Y0015436D01*
X0589208Y0015436D02*
X0589208Y0009436D01*
X0599208Y0009436D02*
X0599208Y0015436D01*
D23*
X0527200Y0102200D03*
X0512200Y0102200D03*
X0512200Y0132200D03*
X0527200Y0132200D03*
X0537200Y0147200D03*
X0507200Y0147200D03*
X0312082Y0120546D03*
X0312082Y0110428D03*
X0282082Y0110428D03*
X0282082Y0120546D03*
X0212672Y0120546D03*
X0212476Y0110428D03*
X0182476Y0110428D03*
X0182672Y0120546D03*
D24*
X0179208Y0012436D03*
X0189208Y0012436D03*
X0199208Y0012436D03*
X0209208Y0012436D03*
X0219208Y0012436D03*
X0229208Y0012436D03*
X0239208Y0012436D03*
X0249208Y0012436D03*
X0259208Y0012436D03*
X0269208Y0012436D03*
X0279208Y0012436D03*
X0289208Y0012436D03*
X0299208Y0012436D03*
X0309208Y0012436D03*
X0319208Y0012436D03*
X0329208Y0012436D03*
X0339208Y0012436D03*
X0349208Y0012436D03*
X0359208Y0012436D03*
X0369208Y0012436D03*
X0379208Y0012436D03*
X0389208Y0012436D03*
X0399208Y0012436D03*
X0169208Y0012436D03*
X0159208Y0012436D03*
X0149208Y0012436D03*
X0139208Y0012436D03*
X0129208Y0012436D03*
X0119208Y0012436D03*
X0109208Y0012436D03*
X0099208Y0012436D03*
X0089208Y0012436D03*
X0079208Y0012436D03*
X0069208Y0012436D03*
X0059208Y0012436D03*
X0049208Y0012436D03*
X0039208Y0012436D03*
X0029208Y0012436D03*
X0019208Y0012436D03*
X0009208Y0012436D03*
D25*
X0388854Y0077207D02*
X0388854Y0083807D01*
X0398854Y0083807D02*
X0398854Y0077207D01*
X0408854Y0077207D02*
X0408854Y0083807D01*
D26*
X0007400Y0007773D02*
X0007400Y0007400D01*
X0387880Y0007400D01*
X0387212Y0007617D01*
X0386482Y0007989D01*
X0385820Y0008470D01*
X0385242Y0009049D01*
X0384760Y0009711D01*
X0384389Y0010440D01*
X0384136Y0011219D01*
X0384130Y0011254D01*
X0383447Y0009604D01*
X0382040Y0008197D01*
X0380202Y0007436D01*
X0378213Y0007436D01*
X0376376Y0008197D01*
X0374969Y0009604D01*
X0374208Y0011442D01*
X0374208Y0013431D01*
X0374969Y0015268D01*
X0376376Y0016675D01*
X0378213Y0017436D01*
X0380202Y0017436D01*
X0382040Y0016675D01*
X0383447Y0015268D01*
X0384130Y0013618D01*
X0384136Y0013654D01*
X0384389Y0014432D01*
X0384760Y0015162D01*
X0385242Y0015824D01*
X0385820Y0016403D01*
X0386482Y0016884D01*
X0387212Y0017255D01*
X0387990Y0017508D01*
X0388799Y0017636D01*
X0389208Y0017636D01*
X0389208Y0012436D01*
X0389129Y0012515D01*
X0389208Y0012436D02*
X0389208Y0017636D01*
X0389617Y0017636D01*
X0390426Y0017508D01*
X0391204Y0017255D01*
X0391933Y0016884D01*
X0392595Y0016403D01*
X0393174Y0015824D01*
X0393655Y0015162D01*
X0394027Y0014432D01*
X0394280Y0013654D01*
X0394285Y0013618D01*
X0394969Y0015268D01*
X0396376Y0016675D01*
X0398213Y0017436D01*
X0400202Y0017436D01*
X0402040Y0016675D01*
X0403447Y0015268D01*
X0404208Y0013431D01*
X0404208Y0011442D01*
X0403447Y0009604D01*
X0402040Y0008197D01*
X0400202Y0007436D01*
X0398213Y0007436D01*
X0396376Y0008197D01*
X0394969Y0009604D01*
X0394285Y0011254D01*
X0394280Y0011219D01*
X0394027Y0010440D01*
X0393655Y0009711D01*
X0393174Y0009049D01*
X0392595Y0008470D01*
X0391933Y0007989D01*
X0391204Y0007617D01*
X0390535Y0007400D01*
X0404639Y0007400D01*
X0404208Y0008442D01*
X0404208Y0016431D01*
X0404969Y0018268D01*
X0405779Y0019079D01*
X0397625Y0019079D01*
X0397480Y0018934D01*
X0395944Y0018298D01*
X0394282Y0018298D01*
X0392747Y0018934D01*
X0391571Y0020109D01*
X0390935Y0021645D01*
X0390935Y0023307D01*
X0391571Y0024842D01*
X0392747Y0026017D01*
X0394282Y0026654D01*
X0395944Y0026654D01*
X0397480Y0026017D01*
X0398019Y0025479D01*
X0470161Y0025479D01*
X0470503Y0025821D01*
X0472038Y0026457D01*
X0473700Y0026457D01*
X0475236Y0025821D01*
X0475578Y0025479D01*
X0562686Y0025479D01*
X0593101Y0055894D01*
X0593101Y0056377D01*
X0593737Y0057913D01*
X0594912Y0059088D01*
X0596448Y0059724D01*
X0598110Y0059724D01*
X0599645Y0059088D01*
X0600821Y0057913D01*
X0601457Y0056377D01*
X0601457Y0054715D01*
X0600821Y0053180D01*
X0599645Y0052005D01*
X0598110Y0051369D01*
X0597626Y0051369D01*
X0565824Y0019566D01*
X0564648Y0019079D01*
X0562636Y0019079D01*
X0563447Y0018268D01*
X0564208Y0016431D01*
X0564208Y0008442D01*
X0564639Y0007400D01*
X0563776Y0007400D01*
X0564208Y0008442D01*
X0564208Y0016431D01*
X0564969Y0018268D01*
X0566376Y0019675D01*
X0568213Y0020436D01*
X0570202Y0020436D01*
X0572040Y0019675D01*
X0573447Y0018268D01*
X0574208Y0016431D01*
X0574208Y0008442D01*
X0574639Y0007400D01*
X0573776Y0007400D01*
X0574208Y0008442D01*
X0574208Y0016431D01*
X0574969Y0018268D01*
X0576376Y0019675D01*
X0578213Y0020436D01*
X0580202Y0020436D01*
X0582040Y0019675D01*
X0583447Y0018268D01*
X0584208Y0016431D01*
X0584208Y0008442D01*
X0584639Y0007400D01*
X0583776Y0007400D01*
X0584208Y0008442D01*
X0584208Y0016431D01*
X0584969Y0018268D01*
X0586376Y0019675D01*
X0588213Y0020436D01*
X0590202Y0020436D01*
X0592040Y0019675D01*
X0593447Y0018268D01*
X0594208Y0016431D01*
X0594208Y0008442D01*
X0594639Y0007400D01*
X0593776Y0007400D01*
X0594208Y0008442D01*
X0594208Y0016431D01*
X0594969Y0018268D01*
X0596376Y0019675D01*
X0598213Y0020436D01*
X0600202Y0020436D01*
X0602000Y0019692D01*
X0602000Y0252906D01*
X0592820Y0252906D01*
X0593405Y0251495D01*
X0593405Y0248181D01*
X0592136Y0245119D01*
X0589793Y0242775D01*
X0586731Y0241507D01*
X0583417Y0241507D01*
X0580355Y0242775D01*
X0578012Y0245119D01*
X0576743Y0248181D01*
X0576743Y0251495D01*
X0577328Y0252906D01*
X0064330Y0252906D01*
X0007400Y0196872D01*
X0007400Y0017099D01*
X0008213Y0017436D01*
X0010202Y0017436D01*
X0012040Y0016675D01*
X0013447Y0015268D01*
X0014208Y0013431D01*
X0014208Y0011442D01*
X0014969Y0009604D01*
X0016376Y0008197D01*
X0018213Y0007436D01*
X0020202Y0007436D01*
X0022040Y0008197D01*
X0023447Y0009604D01*
X0024208Y0011442D01*
X0024969Y0009604D01*
X0026376Y0008197D01*
X0028213Y0007436D01*
X0030202Y0007436D01*
X0032040Y0008197D01*
X0033447Y0009604D01*
X0034208Y0011442D01*
X0034969Y0009604D01*
X0036376Y0008197D01*
X0038213Y0007436D01*
X0040202Y0007436D01*
X0042040Y0008197D01*
X0043447Y0009604D01*
X0044208Y0011442D01*
X0044969Y0009604D01*
X0046376Y0008197D01*
X0048213Y0007436D01*
X0050202Y0007436D01*
X0052040Y0008197D01*
X0053447Y0009604D01*
X0054208Y0011442D01*
X0054969Y0009604D01*
X0056376Y0008197D01*
X0058213Y0007436D01*
X0060202Y0007436D01*
X0062040Y0008197D01*
X0063447Y0009604D01*
X0064208Y0011442D01*
X0064969Y0009604D01*
X0066376Y0008197D01*
X0068213Y0007436D01*
X0070202Y0007436D01*
X0072040Y0008197D01*
X0073447Y0009604D01*
X0074208Y0011442D01*
X0074969Y0009604D01*
X0076376Y0008197D01*
X0078213Y0007436D01*
X0080202Y0007436D01*
X0082040Y0008197D01*
X0083447Y0009604D01*
X0084208Y0011442D01*
X0084969Y0009604D01*
X0086376Y0008197D01*
X0088213Y0007436D01*
X0090202Y0007436D01*
X0092040Y0008197D01*
X0093447Y0009604D01*
X0094208Y0011442D01*
X0094969Y0009604D01*
X0096376Y0008197D01*
X0098213Y0007436D01*
X0100202Y0007436D01*
X0102040Y0008197D01*
X0103447Y0009604D01*
X0104208Y0011442D01*
X0104969Y0009604D01*
X0106376Y0008197D01*
X0108213Y0007436D01*
X0110202Y0007436D01*
X0112040Y0008197D01*
X0113447Y0009604D01*
X0114208Y0011442D01*
X0114969Y0009604D01*
X0116376Y0008197D01*
X0118213Y0007436D01*
X0120202Y0007436D01*
X0122040Y0008197D01*
X0123447Y0009604D01*
X0124208Y0011442D01*
X0124969Y0009604D01*
X0126376Y0008197D01*
X0128213Y0007436D01*
X0130202Y0007436D01*
X0132040Y0008197D01*
X0133447Y0009604D01*
X0134208Y0011442D01*
X0134969Y0009604D01*
X0136376Y0008197D01*
X0138213Y0007436D01*
X0140202Y0007436D01*
X0142040Y0008197D01*
X0143447Y0009604D01*
X0144208Y0011442D01*
X0144969Y0009604D01*
X0146376Y0008197D01*
X0148213Y0007436D01*
X0150202Y0007436D01*
X0152040Y0008197D01*
X0153447Y0009604D01*
X0154208Y0011442D01*
X0154969Y0009604D01*
X0156376Y0008197D01*
X0158213Y0007436D01*
X0160202Y0007436D01*
X0162040Y0008197D01*
X0163447Y0009604D01*
X0164208Y0011442D01*
X0164969Y0009604D01*
X0166376Y0008197D01*
X0168213Y0007436D01*
X0170202Y0007436D01*
X0172040Y0008197D01*
X0173447Y0009604D01*
X0174208Y0011442D01*
X0174969Y0009604D01*
X0176376Y0008197D01*
X0178213Y0007436D01*
X0180202Y0007436D01*
X0182040Y0008197D01*
X0183447Y0009604D01*
X0184208Y0011442D01*
X0184969Y0009604D01*
X0186376Y0008197D01*
X0188213Y0007436D01*
X0190202Y0007436D01*
X0192040Y0008197D01*
X0193447Y0009604D01*
X0194208Y0011442D01*
X0194969Y0009604D01*
X0196376Y0008197D01*
X0198213Y0007436D01*
X0200202Y0007436D01*
X0202040Y0008197D01*
X0203447Y0009604D01*
X0204208Y0011442D01*
X0204969Y0009604D01*
X0206376Y0008197D01*
X0208213Y0007436D01*
X0210202Y0007436D01*
X0212040Y0008197D01*
X0213447Y0009604D01*
X0214208Y0011442D01*
X0214969Y0009604D01*
X0216376Y0008197D01*
X0218213Y0007436D01*
X0220202Y0007436D01*
X0222040Y0008197D01*
X0223447Y0009604D01*
X0224208Y0011442D01*
X0224969Y0009604D01*
X0226376Y0008197D01*
X0228213Y0007436D01*
X0230202Y0007436D01*
X0232040Y0008197D01*
X0233447Y0009604D01*
X0234208Y0011442D01*
X0234969Y0009604D01*
X0236376Y0008197D01*
X0238213Y0007436D01*
X0240202Y0007436D01*
X0242040Y0008197D01*
X0243447Y0009604D01*
X0244208Y0011442D01*
X0244969Y0009604D01*
X0246376Y0008197D01*
X0248213Y0007436D01*
X0250202Y0007436D01*
X0252040Y0008197D01*
X0253447Y0009604D01*
X0254208Y0011442D01*
X0254969Y0009604D01*
X0256376Y0008197D01*
X0258213Y0007436D01*
X0260202Y0007436D01*
X0262040Y0008197D01*
X0263447Y0009604D01*
X0264208Y0011442D01*
X0264969Y0009604D01*
X0266376Y0008197D01*
X0268213Y0007436D01*
X0270202Y0007436D01*
X0272040Y0008197D01*
X0273447Y0009604D01*
X0274208Y0011442D01*
X0274969Y0009604D01*
X0276376Y0008197D01*
X0278213Y0007436D01*
X0280202Y0007436D01*
X0282040Y0008197D01*
X0283447Y0009604D01*
X0284208Y0011442D01*
X0284969Y0009604D01*
X0286376Y0008197D01*
X0288213Y0007436D01*
X0290202Y0007436D01*
X0292040Y0008197D01*
X0293447Y0009604D01*
X0294208Y0011442D01*
X0294969Y0009604D01*
X0296376Y0008197D01*
X0298213Y0007436D01*
X0300202Y0007436D01*
X0302040Y0008197D01*
X0303447Y0009604D01*
X0304208Y0011442D01*
X0304969Y0009604D01*
X0306376Y0008197D01*
X0308213Y0007436D01*
X0310202Y0007436D01*
X0312040Y0008197D01*
X0313447Y0009604D01*
X0314208Y0011442D01*
X0314969Y0009604D01*
X0316376Y0008197D01*
X0318213Y0007436D01*
X0320202Y0007436D01*
X0322040Y0008197D01*
X0323447Y0009604D01*
X0324208Y0011442D01*
X0324969Y0009604D01*
X0326376Y0008197D01*
X0328213Y0007436D01*
X0330202Y0007436D01*
X0332040Y0008197D01*
X0333447Y0009604D01*
X0334208Y0011442D01*
X0334969Y0009604D01*
X0336376Y0008197D01*
X0338213Y0007436D01*
X0340202Y0007436D01*
X0342040Y0008197D01*
X0343447Y0009604D01*
X0344208Y0011442D01*
X0344969Y0009604D01*
X0346376Y0008197D01*
X0348213Y0007436D01*
X0350202Y0007436D01*
X0352040Y0008197D01*
X0353447Y0009604D01*
X0354208Y0011442D01*
X0354969Y0009604D01*
X0356376Y0008197D01*
X0358213Y0007436D01*
X0360202Y0007436D01*
X0362040Y0008197D01*
X0363447Y0009604D01*
X0364208Y0011442D01*
X0364969Y0009604D01*
X0366376Y0008197D01*
X0368213Y0007436D01*
X0370202Y0007436D01*
X0372040Y0008197D01*
X0373447Y0009604D01*
X0374208Y0011442D01*
X0374208Y0013431D01*
X0373447Y0015268D01*
X0372040Y0016675D01*
X0370202Y0017436D01*
X0368213Y0017436D01*
X0366376Y0016675D01*
X0364969Y0015268D01*
X0364208Y0013431D01*
X0364208Y0011442D01*
X0364208Y0013431D01*
X0363447Y0015268D01*
X0362040Y0016675D01*
X0360202Y0017436D01*
X0358213Y0017436D01*
X0356376Y0016675D01*
X0354969Y0015268D01*
X0354208Y0013431D01*
X0354208Y0011442D01*
X0354208Y0013431D01*
X0353447Y0015268D01*
X0352040Y0016675D01*
X0350202Y0017436D01*
X0348213Y0017436D01*
X0346376Y0016675D01*
X0344969Y0015268D01*
X0344208Y0013431D01*
X0344208Y0011442D01*
X0344208Y0013431D01*
X0343447Y0015268D01*
X0342040Y0016675D01*
X0340202Y0017436D01*
X0338213Y0017436D01*
X0336376Y0016675D01*
X0334969Y0015268D01*
X0334208Y0013431D01*
X0334208Y0011442D01*
X0334208Y0013431D01*
X0333447Y0015268D01*
X0332040Y0016675D01*
X0330202Y0017436D01*
X0328213Y0017436D01*
X0326376Y0016675D01*
X0324969Y0015268D01*
X0324208Y0013431D01*
X0324208Y0011442D01*
X0324208Y0013431D01*
X0323447Y0015268D01*
X0322040Y0016675D01*
X0320202Y0017436D01*
X0318213Y0017436D01*
X0316376Y0016675D01*
X0314969Y0015268D01*
X0314208Y0013431D01*
X0314208Y0011442D01*
X0314208Y0013431D01*
X0313447Y0015268D01*
X0312040Y0016675D01*
X0310202Y0017436D01*
X0309500Y0017436D01*
X0309500Y0017846D01*
X0308891Y0019316D01*
X0307766Y0020441D01*
X0306296Y0021050D01*
X0304704Y0021050D01*
X0303234Y0020441D01*
X0302343Y0019550D01*
X0279986Y0019550D01*
X0270916Y0028619D01*
X0269997Y0029000D01*
X0260507Y0029000D01*
X0259616Y0029891D01*
X0258146Y0030500D01*
X0256554Y0030500D01*
X0255084Y0029891D01*
X0253959Y0028766D01*
X0253350Y0027296D01*
X0253350Y0025704D01*
X0253959Y0024234D01*
X0255084Y0023109D01*
X0256554Y0022500D01*
X0258146Y0022500D01*
X0259616Y0023109D01*
X0260507Y0024000D01*
X0268464Y0024000D01*
X0276083Y0016382D01*
X0274969Y0015268D01*
X0274208Y0013431D01*
X0274208Y0011442D01*
X0274208Y0013431D01*
X0273447Y0015268D01*
X0272040Y0016675D01*
X0270202Y0017436D01*
X0268213Y0017436D01*
X0266376Y0016675D01*
X0264969Y0015268D01*
X0264208Y0013431D01*
X0264208Y0011442D01*
X0264208Y0013431D01*
X0263447Y0015268D01*
X0262040Y0016675D01*
X0260202Y0017436D01*
X0258213Y0017436D01*
X0256376Y0016675D01*
X0254969Y0015268D01*
X0254208Y0013431D01*
X0254208Y0011442D01*
X0254208Y0013431D01*
X0253447Y0015268D01*
X0252040Y0016675D01*
X0250202Y0017436D01*
X0248213Y0017436D01*
X0246376Y0016675D01*
X0244969Y0015268D01*
X0244208Y0013431D01*
X0244208Y0011442D01*
X0244208Y0013431D01*
X0243447Y0015268D01*
X0242040Y0016675D01*
X0240202Y0017436D01*
X0238213Y0017436D01*
X0236376Y0016675D01*
X0234969Y0015268D01*
X0234208Y0013431D01*
X0234208Y0011442D01*
X0234208Y0013431D01*
X0233447Y0015268D01*
X0232040Y0016675D01*
X0230202Y0017436D01*
X0228213Y0017436D01*
X0226376Y0016675D01*
X0224969Y0015268D01*
X0224208Y0013431D01*
X0224208Y0011442D01*
X0224208Y0013431D01*
X0223447Y0015268D01*
X0222040Y0016675D01*
X0220202Y0017436D01*
X0218213Y0017436D01*
X0216376Y0016675D01*
X0214969Y0015268D01*
X0214208Y0013431D01*
X0214208Y0011442D01*
X0214208Y0013431D01*
X0213447Y0015268D01*
X0212040Y0016675D01*
X0210202Y0017436D01*
X0208213Y0017436D01*
X0206376Y0016675D01*
X0204969Y0015268D01*
X0204208Y0013431D01*
X0204208Y0011442D01*
X0204208Y0013431D01*
X0203447Y0015268D01*
X0202040Y0016675D01*
X0200202Y0017436D01*
X0198213Y0017436D01*
X0196376Y0016675D01*
X0194969Y0015268D01*
X0194208Y0013431D01*
X0194208Y0011442D01*
X0194208Y0013431D01*
X0193447Y0015268D01*
X0192040Y0016675D01*
X0190202Y0017436D01*
X0188213Y0017436D01*
X0186376Y0016675D01*
X0184969Y0015268D01*
X0184208Y0013431D01*
X0184208Y0011442D01*
X0184208Y0013431D01*
X0183447Y0015268D01*
X0182040Y0016675D01*
X0180202Y0017436D01*
X0178213Y0017436D01*
X0176376Y0016675D01*
X0174969Y0015268D01*
X0174208Y0013431D01*
X0174208Y0011442D01*
X0174208Y0013431D01*
X0173447Y0015268D01*
X0172040Y0016675D01*
X0170202Y0017436D01*
X0168213Y0017436D01*
X0166376Y0016675D01*
X0164969Y0015268D01*
X0164208Y0013431D01*
X0164208Y0011442D01*
X0164208Y0013431D01*
X0163447Y0015268D01*
X0162040Y0016675D01*
X0160202Y0017436D01*
X0158213Y0017436D01*
X0156376Y0016675D01*
X0154969Y0015268D01*
X0154208Y0013431D01*
X0154208Y0011442D01*
X0154208Y0013431D01*
X0153447Y0015268D01*
X0152040Y0016675D01*
X0150202Y0017436D01*
X0148213Y0017436D01*
X0146376Y0016675D01*
X0144969Y0015268D01*
X0144208Y0013431D01*
X0144208Y0011442D01*
X0144208Y0013431D01*
X0143447Y0015268D01*
X0142040Y0016675D01*
X0140202Y0017436D01*
X0138213Y0017436D01*
X0136376Y0016675D01*
X0134969Y0015268D01*
X0134208Y0013431D01*
X0134208Y0011442D01*
X0134208Y0013431D01*
X0133447Y0015268D01*
X0132040Y0016675D01*
X0130202Y0017436D01*
X0128213Y0017436D01*
X0126376Y0016675D01*
X0124969Y0015268D01*
X0124208Y0013431D01*
X0124208Y0011442D01*
X0124208Y0013431D01*
X0123447Y0015268D01*
X0122040Y0016675D01*
X0120202Y0017436D01*
X0118213Y0017436D01*
X0116376Y0016675D01*
X0114969Y0015268D01*
X0114208Y0013431D01*
X0114208Y0011442D01*
X0114208Y0013431D01*
X0113447Y0015268D01*
X0112040Y0016675D01*
X0110202Y0017436D01*
X0108213Y0017436D01*
X0106376Y0016675D01*
X0104969Y0015268D01*
X0104208Y0013431D01*
X0104208Y0011442D01*
X0104208Y0013431D01*
X0103447Y0015268D01*
X0102040Y0016675D01*
X0100202Y0017436D01*
X0098213Y0017436D01*
X0096376Y0016675D01*
X0094969Y0015268D01*
X0094208Y0013431D01*
X0094208Y0011442D01*
X0094208Y0013431D01*
X0093447Y0015268D01*
X0092040Y0016675D01*
X0090202Y0017436D01*
X0088213Y0017436D01*
X0086376Y0016675D01*
X0084969Y0015268D01*
X0084208Y0013431D01*
X0084208Y0011442D01*
X0084208Y0013431D01*
X0083447Y0015268D01*
X0082040Y0016675D01*
X0080202Y0017436D01*
X0078213Y0017436D01*
X0076376Y0016675D01*
X0074969Y0015268D01*
X0074208Y0013431D01*
X0074208Y0011442D01*
X0074208Y0013431D01*
X0073447Y0015268D01*
X0072040Y0016675D01*
X0070202Y0017436D01*
X0068213Y0017436D01*
X0066376Y0016675D01*
X0064969Y0015268D01*
X0064208Y0013431D01*
X0064208Y0011442D01*
X0064208Y0013431D01*
X0063447Y0015268D01*
X0062040Y0016675D01*
X0060202Y0017436D01*
X0058213Y0017436D01*
X0056376Y0016675D01*
X0054969Y0015268D01*
X0054208Y0013431D01*
X0054208Y0011442D01*
X0054208Y0013431D01*
X0053447Y0015268D01*
X0052040Y0016675D01*
X0050202Y0017436D01*
X0048213Y0017436D01*
X0046376Y0016675D01*
X0044969Y0015268D01*
X0044208Y0013431D01*
X0044208Y0011442D01*
X0044208Y0013431D01*
X0043447Y0015268D01*
X0042040Y0016675D01*
X0040202Y0017436D01*
X0038213Y0017436D01*
X0036376Y0016675D01*
X0034969Y0015268D01*
X0034208Y0013431D01*
X0034208Y0011442D01*
X0034208Y0013431D01*
X0033447Y0015268D01*
X0032040Y0016675D01*
X0030202Y0017436D01*
X0028213Y0017436D01*
X0026376Y0016675D01*
X0024969Y0015268D01*
X0024208Y0013431D01*
X0024208Y0011442D01*
X0024208Y0013431D01*
X0023447Y0015268D01*
X0022040Y0016675D01*
X0020202Y0017436D01*
X0018213Y0017436D01*
X0016376Y0016675D01*
X0014969Y0015268D01*
X0014208Y0013431D01*
X0014208Y0011442D01*
X0013447Y0009604D01*
X0012040Y0008197D01*
X0010202Y0007436D01*
X0008213Y0007436D01*
X0007400Y0007773D01*
X0013238Y0009396D02*
X0015177Y0009396D01*
X0014208Y0011794D02*
X0014208Y0011794D01*
X0013892Y0014193D02*
X0014523Y0014193D01*
X0016292Y0016591D02*
X0012124Y0016591D01*
X0007400Y0018990D02*
X0273475Y0018990D01*
X0272124Y0016591D02*
X0275873Y0016591D01*
X0274523Y0014193D02*
X0273892Y0014193D01*
X0274208Y0011794D02*
X0274208Y0011794D01*
X0273238Y0009396D02*
X0275177Y0009396D01*
X0283238Y0009396D02*
X0285177Y0009396D01*
X0284208Y0011442D02*
X0284208Y0013431D01*
X0284671Y0014550D01*
X0283744Y0014550D01*
X0284208Y0013431D01*
X0284208Y0011442D01*
X0284208Y0011794D02*
X0284208Y0011794D01*
X0283892Y0014193D02*
X0284523Y0014193D01*
X0293744Y0014550D02*
X0294671Y0014550D01*
X0294208Y0013431D01*
X0294208Y0011442D01*
X0294208Y0013431D01*
X0293744Y0014550D01*
X0293892Y0014193D02*
X0294523Y0014193D01*
X0294208Y0011794D02*
X0294208Y0011794D01*
X0293238Y0009396D02*
X0295177Y0009396D01*
X0303238Y0009396D02*
X0305177Y0009396D01*
X0304208Y0011442D02*
X0304208Y0013256D01*
X0304208Y0013256D01*
X0304208Y0011442D01*
X0304208Y0011794D02*
X0304208Y0011794D01*
X0313238Y0009396D02*
X0315177Y0009396D01*
X0314208Y0011794D02*
X0314208Y0011794D01*
X0313892Y0014193D02*
X0314523Y0014193D01*
X0316292Y0016591D02*
X0312124Y0016591D01*
X0309026Y0018990D02*
X0392691Y0018990D01*
X0392336Y0016591D02*
X0396292Y0016591D01*
X0397536Y0018990D02*
X0405690Y0018990D01*
X0404274Y0016591D02*
X0402124Y0016591D01*
X0403892Y0014193D02*
X0404208Y0014193D01*
X0404208Y0011794D02*
X0404208Y0011794D01*
X0404208Y0009396D02*
X0403238Y0009396D01*
X0395177Y0009396D02*
X0393426Y0009396D01*
X0389208Y0012436D02*
X0389208Y0012436D01*
X0389208Y0014193D02*
X0389208Y0014193D01*
X0389208Y0016591D02*
X0389208Y0016591D01*
X0386080Y0016591D02*
X0382124Y0016591D01*
X0383892Y0014193D02*
X0384311Y0014193D01*
X0376292Y0016591D02*
X0372124Y0016591D01*
X0373892Y0014193D02*
X0374523Y0014193D01*
X0374208Y0011794D02*
X0374208Y0011794D01*
X0373238Y0009396D02*
X0375177Y0009396D01*
X0383238Y0009396D02*
X0384989Y0009396D01*
X0394105Y0014193D02*
X0394523Y0014193D01*
X0391042Y0021388D02*
X0278147Y0021388D01*
X0278657Y0021098D02*
X0252239Y0047515D01*
X0252239Y0052865D01*
X0250023Y0052865D01*
X0247098Y0049940D01*
X0245439Y0051598D01*
X0245439Y0060841D01*
X0245478Y0060856D01*
X0246969Y0062347D01*
X0247361Y0063294D01*
X0247379Y0063238D01*
X0247772Y0062467D01*
X0248280Y0061767D01*
X0248893Y0061154D01*
X0249593Y0060646D01*
X0250364Y0060253D01*
X0251188Y0059985D01*
X0252043Y0059850D01*
X0252476Y0059850D01*
X0252908Y0059850D01*
X0253764Y0059985D01*
X0254587Y0060253D01*
X0255358Y0060646D01*
X0256059Y0061154D01*
X0256671Y0061767D01*
X0257180Y0062467D01*
X0257573Y0063238D01*
X0257591Y0063294D01*
X0257982Y0062347D01*
X0259473Y0060856D01*
X0261421Y0060050D01*
X0263530Y0060050D01*
X0265478Y0060856D01*
X0266969Y0062347D01*
X0267476Y0063571D01*
X0267982Y0062347D01*
X0269473Y0060856D01*
X0271421Y0060050D01*
X0273530Y0060050D01*
X0275478Y0060856D01*
X0276969Y0062347D01*
X0277476Y0063571D01*
X0277982Y0062347D01*
X0279473Y0060856D01*
X0281421Y0060050D01*
X0283530Y0060050D01*
X0285478Y0060856D01*
X0286969Y0062347D01*
X0287476Y0063571D01*
X0287982Y0062347D01*
X0289473Y0060856D01*
X0291421Y0060050D01*
X0293530Y0060050D01*
X0295478Y0060856D01*
X0296969Y0062347D01*
X0297476Y0063571D01*
X0297982Y0062347D01*
X0299473Y0060856D01*
X0301421Y0060050D01*
X0303530Y0060050D01*
X0305478Y0060856D01*
X0306969Y0062347D01*
X0307476Y0063571D01*
X0307982Y0062347D01*
X0309473Y0060856D01*
X0311421Y0060050D01*
X0313530Y0060050D01*
X0315478Y0060856D01*
X0316969Y0062347D01*
X0317776Y0064295D01*
X0317776Y0066404D01*
X0316969Y0068352D01*
X0315478Y0069843D01*
X0313530Y0070650D01*
X0311421Y0070650D01*
X0309473Y0069843D01*
X0307982Y0068352D01*
X0307476Y0067128D01*
X0306969Y0068352D01*
X0305478Y0069843D01*
X0303530Y0070650D01*
X0301421Y0070650D01*
X0299473Y0069843D01*
X0297982Y0068352D01*
X0297476Y0067128D01*
X0296969Y0068352D01*
X0295478Y0069843D01*
X0293530Y0070650D01*
X0291421Y0070650D01*
X0289473Y0069843D01*
X0287982Y0068352D01*
X0287476Y0067128D01*
X0286969Y0068352D01*
X0285478Y0069843D01*
X0283530Y0070650D01*
X0281421Y0070650D01*
X0280866Y0070420D01*
X0269750Y0081536D01*
X0269750Y0090742D01*
X0271421Y0090050D01*
X0273530Y0090050D01*
X0275478Y0090856D01*
X0276969Y0092347D01*
X0277476Y0093571D01*
X0277982Y0092347D01*
X0279473Y0090856D01*
X0281421Y0090050D01*
X0283530Y0090050D01*
X0285478Y0090856D01*
X0286969Y0092347D01*
X0287476Y0093571D01*
X0287982Y0092347D01*
X0289473Y0090856D01*
X0291421Y0090050D01*
X0293530Y0090050D01*
X0295478Y0090856D01*
X0296969Y0092347D01*
X0297476Y0093571D01*
X0297982Y0092347D01*
X0299473Y0090856D01*
X0301421Y0090050D01*
X0303530Y0090050D01*
X0305478Y0090856D01*
X0306969Y0092347D01*
X0307476Y0093571D01*
X0307982Y0092347D01*
X0309473Y0090856D01*
X0311421Y0090050D01*
X0313530Y0090050D01*
X0315478Y0090856D01*
X0316969Y0092347D01*
X0317776Y0094295D01*
X0317776Y0096404D01*
X0316969Y0098352D01*
X0315478Y0099843D01*
X0313530Y0100650D01*
X0311421Y0100650D01*
X0309473Y0099843D01*
X0307982Y0098352D01*
X0307476Y0097128D01*
X0306969Y0098352D01*
X0305478Y0099843D01*
X0303530Y0100650D01*
X0301421Y0100650D01*
X0299473Y0099843D01*
X0297982Y0098352D01*
X0297476Y0097128D01*
X0296969Y0098352D01*
X0295478Y0099843D01*
X0293530Y0100650D01*
X0291421Y0100650D01*
X0289473Y0099843D01*
X0287982Y0098352D01*
X0287476Y0097128D01*
X0286969Y0098352D01*
X0285478Y0099843D01*
X0283530Y0100650D01*
X0281421Y0100650D01*
X0279473Y0099843D01*
X0277982Y0098352D01*
X0277476Y0097128D01*
X0276969Y0098352D01*
X0275478Y0099843D01*
X0273530Y0100650D01*
X0271421Y0100650D01*
X0269750Y0099957D01*
X0269750Y0131172D01*
X0271224Y0130561D01*
X0273333Y0130561D01*
X0275281Y0131368D01*
X0276772Y0132859D01*
X0277279Y0134083D01*
X0277786Y0132859D01*
X0279277Y0131368D01*
X0280377Y0130912D01*
X0275031Y0125566D01*
X0274650Y0124647D01*
X0274650Y0118253D01*
X0275031Y0117334D01*
X0275734Y0116631D01*
X0278261Y0114103D01*
X0276782Y0112624D01*
X0276782Y0108233D01*
X0279887Y0105128D01*
X0284277Y0105128D01*
X0287382Y0108233D01*
X0287382Y0112624D01*
X0286906Y0113100D01*
X0307258Y0113100D01*
X0306782Y0112624D01*
X0306782Y0108233D01*
X0309887Y0105128D01*
X0314277Y0105128D01*
X0317382Y0108233D01*
X0317382Y0112624D01*
X0316906Y0113100D01*
X0434193Y0113100D01*
X0435084Y0112209D01*
X0436554Y0111600D01*
X0438146Y0111600D01*
X0439616Y0112209D01*
X0440741Y0113334D01*
X0441350Y0114804D01*
X0441350Y0116396D01*
X0440741Y0117866D01*
X0439616Y0118991D01*
X0438146Y0119600D01*
X0436554Y0119600D01*
X0435084Y0118991D01*
X0434193Y0118100D01*
X0317131Y0118100D01*
X0317382Y0118351D01*
X0317382Y0122742D01*
X0314277Y0125846D01*
X0309887Y0125846D01*
X0306782Y0122742D01*
X0306782Y0118351D01*
X0307033Y0118100D01*
X0287131Y0118100D01*
X0287382Y0118351D01*
X0287382Y0120496D01*
X0298765Y0131880D01*
X0299277Y0131368D01*
X0301224Y0130561D01*
X0303333Y0130561D01*
X0305281Y0131368D01*
X0306772Y0132859D01*
X0307279Y0134083D01*
X0307786Y0132859D01*
X0309277Y0131368D01*
X0311224Y0130561D01*
X0313333Y0130561D01*
X0315281Y0131368D01*
X0316772Y0132859D01*
X0317579Y0134807D01*
X0317579Y0136916D01*
X0316772Y0138864D01*
X0315281Y0140355D01*
X0313333Y0141161D01*
X0311224Y0141161D01*
X0309277Y0140355D01*
X0307786Y0138864D01*
X0307279Y0137640D01*
X0306772Y0138864D01*
X0305281Y0140355D01*
X0303333Y0141161D01*
X0301224Y0141161D01*
X0300765Y0140971D01*
X0290000Y0151736D01*
X0290000Y0161069D01*
X0291224Y0160561D01*
X0293333Y0160561D01*
X0295281Y0161368D01*
X0296772Y0162859D01*
X0297279Y0164083D01*
X0297786Y0162859D01*
X0299277Y0161368D01*
X0301224Y0160561D01*
X0303333Y0160561D01*
X0303665Y0160699D01*
X0338284Y0126081D01*
X0339203Y0125700D01*
X0403647Y0125700D01*
X0404566Y0126081D01*
X0405269Y0126784D01*
X0407786Y0129300D01*
X0507605Y0129300D01*
X0509960Y0126945D01*
X0480864Y0097850D01*
X0364907Y0097850D01*
X0364016Y0098741D01*
X0362546Y0099350D01*
X0360954Y0099350D01*
X0359484Y0098741D01*
X0358359Y0097616D01*
X0357750Y0096146D01*
X0357750Y0094554D01*
X0358359Y0093084D01*
X0359484Y0091959D01*
X0360954Y0091350D01*
X0362546Y0091350D01*
X0364016Y0091959D01*
X0364907Y0092850D01*
X0437764Y0092850D01*
X0437598Y0092684D01*
X0437598Y0090468D01*
X0442948Y0090468D01*
X0442948Y0090468D01*
X0448298Y0090468D01*
X0448298Y0092684D01*
X0448132Y0092850D01*
X0467686Y0092850D01*
X0467519Y0092684D01*
X0467519Y0090468D01*
X0472869Y0090468D01*
X0472869Y0090468D01*
X0467519Y0090468D01*
X0467519Y0088252D01*
X0470445Y0085326D01*
X0467719Y0082601D01*
X0467719Y0078335D01*
X0470736Y0075318D01*
X0475002Y0075318D01*
X0478019Y0078335D01*
X0478019Y0082601D01*
X0475294Y0085326D01*
X0478219Y0088252D01*
X0478219Y0090468D01*
X0478219Y0092684D01*
X0478053Y0092850D01*
X0482397Y0092850D01*
X0483316Y0093231D01*
X0484019Y0093934D01*
X0521900Y0131814D01*
X0521900Y0130005D01*
X0525005Y0126900D01*
X0529395Y0126900D01*
X0532500Y0130005D01*
X0532500Y0134395D01*
X0529395Y0137500D01*
X0527586Y0137500D01*
X0529019Y0138934D01*
X0529400Y0139853D01*
X0529400Y0177114D01*
X0559089Y0206803D01*
X0559375Y0206111D01*
X0560718Y0204769D01*
X0562471Y0204043D01*
X0564370Y0204043D01*
X0566123Y0204769D01*
X0567466Y0206111D01*
X0568192Y0207865D01*
X0568192Y0209763D01*
X0567466Y0211517D01*
X0566123Y0212859D01*
X0565431Y0213146D01*
X0568491Y0216206D01*
X0568491Y0216133D01*
X0569218Y0214379D01*
X0570560Y0213037D01*
X0570774Y0212948D01*
X0570560Y0212859D01*
X0569218Y0211517D01*
X0568491Y0209763D01*
X0568491Y0207865D01*
X0569218Y0206111D01*
X0570560Y0204769D01*
X0572314Y0204043D01*
X0574212Y0204043D01*
X0575966Y0204769D01*
X0577308Y0206111D01*
X0578035Y0207865D01*
X0578035Y0209763D01*
X0577308Y0211517D01*
X0575966Y0212859D01*
X0575752Y0212948D01*
X0575966Y0213037D01*
X0577308Y0214379D01*
X0578035Y0216133D01*
X0578035Y0218031D01*
X0577308Y0219785D01*
X0575966Y0221127D01*
X0574212Y0221854D01*
X0574139Y0221854D01*
X0575270Y0222985D01*
X0575966Y0223273D01*
X0577308Y0224615D01*
X0578035Y0226369D01*
X0578035Y0228267D01*
X0577308Y0230021D01*
X0575966Y0231363D01*
X0575930Y0231378D01*
X0576502Y0231794D01*
X0577055Y0232347D01*
X0577515Y0232980D01*
X0577870Y0233677D01*
X0578112Y0234422D01*
X0578235Y0235195D01*
X0578235Y0235586D01*
X0578235Y0235977D01*
X0578112Y0236750D01*
X0577870Y0237494D01*
X0577515Y0238192D01*
X0577055Y0238825D01*
X0576502Y0239378D01*
X0575869Y0239838D01*
X0575171Y0240193D01*
X0574427Y0240435D01*
X0573654Y0240557D01*
X0573263Y0240557D01*
X0572872Y0240557D01*
X0572099Y0240435D01*
X0571355Y0240193D01*
X0570657Y0239838D01*
X0570024Y0239378D01*
X0569471Y0238825D01*
X0569011Y0238192D01*
X0568656Y0237494D01*
X0568414Y0236750D01*
X0568291Y0235977D01*
X0568291Y0235586D01*
X0573263Y0235586D01*
X0573263Y0235586D01*
X0573263Y0240557D01*
X0573263Y0235586D01*
X0578235Y0235586D01*
X0573263Y0235586D01*
X0573263Y0235586D01*
X0597279Y0235586D01*
X0597279Y0157712D01*
X0572980Y0157712D01*
X0562476Y0147208D01*
X0568176Y0147208D01*
X0568176Y0147656D01*
X0568035Y0148543D01*
X0567758Y0149396D01*
X0567351Y0150195D01*
X0566823Y0150921D01*
X0566189Y0151556D01*
X0565463Y0152083D01*
X0564664Y0152490D01*
X0563810Y0152768D01*
X0562924Y0152908D01*
X0562476Y0152908D01*
X0562476Y0147208D01*
X0562476Y0147208D01*
X0568176Y0147208D01*
X0568176Y0146759D01*
X0568068Y0146078D01*
X0569360Y0147371D01*
X0571382Y0148208D01*
X0573570Y0148208D01*
X0575591Y0147371D01*
X0577138Y0145823D01*
X0577976Y0143802D01*
X0577976Y0141614D01*
X0577138Y0139592D01*
X0575754Y0138208D01*
X0577138Y0136823D01*
X0577976Y0134802D01*
X0577976Y0132614D01*
X0577138Y0130592D01*
X0575754Y0129208D01*
X0577138Y0127823D01*
X0577976Y0125802D01*
X0577976Y0123614D01*
X0577138Y0121592D01*
X0575754Y0120208D01*
X0577138Y0118823D01*
X0577976Y0116802D01*
X0577976Y0114614D01*
X0577138Y0112592D01*
X0575754Y0111208D01*
X0577138Y0109823D01*
X0577976Y0107802D01*
X0577976Y0105614D01*
X0577138Y0103592D01*
X0575591Y0102045D01*
X0573570Y0101208D01*
X0571382Y0101208D01*
X0569360Y0102045D01*
X0567813Y0103592D01*
X0566976Y0105614D01*
X0566976Y0107704D01*
X0566823Y0107495D01*
X0566189Y0106860D01*
X0565463Y0106333D01*
X0564664Y0105925D01*
X0563810Y0105648D01*
X0562924Y0105508D01*
X0562476Y0105508D01*
X0562476Y0111208D01*
X0568176Y0111208D01*
X0568176Y0111656D01*
X0568068Y0112338D01*
X0569197Y0111208D01*
X0568068Y0110078D01*
X0568176Y0110759D01*
X0568176Y0111208D01*
X0562476Y0111208D01*
X0562476Y0111208D01*
X0557976Y0106708D01*
X0552476Y0106708D01*
X0558176Y0106708D01*
X0558176Y0107156D01*
X0558120Y0107505D01*
X0558128Y0107495D01*
X0558762Y0106860D01*
X0559488Y0106333D01*
X0560288Y0105925D01*
X0561141Y0105648D01*
X0562027Y0105508D01*
X0562476Y0105508D01*
X0562476Y0111208D01*
X0562476Y0111208D01*
X0562475Y0111208D02*
X0562475Y0111208D01*
X0556776Y0111208D01*
X0556776Y0111656D01*
X0556883Y0112338D01*
X0555849Y0111303D01*
X0556189Y0111056D01*
X0556823Y0110421D01*
X0556831Y0110411D01*
X0556776Y0110759D01*
X0556776Y0111208D01*
X0562475Y0111208D01*
X0562476Y0110133D02*
X0562476Y0110133D01*
X0562476Y0107734D02*
X0562476Y0107734D01*
X0558176Y0106708D02*
X0552476Y0106708D01*
X0552476Y0106708D01*
X0565251Y0093932D01*
X0597279Y0093932D01*
X0597279Y0064798D01*
X0560665Y0028184D01*
X0391885Y0028184D01*
X0389129Y0030940D01*
X0389129Y0030982D02*
X0389129Y0030982D01*
X0389129Y0029433D02*
X0389538Y0029433D01*
X0390347Y0029561D01*
X0391125Y0029814D01*
X0391855Y0030186D01*
X0392517Y0030667D01*
X0393095Y0031245D01*
X0393577Y0031908D01*
X0393948Y0032637D01*
X0394201Y0033415D01*
X0394207Y0033451D01*
X0394890Y0031801D01*
X0396297Y0030394D01*
X0398135Y0029633D01*
X0400124Y0029633D01*
X0401961Y0030394D01*
X0403368Y0031801D01*
X0404129Y0033638D01*
X0404129Y0041628D01*
X0403368Y0043465D01*
X0402729Y0044104D01*
X0402729Y0053635D01*
X0404279Y0055185D01*
X0404279Y0059451D01*
X0401262Y0062468D01*
X0396996Y0062468D01*
X0394271Y0059743D01*
X0391345Y0062668D01*
X0389129Y0062668D01*
X0386913Y0062668D01*
X0383779Y0059534D01*
X0383779Y0057318D01*
X0383779Y0055102D01*
X0386913Y0051968D01*
X0389129Y0051968D01*
X0389129Y0057318D01*
X0383779Y0057318D01*
X0389129Y0057318D01*
X0389129Y0057318D01*
X0389129Y0057318D01*
X0389129Y0051968D01*
X0391345Y0051968D01*
X0394271Y0054894D01*
X0395529Y0053635D01*
X0395529Y0044104D01*
X0394890Y0043465D01*
X0394207Y0041815D01*
X0394201Y0041851D01*
X0393948Y0042629D01*
X0393577Y0043358D01*
X0393095Y0044021D01*
X0392517Y0044599D01*
X0391855Y0045080D01*
X0391125Y0045452D01*
X0390347Y0045705D01*
X0389538Y0045833D01*
X0389129Y0045833D01*
X0388720Y0045833D01*
X0387911Y0045705D01*
X0387133Y0045452D01*
X0386404Y0045080D01*
X0385742Y0044599D01*
X0385163Y0044021D01*
X0384682Y0043358D01*
X0384310Y0042629D01*
X0384057Y0041851D01*
X0383929Y0041042D01*
X0383929Y0037633D01*
X0383929Y0034224D01*
X0384057Y0033415D01*
X0384310Y0032637D01*
X0384682Y0031908D01*
X0385163Y0031245D01*
X0385742Y0030667D01*
X0386404Y0030186D01*
X0387133Y0029814D01*
X0387911Y0029561D01*
X0388720Y0029433D01*
X0389129Y0029433D01*
X0389129Y0037633D01*
X0383929Y0037633D01*
X0389129Y0037633D01*
X0389129Y0037633D01*
X0389129Y0037633D01*
X0372594Y0021098D01*
X0278657Y0021098D01*
X0279322Y0022628D02*
X0280984Y0022628D01*
X0282519Y0023264D01*
X0282861Y0023606D01*
X0365043Y0023606D01*
X0365385Y0023264D01*
X0366920Y0022628D01*
X0368582Y0022628D01*
X0370118Y0023264D01*
X0371293Y0024440D01*
X0371929Y0025975D01*
X0371929Y0027637D01*
X0371293Y0029173D01*
X0370118Y0030348D01*
X0368582Y0030984D01*
X0366920Y0030984D01*
X0365385Y0030348D01*
X0365043Y0030006D01*
X0282861Y0030006D01*
X0282519Y0030348D01*
X0280984Y0030984D01*
X0279322Y0030984D01*
X0277786Y0030348D01*
X0276611Y0029173D01*
X0275975Y0027637D01*
X0275975Y0025975D01*
X0276611Y0024440D01*
X0277786Y0023264D01*
X0279322Y0022628D01*
X0277264Y0023787D02*
X0275749Y0023787D01*
X0275975Y0026185D02*
X0273350Y0026185D01*
X0270952Y0028584D02*
X0276367Y0028584D01*
X0279317Y0030982D02*
X0230193Y0030982D01*
X0232591Y0033381D02*
X0384068Y0033381D01*
X0383929Y0035779D02*
X0234990Y0035779D01*
X0237388Y0038178D02*
X0383929Y0038178D01*
X0383929Y0040576D02*
X0239787Y0040576D01*
X0241575Y0042365D02*
X0244373Y0042365D01*
X0247098Y0045090D01*
X0250023Y0042165D01*
X0252239Y0042165D01*
X0252239Y0047515D01*
X0252239Y0047515D01*
X0252239Y0047515D01*
X0225625Y0021098D01*
X0127594Y0021098D01*
X0099641Y0048854D01*
X0099641Y0107672D01*
X0099641Y0100272D01*
X0100019Y0100272D01*
X0100765Y0100391D01*
X0101484Y0100624D01*
X0102157Y0100967D01*
X0102768Y0101411D01*
X0103302Y0101945D01*
X0103746Y0102557D01*
X0104089Y0103230D01*
X0104323Y0103948D01*
X0104441Y0104695D01*
X0104441Y0107672D01*
X0099641Y0107672D01*
X0099641Y0107672D01*
X0099641Y0100272D01*
X0099263Y0100272D01*
X0098517Y0100391D01*
X0097798Y0100624D01*
X0097125Y0100967D01*
X0096514Y0101411D01*
X0095980Y0101945D01*
X0095536Y0102557D01*
X0095193Y0103230D01*
X0094959Y0103948D01*
X0094841Y0104695D01*
X0094841Y0107672D01*
X0099641Y0107672D01*
X0099641Y0107672D01*
X0099641Y0107672D01*
X0108145Y0116176D01*
X0123460Y0116176D01*
X0129641Y0109995D01*
X0129641Y0107672D01*
X0129641Y0100272D01*
X0130019Y0100272D01*
X0130765Y0100391D01*
X0131484Y0100624D01*
X0132157Y0100967D01*
X0132768Y0101411D01*
X0133302Y0101945D01*
X0133746Y0102557D01*
X0134089Y0103230D01*
X0134323Y0103948D01*
X0134441Y0104695D01*
X0134441Y0107672D01*
X0129641Y0107672D01*
X0129641Y0107672D01*
X0129641Y0100272D01*
X0129263Y0100272D01*
X0128517Y0100391D01*
X0127798Y0100624D01*
X0127125Y0100967D01*
X0126514Y0101411D01*
X0125980Y0101945D01*
X0125536Y0102557D01*
X0125193Y0103230D01*
X0124959Y0103948D01*
X0124841Y0104695D01*
X0124841Y0107672D01*
X0129641Y0107672D01*
X0129641Y0107672D01*
X0129641Y0107672D01*
X0134441Y0107672D01*
X0134441Y0110650D01*
X0134323Y0111396D01*
X0134089Y0112115D01*
X0133746Y0112788D01*
X0133302Y0113399D01*
X0132768Y0113934D01*
X0132157Y0114378D01*
X0131484Y0114721D01*
X0130765Y0114954D01*
X0130019Y0115072D01*
X0129641Y0115072D01*
X0129641Y0107673D01*
X0129641Y0107673D01*
X0129641Y0115072D01*
X0129263Y0115072D01*
X0128517Y0114954D01*
X0127798Y0114721D01*
X0127125Y0114378D01*
X0126514Y0113934D01*
X0125980Y0113399D01*
X0125536Y0112788D01*
X0125193Y0112115D01*
X0124959Y0111396D01*
X0124841Y0110650D01*
X0124841Y0107672D01*
X0129641Y0107672D01*
X0129641Y0107734D02*
X0129641Y0107734D01*
X0129641Y0105336D02*
X0129641Y0105336D01*
X0129641Y0102937D02*
X0129641Y0102937D01*
X0129641Y0100539D02*
X0129641Y0100539D01*
X0131221Y0100539D02*
X0180675Y0100539D01*
X0180816Y0100399D02*
X0179473Y0099843D01*
X0177982Y0098352D01*
X0177176Y0096404D01*
X0177176Y0094295D01*
X0177982Y0092347D01*
X0179473Y0090856D01*
X0180150Y0090576D01*
X0180150Y0088553D01*
X0180531Y0087634D01*
X0181234Y0086931D01*
X0184650Y0083514D01*
X0184650Y0070650D01*
X0178347Y0070650D01*
X0177176Y0069478D01*
X0177176Y0061221D01*
X0178347Y0060050D01*
X0186604Y0060050D01*
X0187009Y0060455D01*
X0197100Y0050364D01*
X0197100Y0049104D01*
X0197709Y0047634D01*
X0198834Y0046509D01*
X0200304Y0045900D01*
X0201896Y0045900D01*
X0203366Y0046509D01*
X0204491Y0047634D01*
X0204576Y0047839D01*
X0218250Y0034164D01*
X0218250Y0032904D01*
X0218859Y0031434D01*
X0219984Y0030309D01*
X0220327Y0030167D01*
X0219969Y0029809D01*
X0135617Y0029809D01*
X0135275Y0030151D01*
X0133740Y0030787D01*
X0132078Y0030787D01*
X0130542Y0030151D01*
X0129367Y0028976D01*
X0128731Y0027440D01*
X0128731Y0025778D01*
X0129367Y0024243D01*
X0130542Y0023068D01*
X0132078Y0022431D01*
X0133740Y0022431D01*
X0135275Y0023068D01*
X0135617Y0023409D01*
X0221931Y0023409D01*
X0223107Y0023897D01*
X0224007Y0024797D01*
X0241575Y0042365D01*
X0244982Y0042975D02*
X0249214Y0042975D01*
X0252239Y0042975D02*
X0252239Y0042975D01*
X0252239Y0042165D02*
X0254455Y0042165D01*
X0257589Y0045299D01*
X0257589Y0047515D01*
X0257589Y0049731D01*
X0254455Y0052865D01*
X0252239Y0052865D01*
X0252239Y0047515D01*
X0252239Y0042165D01*
X0255265Y0042975D02*
X0384486Y0042975D01*
X0386978Y0045373D02*
X0257589Y0045373D01*
X0257589Y0047515D02*
X0252239Y0047515D01*
X0257589Y0047515D01*
X0257589Y0047772D02*
X0395529Y0047772D01*
X0395529Y0050170D02*
X0257150Y0050170D01*
X0254752Y0052569D02*
X0386312Y0052569D01*
X0389129Y0052569D02*
X0389129Y0052569D01*
X0389129Y0054967D02*
X0389129Y0054967D01*
X0389129Y0057318D02*
X0389129Y0062668D01*
X0389129Y0057318D01*
X0389129Y0057318D01*
X0389129Y0057366D02*
X0389129Y0057366D01*
X0389129Y0059764D02*
X0389129Y0059764D01*
X0389129Y0062163D02*
X0389129Y0062163D01*
X0386408Y0062163D02*
X0316784Y0062163D01*
X0317776Y0064561D02*
X0560488Y0064561D01*
X0560896Y0064452D02*
X0564055Y0064452D01*
X0567107Y0065270D01*
X0569844Y0066850D01*
X0572078Y0069084D01*
X0573658Y0071820D01*
X0574476Y0074872D01*
X0574476Y0078032D01*
X0573658Y0081084D01*
X0572078Y0083820D01*
X0569844Y0086054D01*
X0567107Y0087634D01*
X0564055Y0088452D01*
X0560896Y0088452D01*
X0557844Y0087634D01*
X0555107Y0086054D01*
X0552873Y0083820D01*
X0551293Y0081084D01*
X0550476Y0078032D01*
X0550476Y0074872D01*
X0551293Y0071820D01*
X0552873Y0069084D01*
X0555107Y0066850D01*
X0557844Y0065270D01*
X0560896Y0064452D01*
X0564463Y0064561D02*
X0602000Y0064561D01*
X0602000Y0062163D02*
X0401568Y0062163D01*
X0403966Y0059764D02*
X0602000Y0059764D01*
X0602000Y0057366D02*
X0601047Y0057366D01*
X0601457Y0054967D02*
X0602000Y0054967D01*
X0602000Y0052569D02*
X0600210Y0052569D01*
X0602000Y0050170D02*
X0596428Y0050170D01*
X0594029Y0047772D02*
X0602000Y0047772D01*
X0602000Y0045373D02*
X0591631Y0045373D01*
X0589232Y0042975D02*
X0602000Y0042975D01*
X0602000Y0040576D02*
X0586834Y0040576D01*
X0584435Y0038178D02*
X0602000Y0038178D01*
X0602000Y0035779D02*
X0582037Y0035779D01*
X0579638Y0033381D02*
X0602000Y0033381D01*
X0602000Y0030982D02*
X0577240Y0030982D01*
X0574841Y0028584D02*
X0602000Y0028584D01*
X0602000Y0026185D02*
X0572443Y0026185D01*
X0570044Y0023787D02*
X0602000Y0023787D01*
X0602000Y0021388D02*
X0567646Y0021388D01*
X0565690Y0018990D02*
X0562726Y0018990D01*
X0564141Y0016591D02*
X0564274Y0016591D01*
X0564208Y0014193D02*
X0564208Y0014193D01*
X0564208Y0011794D02*
X0564208Y0011794D01*
X0564208Y0009396D02*
X0564208Y0009396D01*
X0574208Y0009396D02*
X0574208Y0009396D01*
X0574208Y0011794D02*
X0574208Y0011794D01*
X0574208Y0014193D02*
X0574208Y0014193D01*
X0574141Y0016591D02*
X0574274Y0016591D01*
X0575690Y0018990D02*
X0572726Y0018990D01*
X0564011Y0022279D02*
X0597279Y0055546D01*
X0593510Y0057366D02*
X0404279Y0057366D01*
X0404061Y0054967D02*
X0592174Y0054967D01*
X0589776Y0052569D02*
X0402729Y0052569D01*
X0402729Y0050170D02*
X0587377Y0050170D01*
X0584979Y0047772D02*
X0402729Y0047772D01*
X0402729Y0045373D02*
X0582580Y0045373D01*
X0580181Y0042975D02*
X0403571Y0042975D01*
X0404129Y0040576D02*
X0577783Y0040576D01*
X0575384Y0038178D02*
X0404129Y0038178D01*
X0404129Y0035779D02*
X0572986Y0035779D01*
X0570587Y0033381D02*
X0404022Y0033381D01*
X0402549Y0030982D02*
X0568189Y0030982D01*
X0565790Y0028584D02*
X0371537Y0028584D01*
X0371929Y0026185D02*
X0393151Y0026185D01*
X0391134Y0023787D02*
X0370640Y0023787D01*
X0367751Y0026806D02*
X0280153Y0026806D01*
X0280989Y0030982D02*
X0366915Y0030982D01*
X0368587Y0030982D02*
X0385426Y0030982D01*
X0389129Y0029433D02*
X0389129Y0037633D01*
X0389129Y0045833D01*
X0389129Y0037633D01*
X0389129Y0037633D01*
X0389129Y0038178D02*
X0389129Y0038178D01*
X0389129Y0040576D02*
X0389129Y0040576D01*
X0389129Y0042975D02*
X0389129Y0042975D01*
X0389129Y0045373D02*
X0389129Y0045373D01*
X0391280Y0045373D02*
X0395529Y0045373D01*
X0394687Y0042975D02*
X0393772Y0042975D01*
X0389129Y0035779D02*
X0389129Y0035779D01*
X0389129Y0033381D02*
X0389129Y0033381D01*
X0392832Y0030982D02*
X0395709Y0030982D01*
X0394236Y0033381D02*
X0394190Y0033381D01*
X0397075Y0026185D02*
X0471383Y0026185D01*
X0474356Y0026185D02*
X0563392Y0026185D01*
X0564011Y0022279D02*
X0472869Y0022279D01*
X0395310Y0022279D01*
X0395113Y0022476D01*
X0366292Y0016591D02*
X0362124Y0016591D01*
X0363892Y0014193D02*
X0364523Y0014193D01*
X0364208Y0011794D02*
X0364208Y0011794D01*
X0363238Y0009396D02*
X0365177Y0009396D01*
X0355177Y0009396D02*
X0353238Y0009396D01*
X0354208Y0011794D02*
X0354208Y0011794D01*
X0353892Y0014193D02*
X0354523Y0014193D01*
X0356292Y0016591D02*
X0352124Y0016591D01*
X0346292Y0016591D02*
X0342124Y0016591D01*
X0343892Y0014193D02*
X0344523Y0014193D01*
X0344208Y0011794D02*
X0344208Y0011794D01*
X0343238Y0009396D02*
X0345177Y0009396D01*
X0335177Y0009396D02*
X0333238Y0009396D01*
X0334208Y0011794D02*
X0334208Y0011794D01*
X0333892Y0014193D02*
X0334523Y0014193D01*
X0336292Y0016591D02*
X0332124Y0016591D01*
X0326292Y0016591D02*
X0322124Y0016591D01*
X0323892Y0014193D02*
X0324523Y0014193D01*
X0324208Y0011794D02*
X0324208Y0011794D01*
X0323238Y0009396D02*
X0325177Y0009396D01*
X0271076Y0021388D02*
X0007400Y0021388D01*
X0007400Y0023787D02*
X0129823Y0023787D01*
X0128731Y0026185D02*
X0007400Y0026185D01*
X0007400Y0028584D02*
X0129204Y0028584D01*
X0132515Y0026806D02*
X0132712Y0026609D01*
X0132909Y0026609D01*
X0221294Y0026609D01*
X0242200Y0047515D01*
X0242239Y0047515D01*
X0242239Y0065113D01*
X0242476Y0065350D01*
X0242476Y0068657D01*
X0262239Y0088420D01*
X0262239Y0095113D01*
X0262476Y0095350D01*
X0262397Y0095350D01*
X0252594Y0105153D01*
X0249050Y0105153D01*
X0242357Y0111846D01*
X0242357Y0117830D01*
X0242436Y0117909D01*
X0242397Y0117948D01*
X0237436Y0117948D01*
X0234838Y0120546D01*
X0212672Y0120546D01*
X0216950Y0117329D02*
X0233530Y0117329D01*
X0233512Y0117346D02*
X0234723Y0116135D01*
X0235624Y0115235D01*
X0236800Y0114748D01*
X0238314Y0114748D01*
X0239157Y0113904D01*
X0239157Y0111209D01*
X0239645Y0110033D01*
X0240545Y0109133D01*
X0247238Y0102440D01*
X0248414Y0101953D01*
X0251268Y0101953D01*
X0252571Y0100650D01*
X0251421Y0100650D01*
X0249473Y0099843D01*
X0247982Y0098352D01*
X0247591Y0097406D01*
X0247573Y0097461D01*
X0247180Y0098232D01*
X0246671Y0098933D01*
X0246059Y0099545D01*
X0245358Y0100054D01*
X0244587Y0100447D01*
X0243764Y0100714D01*
X0242908Y0100850D01*
X0242476Y0100850D01*
X0242476Y0095350D01*
X0242476Y0095350D01*
X0242476Y0100850D01*
X0242043Y0100850D01*
X0241188Y0100714D01*
X0240364Y0100447D01*
X0239593Y0100054D01*
X0238893Y0099545D01*
X0238280Y0098933D01*
X0237772Y0098232D01*
X0237379Y0097461D01*
X0237361Y0097406D01*
X0236969Y0098352D01*
X0235478Y0099843D01*
X0233530Y0100650D01*
X0231421Y0100650D01*
X0229473Y0099843D01*
X0227982Y0098352D01*
X0227476Y0097128D01*
X0226969Y0098352D01*
X0225478Y0099843D01*
X0223530Y0100650D01*
X0221421Y0100650D01*
X0219473Y0099843D01*
X0217982Y0098352D01*
X0217476Y0097128D01*
X0216969Y0098352D01*
X0215478Y0099843D01*
X0213530Y0100650D01*
X0211421Y0100650D01*
X0209900Y0100019D01*
X0209900Y0105509D01*
X0210280Y0105128D01*
X0214671Y0105128D01*
X0217776Y0108233D01*
X0217776Y0112624D01*
X0215010Y0115389D01*
X0216968Y0117346D01*
X0233512Y0117346D01*
X0236360Y0114930D02*
X0215469Y0114930D01*
X0217776Y0112532D02*
X0239157Y0112532D01*
X0239603Y0110133D02*
X0217776Y0110133D01*
X0217277Y0107734D02*
X0241943Y0107734D01*
X0244342Y0105336D02*
X0214879Y0105336D01*
X0210073Y0105336D02*
X0209900Y0105336D01*
X0209900Y0102937D02*
X0246740Y0102937D01*
X0244303Y0100539D02*
X0251154Y0100539D01*
X0247895Y0098140D02*
X0247226Y0098140D01*
X0242476Y0098140D02*
X0242476Y0098140D01*
X0242476Y0095742D02*
X0242476Y0095742D01*
X0242476Y0095349D02*
X0242476Y0089850D01*
X0242908Y0089850D01*
X0243764Y0089985D01*
X0244587Y0090253D01*
X0245358Y0090646D01*
X0246059Y0091154D01*
X0246671Y0091767D01*
X0247180Y0092467D01*
X0247573Y0093238D01*
X0247591Y0093294D01*
X0247982Y0092347D01*
X0249473Y0090856D01*
X0251421Y0090050D01*
X0253530Y0090050D01*
X0255478Y0090856D01*
X0256969Y0092347D01*
X0257476Y0093571D01*
X0257982Y0092347D01*
X0259039Y0091290D01*
X0259039Y0089746D01*
X0239763Y0070469D01*
X0239600Y0070076D01*
X0239600Y0090642D01*
X0240364Y0090253D01*
X0241188Y0089985D01*
X0242043Y0089850D01*
X0242476Y0089850D01*
X0242476Y0095349D01*
X0242476Y0095349D01*
X0242476Y0093343D02*
X0242476Y0093343D01*
X0242476Y0090945D02*
X0242476Y0090945D01*
X0245770Y0090945D02*
X0249385Y0090945D01*
X0255566Y0090945D02*
X0259039Y0090945D01*
X0257840Y0088546D02*
X0239600Y0088546D01*
X0239600Y0086148D02*
X0255441Y0086148D01*
X0253043Y0083749D02*
X0239600Y0083749D01*
X0239600Y0081351D02*
X0250644Y0081351D01*
X0248246Y0078952D02*
X0239600Y0078952D01*
X0239600Y0076554D02*
X0245847Y0076554D01*
X0243449Y0074155D02*
X0239600Y0074155D01*
X0239600Y0071757D02*
X0241050Y0071757D01*
X0246832Y0068488D02*
X0264052Y0085708D01*
X0264750Y0086406D01*
X0264750Y0080003D01*
X0265131Y0079084D01*
X0273590Y0070625D01*
X0273530Y0070650D01*
X0271421Y0070650D01*
X0269473Y0069843D01*
X0267982Y0068352D01*
X0267476Y0067128D01*
X0266969Y0068352D01*
X0265478Y0069843D01*
X0263530Y0070650D01*
X0261421Y0070650D01*
X0259473Y0069843D01*
X0257982Y0068352D01*
X0257591Y0067406D01*
X0257573Y0067461D01*
X0257180Y0068232D01*
X0256671Y0068933D01*
X0256059Y0069545D01*
X0255358Y0070054D01*
X0254587Y0070447D01*
X0253764Y0070714D01*
X0252908Y0070850D01*
X0252476Y0070850D01*
X0252476Y0065350D01*
X0252476Y0065350D01*
X0252476Y0070850D01*
X0252043Y0070850D01*
X0251188Y0070714D01*
X0250364Y0070447D01*
X0249593Y0070054D01*
X0248893Y0069545D01*
X0248280Y0068933D01*
X0247772Y0068232D01*
X0247379Y0067461D01*
X0247361Y0067406D01*
X0246969Y0068352D01*
X0246832Y0068488D01*
X0247703Y0069358D02*
X0248706Y0069358D01*
X0250101Y0071757D02*
X0272458Y0071757D01*
X0270059Y0074155D02*
X0252500Y0074155D01*
X0254898Y0076554D02*
X0267661Y0076554D01*
X0265262Y0078952D02*
X0257297Y0078952D01*
X0259695Y0081351D02*
X0264750Y0081351D01*
X0264750Y0083749D02*
X0262094Y0083749D01*
X0264492Y0086148D02*
X0264750Y0086148D01*
X0269750Y0086148D02*
X0384086Y0086148D01*
X0384360Y0086809D02*
X0383554Y0084861D01*
X0383554Y0076153D01*
X0384360Y0074205D01*
X0385851Y0072714D01*
X0387799Y0071907D01*
X0389908Y0071907D01*
X0391856Y0072714D01*
X0393347Y0074205D01*
X0393739Y0075151D01*
X0393756Y0075096D01*
X0394150Y0074324D01*
X0394658Y0073624D01*
X0395271Y0073012D01*
X0395971Y0072503D01*
X0396742Y0072110D01*
X0397566Y0071843D01*
X0398421Y0071707D01*
X0398853Y0071707D01*
X0398853Y0080507D01*
X0398854Y0080507D01*
X0398854Y0071707D01*
X0399286Y0071707D01*
X0400141Y0071843D01*
X0400965Y0072110D01*
X0401736Y0072503D01*
X0402437Y0073012D01*
X0403049Y0073624D01*
X0403558Y0074324D01*
X0403951Y0075096D01*
X0403969Y0075151D01*
X0404360Y0074205D01*
X0405851Y0072714D01*
X0407799Y0071907D01*
X0409908Y0071907D01*
X0411856Y0072714D01*
X0413347Y0074205D01*
X0414154Y0076153D01*
X0414154Y0084861D01*
X0413347Y0086809D01*
X0411856Y0088300D01*
X0409908Y0089107D01*
X0407799Y0089107D01*
X0405851Y0088300D01*
X0404360Y0086809D01*
X0403969Y0085863D01*
X0403951Y0085918D01*
X0403558Y0086690D01*
X0403049Y0087390D01*
X0402437Y0088002D01*
X0401736Y0088511D01*
X0400965Y0088904D01*
X0400141Y0089172D01*
X0399286Y0089307D01*
X0398854Y0089307D01*
X0398854Y0080507D01*
X0398853Y0080507D01*
X0398853Y0089307D01*
X0398421Y0089307D01*
X0397566Y0089172D01*
X0396742Y0088904D01*
X0395971Y0088511D01*
X0395271Y0088002D01*
X0394658Y0087390D01*
X0394150Y0086690D01*
X0393756Y0085918D01*
X0393739Y0085863D01*
X0393347Y0086809D01*
X0391856Y0088300D01*
X0389908Y0089107D01*
X0387799Y0089107D01*
X0385851Y0088300D01*
X0384360Y0086809D01*
X0386446Y0088546D02*
X0269750Y0088546D01*
X0275566Y0090945D02*
X0279385Y0090945D01*
X0277570Y0093343D02*
X0277381Y0093343D01*
X0277056Y0098140D02*
X0277895Y0098140D01*
X0281154Y0100539D02*
X0273797Y0100539D01*
X0271154Y0100539D02*
X0269750Y0100539D01*
X0269750Y0102937D02*
X0485952Y0102937D01*
X0483553Y0100539D02*
X0313797Y0100539D01*
X0311154Y0100539D02*
X0303797Y0100539D01*
X0301154Y0100539D02*
X0293797Y0100539D01*
X0291154Y0100539D02*
X0283797Y0100539D01*
X0287056Y0098140D02*
X0287895Y0098140D01*
X0297056Y0098140D02*
X0297895Y0098140D01*
X0307056Y0098140D02*
X0307895Y0098140D01*
X0307570Y0093343D02*
X0307381Y0093343D01*
X0305566Y0090945D02*
X0309385Y0090945D01*
X0315566Y0090945D02*
X0437598Y0090945D01*
X0437598Y0090468D02*
X0437598Y0088252D01*
X0440727Y0085122D01*
X0440031Y0084834D01*
X0438582Y0083385D01*
X0437798Y0081492D01*
X0437798Y0079443D01*
X0438582Y0077550D01*
X0440031Y0076102D01*
X0441924Y0075318D01*
X0443972Y0075318D01*
X0445865Y0076102D01*
X0447314Y0077550D01*
X0448098Y0079443D01*
X0448098Y0081492D01*
X0447314Y0083385D01*
X0445865Y0084834D01*
X0445169Y0085122D01*
X0448298Y0088252D01*
X0448298Y0090468D01*
X0442948Y0090468D01*
X0442948Y0090468D01*
X0437598Y0090468D01*
X0437598Y0088546D02*
X0411261Y0088546D01*
X0413621Y0086148D02*
X0439702Y0086148D01*
X0438947Y0083749D02*
X0414154Y0083749D01*
X0414154Y0081351D02*
X0437798Y0081351D01*
X0438001Y0078952D02*
X0414154Y0078952D01*
X0414154Y0076554D02*
X0439579Y0076554D01*
X0446317Y0076554D02*
X0469500Y0076554D01*
X0467719Y0078952D02*
X0447895Y0078952D01*
X0448098Y0081351D02*
X0467719Y0081351D01*
X0468868Y0083749D02*
X0446950Y0083749D01*
X0446194Y0086148D02*
X0469623Y0086148D01*
X0467519Y0088546D02*
X0448298Y0088546D01*
X0448298Y0090945D02*
X0467519Y0090945D01*
X0472869Y0090468D02*
X0478219Y0090468D01*
X0472869Y0090468D01*
X0472869Y0090468D01*
X0478219Y0090945D02*
X0602000Y0090945D01*
X0602000Y0093343D02*
X0483429Y0093343D01*
X0485827Y0095742D02*
X0602000Y0095742D01*
X0602000Y0098140D02*
X0530636Y0098140D01*
X0529395Y0096900D02*
X0532500Y0100005D01*
X0532500Y0104395D01*
X0529395Y0107500D01*
X0525005Y0107500D01*
X0521900Y0104395D01*
X0521900Y0100005D01*
X0525005Y0096900D01*
X0529395Y0096900D01*
X0532500Y0100539D02*
X0602000Y0100539D01*
X0602000Y0102937D02*
X0576483Y0102937D01*
X0577860Y0105336D02*
X0602000Y0105336D01*
X0602000Y0107734D02*
X0577976Y0107734D01*
X0576829Y0110133D02*
X0602000Y0110133D01*
X0602000Y0112532D02*
X0577077Y0112532D01*
X0577976Y0114930D02*
X0602000Y0114930D01*
X0602000Y0117329D02*
X0577757Y0117329D01*
X0576235Y0119727D02*
X0602000Y0119727D01*
X0602000Y0122126D02*
X0577359Y0122126D01*
X0577976Y0124524D02*
X0602000Y0124524D01*
X0602000Y0126923D02*
X0577511Y0126923D01*
X0575867Y0129321D02*
X0602000Y0129321D01*
X0602000Y0131720D02*
X0577605Y0131720D01*
X0577976Y0134118D02*
X0602000Y0134118D01*
X0602000Y0136517D02*
X0577265Y0136517D01*
X0576461Y0138915D02*
X0602000Y0138915D01*
X0602000Y0141314D02*
X0577851Y0141314D01*
X0577976Y0143712D02*
X0602000Y0143712D01*
X0602000Y0146111D02*
X0576851Y0146111D01*
X0568100Y0146111D02*
X0568073Y0146111D01*
X0568041Y0148509D02*
X0602000Y0148509D01*
X0602000Y0150908D02*
X0566833Y0150908D01*
X0562476Y0150908D02*
X0562476Y0150908D01*
X0562476Y0152908D02*
X0562476Y0147208D01*
X0562476Y0147208D01*
X0562476Y0138208D01*
X0568176Y0138208D01*
X0568176Y0138656D01*
X0568068Y0139338D01*
X0569197Y0138208D01*
X0568068Y0137078D01*
X0568176Y0137759D01*
X0568176Y0138208D01*
X0562476Y0138208D01*
X0562476Y0138208D01*
X0562476Y0138208D01*
X0562476Y0141508D01*
X0562476Y0147208D01*
X0562476Y0147208D01*
X0562475Y0147208D02*
X0562475Y0147208D01*
X0556776Y0147208D01*
X0556776Y0147656D01*
X0556916Y0148543D01*
X0557193Y0149396D01*
X0557601Y0150195D01*
X0558128Y0150921D01*
X0558762Y0151556D01*
X0559488Y0152083D01*
X0560288Y0152490D01*
X0561141Y0152768D01*
X0562027Y0152908D01*
X0562476Y0152908D01*
X0562476Y0148509D02*
X0562476Y0148509D01*
X0562475Y0147208D02*
X0556776Y0147208D01*
X0556776Y0146759D01*
X0556883Y0146078D01*
X0554754Y0148208D01*
X0550197Y0148208D01*
X0546976Y0144986D01*
X0546976Y0140430D01*
X0549197Y0138208D01*
X0547813Y0136823D01*
X0546976Y0134802D01*
X0546976Y0132614D01*
X0547813Y0130592D01*
X0549197Y0129208D01*
X0547813Y0127823D01*
X0546976Y0125802D01*
X0546976Y0123614D01*
X0547813Y0121592D01*
X0549197Y0120208D01*
X0547813Y0118823D01*
X0546976Y0116802D01*
X0546976Y0114614D01*
X0547813Y0112592D01*
X0549103Y0111303D01*
X0548762Y0111056D01*
X0548128Y0110421D01*
X0547601Y0109695D01*
X0547193Y0108896D01*
X0546916Y0108043D01*
X0546776Y0107156D01*
X0546776Y0106708D01*
X0552475Y0106708D01*
X0552475Y0106708D01*
X0546776Y0106708D01*
X0546776Y0106259D01*
X0546916Y0105373D01*
X0547193Y0104520D01*
X0547601Y0103720D01*
X0548128Y0102995D01*
X0548762Y0102360D01*
X0549488Y0101833D01*
X0550288Y0101425D01*
X0551141Y0101148D01*
X0552027Y0101008D01*
X0552476Y0101008D01*
X0552924Y0101008D01*
X0553810Y0101148D01*
X0554664Y0101425D01*
X0555463Y0101833D01*
X0556189Y0102360D01*
X0556823Y0102995D01*
X0557351Y0103720D01*
X0557758Y0104520D01*
X0558035Y0105373D01*
X0558176Y0106259D01*
X0558176Y0106708D01*
X0558023Y0105336D02*
X0567091Y0105336D01*
X0568468Y0102937D02*
X0556766Y0102937D01*
X0552476Y0102937D02*
X0552476Y0102937D01*
X0552476Y0101008D02*
X0552476Y0106708D01*
X0552476Y0101008D01*
X0548185Y0102937D02*
X0532500Y0102937D01*
X0531559Y0105336D02*
X0546928Y0105336D01*
X0546867Y0107734D02*
X0497820Y0107734D01*
X0495422Y0105336D02*
X0507841Y0105336D01*
X0506900Y0104395D02*
X0506900Y0100005D01*
X0510005Y0096900D01*
X0514395Y0096900D01*
X0517500Y0100005D01*
X0517500Y0104395D01*
X0514395Y0107500D01*
X0510005Y0107500D01*
X0506900Y0104395D01*
X0506900Y0102937D02*
X0493023Y0102937D01*
X0490624Y0100539D02*
X0506900Y0100539D01*
X0508764Y0098140D02*
X0488226Y0098140D01*
X0481155Y0098140D02*
X0364616Y0098140D01*
X0358884Y0098140D02*
X0317056Y0098140D01*
X0317776Y0095742D02*
X0357750Y0095742D01*
X0358252Y0093343D02*
X0317381Y0093343D01*
X0299385Y0090945D02*
X0295566Y0090945D01*
X0297381Y0093343D02*
X0297570Y0093343D01*
X0289385Y0090945D02*
X0285566Y0090945D01*
X0287381Y0093343D02*
X0287570Y0093343D01*
X0269750Y0083749D02*
X0383554Y0083749D01*
X0383554Y0081351D02*
X0269935Y0081351D01*
X0272333Y0078952D02*
X0383554Y0078952D01*
X0383554Y0076554D02*
X0274732Y0076554D01*
X0277130Y0074155D02*
X0384410Y0074155D01*
X0393297Y0074155D02*
X0394272Y0074155D01*
X0398107Y0071757D02*
X0279529Y0071757D01*
X0285962Y0069358D02*
X0288989Y0069358D01*
X0295962Y0069358D02*
X0298989Y0069358D01*
X0305962Y0069358D02*
X0308989Y0069358D01*
X0315962Y0069358D02*
X0552715Y0069358D01*
X0551330Y0071757D02*
X0399600Y0071757D01*
X0398854Y0071757D02*
X0398853Y0071757D01*
X0398853Y0074155D02*
X0398854Y0074155D01*
X0398853Y0076554D02*
X0398854Y0076554D01*
X0398853Y0078952D02*
X0398854Y0078952D01*
X0398853Y0081351D02*
X0398854Y0081351D01*
X0398853Y0083749D02*
X0398854Y0083749D01*
X0398853Y0086148D02*
X0398854Y0086148D01*
X0398853Y0088546D02*
X0398854Y0088546D01*
X0401667Y0088546D02*
X0406446Y0088546D01*
X0404086Y0086148D02*
X0403834Y0086148D01*
X0396040Y0088546D02*
X0391261Y0088546D01*
X0393621Y0086148D02*
X0393873Y0086148D01*
X0403435Y0074155D02*
X0404410Y0074155D01*
X0413297Y0074155D02*
X0550668Y0074155D01*
X0550476Y0076554D02*
X0476239Y0076554D01*
X0478019Y0078952D02*
X0550722Y0078952D01*
X0551448Y0081351D02*
X0478019Y0081351D01*
X0476871Y0083749D02*
X0552832Y0083749D01*
X0555269Y0086148D02*
X0476115Y0086148D01*
X0478219Y0088546D02*
X0602000Y0088546D01*
X0602000Y0086148D02*
X0569682Y0086148D01*
X0572119Y0083749D02*
X0602000Y0083749D01*
X0602000Y0081351D02*
X0573504Y0081351D01*
X0574229Y0078952D02*
X0602000Y0078952D01*
X0602000Y0076554D02*
X0574476Y0076554D01*
X0574284Y0074155D02*
X0602000Y0074155D01*
X0602000Y0071757D02*
X0573621Y0071757D01*
X0572236Y0069358D02*
X0602000Y0069358D01*
X0602000Y0066960D02*
X0569954Y0066960D01*
X0554997Y0066960D02*
X0317545Y0066960D01*
X0308167Y0062163D02*
X0306784Y0062163D01*
X0298167Y0062163D02*
X0296784Y0062163D01*
X0288167Y0062163D02*
X0286784Y0062163D01*
X0278167Y0062163D02*
X0276784Y0062163D01*
X0268167Y0062163D02*
X0266784Y0062163D01*
X0258167Y0062163D02*
X0256959Y0062163D01*
X0252476Y0062163D02*
X0252476Y0062163D01*
X0252476Y0059850D02*
X0252476Y0065349D01*
X0252476Y0059850D01*
X0247993Y0062163D02*
X0246784Y0062163D01*
X0245439Y0059764D02*
X0384009Y0059764D01*
X0383779Y0057366D02*
X0245439Y0057366D01*
X0245439Y0054967D02*
X0383914Y0054967D01*
X0391946Y0052569D02*
X0395529Y0052569D01*
X0394292Y0059764D02*
X0394249Y0059764D01*
X0391850Y0062163D02*
X0396691Y0062163D01*
X0314485Y0105336D02*
X0488350Y0105336D01*
X0490749Y0107734D02*
X0316883Y0107734D01*
X0317382Y0110133D02*
X0493147Y0110133D01*
X0495546Y0112532D02*
X0439938Y0112532D01*
X0441350Y0114930D02*
X0497945Y0114930D01*
X0500343Y0117329D02*
X0440964Y0117329D01*
X0434762Y0112532D02*
X0317382Y0112532D01*
X0317382Y0119727D02*
X0502742Y0119727D01*
X0505140Y0122126D02*
X0317382Y0122126D01*
X0315600Y0124524D02*
X0507539Y0124524D01*
X0509937Y0126923D02*
X0405408Y0126923D01*
X0468128Y0150908D02*
X0503412Y0150908D01*
X0502555Y0150050D02*
X0468986Y0150050D01*
X0449761Y0169274D01*
X0449944Y0169350D01*
X0463192Y0169350D01*
X0462124Y0168283D01*
X0462124Y0164306D01*
X0464936Y0161494D01*
X0468913Y0161494D01*
X0471724Y0164306D01*
X0471724Y0168283D01*
X0470657Y0169350D01*
X0473192Y0169350D01*
X0472124Y0168283D01*
X0472124Y0164306D01*
X0474936Y0161494D01*
X0478913Y0161494D01*
X0481724Y0164306D01*
X0481724Y0168283D01*
X0480657Y0169350D01*
X0483192Y0169350D01*
X0482124Y0168283D01*
X0482124Y0164306D01*
X0484936Y0161494D01*
X0488913Y0161494D01*
X0491724Y0164306D01*
X0491724Y0168283D01*
X0490657Y0169350D01*
X0493192Y0169350D01*
X0492124Y0168283D01*
X0492124Y0164306D01*
X0494936Y0161494D01*
X0498913Y0161494D01*
X0501724Y0164306D01*
X0501724Y0168283D01*
X0500657Y0169350D01*
X0503097Y0169350D01*
X0504016Y0169731D01*
X0504719Y0170434D01*
X0565469Y0231184D01*
X0565512Y0231287D01*
X0566123Y0231541D01*
X0567466Y0232883D01*
X0568192Y0234637D01*
X0568192Y0236535D01*
X0567466Y0238289D01*
X0566123Y0239631D01*
X0564370Y0240357D01*
X0562471Y0240357D01*
X0560718Y0239631D01*
X0559375Y0238289D01*
X0558649Y0236535D01*
X0558649Y0234637D01*
X0559375Y0232883D01*
X0559736Y0232522D01*
X0527350Y0200136D01*
X0527350Y0200278D01*
X0525782Y0201846D01*
X0529019Y0205084D01*
X0529400Y0206003D01*
X0529400Y0210597D01*
X0529019Y0211516D01*
X0528316Y0212219D01*
X0525616Y0214919D01*
X0524697Y0215300D01*
X0506336Y0215300D01*
X0489353Y0232282D01*
X0492200Y0235129D01*
X0495129Y0232200D01*
X0499271Y0232200D01*
X0502200Y0235129D01*
X0502200Y0239271D01*
X0499271Y0242200D01*
X0495129Y0242200D01*
X0492200Y0239271D01*
X0492200Y0235129D01*
X0492200Y0239271D01*
X0489271Y0242200D01*
X0485129Y0242200D01*
X0482227Y0239298D01*
X0482135Y0239336D01*
X0479271Y0242200D01*
X0475129Y0242200D01*
X0472200Y0239271D01*
X0469271Y0242200D01*
X0465129Y0242200D01*
X0462200Y0239271D01*
X0462200Y0235129D01*
X0465129Y0232200D01*
X0469271Y0232200D01*
X0472200Y0235129D01*
X0472200Y0239271D01*
X0472200Y0235129D01*
X0475129Y0232200D01*
X0479271Y0232200D01*
X0480818Y0233747D01*
X0503181Y0211384D01*
X0503764Y0210800D01*
X0410936Y0210800D01*
X0389403Y0232332D01*
X0392200Y0235129D01*
X0395129Y0232200D01*
X0399271Y0232200D01*
X0402200Y0235129D01*
X0402200Y0239271D01*
X0399271Y0242200D01*
X0395129Y0242200D01*
X0392200Y0239271D01*
X0392200Y0235129D01*
X0392200Y0239271D01*
X0389271Y0242200D01*
X0385129Y0242200D01*
X0382256Y0239327D01*
X0382065Y0239406D01*
X0379271Y0242200D01*
X0375129Y0242200D01*
X0372200Y0239271D01*
X0372200Y0235129D01*
X0375129Y0232200D01*
X0379271Y0232200D01*
X0380868Y0233797D01*
X0384964Y0229700D01*
X0191153Y0229700D01*
X0190234Y0229319D01*
X0189531Y0228616D01*
X0186381Y0225466D01*
X0186000Y0224547D01*
X0186000Y0220734D01*
X0185239Y0221495D01*
X0183548Y0222195D01*
X0181718Y0222195D01*
X0180027Y0221495D01*
X0178733Y0220201D01*
X0178033Y0218510D01*
X0178033Y0218117D01*
X0168409Y0218117D01*
X0166459Y0220067D01*
X0162193Y0220067D01*
X0159176Y0217050D01*
X0159176Y0212783D01*
X0161901Y0210058D01*
X0158976Y0207133D01*
X0158976Y0204917D01*
X0164326Y0204917D01*
X0169676Y0204917D01*
X0169676Y0207133D01*
X0166751Y0210058D01*
X0168409Y0211717D01*
X0178033Y0211717D01*
X0178033Y0211480D01*
X0178733Y0209790D01*
X0180027Y0208496D01*
X0181718Y0207795D01*
X0183548Y0207795D01*
X0185239Y0208496D01*
X0186365Y0209622D01*
X0186381Y0209584D01*
X0187084Y0208881D01*
X0189784Y0206181D01*
X0190703Y0205800D01*
X0204747Y0205800D01*
X0205666Y0206181D01*
X0206369Y0206884D01*
X0209004Y0209519D01*
X0210027Y0208496D01*
X0211718Y0207795D01*
X0213548Y0207795D01*
X0215239Y0208496D01*
X0216533Y0209790D01*
X0217233Y0211480D01*
X0217233Y0218510D01*
X0216906Y0219300D01*
X0218360Y0219300D01*
X0218033Y0218510D01*
X0218033Y0211480D01*
X0218733Y0209790D01*
X0220027Y0208496D01*
X0221718Y0207795D01*
X0223548Y0207795D01*
X0225239Y0208496D01*
X0226533Y0209790D01*
X0227233Y0211480D01*
X0227233Y0218510D01*
X0226906Y0219300D01*
X0228360Y0219300D01*
X0228033Y0218510D01*
X0228033Y0211480D01*
X0228733Y0209790D01*
X0230027Y0208496D01*
X0230550Y0208279D01*
X0230550Y0207803D01*
X0230931Y0206884D01*
X0247581Y0190234D01*
X0248250Y0189565D01*
X0248185Y0189438D01*
X0247951Y0188719D01*
X0247833Y0187973D01*
X0247833Y0184995D01*
X0247833Y0182017D01*
X0247951Y0181271D01*
X0248153Y0180650D01*
X0246889Y0180650D01*
X0247233Y0181480D01*
X0247233Y0188510D01*
X0246533Y0190201D01*
X0245239Y0191495D01*
X0243548Y0192195D01*
X0241718Y0192195D01*
X0240027Y0191495D01*
X0238733Y0190201D01*
X0238033Y0188510D01*
X0238033Y0181480D01*
X0238377Y0180650D01*
X0237113Y0180650D01*
X0237315Y0181271D01*
X0237433Y0182017D01*
X0237433Y0184995D01*
X0232633Y0184995D01*
X0227833Y0184995D01*
X0227833Y0182017D01*
X0227951Y0181271D01*
X0228153Y0180650D01*
X0226889Y0180650D01*
X0227233Y0181480D01*
X0227233Y0188510D01*
X0226533Y0190201D01*
X0225239Y0191495D01*
X0223548Y0192195D01*
X0221718Y0192195D01*
X0220027Y0191495D01*
X0218733Y0190201D01*
X0218033Y0188510D01*
X0218033Y0181480D01*
X0218377Y0180650D01*
X0216889Y0180650D01*
X0217233Y0181480D01*
X0217233Y0188510D01*
X0216533Y0190201D01*
X0215239Y0191495D01*
X0213548Y0192195D01*
X0211718Y0192195D01*
X0210027Y0191495D01*
X0208733Y0190201D01*
X0208033Y0188510D01*
X0208033Y0183302D01*
X0207233Y0184102D01*
X0207233Y0188510D01*
X0206533Y0190201D01*
X0205239Y0191495D01*
X0203548Y0192195D01*
X0201718Y0192195D01*
X0200027Y0191495D01*
X0198733Y0190201D01*
X0198033Y0188510D01*
X0198033Y0183402D01*
X0197233Y0184202D01*
X0197233Y0188510D01*
X0196533Y0190201D01*
X0195239Y0191495D01*
X0193548Y0192195D01*
X0191718Y0192195D01*
X0190027Y0191495D01*
X0188733Y0190201D01*
X0188033Y0188510D01*
X0188033Y0181480D01*
X0188733Y0179790D01*
X0190027Y0178496D01*
X0191718Y0177795D01*
X0193548Y0177795D01*
X0195239Y0178496D01*
X0195554Y0178811D01*
X0200134Y0174231D01*
X0201053Y0173850D01*
X0206764Y0173850D01*
X0206631Y0173716D01*
X0203858Y0170944D01*
X0203333Y0171161D01*
X0201224Y0171161D01*
X0199277Y0170355D01*
X0197786Y0168864D01*
X0197279Y0167640D01*
X0196772Y0168864D01*
X0195281Y0170355D01*
X0193333Y0171161D01*
X0191224Y0171161D01*
X0189277Y0170355D01*
X0187786Y0168864D01*
X0187279Y0167640D01*
X0186772Y0168864D01*
X0185281Y0170355D01*
X0183333Y0171161D01*
X0181224Y0171161D01*
X0179277Y0170355D01*
X0177786Y0168864D01*
X0176979Y0166916D01*
X0176979Y0164807D01*
X0177786Y0162859D01*
X0179277Y0161368D01*
X0181224Y0160561D01*
X0183333Y0160561D01*
X0185281Y0161368D01*
X0186772Y0162859D01*
X0187279Y0164083D01*
X0187786Y0162859D01*
X0189277Y0161368D01*
X0191224Y0160561D01*
X0193333Y0160561D01*
X0195281Y0161368D01*
X0196772Y0162859D01*
X0197279Y0164083D01*
X0197786Y0162859D01*
X0199277Y0161368D01*
X0201224Y0160561D01*
X0203333Y0160561D01*
X0204900Y0161211D01*
X0204900Y0150836D01*
X0202326Y0148261D01*
X0202241Y0148466D01*
X0201116Y0149591D01*
X0199646Y0150200D01*
X0198054Y0150200D01*
X0196584Y0149591D01*
X0195693Y0148700D01*
X0123836Y0148700D01*
X0094449Y0178087D01*
X0097200Y0180838D01*
X0097200Y0182909D01*
X0097200Y0184980D01*
X0094271Y0187909D01*
X0097200Y0190838D01*
X0097200Y0192909D01*
X0097200Y0194980D01*
X0094271Y0197909D01*
X0092200Y0197909D01*
X0090129Y0197909D01*
X0087200Y0194980D01*
X0087200Y0192909D01*
X0092200Y0192909D01*
X0092200Y0197909D01*
X0092200Y0192909D01*
X0092200Y0192909D01*
X0092200Y0192909D01*
X0097200Y0192909D01*
X0092200Y0192909D01*
X0092200Y0192909D01*
X0087200Y0192909D01*
X0087200Y0190838D01*
X0090129Y0187909D01*
X0092200Y0187909D01*
X0094271Y0187909D01*
X0092200Y0187909D01*
X0092200Y0192909D01*
X0092200Y0192909D01*
X0092200Y0187909D01*
X0090129Y0187909D01*
X0087217Y0184997D01*
X0086847Y0185150D01*
X0086747Y0185150D01*
X0084216Y0187680D01*
X0084350Y0188003D01*
X0084350Y0188270D01*
X0087000Y0190920D01*
X0087000Y0194897D01*
X0084188Y0197709D01*
X0080212Y0197709D01*
X0077400Y0194897D01*
X0077400Y0190920D01*
X0079067Y0189253D01*
X0076384Y0186569D01*
X0076384Y0186569D01*
X0075681Y0185866D01*
X0075300Y0184947D01*
X0075300Y0180803D01*
X0075681Y0179884D01*
X0110788Y0144776D01*
X0110556Y0144872D01*
X0108726Y0144872D01*
X0107035Y0144172D01*
X0105741Y0142878D01*
X0105041Y0141187D01*
X0105041Y0134157D01*
X0105741Y0132467D01*
X0107035Y0131173D01*
X0108726Y0130472D01*
X0110556Y0130472D01*
X0112247Y0131173D01*
X0113541Y0132467D01*
X0114241Y0134157D01*
X0114241Y0141187D01*
X0113893Y0142028D01*
X0114203Y0141900D01*
X0115336Y0141900D01*
X0115041Y0141187D01*
X0115041Y0134157D01*
X0115741Y0132467D01*
X0117035Y0131173D01*
X0118726Y0130472D01*
X0120556Y0130472D01*
X0122247Y0131173D01*
X0123541Y0132467D01*
X0124241Y0134157D01*
X0124241Y0141187D01*
X0123946Y0141900D01*
X0125336Y0141900D01*
X0125041Y0141187D01*
X0125041Y0134157D01*
X0125741Y0132467D01*
X0127035Y0131173D01*
X0128726Y0130472D01*
X0130556Y0130472D01*
X0132247Y0131173D01*
X0133541Y0132467D01*
X0134241Y0134157D01*
X0134241Y0141187D01*
X0133946Y0141900D01*
X0139314Y0141900D01*
X0180816Y0100399D01*
X0178277Y0102937D02*
X0133940Y0102937D01*
X0134441Y0105336D02*
X0175878Y0105336D01*
X0173480Y0107734D02*
X0134441Y0107734D01*
X0134441Y0110133D02*
X0171081Y0110133D01*
X0168683Y0112532D02*
X0133877Y0112532D01*
X0130839Y0114930D02*
X0166284Y0114930D01*
X0163886Y0117329D02*
X0031749Y0117329D01*
X0031482Y0116335D02*
X0032184Y0118954D01*
X0032184Y0121666D01*
X0031482Y0124286D01*
X0030126Y0126634D01*
X0028209Y0128552D01*
X0025860Y0129908D01*
X0023241Y0130609D01*
X0020529Y0130609D01*
X0017910Y0129908D01*
X0015561Y0128552D01*
X0013644Y0126634D01*
X0012288Y0124286D01*
X0011586Y0121666D01*
X0011586Y0118954D01*
X0012288Y0116335D01*
X0013644Y0113986D01*
X0015561Y0112069D01*
X0017910Y0110713D01*
X0020529Y0110011D01*
X0023241Y0110011D01*
X0025860Y0110713D01*
X0028209Y0112069D01*
X0030126Y0113986D01*
X0031482Y0116335D01*
X0030671Y0114930D02*
X0098442Y0114930D01*
X0098517Y0114954D02*
X0097798Y0114721D01*
X0097125Y0114378D01*
X0096514Y0113934D01*
X0095980Y0113399D01*
X0095536Y0112788D01*
X0095193Y0112115D01*
X0094959Y0111396D01*
X0094841Y0110650D01*
X0094841Y0107672D01*
X0099641Y0107672D01*
X0104441Y0107672D01*
X0104441Y0110650D01*
X0104323Y0111396D01*
X0104089Y0112115D01*
X0103746Y0112788D01*
X0103302Y0113399D01*
X0102768Y0113934D01*
X0102157Y0114378D01*
X0101484Y0114721D01*
X0100765Y0114954D01*
X0100019Y0115072D01*
X0099641Y0115072D01*
X0099641Y0107673D01*
X0099641Y0107673D01*
X0099641Y0115072D01*
X0099263Y0115072D01*
X0098517Y0114954D01*
X0099641Y0114930D02*
X0099641Y0114930D01*
X0100839Y0114930D02*
X0128442Y0114930D01*
X0129641Y0114930D02*
X0129641Y0114930D01*
X0129641Y0112532D02*
X0129641Y0112532D01*
X0129641Y0110133D02*
X0129641Y0110133D01*
X0124841Y0110133D02*
X0124241Y0110133D01*
X0124241Y0111187D02*
X0123541Y0112878D01*
X0122247Y0114172D01*
X0120556Y0114872D01*
X0118726Y0114872D01*
X0117035Y0114172D01*
X0115741Y0112878D01*
X0115041Y0111187D01*
X0115041Y0104157D01*
X0115741Y0102467D01*
X0117035Y0101173D01*
X0118726Y0100472D01*
X0120556Y0100472D01*
X0122247Y0101173D01*
X0123541Y0102467D01*
X0124241Y0104157D01*
X0124241Y0111187D01*
X0123684Y0112532D02*
X0125405Y0112532D01*
X0115598Y0112532D02*
X0113684Y0112532D01*
X0113541Y0112878D02*
X0112247Y0114172D01*
X0110556Y0114872D01*
X0108726Y0114872D01*
X0107035Y0114172D01*
X0105741Y0112878D01*
X0105041Y0111187D01*
X0105041Y0104157D01*
X0105741Y0102467D01*
X0107035Y0101173D01*
X0108726Y0100472D01*
X0110556Y0100472D01*
X0112247Y0101173D01*
X0113541Y0102467D01*
X0114241Y0104157D01*
X0114241Y0111187D01*
X0113541Y0112878D01*
X0114241Y0110133D02*
X0115041Y0110133D01*
X0115041Y0107734D02*
X0114241Y0107734D01*
X0114241Y0105336D02*
X0115041Y0105336D01*
X0115546Y0102937D02*
X0113736Y0102937D01*
X0110717Y0100539D02*
X0118565Y0100539D01*
X0120717Y0100539D02*
X0128060Y0100539D01*
X0125342Y0102937D02*
X0123736Y0102937D01*
X0124241Y0105336D02*
X0124841Y0105336D01*
X0124841Y0107734D02*
X0124241Y0107734D01*
X0108565Y0100539D02*
X0101221Y0100539D01*
X0099641Y0100539D02*
X0099641Y0100539D01*
X0098060Y0100539D02*
X0090717Y0100539D01*
X0090556Y0100472D02*
X0092247Y0101173D01*
X0093541Y0102467D01*
X0094241Y0104157D01*
X0094241Y0111187D01*
X0093541Y0112878D01*
X0092247Y0114172D01*
X0090556Y0114872D01*
X0088726Y0114872D01*
X0087035Y0114172D01*
X0085741Y0112878D01*
X0085041Y0111187D01*
X0085041Y0104157D01*
X0085741Y0102467D01*
X0087035Y0101173D01*
X0088726Y0100472D01*
X0090556Y0100472D01*
X0088565Y0100539D02*
X0080717Y0100539D01*
X0080556Y0100472D02*
X0082247Y0101173D01*
X0083541Y0102467D01*
X0084241Y0104157D01*
X0084241Y0111187D01*
X0083541Y0112878D01*
X0082247Y0114172D01*
X0080556Y0114872D01*
X0078726Y0114872D01*
X0077035Y0114172D01*
X0075741Y0112878D01*
X0075041Y0111187D01*
X0075041Y0104157D01*
X0075741Y0102467D01*
X0077035Y0101173D01*
X0078726Y0100472D01*
X0080556Y0100472D01*
X0078565Y0100539D02*
X0070717Y0100539D01*
X0070556Y0100472D02*
X0072247Y0101173D01*
X0073541Y0102467D01*
X0074241Y0104157D01*
X0074241Y0111187D01*
X0073541Y0112878D01*
X0072247Y0114172D01*
X0070556Y0114872D01*
X0068726Y0114872D01*
X0067035Y0114172D01*
X0065741Y0112878D01*
X0065041Y0111187D01*
X0065041Y0104157D01*
X0065741Y0102467D01*
X0067035Y0101173D01*
X0068726Y0100472D01*
X0070556Y0100472D01*
X0068565Y0100539D02*
X0007400Y0100539D01*
X0007400Y0102937D02*
X0065546Y0102937D01*
X0065041Y0105336D02*
X0007400Y0105336D01*
X0007400Y0107734D02*
X0065041Y0107734D01*
X0065041Y0110133D02*
X0023696Y0110133D01*
X0020074Y0110133D02*
X0007400Y0110133D01*
X0007400Y0112532D02*
X0015098Y0112532D01*
X0013099Y0114930D02*
X0007400Y0114930D01*
X0007400Y0117329D02*
X0012021Y0117329D01*
X0011586Y0119727D02*
X0007400Y0119727D01*
X0007400Y0122126D02*
X0011709Y0122126D01*
X0012425Y0124524D02*
X0007400Y0124524D01*
X0007400Y0126923D02*
X0013932Y0126923D01*
X0016894Y0129321D02*
X0007400Y0129321D01*
X0007400Y0131720D02*
X0066488Y0131720D01*
X0067035Y0131173D02*
X0068726Y0130472D01*
X0070556Y0130472D01*
X0072247Y0131173D01*
X0073541Y0132467D01*
X0074241Y0134157D01*
X0074241Y0141187D01*
X0073541Y0142878D01*
X0072247Y0144172D01*
X0070556Y0144872D01*
X0068726Y0144872D01*
X0067035Y0144172D01*
X0065741Y0142878D01*
X0065041Y0141187D01*
X0065041Y0134157D01*
X0065741Y0132467D01*
X0067035Y0131173D01*
X0065057Y0134118D02*
X0025051Y0134118D01*
X0025860Y0134335D02*
X0023241Y0133633D01*
X0020529Y0133633D01*
X0017910Y0134335D01*
X0015561Y0135691D01*
X0013644Y0137608D01*
X0012288Y0139957D01*
X0011586Y0142576D01*
X0011586Y0145288D01*
X0012288Y0147908D01*
X0013644Y0150256D01*
X0015561Y0152174D01*
X0017910Y0153530D01*
X0020529Y0154231D01*
X0023241Y0154231D01*
X0025860Y0153530D01*
X0028209Y0152174D01*
X0030126Y0150256D01*
X0031482Y0147908D01*
X0032184Y0145288D01*
X0032184Y0142576D01*
X0031482Y0139957D01*
X0030126Y0137608D01*
X0028209Y0135691D01*
X0025860Y0134335D01*
X0029035Y0136517D02*
X0065041Y0136517D01*
X0065041Y0138915D02*
X0030881Y0138915D01*
X0031846Y0141314D02*
X0065093Y0141314D01*
X0066575Y0143712D02*
X0032184Y0143712D01*
X0031964Y0146111D02*
X0109454Y0146111D01*
X0107055Y0148509D02*
X0031135Y0148509D01*
X0029475Y0150908D02*
X0104657Y0150908D01*
X0102258Y0153306D02*
X0026247Y0153306D01*
X0025860Y0157957D02*
X0023241Y0157255D01*
X0020529Y0157255D01*
X0017910Y0157957D01*
X0015561Y0159313D01*
X0013644Y0161230D01*
X0012288Y0163579D01*
X0011586Y0166198D01*
X0011586Y0168910D01*
X0012288Y0171530D01*
X0013644Y0173878D01*
X0015561Y0175796D01*
X0017910Y0177152D01*
X0020529Y0177854D01*
X0023241Y0177854D01*
X0025860Y0177152D01*
X0028209Y0175796D01*
X0030126Y0173878D01*
X0031482Y0171530D01*
X0032184Y0168910D01*
X0032184Y0166198D01*
X0031482Y0163579D01*
X0030126Y0161230D01*
X0028209Y0159313D01*
X0025860Y0157957D01*
X0026114Y0158103D02*
X0097461Y0158103D01*
X0099860Y0155705D02*
X0007400Y0155705D01*
X0007400Y0158103D02*
X0017656Y0158103D01*
X0014372Y0160502D02*
X0007400Y0160502D01*
X0007400Y0162900D02*
X0012680Y0162900D01*
X0011827Y0165299D02*
X0007400Y0165299D01*
X0007400Y0167697D02*
X0011586Y0167697D01*
X0011903Y0170096D02*
X0007400Y0170096D01*
X0007400Y0172494D02*
X0012845Y0172494D01*
X0014658Y0174893D02*
X0007400Y0174893D01*
X0007400Y0177291D02*
X0018431Y0177291D01*
X0020529Y0180877D02*
X0017910Y0181579D01*
X0015561Y0182935D01*
X0013644Y0184853D01*
X0012288Y0187201D01*
X0011586Y0189820D01*
X0011586Y0192532D01*
X0012288Y0195152D01*
X0013644Y0197500D01*
X0015561Y0199418D01*
X0017910Y0200774D01*
X0020529Y0201476D01*
X0023241Y0201476D01*
X0025860Y0200774D01*
X0028209Y0199418D01*
X0030126Y0197500D01*
X0031482Y0195152D01*
X0032184Y0192532D01*
X0032184Y0189820D01*
X0031482Y0187201D01*
X0030126Y0184853D01*
X0028209Y0182935D01*
X0025860Y0181579D01*
X0023241Y0180877D01*
X0020529Y0180877D01*
X0017028Y0182088D02*
X0007400Y0182088D01*
X0007400Y0179690D02*
X0075875Y0179690D01*
X0075300Y0182088D02*
X0026743Y0182088D01*
X0029761Y0184487D02*
X0075300Y0184487D01*
X0076700Y0186885D02*
X0031300Y0186885D01*
X0032040Y0189284D02*
X0079037Y0189284D01*
X0077400Y0191682D02*
X0032184Y0191682D01*
X0031769Y0194081D02*
X0077400Y0194081D01*
X0078983Y0196479D02*
X0030716Y0196479D01*
X0028749Y0198878D02*
X0238937Y0198878D01*
X0241335Y0196479D02*
X0095700Y0196479D01*
X0097200Y0194081D02*
X0243734Y0194081D01*
X0244786Y0191682D02*
X0246132Y0191682D01*
X0246913Y0189284D02*
X0248135Y0189284D01*
X0247833Y0186885D02*
X0247233Y0186885D01*
X0247833Y0184995D02*
X0252633Y0184995D01*
X0247833Y0184995D01*
X0247833Y0184487D02*
X0247233Y0184487D01*
X0247233Y0182088D02*
X0247833Y0182088D01*
X0252633Y0184995D02*
X0252633Y0184995D01*
X0232712Y0204917D01*
X0164326Y0204917D01*
X0164326Y0204916D01*
X0164326Y0199567D01*
X0166542Y0199567D01*
X0169676Y0202700D01*
X0169676Y0204916D01*
X0164326Y0204916D01*
X0164326Y0204916D01*
X0164326Y0199567D01*
X0162110Y0199567D01*
X0158976Y0202700D01*
X0158976Y0204916D01*
X0164326Y0204916D01*
X0164326Y0204917D01*
X0122754Y0204917D01*
X0094370Y0225032D01*
X0094370Y0225032D01*
X0094370Y0219832D01*
X0090961Y0219832D01*
X0090152Y0219960D01*
X0089374Y0220213D01*
X0088645Y0220585D01*
X0087983Y0221066D01*
X0087404Y0221645D01*
X0086923Y0222307D01*
X0086551Y0223036D01*
X0086298Y0223815D01*
X0086170Y0224623D01*
X0086170Y0225032D01*
X0094370Y0225032D01*
X0094370Y0219832D01*
X0097779Y0219832D01*
X0098588Y0219960D01*
X0099366Y0220213D01*
X0100095Y0220585D01*
X0100758Y0221066D01*
X0101336Y0221645D01*
X0101818Y0222307D01*
X0102189Y0223036D01*
X0102442Y0223815D01*
X0102570Y0224623D01*
X0102570Y0225032D01*
X0094370Y0225032D01*
X0094370Y0225032D01*
X0094717Y0225032D01*
X0121098Y0250625D01*
X0427594Y0250625D01*
X0427594Y0237594D01*
X0427200Y0237200D01*
X0427200Y0237200D01*
X0427200Y0242400D01*
X0429354Y0242400D01*
X0432400Y0239354D01*
X0432400Y0237200D01*
X0427200Y0237200D01*
X0427200Y0237200D01*
X0427200Y0242400D01*
X0425046Y0242400D01*
X0422059Y0239412D01*
X0419271Y0242200D01*
X0415129Y0242200D01*
X0412200Y0239271D01*
X0409271Y0242200D01*
X0405129Y0242200D01*
X0402200Y0239271D01*
X0402200Y0235129D01*
X0405129Y0232200D01*
X0409271Y0232200D01*
X0412200Y0235129D01*
X0412200Y0239271D01*
X0412200Y0235129D01*
X0415129Y0232200D01*
X0419271Y0232200D01*
X0422059Y0234988D01*
X0425046Y0232000D01*
X0427200Y0232000D01*
X0429354Y0232000D01*
X0432400Y0235046D01*
X0432400Y0237200D01*
X0427200Y0237200D01*
X0427200Y0232000D01*
X0427200Y0237200D01*
X0427200Y0237200D01*
X0427200Y0237254D02*
X0427200Y0237254D01*
X0427200Y0234856D02*
X0427200Y0234856D01*
X0427200Y0232457D02*
X0427200Y0232457D01*
X0429811Y0232457D02*
X0464872Y0232457D01*
X0462473Y0234856D02*
X0432209Y0234856D01*
X0432400Y0237254D02*
X0462200Y0237254D01*
X0462582Y0239653D02*
X0432101Y0239653D01*
X0429703Y0242051D02*
X0464980Y0242051D01*
X0469420Y0242051D02*
X0474980Y0242051D01*
X0472582Y0239653D02*
X0471818Y0239653D01*
X0472200Y0237254D02*
X0472200Y0237254D01*
X0471927Y0234856D02*
X0472473Y0234856D01*
X0474872Y0232457D02*
X0469528Y0232457D01*
X0479528Y0232457D02*
X0482107Y0232457D01*
X0484506Y0230059D02*
X0391677Y0230059D01*
X0389528Y0232457D02*
X0394872Y0232457D01*
X0392473Y0234856D02*
X0391927Y0234856D01*
X0392200Y0237254D02*
X0392200Y0237254D01*
X0391818Y0239653D02*
X0392582Y0239653D01*
X0394980Y0242051D02*
X0389420Y0242051D01*
X0384980Y0242051D02*
X0379420Y0242051D01*
X0381818Y0239653D02*
X0382582Y0239653D01*
X0374980Y0242051D02*
X0102370Y0242051D01*
X0102370Y0241838D02*
X0102370Y0243827D01*
X0101609Y0245665D01*
X0100202Y0247071D01*
X0098365Y0247832D01*
X0090376Y0247832D01*
X0088538Y0247071D01*
X0087131Y0245665D01*
X0086370Y0243827D01*
X0086370Y0241838D01*
X0087131Y0240000D01*
X0088538Y0238593D01*
X0090376Y0237832D01*
X0098365Y0237832D01*
X0100202Y0238593D01*
X0101609Y0240000D01*
X0102370Y0241838D01*
X0101261Y0239653D02*
X0372582Y0239653D01*
X0372200Y0237254D02*
X0048428Y0237254D01*
X0045991Y0234856D02*
X0372473Y0234856D01*
X0374872Y0232457D02*
X0043554Y0232457D01*
X0041117Y0230059D02*
X0064412Y0230059D01*
X0064552Y0230104D02*
X0063774Y0229851D01*
X0063045Y0229480D01*
X0062383Y0228999D01*
X0061804Y0228420D01*
X0061323Y0227758D01*
X0060951Y0227028D01*
X0060698Y0226250D01*
X0060570Y0225442D01*
X0060570Y0225032D01*
X0060570Y0224623D01*
X0060698Y0223815D01*
X0060951Y0223036D01*
X0061323Y0222307D01*
X0061804Y0221645D01*
X0062383Y0221066D01*
X0063045Y0220585D01*
X0063774Y0220213D01*
X0064552Y0219960D01*
X0065361Y0219832D01*
X0068770Y0219832D01*
X0068770Y0225032D01*
X0068770Y0225032D01*
X0068770Y0219832D01*
X0072179Y0219832D01*
X0072988Y0219960D01*
X0073766Y0220213D01*
X0074495Y0220585D01*
X0075158Y0221066D01*
X0075736Y0221645D01*
X0076218Y0222307D01*
X0076589Y0223036D01*
X0076842Y0223815D01*
X0076970Y0224623D01*
X0076970Y0225032D01*
X0068770Y0225032D01*
X0060570Y0225032D01*
X0068770Y0225032D01*
X0068770Y0225032D01*
X0068770Y0225032D01*
X0076970Y0225032D01*
X0076970Y0225442D01*
X0076842Y0226250D01*
X0076589Y0227028D01*
X0076218Y0227758D01*
X0075736Y0228420D01*
X0075158Y0228999D01*
X0074495Y0229480D01*
X0073766Y0229851D01*
X0072988Y0230104D01*
X0072179Y0230232D01*
X0068770Y0230232D01*
X0065361Y0230232D01*
X0064552Y0230104D01*
X0061273Y0227660D02*
X0038680Y0227660D01*
X0036243Y0225262D02*
X0060570Y0225262D01*
X0061039Y0222863D02*
X0033807Y0222863D01*
X0031370Y0220465D02*
X0063281Y0220465D01*
X0068770Y0220465D02*
X0068770Y0220465D01*
X0068770Y0222863D02*
X0068770Y0222863D01*
X0068770Y0225032D02*
X0068770Y0230232D01*
X0068770Y0225032D01*
X0068770Y0225032D01*
X0068770Y0225262D02*
X0068770Y0225262D01*
X0068770Y0227660D02*
X0068770Y0227660D01*
X0068770Y0230059D02*
X0068770Y0230059D01*
X0073128Y0230059D02*
X0090012Y0230059D01*
X0090152Y0230104D02*
X0089374Y0229851D01*
X0088645Y0229480D01*
X0087983Y0228999D01*
X0087404Y0228420D01*
X0086923Y0227758D01*
X0086551Y0227028D01*
X0086298Y0226250D01*
X0086170Y0225442D01*
X0086170Y0225032D01*
X0094370Y0225032D01*
X0094370Y0225032D01*
X0102570Y0225032D01*
X0102570Y0225442D01*
X0102442Y0226250D01*
X0102189Y0227028D01*
X0101818Y0227758D01*
X0101336Y0228420D01*
X0100758Y0228999D01*
X0100095Y0229480D01*
X0099366Y0229851D01*
X0098588Y0230104D01*
X0097779Y0230232D01*
X0094370Y0230232D01*
X0090961Y0230232D01*
X0090152Y0230104D01*
X0086873Y0227660D02*
X0076267Y0227660D01*
X0076970Y0225262D02*
X0086170Y0225262D01*
X0086639Y0222863D02*
X0076501Y0222863D01*
X0074259Y0220465D02*
X0088881Y0220465D01*
X0094370Y0220465D02*
X0094370Y0220465D01*
X0094370Y0222863D02*
X0094370Y0222863D01*
X0094370Y0225032D02*
X0094370Y0230232D01*
X0094370Y0225032D01*
X0094370Y0225032D01*
X0094370Y0225262D02*
X0094370Y0225262D01*
X0094370Y0227660D02*
X0094370Y0227660D01*
X0094370Y0230059D02*
X0094370Y0230059D01*
X0098728Y0230059D02*
X0384606Y0230059D01*
X0382207Y0232457D02*
X0379528Y0232457D01*
X0394075Y0227660D02*
X0486904Y0227660D01*
X0489303Y0225262D02*
X0396474Y0225262D01*
X0398872Y0222863D02*
X0491701Y0222863D01*
X0494100Y0220465D02*
X0401271Y0220465D01*
X0403670Y0218066D02*
X0496498Y0218066D01*
X0498897Y0215668D02*
X0406068Y0215668D01*
X0408467Y0213269D02*
X0501295Y0213269D01*
X0503694Y0210870D02*
X0410865Y0210870D01*
X0409528Y0232457D02*
X0414872Y0232457D01*
X0412473Y0234856D02*
X0411927Y0234856D01*
X0412200Y0237254D02*
X0412200Y0237254D01*
X0411818Y0239653D02*
X0412582Y0239653D01*
X0414980Y0242051D02*
X0409420Y0242051D01*
X0404980Y0242051D02*
X0399420Y0242051D01*
X0401818Y0239653D02*
X0402582Y0239653D01*
X0402200Y0237254D02*
X0402200Y0237254D01*
X0401927Y0234856D02*
X0402473Y0234856D01*
X0404872Y0232457D02*
X0399528Y0232457D01*
X0419528Y0232457D02*
X0424589Y0232457D01*
X0422190Y0234856D02*
X0421927Y0234856D01*
X0421818Y0239653D02*
X0422299Y0239653D01*
X0424697Y0242051D02*
X0419420Y0242051D01*
X0427200Y0242051D02*
X0427200Y0242051D01*
X0427200Y0239653D02*
X0427200Y0239653D01*
X0427594Y0250625D02*
X0517161Y0250625D01*
X0517200Y0250586D01*
X0517200Y0237200D01*
X0517200Y0237200D01*
X0517200Y0242400D01*
X0519354Y0242400D01*
X0522400Y0239354D01*
X0522400Y0237200D01*
X0517200Y0237200D01*
X0517200Y0237200D01*
X0517200Y0242400D01*
X0515046Y0242400D01*
X0512059Y0239412D01*
X0509271Y0242200D01*
X0505129Y0242200D01*
X0502200Y0239271D01*
X0502200Y0235129D01*
X0505129Y0232200D01*
X0509271Y0232200D01*
X0512059Y0234988D01*
X0515046Y0232000D01*
X0517200Y0232000D01*
X0519354Y0232000D01*
X0522400Y0235046D01*
X0522400Y0237200D01*
X0517200Y0237200D01*
X0517200Y0232000D01*
X0517200Y0237200D01*
X0517200Y0237200D01*
X0517200Y0237254D02*
X0517200Y0237254D01*
X0517200Y0234856D02*
X0517200Y0234856D01*
X0517200Y0232457D02*
X0517200Y0232457D01*
X0519811Y0232457D02*
X0559672Y0232457D01*
X0558649Y0234856D02*
X0522209Y0234856D01*
X0522400Y0237254D02*
X0558947Y0237254D01*
X0560770Y0239653D02*
X0522101Y0239653D01*
X0519703Y0242051D02*
X0582103Y0242051D01*
X0578681Y0244450D02*
X0102112Y0244450D01*
X0100425Y0246848D02*
X0577295Y0246848D01*
X0576743Y0249247D02*
X0060612Y0249247D01*
X0062938Y0247071D02*
X0061531Y0245665D01*
X0060770Y0243827D01*
X0060770Y0241838D01*
X0061531Y0240000D01*
X0062938Y0238593D01*
X0064776Y0237832D01*
X0072765Y0237832D01*
X0074602Y0238593D01*
X0076009Y0240000D01*
X0076770Y0241838D01*
X0076770Y0243827D01*
X0076009Y0245665D01*
X0074602Y0247071D01*
X0072765Y0247832D01*
X0064776Y0247832D01*
X0062938Y0247071D01*
X0062715Y0246848D02*
X0058175Y0246848D01*
X0055739Y0244450D02*
X0061028Y0244450D01*
X0060770Y0242051D02*
X0053302Y0242051D01*
X0050865Y0239653D02*
X0061879Y0239653D01*
X0075661Y0239653D02*
X0087479Y0239653D01*
X0086370Y0242051D02*
X0076770Y0242051D01*
X0076512Y0244450D02*
X0086628Y0244450D01*
X0088315Y0246848D02*
X0074825Y0246848D01*
X0063049Y0251645D02*
X0576806Y0251645D01*
X0593342Y0251645D02*
X0602000Y0251645D01*
X0602000Y0249247D02*
X0593405Y0249247D01*
X0592853Y0246848D02*
X0602000Y0246848D01*
X0602000Y0244450D02*
X0591467Y0244450D01*
X0588045Y0242051D02*
X0602000Y0242051D01*
X0602000Y0239653D02*
X0576124Y0239653D01*
X0573263Y0239653D02*
X0573263Y0239653D01*
X0573263Y0237254D02*
X0573263Y0237254D01*
X0573263Y0235586D02*
X0573263Y0235586D01*
X0558224Y0250625D01*
X0517161Y0250625D01*
X0517200Y0242051D02*
X0517200Y0242051D01*
X0517200Y0239653D02*
X0517200Y0239653D01*
X0514697Y0242051D02*
X0509420Y0242051D01*
X0511818Y0239653D02*
X0512299Y0239653D01*
X0504980Y0242051D02*
X0499420Y0242051D01*
X0501818Y0239653D02*
X0502582Y0239653D01*
X0502200Y0237254D02*
X0502200Y0237254D01*
X0501927Y0234856D02*
X0502473Y0234856D01*
X0504872Y0232457D02*
X0499528Y0232457D01*
X0494872Y0232457D02*
X0489528Y0232457D01*
X0491577Y0230059D02*
X0557273Y0230059D01*
X0554875Y0227660D02*
X0493975Y0227660D01*
X0496374Y0225262D02*
X0552476Y0225262D01*
X0550078Y0222863D02*
X0498772Y0222863D01*
X0501171Y0220465D02*
X0547679Y0220465D01*
X0545280Y0218066D02*
X0503570Y0218066D01*
X0505968Y0215668D02*
X0542882Y0215668D01*
X0540483Y0213269D02*
X0527267Y0213269D01*
X0529287Y0210870D02*
X0538085Y0210870D01*
X0535686Y0208472D02*
X0529400Y0208472D01*
X0529400Y0206073D02*
X0533288Y0206073D01*
X0530889Y0203675D02*
X0527610Y0203675D01*
X0528491Y0201276D02*
X0526352Y0201276D01*
X0533163Y0198878D02*
X0544092Y0198878D01*
X0541694Y0196479D02*
X0530765Y0196479D01*
X0528366Y0194081D02*
X0539295Y0194081D01*
X0536897Y0191682D02*
X0525968Y0191682D01*
X0523569Y0189284D02*
X0534498Y0189284D01*
X0532100Y0186885D02*
X0521171Y0186885D01*
X0518772Y0184487D02*
X0529701Y0184487D01*
X0527303Y0182088D02*
X0524634Y0182088D01*
X0524333Y0182389D02*
X0520067Y0182389D01*
X0517050Y0179373D01*
X0517050Y0175106D01*
X0519917Y0172239D01*
X0517050Y0169373D01*
X0517050Y0165106D01*
X0519450Y0162706D01*
X0519450Y0156236D01*
X0512500Y0149286D01*
X0512500Y0149395D01*
X0509395Y0152500D01*
X0505005Y0152500D01*
X0502555Y0150050D01*
X0510988Y0150908D02*
X0514122Y0150908D01*
X0516521Y0153306D02*
X0465729Y0153306D01*
X0463331Y0155705D02*
X0518919Y0155705D01*
X0519450Y0158103D02*
X0460932Y0158103D01*
X0458534Y0160502D02*
X0519450Y0160502D01*
X0519256Y0162900D02*
X0500318Y0162900D01*
X0501724Y0165299D02*
X0517050Y0165299D01*
X0517050Y0167697D02*
X0501724Y0167697D01*
X0504381Y0170096D02*
X0517773Y0170096D01*
X0519662Y0172494D02*
X0506780Y0172494D01*
X0509178Y0174893D02*
X0517263Y0174893D01*
X0517050Y0177291D02*
X0511577Y0177291D01*
X0513975Y0179690D02*
X0517367Y0179690D01*
X0516374Y0182088D02*
X0519766Y0182088D01*
X0524333Y0182389D02*
X0525969Y0180754D01*
X0569524Y0224309D01*
X0569218Y0224615D01*
X0568491Y0226369D01*
X0568491Y0228267D01*
X0569218Y0230021D01*
X0570560Y0231363D01*
X0570596Y0231378D01*
X0570024Y0231794D01*
X0569471Y0232347D01*
X0569011Y0232980D01*
X0568656Y0233677D01*
X0568414Y0234422D01*
X0568291Y0235195D01*
X0568291Y0235586D01*
X0573263Y0235586D01*
X0578181Y0234856D02*
X0602000Y0234856D01*
X0602000Y0237254D02*
X0577948Y0237254D01*
X0570402Y0239653D02*
X0566071Y0239653D01*
X0567894Y0237254D02*
X0568578Y0237254D01*
X0568345Y0234856D02*
X0568192Y0234856D01*
X0567040Y0232457D02*
X0569391Y0232457D01*
X0569255Y0230059D02*
X0564344Y0230059D01*
X0561946Y0227660D02*
X0568491Y0227660D01*
X0568950Y0225262D02*
X0559547Y0225262D01*
X0557149Y0222863D02*
X0568078Y0222863D01*
X0565679Y0220465D02*
X0554750Y0220465D01*
X0552352Y0218066D02*
X0563280Y0218066D01*
X0560882Y0215668D02*
X0549953Y0215668D01*
X0547555Y0213269D02*
X0558483Y0213269D01*
X0556085Y0210870D02*
X0545156Y0210870D01*
X0542758Y0208472D02*
X0553686Y0208472D01*
X0551288Y0206073D02*
X0540359Y0206073D01*
X0537960Y0203675D02*
X0548889Y0203675D01*
X0546491Y0201276D02*
X0535562Y0201276D01*
X0548765Y0196479D02*
X0576867Y0196479D01*
X0576743Y0196180D02*
X0576743Y0192866D01*
X0578012Y0189804D01*
X0580355Y0187460D01*
X0583417Y0186192D01*
X0586731Y0186192D01*
X0589793Y0187460D01*
X0592136Y0189804D01*
X0593405Y0192866D01*
X0593405Y0196180D01*
X0592136Y0199242D01*
X0589793Y0201585D01*
X0586731Y0202854D01*
X0583417Y0202854D01*
X0580355Y0201585D01*
X0578012Y0199242D01*
X0576743Y0196180D01*
X0576743Y0194081D02*
X0546366Y0194081D01*
X0543968Y0191682D02*
X0577233Y0191682D01*
X0578532Y0189284D02*
X0541569Y0189284D01*
X0539171Y0186885D02*
X0581743Y0186885D01*
X0588405Y0186885D02*
X0602000Y0186885D01*
X0602000Y0184487D02*
X0569831Y0184487D01*
X0569844Y0184480D02*
X0567107Y0186059D01*
X0564055Y0186877D01*
X0560896Y0186877D01*
X0557844Y0186059D01*
X0555107Y0184480D01*
X0552873Y0182245D01*
X0551293Y0179509D01*
X0550476Y0176457D01*
X0550476Y0173297D01*
X0551293Y0170245D01*
X0552873Y0167509D01*
X0555107Y0165275D01*
X0557844Y0163695D01*
X0560896Y0162877D01*
X0564055Y0162877D01*
X0567107Y0163695D01*
X0569844Y0165275D01*
X0572078Y0167509D01*
X0573658Y0170245D01*
X0574476Y0173297D01*
X0574476Y0176457D01*
X0573658Y0179509D01*
X0572078Y0182245D01*
X0569844Y0184480D01*
X0572169Y0182088D02*
X0602000Y0182088D01*
X0602000Y0179690D02*
X0573553Y0179690D01*
X0574252Y0177291D02*
X0602000Y0177291D01*
X0602000Y0174893D02*
X0574476Y0174893D01*
X0574260Y0172494D02*
X0602000Y0172494D01*
X0602000Y0170096D02*
X0573571Y0170096D01*
X0572187Y0167697D02*
X0602000Y0167697D01*
X0602000Y0165299D02*
X0569868Y0165299D01*
X0564142Y0162900D02*
X0602000Y0162900D01*
X0602000Y0160502D02*
X0529400Y0160502D01*
X0529400Y0162900D02*
X0560810Y0162900D01*
X0555083Y0165299D02*
X0529400Y0165299D01*
X0529400Y0167697D02*
X0552764Y0167697D01*
X0551380Y0170096D02*
X0529400Y0170096D01*
X0529400Y0172494D02*
X0550691Y0172494D01*
X0550476Y0174893D02*
X0529400Y0174893D01*
X0529577Y0177291D02*
X0550699Y0177291D01*
X0551398Y0179690D02*
X0531975Y0179690D01*
X0534374Y0182088D02*
X0552783Y0182088D01*
X0555120Y0184487D02*
X0536772Y0184487D01*
X0551163Y0198878D02*
X0577861Y0198878D01*
X0580046Y0201276D02*
X0553562Y0201276D01*
X0555960Y0203675D02*
X0602000Y0203675D01*
X0602000Y0206073D02*
X0577270Y0206073D01*
X0578035Y0208472D02*
X0602000Y0208472D01*
X0602000Y0210870D02*
X0577576Y0210870D01*
X0576198Y0213269D02*
X0602000Y0213269D01*
X0602000Y0215668D02*
X0593473Y0215668D01*
X0592943Y0215138D02*
X0595286Y0217481D01*
X0596554Y0220543D01*
X0596554Y0223857D01*
X0595286Y0226919D01*
X0592943Y0229262D01*
X0589881Y0230531D01*
X0586567Y0230531D01*
X0583505Y0229262D01*
X0581161Y0226919D01*
X0579893Y0223857D01*
X0579893Y0220543D01*
X0581161Y0217481D01*
X0583505Y0215138D01*
X0586567Y0213869D01*
X0589881Y0213869D01*
X0592943Y0215138D01*
X0595528Y0218066D02*
X0602000Y0218066D01*
X0602000Y0220465D02*
X0596522Y0220465D01*
X0596554Y0222863D02*
X0602000Y0222863D01*
X0602000Y0225262D02*
X0595973Y0225262D01*
X0594545Y0227660D02*
X0602000Y0227660D01*
X0602000Y0230059D02*
X0591021Y0230059D01*
X0585427Y0230059D02*
X0577271Y0230059D01*
X0577135Y0232457D02*
X0602000Y0232457D01*
X0581902Y0227660D02*
X0578035Y0227660D01*
X0577576Y0225262D02*
X0580475Y0225262D01*
X0579893Y0222863D02*
X0575149Y0222863D01*
X0576628Y0220465D02*
X0579925Y0220465D01*
X0580919Y0218066D02*
X0578020Y0218066D01*
X0577842Y0215668D02*
X0582975Y0215668D01*
X0570328Y0213269D02*
X0565555Y0213269D01*
X0567734Y0210870D02*
X0568950Y0210870D01*
X0568491Y0208472D02*
X0568192Y0208472D01*
X0567428Y0206073D02*
X0569256Y0206073D01*
X0559413Y0206073D02*
X0558359Y0206073D01*
X0567953Y0215668D02*
X0568684Y0215668D01*
X0590102Y0201276D02*
X0602000Y0201276D01*
X0602000Y0198878D02*
X0592287Y0198878D01*
X0593281Y0196479D02*
X0602000Y0196479D01*
X0602000Y0194081D02*
X0593405Y0194081D01*
X0592915Y0191682D02*
X0602000Y0191682D01*
X0602000Y0189284D02*
X0591616Y0189284D01*
X0597279Y0157712D02*
X0597279Y0146885D01*
X0596956Y0147208D01*
X0597279Y0146885D02*
X0597279Y0133893D01*
X0597186Y0133800D01*
X0597279Y0133893D02*
X0597279Y0106728D01*
X0597206Y0106800D01*
X0597279Y0106728D02*
X0597279Y0093932D01*
X0568123Y0110133D02*
X0568076Y0110133D01*
X0552476Y0106708D02*
X0552476Y0106708D01*
X0552476Y0105336D02*
X0552476Y0105336D01*
X0547919Y0110133D02*
X0500219Y0110133D01*
X0502617Y0112532D02*
X0547874Y0112532D01*
X0546976Y0114930D02*
X0505016Y0114930D01*
X0507414Y0117329D02*
X0547194Y0117329D01*
X0548717Y0119727D02*
X0509813Y0119727D01*
X0512211Y0122126D02*
X0547592Y0122126D01*
X0546976Y0124524D02*
X0514610Y0124524D01*
X0517008Y0126923D02*
X0524982Y0126923D01*
X0522584Y0129321D02*
X0519407Y0129321D01*
X0521805Y0131720D02*
X0521900Y0131720D01*
X0529418Y0126923D02*
X0547440Y0126923D01*
X0549084Y0129321D02*
X0531816Y0129321D01*
X0532500Y0131720D02*
X0547346Y0131720D01*
X0546976Y0134118D02*
X0532500Y0134118D01*
X0530379Y0136517D02*
X0547686Y0136517D01*
X0548490Y0138915D02*
X0529001Y0138915D01*
X0529400Y0141314D02*
X0546976Y0141314D01*
X0546976Y0143712D02*
X0541207Y0143712D01*
X0542500Y0145005D02*
X0539395Y0141900D01*
X0535005Y0141900D01*
X0531900Y0145005D01*
X0531900Y0149395D01*
X0535005Y0152500D01*
X0539395Y0152500D01*
X0542500Y0149395D01*
X0542500Y0145005D01*
X0542500Y0146111D02*
X0548100Y0146111D01*
X0542500Y0148509D02*
X0556911Y0148509D01*
X0556851Y0146111D02*
X0556878Y0146111D01*
X0558118Y0150908D02*
X0540988Y0150908D01*
X0533412Y0150908D02*
X0529400Y0150908D01*
X0529400Y0153306D02*
X0602000Y0153306D01*
X0602000Y0155705D02*
X0529400Y0155705D01*
X0529400Y0158103D02*
X0602000Y0158103D01*
X0568490Y0138915D02*
X0568135Y0138915D01*
X0562476Y0138915D02*
X0562476Y0138915D01*
X0562476Y0138208D02*
X0562476Y0147208D01*
X0562476Y0146111D02*
X0562476Y0146111D01*
X0562476Y0143712D02*
X0562476Y0143712D01*
X0562476Y0141314D02*
X0562476Y0141314D01*
X0562475Y0138208D02*
X0556776Y0138208D01*
X0556776Y0138656D01*
X0556883Y0139338D01*
X0555754Y0138208D01*
X0556883Y0137078D01*
X0556776Y0137759D01*
X0556776Y0138208D01*
X0562475Y0138208D01*
X0562475Y0138208D01*
X0562476Y0138208D02*
X0562476Y0138208D01*
X0562476Y0129208D01*
X0568176Y0129208D01*
X0568176Y0129656D01*
X0568068Y0130338D01*
X0569197Y0129208D01*
X0568068Y0128078D01*
X0568176Y0128759D01*
X0568176Y0129208D01*
X0562476Y0129208D01*
X0562476Y0129208D01*
X0562476Y0129208D01*
X0562476Y0132508D01*
X0562476Y0138208D01*
X0562476Y0129208D01*
X0562475Y0129208D02*
X0562475Y0129208D01*
X0556776Y0129208D01*
X0556776Y0129656D01*
X0556883Y0130338D01*
X0555754Y0129208D01*
X0556883Y0128078D01*
X0556776Y0128759D01*
X0556776Y0129208D01*
X0562475Y0129208D01*
X0562476Y0129321D02*
X0562476Y0129321D01*
X0562476Y0131720D02*
X0562476Y0131720D01*
X0562476Y0134118D02*
X0562476Y0134118D01*
X0562476Y0136517D02*
X0562476Y0136517D01*
X0556817Y0138915D02*
X0556461Y0138915D01*
X0533192Y0143712D02*
X0529400Y0143712D01*
X0529400Y0146111D02*
X0531900Y0146111D01*
X0531900Y0148509D02*
X0529400Y0148509D01*
X0493530Y0162900D02*
X0490318Y0162900D01*
X0491724Y0165299D02*
X0492124Y0165299D01*
X0492124Y0167697D02*
X0491724Y0167697D01*
X0482124Y0167697D02*
X0481724Y0167697D01*
X0481724Y0165299D02*
X0482124Y0165299D01*
X0483530Y0162900D02*
X0480318Y0162900D01*
X0473530Y0162900D02*
X0470318Y0162900D01*
X0471724Y0165299D02*
X0472124Y0165299D01*
X0472124Y0167697D02*
X0471724Y0167697D01*
X0463530Y0162900D02*
X0456135Y0162900D01*
X0453737Y0165299D02*
X0462124Y0165299D01*
X0462124Y0167697D02*
X0451338Y0167697D01*
X0555867Y0129321D02*
X0556776Y0129321D01*
X0568176Y0129321D02*
X0569084Y0129321D01*
X0522841Y0105336D02*
X0516559Y0105336D01*
X0517500Y0102937D02*
X0521900Y0102937D01*
X0521900Y0100539D02*
X0517500Y0100539D01*
X0515636Y0098140D02*
X0523764Y0098140D01*
X0337442Y0126923D02*
X0293808Y0126923D01*
X0296207Y0129321D02*
X0335043Y0129321D01*
X0332645Y0131720D02*
X0315632Y0131720D01*
X0317293Y0134118D02*
X0330246Y0134118D01*
X0327848Y0136517D02*
X0317579Y0136517D01*
X0316720Y0138915D02*
X0325449Y0138915D01*
X0323051Y0141314D02*
X0300422Y0141314D01*
X0298023Y0143712D02*
X0320652Y0143712D01*
X0318254Y0146111D02*
X0295625Y0146111D01*
X0293226Y0148509D02*
X0315855Y0148509D01*
X0313457Y0150908D02*
X0290828Y0150908D01*
X0290000Y0153306D02*
X0311058Y0153306D01*
X0308660Y0155705D02*
X0290000Y0155705D01*
X0290000Y0158103D02*
X0306261Y0158103D01*
X0303863Y0160502D02*
X0290000Y0160502D01*
X0296789Y0162900D02*
X0297769Y0162900D01*
X0264750Y0157665D02*
X0264750Y0140574D01*
X0263333Y0141161D01*
X0261224Y0141161D01*
X0259277Y0140355D01*
X0257786Y0138864D01*
X0257394Y0137917D01*
X0257376Y0137973D01*
X0256983Y0138744D01*
X0256474Y0139444D01*
X0255862Y0140057D01*
X0255161Y0140565D01*
X0254390Y0140958D01*
X0253567Y0141226D01*
X0252712Y0141361D01*
X0252279Y0141361D01*
X0252279Y0135862D01*
X0252279Y0135862D01*
X0252279Y0141361D01*
X0251846Y0141361D01*
X0250991Y0141226D01*
X0250167Y0140958D01*
X0249396Y0140565D01*
X0248696Y0140057D01*
X0248084Y0139444D01*
X0247575Y0138744D01*
X0247182Y0137973D01*
X0247164Y0137917D01*
X0246772Y0138864D01*
X0246360Y0139275D01*
X0264249Y0157164D01*
X0264750Y0157665D01*
X0264750Y0155705D02*
X0262789Y0155705D01*
X0264750Y0153306D02*
X0260391Y0153306D01*
X0257992Y0150908D02*
X0264750Y0150908D01*
X0264750Y0148509D02*
X0255594Y0148509D01*
X0253195Y0146111D02*
X0264750Y0146111D01*
X0264750Y0143712D02*
X0250797Y0143712D01*
X0251544Y0141314D02*
X0248398Y0141314D01*
X0247699Y0138915D02*
X0246720Y0138915D01*
X0242436Y0139877D02*
X0262436Y0159877D01*
X0262436Y0165704D01*
X0262279Y0165861D01*
X0257279Y0164083D02*
X0257786Y0162859D01*
X0259236Y0161409D01*
X0259236Y0161203D01*
X0239723Y0141690D01*
X0239236Y0140514D01*
X0239236Y0140314D01*
X0237786Y0138864D01*
X0237279Y0137640D01*
X0236772Y0138864D01*
X0235281Y0140355D01*
X0233333Y0141161D01*
X0231224Y0141161D01*
X0229277Y0140355D01*
X0227786Y0138864D01*
X0227279Y0137640D01*
X0226772Y0138864D01*
X0225281Y0140355D01*
X0223333Y0141161D01*
X0221224Y0141161D01*
X0219277Y0140355D01*
X0217786Y0138864D01*
X0217279Y0137640D01*
X0216772Y0138864D01*
X0215281Y0140355D01*
X0214070Y0140856D01*
X0214400Y0141653D01*
X0214400Y0161003D01*
X0215281Y0161368D01*
X0216772Y0162859D01*
X0217279Y0164083D01*
X0217786Y0162859D01*
X0219277Y0161368D01*
X0221224Y0160561D01*
X0223333Y0160561D01*
X0225281Y0161368D01*
X0226772Y0162859D01*
X0227279Y0164083D01*
X0227786Y0162859D01*
X0229277Y0161368D01*
X0231224Y0160561D01*
X0233333Y0160561D01*
X0235281Y0161368D01*
X0236772Y0162859D01*
X0237164Y0163805D01*
X0237182Y0163750D01*
X0237575Y0162979D01*
X0238084Y0162278D01*
X0238696Y0161666D01*
X0239396Y0161157D01*
X0240167Y0160764D01*
X0240991Y0160497D01*
X0241846Y0160361D01*
X0242279Y0160361D01*
X0242712Y0160361D01*
X0243567Y0160497D01*
X0244390Y0160764D01*
X0245161Y0161157D01*
X0245862Y0161666D01*
X0246474Y0162278D01*
X0246983Y0162979D01*
X0247376Y0163750D01*
X0247394Y0163805D01*
X0247786Y0162859D01*
X0249277Y0161368D01*
X0251224Y0160561D01*
X0253333Y0160561D01*
X0255281Y0161368D01*
X0256772Y0162859D01*
X0257279Y0164083D01*
X0256789Y0162900D02*
X0257769Y0162900D01*
X0258535Y0160502D02*
X0243582Y0160502D01*
X0242279Y0160502D02*
X0242279Y0160502D01*
X0242279Y0160361D02*
X0242279Y0165861D01*
X0242279Y0160361D01*
X0240976Y0160502D02*
X0214400Y0160502D01*
X0214400Y0158103D02*
X0256137Y0158103D01*
X0253738Y0155705D02*
X0214400Y0155705D01*
X0214400Y0153306D02*
X0251340Y0153306D01*
X0248941Y0150908D02*
X0214400Y0150908D01*
X0214400Y0148509D02*
X0246543Y0148509D01*
X0244144Y0146111D02*
X0214400Y0146111D01*
X0214400Y0143712D02*
X0241746Y0143712D01*
X0239568Y0141314D02*
X0214260Y0141314D01*
X0216720Y0138915D02*
X0217837Y0138915D01*
X0226720Y0138915D02*
X0227837Y0138915D01*
X0236720Y0138915D02*
X0237837Y0138915D01*
X0242436Y0139877D02*
X0242436Y0135704D01*
X0242279Y0135861D01*
X0242436Y0135704D02*
X0242436Y0117909D01*
X0245636Y0121992D02*
X0245636Y0131724D01*
X0246772Y0132859D01*
X0247164Y0133805D01*
X0247182Y0133750D01*
X0247575Y0132979D01*
X0248084Y0132278D01*
X0248696Y0131666D01*
X0249396Y0131157D01*
X0250167Y0130764D01*
X0250991Y0130497D01*
X0251846Y0130361D01*
X0252279Y0130361D01*
X0252712Y0130361D01*
X0253567Y0130497D01*
X0254390Y0130764D01*
X0255161Y0131157D01*
X0255862Y0131666D01*
X0256474Y0132278D01*
X0256983Y0132979D01*
X0257376Y0133750D01*
X0257394Y0133805D01*
X0257786Y0132859D01*
X0259277Y0131368D01*
X0261224Y0130561D01*
X0263333Y0130561D01*
X0264750Y0131148D01*
X0264750Y0100144D01*
X0263530Y0100650D01*
X0261622Y0100650D01*
X0255307Y0106965D01*
X0254406Y0107866D01*
X0253230Y0108353D01*
X0250376Y0108353D01*
X0245557Y0113171D01*
X0245557Y0113747D01*
X0247295Y0115484D01*
X0250220Y0112559D01*
X0252436Y0112559D01*
X0252436Y0117909D01*
X0252436Y0123259D01*
X0250220Y0123259D01*
X0247295Y0120333D01*
X0245636Y0121992D01*
X0245636Y0122126D02*
X0249087Y0122126D01*
X0252436Y0122126D02*
X0252436Y0122126D01*
X0252436Y0123259D02*
X0252436Y0117909D01*
X0252436Y0117909D01*
X0257786Y0117909D01*
X0257786Y0120125D01*
X0254652Y0123259D01*
X0252436Y0123259D01*
X0255785Y0122126D02*
X0264750Y0122126D01*
X0264750Y0124524D02*
X0245636Y0124524D01*
X0245636Y0126923D02*
X0264750Y0126923D01*
X0264750Y0129321D02*
X0245636Y0129321D01*
X0245636Y0131720D02*
X0248642Y0131720D01*
X0252279Y0131720D02*
X0252279Y0131720D01*
X0252279Y0130361D02*
X0252279Y0135861D01*
X0252279Y0130361D01*
X0252279Y0134118D02*
X0252279Y0134118D01*
X0252279Y0135861D02*
X0252279Y0135861D01*
X0252279Y0136517D02*
X0252279Y0136517D01*
X0252279Y0138915D02*
X0252279Y0138915D01*
X0252279Y0141314D02*
X0252279Y0141314D01*
X0253013Y0141314D02*
X0264750Y0141314D01*
X0257837Y0138915D02*
X0256858Y0138915D01*
X0255915Y0131720D02*
X0258925Y0131720D01*
X0269750Y0129321D02*
X0278786Y0129321D01*
X0278925Y0131720D02*
X0275632Y0131720D01*
X0276387Y0126923D02*
X0269750Y0126923D01*
X0269750Y0124524D02*
X0274650Y0124524D01*
X0274650Y0122126D02*
X0269750Y0122126D01*
X0269750Y0119727D02*
X0274650Y0119727D01*
X0275036Y0117329D02*
X0269750Y0117329D01*
X0269750Y0114930D02*
X0277434Y0114930D01*
X0276782Y0112532D02*
X0269750Y0112532D01*
X0269750Y0110133D02*
X0276782Y0110133D01*
X0277280Y0107734D02*
X0269750Y0107734D01*
X0269750Y0105336D02*
X0279679Y0105336D01*
X0284485Y0105336D02*
X0309679Y0105336D01*
X0307280Y0107734D02*
X0286883Y0107734D01*
X0287382Y0110133D02*
X0306782Y0110133D01*
X0306782Y0112532D02*
X0287382Y0112532D01*
X0287382Y0119727D02*
X0306782Y0119727D01*
X0306782Y0122126D02*
X0289011Y0122126D01*
X0291410Y0124524D02*
X0308564Y0124524D01*
X0308925Y0131720D02*
X0305632Y0131720D01*
X0298925Y0131720D02*
X0298605Y0131720D01*
X0306720Y0138915D02*
X0307837Y0138915D01*
X0264750Y0119727D02*
X0257786Y0119727D01*
X0257786Y0117909D02*
X0252436Y0117909D01*
X0252436Y0117909D01*
X0252436Y0117909D01*
X0252436Y0112559D01*
X0254652Y0112559D01*
X0257786Y0115693D01*
X0257786Y0117909D01*
X0257786Y0117329D02*
X0264750Y0117329D01*
X0264750Y0114930D02*
X0257024Y0114930D01*
X0252436Y0114930D02*
X0252436Y0114930D01*
X0252436Y0117329D02*
X0252436Y0117329D01*
X0252436Y0119727D02*
X0252436Y0119727D01*
X0247849Y0114930D02*
X0246741Y0114930D01*
X0246197Y0112532D02*
X0264750Y0112532D01*
X0264750Y0110133D02*
X0248596Y0110133D01*
X0254537Y0107734D02*
X0264750Y0107734D01*
X0264750Y0105336D02*
X0256936Y0105336D01*
X0259334Y0102937D02*
X0264750Y0102937D01*
X0264750Y0100539D02*
X0263797Y0100539D01*
X0257570Y0093343D02*
X0257381Y0093343D01*
X0242476Y0100539D02*
X0242476Y0100539D01*
X0240648Y0100539D02*
X0233797Y0100539D01*
X0231154Y0100539D02*
X0223797Y0100539D01*
X0221154Y0100539D02*
X0213797Y0100539D01*
X0211154Y0100539D02*
X0209900Y0100539D01*
X0217056Y0098140D02*
X0217895Y0098140D01*
X0227056Y0098140D02*
X0227895Y0098140D01*
X0237056Y0098140D02*
X0237725Y0098140D01*
X0184415Y0083749D02*
X0007400Y0083749D01*
X0007400Y0081351D02*
X0184650Y0081351D01*
X0184650Y0078952D02*
X0007400Y0078952D01*
X0007400Y0076554D02*
X0184650Y0076554D01*
X0184650Y0074155D02*
X0007400Y0074155D01*
X0007400Y0071757D02*
X0184650Y0071757D01*
X0177176Y0069358D02*
X0007400Y0069358D01*
X0007400Y0066960D02*
X0177176Y0066960D01*
X0177176Y0064561D02*
X0007400Y0064561D01*
X0007400Y0062163D02*
X0177176Y0062163D01*
X0187700Y0059764D02*
X0007400Y0059764D01*
X0007400Y0057366D02*
X0190099Y0057366D01*
X0192497Y0054967D02*
X0007400Y0054967D01*
X0007400Y0052569D02*
X0194896Y0052569D01*
X0197100Y0050170D02*
X0007400Y0050170D01*
X0007400Y0047772D02*
X0197652Y0047772D01*
X0204548Y0047772D02*
X0204643Y0047772D01*
X0207041Y0045373D02*
X0007400Y0045373D01*
X0007400Y0042975D02*
X0209440Y0042975D01*
X0211838Y0040576D02*
X0007400Y0040576D01*
X0007400Y0038178D02*
X0214237Y0038178D01*
X0216635Y0035779D02*
X0007400Y0035779D01*
X0007400Y0033381D02*
X0218250Y0033381D01*
X0219311Y0030982D02*
X0007400Y0030982D01*
X0022124Y0016591D02*
X0026292Y0016591D01*
X0024523Y0014193D02*
X0023892Y0014193D01*
X0024208Y0011794D02*
X0024208Y0011794D01*
X0023238Y0009396D02*
X0025177Y0009396D01*
X0033238Y0009396D02*
X0035177Y0009396D01*
X0034208Y0011794D02*
X0034208Y0011794D01*
X0033892Y0014193D02*
X0034523Y0014193D01*
X0036292Y0016591D02*
X0032124Y0016591D01*
X0042124Y0016591D02*
X0046292Y0016591D01*
X0044523Y0014193D02*
X0043892Y0014193D01*
X0044208Y0011794D02*
X0044208Y0011794D01*
X0043238Y0009396D02*
X0045177Y0009396D01*
X0053238Y0009396D02*
X0055177Y0009396D01*
X0054208Y0011794D02*
X0054208Y0011794D01*
X0053892Y0014193D02*
X0054523Y0014193D01*
X0056292Y0016591D02*
X0052124Y0016591D01*
X0062124Y0016591D02*
X0066292Y0016591D01*
X0064523Y0014193D02*
X0063892Y0014193D01*
X0064208Y0011794D02*
X0064208Y0011794D01*
X0063238Y0009396D02*
X0065177Y0009396D01*
X0073238Y0009396D02*
X0075177Y0009396D01*
X0074208Y0011794D02*
X0074208Y0011794D01*
X0073892Y0014193D02*
X0074523Y0014193D01*
X0076292Y0016591D02*
X0072124Y0016591D01*
X0082124Y0016591D02*
X0086292Y0016591D01*
X0084523Y0014193D02*
X0083892Y0014193D01*
X0084208Y0011794D02*
X0084208Y0011794D01*
X0083238Y0009396D02*
X0085177Y0009396D01*
X0093238Y0009396D02*
X0095177Y0009396D01*
X0094208Y0011794D02*
X0094208Y0011794D01*
X0093892Y0014193D02*
X0094523Y0014193D01*
X0096292Y0016591D02*
X0092124Y0016591D01*
X0102124Y0016591D02*
X0106292Y0016591D01*
X0104523Y0014193D02*
X0103892Y0014193D01*
X0104208Y0011794D02*
X0104208Y0011794D01*
X0103238Y0009396D02*
X0105177Y0009396D01*
X0113238Y0009396D02*
X0115177Y0009396D01*
X0114208Y0011794D02*
X0114208Y0011794D01*
X0113892Y0014193D02*
X0114523Y0014193D01*
X0116292Y0016591D02*
X0112124Y0016591D01*
X0122124Y0016591D02*
X0126292Y0016591D01*
X0124523Y0014193D02*
X0123892Y0014193D01*
X0124208Y0011794D02*
X0124208Y0011794D01*
X0123238Y0009396D02*
X0125177Y0009396D01*
X0133238Y0009396D02*
X0135177Y0009396D01*
X0134208Y0011794D02*
X0134208Y0011794D01*
X0133892Y0014193D02*
X0134523Y0014193D01*
X0136292Y0016591D02*
X0132124Y0016591D01*
X0142124Y0016591D02*
X0146292Y0016591D01*
X0144523Y0014193D02*
X0143892Y0014193D01*
X0144208Y0011794D02*
X0144208Y0011794D01*
X0143238Y0009396D02*
X0145177Y0009396D01*
X0153238Y0009396D02*
X0155177Y0009396D01*
X0154208Y0011794D02*
X0154208Y0011794D01*
X0153892Y0014193D02*
X0154523Y0014193D01*
X0156292Y0016591D02*
X0152124Y0016591D01*
X0162124Y0016591D02*
X0166292Y0016591D01*
X0164523Y0014193D02*
X0163892Y0014193D01*
X0164208Y0011794D02*
X0164208Y0011794D01*
X0163238Y0009396D02*
X0165177Y0009396D01*
X0173238Y0009396D02*
X0175177Y0009396D01*
X0174208Y0011794D02*
X0174208Y0011794D01*
X0173892Y0014193D02*
X0174523Y0014193D01*
X0176292Y0016591D02*
X0172124Y0016591D01*
X0182124Y0016591D02*
X0186292Y0016591D01*
X0184523Y0014193D02*
X0183892Y0014193D01*
X0184208Y0011794D02*
X0184208Y0011794D01*
X0183238Y0009396D02*
X0185177Y0009396D01*
X0193238Y0009396D02*
X0195177Y0009396D01*
X0194208Y0011794D02*
X0194208Y0011794D01*
X0193892Y0014193D02*
X0194523Y0014193D01*
X0196292Y0016591D02*
X0192124Y0016591D01*
X0202124Y0016591D02*
X0206292Y0016591D01*
X0204523Y0014193D02*
X0203892Y0014193D01*
X0204208Y0011794D02*
X0204208Y0011794D01*
X0203238Y0009396D02*
X0205177Y0009396D01*
X0213238Y0009396D02*
X0215177Y0009396D01*
X0214208Y0011794D02*
X0214208Y0011794D01*
X0213892Y0014193D02*
X0214523Y0014193D01*
X0216292Y0016591D02*
X0212124Y0016591D01*
X0222124Y0016591D02*
X0226292Y0016591D01*
X0224523Y0014193D02*
X0223892Y0014193D01*
X0224208Y0011794D02*
X0224208Y0011794D01*
X0223238Y0009396D02*
X0225177Y0009396D01*
X0233238Y0009396D02*
X0235177Y0009396D01*
X0234208Y0011794D02*
X0234208Y0011794D01*
X0233892Y0014193D02*
X0234523Y0014193D01*
X0236292Y0016591D02*
X0232124Y0016591D01*
X0242124Y0016591D02*
X0246292Y0016591D01*
X0244523Y0014193D02*
X0243892Y0014193D01*
X0244208Y0011794D02*
X0244208Y0011794D01*
X0243238Y0009396D02*
X0245177Y0009396D01*
X0253238Y0009396D02*
X0255177Y0009396D01*
X0254208Y0011794D02*
X0254208Y0011794D01*
X0253892Y0014193D02*
X0254523Y0014193D01*
X0256292Y0016591D02*
X0252124Y0016591D01*
X0262124Y0016591D02*
X0266292Y0016591D01*
X0264523Y0014193D02*
X0263892Y0014193D01*
X0264208Y0011794D02*
X0264208Y0011794D01*
X0263238Y0009396D02*
X0265177Y0009396D01*
X0268678Y0023787D02*
X0260293Y0023787D01*
X0254407Y0023787D02*
X0222842Y0023787D01*
X0225396Y0026185D02*
X0253350Y0026185D01*
X0253884Y0028584D02*
X0227794Y0028584D01*
X0252239Y0045373D02*
X0252239Y0045373D01*
X0252239Y0047515D02*
X0252239Y0047515D01*
X0252239Y0047772D02*
X0252239Y0047772D01*
X0252239Y0050170D02*
X0252239Y0050170D01*
X0252239Y0052569D02*
X0252239Y0052569D01*
X0249727Y0052569D02*
X0245439Y0052569D01*
X0246867Y0050170D02*
X0247329Y0050170D01*
X0252476Y0064561D02*
X0252476Y0064561D01*
X0252476Y0065349D02*
X0252476Y0065349D01*
X0252476Y0066960D02*
X0252476Y0066960D01*
X0252476Y0069358D02*
X0252476Y0069358D01*
X0256245Y0069358D02*
X0258989Y0069358D01*
X0265962Y0069358D02*
X0268989Y0069358D01*
X0182017Y0086148D02*
X0007400Y0086148D01*
X0007400Y0088546D02*
X0180153Y0088546D01*
X0179385Y0090945D02*
X0007400Y0090945D01*
X0007400Y0093343D02*
X0177570Y0093343D01*
X0177176Y0095742D02*
X0007400Y0095742D01*
X0007400Y0098140D02*
X0177895Y0098140D01*
X0161487Y0119727D02*
X0032184Y0119727D01*
X0032061Y0122126D02*
X0159089Y0122126D01*
X0156690Y0124524D02*
X0031345Y0124524D01*
X0029838Y0126923D02*
X0154292Y0126923D01*
X0151893Y0129321D02*
X0026876Y0129321D01*
X0018719Y0134118D02*
X0007400Y0134118D01*
X0007400Y0136517D02*
X0014735Y0136517D01*
X0012889Y0138915D02*
X0007400Y0138915D01*
X0007400Y0141314D02*
X0011924Y0141314D01*
X0011586Y0143712D02*
X0007400Y0143712D01*
X0007400Y0146111D02*
X0011806Y0146111D01*
X0012635Y0148509D02*
X0007400Y0148509D01*
X0007400Y0150908D02*
X0014295Y0150908D01*
X0017523Y0153306D02*
X0007400Y0153306D01*
X0029398Y0160502D02*
X0095063Y0160502D01*
X0092664Y0162900D02*
X0031091Y0162900D01*
X0031943Y0165299D02*
X0090266Y0165299D01*
X0087867Y0167697D02*
X0032184Y0167697D01*
X0031867Y0170096D02*
X0085469Y0170096D01*
X0083070Y0172494D02*
X0030925Y0172494D01*
X0029112Y0174893D02*
X0080672Y0174893D01*
X0078273Y0177291D02*
X0025339Y0177291D01*
X0014009Y0184487D02*
X0007400Y0184487D01*
X0007400Y0186885D02*
X0012470Y0186885D01*
X0011730Y0189284D02*
X0007400Y0189284D01*
X0007400Y0191682D02*
X0011586Y0191682D01*
X0012001Y0194081D02*
X0007400Y0194081D01*
X0007400Y0196479D02*
X0013054Y0196479D01*
X0015021Y0198878D02*
X0009438Y0198878D01*
X0011875Y0201276D02*
X0019786Y0201276D01*
X0023984Y0201276D02*
X0160400Y0201276D01*
X0158976Y0203675D02*
X0014312Y0203675D01*
X0016748Y0206073D02*
X0158976Y0206073D01*
X0160315Y0208472D02*
X0019185Y0208472D01*
X0021622Y0210870D02*
X0161089Y0210870D01*
X0159176Y0213269D02*
X0024059Y0213269D01*
X0026496Y0215668D02*
X0159176Y0215668D01*
X0160192Y0218066D02*
X0028933Y0218066D01*
X0085417Y0196479D02*
X0088700Y0196479D01*
X0087200Y0194081D02*
X0087000Y0194081D01*
X0087000Y0191682D02*
X0087200Y0191682D01*
X0088754Y0189284D02*
X0085363Y0189284D01*
X0085011Y0186885D02*
X0089106Y0186885D01*
X0092200Y0186885D02*
X0092200Y0186885D01*
X0092200Y0187909D02*
X0092200Y0182909D01*
X0092200Y0187909D01*
X0092200Y0189284D02*
X0092200Y0189284D01*
X0092200Y0191682D02*
X0092200Y0191682D01*
X0092200Y0194081D02*
X0092200Y0194081D01*
X0092200Y0196479D02*
X0092200Y0196479D01*
X0097200Y0191682D02*
X0180092Y0191682D01*
X0180117Y0191701D02*
X0179506Y0191256D01*
X0178972Y0190722D01*
X0178528Y0190111D01*
X0178185Y0189438D01*
X0177951Y0188719D01*
X0177833Y0187973D01*
X0177833Y0184995D01*
X0177833Y0182017D01*
X0177951Y0181271D01*
X0178185Y0180553D01*
X0178528Y0179880D01*
X0178972Y0179268D01*
X0179506Y0178734D01*
X0180117Y0178290D01*
X0180791Y0177947D01*
X0181509Y0177713D01*
X0182255Y0177595D01*
X0182633Y0177595D01*
X0182633Y0184995D01*
X0182633Y0184995D01*
X0182633Y0177595D01*
X0183011Y0177595D01*
X0183757Y0177713D01*
X0184476Y0177947D01*
X0185149Y0178290D01*
X0185760Y0178734D01*
X0186294Y0179268D01*
X0186738Y0179880D01*
X0187081Y0180553D01*
X0187315Y0181271D01*
X0187433Y0182017D01*
X0187433Y0184995D01*
X0182633Y0184995D01*
X0177833Y0184995D01*
X0182633Y0184995D01*
X0182633Y0184995D01*
X0182633Y0184995D01*
X0187433Y0184995D01*
X0187433Y0187973D01*
X0187315Y0188719D01*
X0187081Y0189438D01*
X0186738Y0190111D01*
X0186294Y0190722D01*
X0185760Y0191256D01*
X0185149Y0191701D01*
X0184476Y0192044D01*
X0183757Y0192277D01*
X0183011Y0192395D01*
X0182633Y0192395D01*
X0182255Y0192395D01*
X0181509Y0192277D01*
X0180791Y0192044D01*
X0180117Y0191701D01*
X0182633Y0191682D02*
X0182633Y0191682D01*
X0182633Y0192395D02*
X0182633Y0184995D01*
X0182633Y0184995D01*
X0182633Y0192395D01*
X0185174Y0191682D02*
X0190480Y0191682D01*
X0188354Y0189284D02*
X0187131Y0189284D01*
X0187433Y0186885D02*
X0188033Y0186885D01*
X0188033Y0184487D02*
X0187433Y0184487D01*
X0187433Y0182088D02*
X0188033Y0182088D01*
X0188833Y0179690D02*
X0186601Y0179690D01*
X0182633Y0179690D02*
X0182633Y0179690D01*
X0182633Y0182088D02*
X0182633Y0182088D01*
X0182633Y0184487D02*
X0182633Y0184487D01*
X0182633Y0186885D02*
X0182633Y0186885D01*
X0182633Y0189284D02*
X0182633Y0189284D01*
X0178135Y0189284D02*
X0095646Y0189284D01*
X0095294Y0186885D02*
X0177833Y0186885D01*
X0177833Y0184487D02*
X0097200Y0184487D01*
X0097200Y0182909D02*
X0092200Y0182909D01*
X0092200Y0182909D01*
X0092200Y0182909D01*
X0097200Y0182909D01*
X0097200Y0182088D02*
X0177833Y0182088D01*
X0178666Y0179690D02*
X0096052Y0179690D01*
X0095244Y0177291D02*
X0197073Y0177291D01*
X0199472Y0174893D02*
X0097643Y0174893D01*
X0100041Y0172494D02*
X0205409Y0172494D01*
X0199018Y0170096D02*
X0195540Y0170096D01*
X0197255Y0167697D02*
X0197303Y0167697D01*
X0197769Y0162900D02*
X0196789Y0162900D01*
X0204900Y0160502D02*
X0112034Y0160502D01*
X0109635Y0162900D02*
X0177769Y0162900D01*
X0176979Y0165299D02*
X0107237Y0165299D01*
X0104838Y0167697D02*
X0177303Y0167697D01*
X0179018Y0170096D02*
X0102440Y0170096D01*
X0114432Y0158103D02*
X0204900Y0158103D01*
X0204900Y0155705D02*
X0116831Y0155705D01*
X0119229Y0153306D02*
X0204900Y0153306D01*
X0204900Y0150908D02*
X0121628Y0150908D01*
X0124189Y0141314D02*
X0125093Y0141314D01*
X0125041Y0138915D02*
X0124241Y0138915D01*
X0124241Y0136517D02*
X0125041Y0136517D01*
X0125057Y0134118D02*
X0124225Y0134118D01*
X0122793Y0131720D02*
X0126488Y0131720D01*
X0132793Y0131720D02*
X0149495Y0131720D01*
X0147096Y0134118D02*
X0134225Y0134118D01*
X0134241Y0136517D02*
X0144698Y0136517D01*
X0142299Y0138915D02*
X0134241Y0138915D01*
X0134189Y0141314D02*
X0139901Y0141314D01*
X0115093Y0141314D02*
X0114189Y0141314D01*
X0114241Y0138915D02*
X0115041Y0138915D01*
X0115041Y0136517D02*
X0114241Y0136517D01*
X0114225Y0134118D02*
X0115057Y0134118D01*
X0116488Y0131720D02*
X0112793Y0131720D01*
X0106488Y0131720D02*
X0102793Y0131720D01*
X0102247Y0131173D02*
X0103541Y0132467D01*
X0104241Y0134157D01*
X0104241Y0141187D01*
X0103541Y0142878D01*
X0102247Y0144172D01*
X0100556Y0144872D01*
X0098726Y0144872D01*
X0097035Y0144172D01*
X0095741Y0142878D01*
X0095041Y0141187D01*
X0095041Y0134157D01*
X0095741Y0132467D01*
X0097035Y0131173D01*
X0098726Y0130472D01*
X0100556Y0130472D01*
X0102247Y0131173D01*
X0104225Y0134118D02*
X0105057Y0134118D01*
X0105041Y0136517D02*
X0104241Y0136517D01*
X0104241Y0138915D02*
X0105041Y0138915D01*
X0105093Y0141314D02*
X0104189Y0141314D01*
X0102707Y0143712D02*
X0106575Y0143712D01*
X0096575Y0143712D02*
X0092707Y0143712D01*
X0092247Y0144172D02*
X0090556Y0144872D01*
X0088726Y0144872D01*
X0087035Y0144172D01*
X0085741Y0142878D01*
X0085041Y0141187D01*
X0085041Y0134157D01*
X0085741Y0132467D01*
X0087035Y0131173D01*
X0088726Y0130472D01*
X0090556Y0130472D01*
X0092247Y0131173D01*
X0093541Y0132467D01*
X0094241Y0134157D01*
X0094241Y0141187D01*
X0093541Y0142878D01*
X0092247Y0144172D01*
X0094189Y0141314D02*
X0095093Y0141314D01*
X0095041Y0138915D02*
X0094241Y0138915D01*
X0094241Y0136517D02*
X0095041Y0136517D01*
X0095057Y0134118D02*
X0094225Y0134118D01*
X0092793Y0131720D02*
X0096488Y0131720D01*
X0086488Y0131720D02*
X0082793Y0131720D01*
X0082247Y0131173D02*
X0083541Y0132467D01*
X0084241Y0134157D01*
X0084241Y0141187D01*
X0083541Y0142878D01*
X0082247Y0144172D01*
X0080556Y0144872D01*
X0078726Y0144872D01*
X0077035Y0144172D01*
X0075741Y0142878D01*
X0075041Y0141187D01*
X0075041Y0134157D01*
X0075741Y0132467D01*
X0077035Y0131173D01*
X0078726Y0130472D01*
X0080556Y0130472D01*
X0082247Y0131173D01*
X0084225Y0134118D02*
X0085057Y0134118D01*
X0085041Y0136517D02*
X0084241Y0136517D01*
X0084241Y0138915D02*
X0085041Y0138915D01*
X0085093Y0141314D02*
X0084189Y0141314D01*
X0082707Y0143712D02*
X0086575Y0143712D01*
X0076575Y0143712D02*
X0072707Y0143712D01*
X0074189Y0141314D02*
X0075093Y0141314D01*
X0075041Y0138915D02*
X0074241Y0138915D01*
X0074241Y0136517D02*
X0075041Y0136517D01*
X0075057Y0134118D02*
X0074225Y0134118D01*
X0072793Y0131720D02*
X0076488Y0131720D01*
X0075598Y0112532D02*
X0073684Y0112532D01*
X0074241Y0110133D02*
X0075041Y0110133D01*
X0075041Y0107734D02*
X0074241Y0107734D01*
X0074241Y0105336D02*
X0075041Y0105336D01*
X0075546Y0102937D02*
X0073736Y0102937D01*
X0083736Y0102937D02*
X0085546Y0102937D01*
X0085041Y0105336D02*
X0084241Y0105336D01*
X0084241Y0107734D02*
X0085041Y0107734D01*
X0085041Y0110133D02*
X0084241Y0110133D01*
X0083684Y0112532D02*
X0085598Y0112532D01*
X0093684Y0112532D02*
X0095405Y0112532D01*
X0094841Y0110133D02*
X0094241Y0110133D01*
X0094241Y0107734D02*
X0094841Y0107734D01*
X0094841Y0105336D02*
X0094241Y0105336D01*
X0093736Y0102937D02*
X0095342Y0102937D01*
X0099641Y0102937D02*
X0099641Y0102937D01*
X0099641Y0105336D02*
X0099641Y0105336D01*
X0099641Y0107734D02*
X0099641Y0107734D01*
X0099641Y0110133D02*
X0099641Y0110133D01*
X0099641Y0112532D02*
X0099641Y0112532D01*
X0103877Y0112532D02*
X0105598Y0112532D01*
X0105041Y0110133D02*
X0104441Y0110133D01*
X0104441Y0107734D02*
X0105041Y0107734D01*
X0105041Y0105336D02*
X0104441Y0105336D01*
X0103940Y0102937D02*
X0105546Y0102937D01*
X0065598Y0112532D02*
X0028672Y0112532D01*
X0186789Y0162900D02*
X0187769Y0162900D01*
X0187303Y0167697D02*
X0187255Y0167697D01*
X0185540Y0170096D02*
X0189018Y0170096D01*
X0197233Y0184487D02*
X0198033Y0184487D01*
X0198033Y0186885D02*
X0197233Y0186885D01*
X0196913Y0189284D02*
X0198354Y0189284D01*
X0200480Y0191682D02*
X0194786Y0191682D01*
X0204786Y0191682D02*
X0210480Y0191682D01*
X0208354Y0189284D02*
X0206913Y0189284D01*
X0207233Y0186885D02*
X0208033Y0186885D01*
X0208033Y0184487D02*
X0207233Y0184487D01*
X0217233Y0184487D02*
X0218033Y0184487D01*
X0218033Y0186885D02*
X0217233Y0186885D01*
X0216913Y0189284D02*
X0218354Y0189284D01*
X0220480Y0191682D02*
X0214786Y0191682D01*
X0224786Y0191682D02*
X0230092Y0191682D01*
X0230117Y0191701D02*
X0229506Y0191256D01*
X0228972Y0190722D01*
X0228528Y0190111D01*
X0228185Y0189438D01*
X0227951Y0188719D01*
X0227833Y0187973D01*
X0227833Y0184995D01*
X0232633Y0184995D01*
X0232633Y0184995D01*
X0232633Y0184995D01*
X0237433Y0184995D01*
X0237433Y0187973D01*
X0237315Y0188719D01*
X0237081Y0189438D01*
X0236738Y0190111D01*
X0236294Y0190722D01*
X0235760Y0191256D01*
X0235149Y0191701D01*
X0234476Y0192044D01*
X0233757Y0192277D01*
X0233011Y0192395D01*
X0232633Y0192395D01*
X0232255Y0192395D01*
X0231509Y0192277D01*
X0230791Y0192044D01*
X0230117Y0191701D01*
X0232633Y0191682D02*
X0232633Y0191682D01*
X0232633Y0192395D02*
X0232633Y0184995D01*
X0232633Y0184995D01*
X0232633Y0192395D01*
X0235174Y0191682D02*
X0240480Y0191682D01*
X0238354Y0189284D02*
X0237131Y0189284D01*
X0237433Y0186885D02*
X0238033Y0186885D01*
X0238033Y0184487D02*
X0237433Y0184487D01*
X0237433Y0182088D02*
X0238033Y0182088D01*
X0232633Y0186885D02*
X0232633Y0186885D01*
X0232633Y0189284D02*
X0232633Y0189284D01*
X0228135Y0189284D02*
X0226913Y0189284D01*
X0227233Y0186885D02*
X0227833Y0186885D01*
X0227833Y0184487D02*
X0227233Y0184487D01*
X0227233Y0182088D02*
X0227833Y0182088D01*
X0218033Y0182088D02*
X0217233Y0182088D01*
X0252633Y0184995D02*
X0252633Y0184995D01*
X0257433Y0184995D01*
X0257433Y0184919D01*
X0259650Y0187136D01*
X0259650Y0188396D01*
X0259962Y0189150D01*
X0257175Y0189150D01*
X0257315Y0188719D01*
X0257433Y0187973D01*
X0257433Y0184995D01*
X0252633Y0184995D01*
X0257433Y0186885D02*
X0259400Y0186885D01*
X0236538Y0201276D02*
X0168252Y0201276D01*
X0169676Y0203675D02*
X0234140Y0203675D01*
X0231741Y0206073D02*
X0205407Y0206073D01*
X0207957Y0208472D02*
X0210084Y0208472D01*
X0215182Y0208472D02*
X0220084Y0208472D01*
X0218286Y0210870D02*
X0216980Y0210870D01*
X0217233Y0213269D02*
X0218033Y0213269D01*
X0218033Y0215668D02*
X0217233Y0215668D01*
X0217233Y0218066D02*
X0218033Y0218066D01*
X0227233Y0218066D02*
X0228033Y0218066D01*
X0228033Y0215668D02*
X0227233Y0215668D01*
X0227233Y0213269D02*
X0228033Y0213269D01*
X0228286Y0210870D02*
X0226980Y0210870D01*
X0225182Y0208472D02*
X0230084Y0208472D01*
X0190043Y0206073D02*
X0169676Y0206073D01*
X0168337Y0208472D02*
X0180084Y0208472D01*
X0178286Y0210870D02*
X0167563Y0210870D01*
X0164326Y0214917D02*
X0182554Y0214917D01*
X0182633Y0214995D01*
X0178997Y0220465D02*
X0099859Y0220465D01*
X0102101Y0222863D02*
X0186000Y0222863D01*
X0186296Y0225262D02*
X0102570Y0225262D01*
X0101867Y0227660D02*
X0188575Y0227660D01*
X0187492Y0208472D02*
X0185182Y0208472D01*
X0164326Y0203675D02*
X0164326Y0203675D01*
X0164326Y0201276D02*
X0164326Y0201276D01*
X0092200Y0184487D02*
X0092200Y0184487D01*
X0202198Y0148509D02*
X0202574Y0148509D01*
X0216789Y0162900D02*
X0217769Y0162900D01*
X0226789Y0162900D02*
X0227769Y0162900D01*
X0236789Y0162900D02*
X0237632Y0162900D01*
X0242279Y0162900D02*
X0242279Y0162900D01*
X0242279Y0165299D02*
X0242279Y0165299D01*
X0242279Y0165861D02*
X0242279Y0165861D01*
X0246926Y0162900D02*
X0247769Y0162900D01*
X0479420Y0242051D02*
X0484980Y0242051D01*
X0482582Y0239653D02*
X0481818Y0239653D01*
X0489420Y0242051D02*
X0494980Y0242051D01*
X0492582Y0239653D02*
X0491818Y0239653D01*
X0492200Y0237254D02*
X0492200Y0237254D01*
X0491927Y0234856D02*
X0492473Y0234856D01*
X0509528Y0232457D02*
X0514589Y0232457D01*
X0512190Y0234856D02*
X0511927Y0234856D01*
X0582726Y0018990D02*
X0585690Y0018990D01*
X0584274Y0016591D02*
X0584141Y0016591D01*
X0584208Y0014193D02*
X0584208Y0014193D01*
X0584208Y0011794D02*
X0584208Y0011794D01*
X0584208Y0009396D02*
X0584208Y0009396D01*
X0594208Y0009396D02*
X0594208Y0009396D01*
X0594208Y0011794D02*
X0594208Y0011794D01*
X0594208Y0014193D02*
X0594208Y0014193D01*
X0594141Y0016591D02*
X0594274Y0016591D01*
X0595690Y0018990D02*
X0592726Y0018990D01*
D27*
X0472869Y0090468D02*
X0442948Y0090468D01*
X0442830Y0090586D01*
X0401413Y0090586D01*
X0398854Y0088027D01*
X0398854Y0080507D01*
X0398854Y0071294D01*
X0389129Y0061570D01*
X0389129Y0057318D01*
X0389129Y0037633D01*
X0389129Y0030940D01*
X0389129Y0012515D01*
X0399129Y0037633D02*
X0399129Y0057318D01*
D28*
X0367751Y0026806D03*
X0395113Y0022476D03*
X0472869Y0022279D03*
X0597279Y0055546D03*
X0280153Y0026806D03*
X0132909Y0026609D03*
D29*
X0187150Y0063850D02*
X0201100Y0049900D01*
X0207400Y0053500D02*
X0197500Y0063400D01*
X0197500Y0071950D01*
X0202476Y0065350D02*
X0202900Y0065200D01*
X0220450Y0047650D01*
X0236200Y0047650D01*
X0234400Y0060700D02*
X0210550Y0060700D01*
X0207850Y0063400D01*
X0207850Y0066550D01*
X0187600Y0086800D01*
X0187600Y0097150D01*
X0140350Y0144400D01*
X0114700Y0144400D01*
X0077800Y0181300D01*
X0077800Y0184450D01*
X0081850Y0188500D01*
X0081850Y0192550D01*
X0082200Y0192909D01*
X0082200Y0182909D02*
X0082300Y0182650D01*
X0086350Y0182650D01*
X0122800Y0146200D01*
X0198850Y0146200D01*
X0197500Y0139900D02*
X0207400Y0149800D01*
X0207400Y0167800D01*
X0210100Y0170500D01*
X0227650Y0170500D01*
X0232150Y0166000D01*
X0232279Y0165861D01*
X0212279Y0165861D02*
X0211900Y0165550D01*
X0211900Y0142150D01*
X0207400Y0137650D01*
X0207400Y0090400D01*
X0232150Y0065650D01*
X0232476Y0065350D01*
X0237100Y0063400D02*
X0237100Y0090400D01*
X0232600Y0094900D01*
X0232476Y0095350D01*
X0212350Y0078700D02*
X0197500Y0093550D01*
X0197500Y0139900D01*
X0202279Y0165861D02*
X0202450Y0166000D01*
X0208750Y0172300D01*
X0262750Y0172300D01*
X0267250Y0167800D01*
X0267250Y0080500D01*
X0282100Y0065650D01*
X0282476Y0065350D01*
X0237100Y0063400D02*
X0234400Y0060700D01*
X0212476Y0065350D02*
X0212350Y0065650D01*
X0212350Y0078700D01*
X0187150Y0084550D02*
X0182650Y0089050D01*
X0182650Y0094900D01*
X0182476Y0095350D01*
X0187150Y0084550D02*
X0187150Y0063850D01*
X0192550Y0063400D02*
X0192550Y0065200D01*
X0192476Y0065350D01*
X0192550Y0063400D02*
X0222250Y0033700D01*
X0257350Y0026500D02*
X0269500Y0026500D01*
X0278950Y0017050D01*
X0305500Y0017050D01*
X0361750Y0095350D02*
X0481900Y0095350D01*
X0526900Y0140350D01*
X0526900Y0178150D01*
X0573250Y0224500D01*
X0573250Y0227200D01*
X0573263Y0227318D01*
X0563350Y0232600D02*
X0502600Y0171850D01*
X0448600Y0171850D01*
X0447700Y0172750D01*
X0496924Y0176294D02*
X0497200Y0176350D01*
X0497200Y0179500D01*
X0520600Y0202900D01*
X0523300Y0202900D01*
X0526900Y0206500D01*
X0526900Y0210100D01*
X0524200Y0212800D01*
X0505300Y0212800D01*
X0481000Y0237100D01*
X0477400Y0237100D01*
X0477200Y0237200D01*
X0521950Y0208300D02*
X0409900Y0208300D01*
X0381100Y0237100D01*
X0377500Y0237100D01*
X0377200Y0237200D01*
X0388300Y0227200D02*
X0467950Y0147550D01*
X0507100Y0147550D01*
X0507200Y0147200D01*
X0509350Y0142600D02*
X0411700Y0142600D01*
X0330700Y0223600D01*
X0193000Y0223600D01*
X0191650Y0227200D02*
X0188500Y0224050D01*
X0188500Y0211000D01*
X0191200Y0208300D01*
X0204250Y0208300D01*
X0210550Y0214600D01*
X0212350Y0214600D01*
X0212633Y0214995D01*
X0211000Y0221800D02*
X0204250Y0215050D01*
X0202900Y0215050D01*
X0202633Y0214995D01*
X0211000Y0221800D02*
X0233950Y0221800D01*
X0238450Y0217300D01*
X0238450Y0205600D01*
X0250600Y0193450D01*
X0265450Y0193450D01*
X0287500Y0171400D01*
X0287500Y0150700D01*
X0301900Y0136300D01*
X0302279Y0135861D01*
X0300550Y0137200D01*
X0283900Y0120550D01*
X0282100Y0120550D01*
X0282082Y0120546D01*
X0277150Y0118750D02*
X0277150Y0124150D01*
X0287050Y0134050D01*
X0287050Y0148450D01*
X0282550Y0152950D01*
X0282550Y0165550D01*
X0282279Y0165861D01*
X0292000Y0166000D02*
X0292000Y0169600D01*
X0254650Y0206950D01*
X0242050Y0206950D01*
X0233050Y0208300D02*
X0249700Y0191650D01*
X0264550Y0191650D01*
X0277600Y0178600D01*
X0277600Y0140800D01*
X0282100Y0136300D01*
X0282279Y0135861D01*
X0277150Y0118750D02*
X0280300Y0115600D01*
X0437350Y0115600D01*
X0406750Y0131800D02*
X0403150Y0128200D01*
X0339700Y0128200D01*
X0302350Y0165550D01*
X0302279Y0165861D01*
X0292279Y0165861D02*
X0292000Y0166000D01*
X0262750Y0184000D02*
X0255100Y0176350D01*
X0201550Y0176350D01*
X0193000Y0184900D01*
X0192633Y0184995D01*
X0202633Y0184995D02*
X0202900Y0184900D01*
X0209650Y0178150D01*
X0254200Y0178150D01*
X0263650Y0187600D01*
X0262750Y0184000D02*
X0267250Y0184000D01*
X0233050Y0208300D02*
X0233050Y0214600D01*
X0232633Y0214995D01*
X0191650Y0227200D02*
X0388300Y0227200D01*
X0521950Y0208300D02*
X0522200Y0208145D01*
X0563350Y0232600D02*
X0563350Y0235300D01*
X0563420Y0235586D01*
X0522200Y0167239D02*
X0521950Y0166900D01*
X0521950Y0155200D01*
X0509350Y0142600D01*
X0512200Y0132200D02*
X0512050Y0131800D01*
X0406750Y0131800D01*
D30*
X0437350Y0115600D03*
X0361750Y0095350D03*
X0236200Y0047650D03*
X0207400Y0053500D03*
X0201100Y0049900D03*
X0222250Y0033700D03*
X0257350Y0026500D03*
X0305500Y0017050D03*
X0197500Y0071950D03*
X0198850Y0146200D03*
X0267250Y0184000D03*
X0263650Y0187600D03*
X0242050Y0206950D03*
X0193000Y0223600D03*
X0447700Y0172750D03*
D31*
X0021885Y0167554D03*
X0021885Y0143932D03*
X0021885Y0120310D03*
X0021885Y0191176D03*
M02*
